<?xml version="1.0" encoding="UTF-8" standalone="no"?>
<!DOCTYPE svg PUBLIC "-//W3C//DTD SVG 1.1//EN"
 "http://www.w3.org/Graphics/SVG/1.1/DTD/svg11.dtd">
<!-- Generated by graphviz version 2.43.0 (0)
 -->
<!-- Title: G Pages: 1 -->
<svg width="2139pt" height="706pt"
 viewBox="0.00 0.00 2138.50 706.00" xmlns="http://www.w3.org/2000/svg" xmlns:xlink="http://www.w3.org/1999/xlink">
<g id="graph0" class="graph" transform="scale(1 1) rotate(0) translate(4 702)">
<title>G</title>
<polygon fill="white" stroke="transparent" points="-4,4 -4,-702 2134.5,-702 2134.5,4 -4,4"/>
<!-- 1d136855&#45;47ea&#45;487c&#45;8c21&#45;453c48014653 -->
<g id="node1" class="node">
<title>1d136855&#45;47ea&#45;487c&#45;8c21&#45;453c48014653</title>
<polygon fill="none" stroke="black" points="930.5,-698 869.5,-698 869.5,-637 930.5,-637 930.5,-698"/>
<text text-anchor="middle" x="900" y="-659" font-family="Arial Unicode MS" font-size="10.00">Program </text>
</g>
<!-- 0c09de40&#45;6dd2&#45;4c1d&#45;8ecc&#45;8f61037c25c4 -->
<g id="node2" class="node">
<title>0c09de40&#45;6dd2&#45;4c1d&#45;8ecc&#45;8f61037c25c4</title>
<polygon fill="none" stroke="black" points="906,-601 792,-601 792,-487 906,-487 906,-601"/>
<text text-anchor="middle" x="849" y="-535.5" font-family="Arial Unicode MS" font-size="10.00">ExecutableProgram </text>
</g>
<!-- 1d136855&#45;47ea&#45;487c&#45;8c21&#45;453c48014653&#45;&gt;0c09de40&#45;6dd2&#45;4c1d&#45;8ecc&#45;8f61037c25c4 -->
<g id="edge1" class="edge">
<title>1d136855&#45;47ea&#45;487c&#45;8c21&#45;453c48014653&#45;&gt;0c09de40&#45;6dd2&#45;4c1d&#45;8ecc&#45;8f61037c25c4</title>
<path fill="none" stroke="black" d="M887.52,-636.78C884.2,-628.85 880.47,-619.96 876.67,-610.92"/>
<polygon fill="black" stroke="black" points="879.8,-609.34 872.71,-601.48 873.35,-612.05 879.8,-609.34"/>
</g>
<!-- 13e0abf2&#45;c621&#45;43a1&#45;8d87&#45;b1cb420cd69d -->
<g id="node56" class="node">
<title>13e0abf2&#45;c621&#45;43a1&#45;8d87&#45;b1cb420cd69d</title>
<polygon fill="none" stroke="black" points="980,-572 924,-572 924,-516 980,-516 980,-572"/>
<text text-anchor="middle" x="952" y="-535.5" font-family="Arial Unicode MS" font-size="10.00">&lt;EOF&gt; </text>
</g>
<!-- 1d136855&#45;47ea&#45;487c&#45;8c21&#45;453c48014653&#45;&gt;13e0abf2&#45;c621&#45;43a1&#45;8d87&#45;b1cb420cd69d -->
<g id="edge55" class="edge">
<title>1d136855&#45;47ea&#45;487c&#45;8c21&#45;453c48014653&#45;&gt;13e0abf2&#45;c621&#45;43a1&#45;8d87&#45;b1cb420cd69d</title>
<path fill="none" stroke="black" d="M912.72,-636.78C919.82,-620.18 928.74,-599.36 936.27,-581.75"/>
<polygon fill="black" stroke="black" points="939.58,-582.91 940.3,-572.34 933.15,-580.15 939.58,-582.91"/>
</g>
<!-- ae9e7bc0&#45;947d&#45;4a32&#45;82af&#45;acbaffabb129 -->
<g id="node3" class="node">
<title>ae9e7bc0&#45;947d&#45;4a32&#45;82af&#45;acbaffabb129</title>
<polygon fill="none" stroke="black" points="131.5,-441 50.5,-441 50.5,-360 131.5,-360 131.5,-441"/>
<text text-anchor="middle" x="91" y="-392" font-family="Arial Unicode MS" font-size="10.00">ProgramUnit </text>
</g>
<!-- 0c09de40&#45;6dd2&#45;4c1d&#45;8ecc&#45;8f61037c25c4&#45;&gt;ae9e7bc0&#45;947d&#45;4a32&#45;82af&#45;acbaffabb129 -->
<g id="edge2" class="edge">
<title>0c09de40&#45;6dd2&#45;4c1d&#45;8ecc&#45;8f61037c25c4&#45;&gt;ae9e7bc0&#45;947d&#45;4a32&#45;82af&#45;acbaffabb129</title>
<path fill="none" stroke="black" d="M791.74,-538.37C681.35,-528.59 431.97,-502.41 228,-451 198.64,-443.6 166.79,-432.3 141.19,-422.36"/>
<polygon fill="black" stroke="black" points="142.29,-419.03 131.7,-418.63 139.72,-425.55 142.29,-419.03"/>
</g>
<!-- 2cbf4027&#45;7388&#45;4f7b&#45;bfae&#45;561963628fbb -->
<g id="node6" class="node">
<title>2cbf4027&#45;7388&#45;4f7b&#45;bfae&#45;561963628fbb</title>
<polygon fill="none" stroke="black" points="318.5,-441 237.5,-441 237.5,-360 318.5,-360 318.5,-441"/>
<text text-anchor="middle" x="278" y="-392" font-family="Arial Unicode MS" font-size="10.00">ProgramUnit </text>
</g>
<!-- 0c09de40&#45;6dd2&#45;4c1d&#45;8ecc&#45;8f61037c25c4&#45;&gt;2cbf4027&#45;7388&#45;4f7b&#45;bfae&#45;561963628fbb -->
<g id="edge5" class="edge">
<title>0c09de40&#45;6dd2&#45;4c1d&#45;8ecc&#45;8f61037c25c4&#45;&gt;2cbf4027&#45;7388&#45;4f7b&#45;bfae&#45;561963628fbb</title>
<path fill="none" stroke="black" d="M791.9,-543.79C692.12,-542.88 481.97,-530.69 328,-451 325.72,-449.82 323.48,-448.5 321.29,-447.07"/>
<polygon fill="black" stroke="black" points="323.22,-444.15 313.07,-441.09 319.1,-449.81 323.22,-444.15"/>
</g>
<!-- 0e6cf380&#45;8802&#45;4fc7&#45;81ca&#45;44c61ebb9f72 -->
<g id="node11" class="node">
<title>0e6cf380&#45;8802&#45;4fc7&#45;81ca&#45;44c61ebb9f72</title>
<polygon fill="none" stroke="black" points="373,-418.5 337,-418.5 337,-382.5 373,-382.5 373,-418.5"/>
<text text-anchor="middle" x="355" y="-392" font-family="Arial Unicode MS" font-size="10.00"> </text>
</g>
<!-- 0c09de40&#45;6dd2&#45;4c1d&#45;8ecc&#45;8f61037c25c4&#45;&gt;0e6cf380&#45;8802&#45;4fc7&#45;81ca&#45;44c61ebb9f72 -->
<g id="edge10" class="edge">
<title>0c09de40&#45;6dd2&#45;4c1d&#45;8ecc&#45;8f61037c25c4&#45;&gt;0e6cf380&#45;8802&#45;4fc7&#45;81ca&#45;44c61ebb9f72</title>
<path fill="none" stroke="black" d="M791.89,-537.81C682.1,-526.87 446.71,-498.48 382,-451 374.2,-445.28 368.4,-436.6 364.22,-428.1"/>
<polygon fill="black" stroke="black" points="367.35,-426.52 360.16,-418.74 360.93,-429.31 367.35,-426.52"/>
</g>
<!-- bbf1c0e5&#45;e3e9&#45;4162&#45;a121&#45;568375b02d24 -->
<g id="node12" class="node">
<title>bbf1c0e5&#45;e3e9&#45;4162&#45;a121&#45;568375b02d24</title>
<polygon fill="none" stroke="black" points="472.5,-441 391.5,-441 391.5,-360 472.5,-360 472.5,-441"/>
<text text-anchor="middle" x="432" y="-392" font-family="Arial Unicode MS" font-size="10.00">ProgramUnit </text>
</g>
<!-- 0c09de40&#45;6dd2&#45;4c1d&#45;8ecc&#45;8f61037c25c4&#45;&gt;bbf1c0e5&#45;e3e9&#45;4162&#45;a121&#45;568375b02d24 -->
<g id="edge11" class="edge">
<title>0c09de40&#45;6dd2&#45;4c1d&#45;8ecc&#45;8f61037c25c4&#45;&gt;bbf1c0e5&#45;e3e9&#45;4162&#45;a121&#45;568375b02d24</title>
<path fill="none" stroke="black" d="M791.78,-538.11C716.49,-529.63 582.01,-507.34 482,-451 480.01,-449.88 478.05,-448.66 476.11,-447.36"/>
<polygon fill="black" stroke="black" points="477.97,-444.38 467.85,-441.21 473.79,-449.99 477.97,-444.38"/>
</g>
<!-- 5162cb9e&#45;99e5&#45;4dc2&#45;9513&#45;e70a602eba1d -->
<g id="node16" class="node">
<title>5162cb9e&#45;99e5&#45;4dc2&#45;9513&#45;e70a602eba1d</title>
<polygon fill="none" stroke="black" points="527,-418.5 491,-418.5 491,-382.5 527,-382.5 527,-418.5"/>
<text text-anchor="middle" x="509" y="-392" font-family="Arial Unicode MS" font-size="10.00"> </text>
</g>
<!-- 0c09de40&#45;6dd2&#45;4c1d&#45;8ecc&#45;8f61037c25c4&#45;&gt;5162cb9e&#45;99e5&#45;4dc2&#45;9513&#45;e70a602eba1d -->
<g id="edge15" class="edge">
<title>0c09de40&#45;6dd2&#45;4c1d&#45;8ecc&#45;8f61037c25c4&#45;&gt;5162cb9e&#45;99e5&#45;4dc2&#45;9513&#45;e70a602eba1d</title>
<path fill="none" stroke="black" d="M791.84,-539.26C724.05,-532.12 610.84,-511.36 536,-451 528.58,-445.02 522.9,-436.43 518.71,-428.07"/>
<polygon fill="black" stroke="black" points="521.88,-426.59 514.59,-418.9 515.49,-429.46 521.88,-426.59"/>
</g>
<!-- 891348c9&#45;20b9&#45;4fc4&#45;bde7&#45;abfb5c404230 -->
<g id="node17" class="node">
<title>891348c9&#45;20b9&#45;4fc4&#45;bde7&#45;abfb5c404230</title>
<polygon fill="none" stroke="black" points="646.5,-451 545.5,-451 545.5,-350 646.5,-350 646.5,-451"/>
<text text-anchor="middle" x="596" y="-392" font-family="Arial Unicode MS" font-size="10.00">output_message </text>
</g>
<!-- 0c09de40&#45;6dd2&#45;4c1d&#45;8ecc&#45;8f61037c25c4&#45;&gt;891348c9&#45;20b9&#45;4fc4&#45;bde7&#45;abfb5c404230 -->
<g id="edge16" class="edge">
<title>0c09de40&#45;6dd2&#45;4c1d&#45;8ecc&#45;8f61037c25c4&#45;&gt;891348c9&#45;20b9&#45;4fc4&#45;bde7&#45;abfb5c404230</title>
<path fill="none" stroke="black" d="M791.75,-520.11C752.29,-503.29 699.36,-478.63 656,-451 655.71,-450.82 655.42,-450.63 655.13,-450.45"/>
<polygon fill="black" stroke="black" points="657,-447.48 646.76,-444.76 653.07,-453.27 657,-447.48"/>
</g>
<!-- bb183ca6&#45;533e&#45;4756&#45;94d2&#45;6c29d8d730b6 -->
<g id="node18" class="node">
<title>bb183ca6&#45;533e&#45;4756&#45;94d2&#45;6c29d8d730b6</title>
<polygon fill="none" stroke="black" points="701,-418.5 665,-418.5 665,-382.5 701,-382.5 701,-418.5"/>
<text text-anchor="middle" x="683" y="-392" font-family="Arial Unicode MS" font-size="10.00">if </text>
</g>
<!-- 0c09de40&#45;6dd2&#45;4c1d&#45;8ecc&#45;8f61037c25c4&#45;&gt;bb183ca6&#45;533e&#45;4756&#45;94d2&#45;6c29d8d730b6 -->
<g id="edge17" class="edge">
<title>0c09de40&#45;6dd2&#45;4c1d&#45;8ecc&#45;8f61037c25c4&#45;&gt;bb183ca6&#45;533e&#45;4756&#45;94d2&#45;6c29d8d730b6</title>
<path fill="none" stroke="black" d="M791.85,-513.75C764.7,-497.85 733.19,-476.26 710,-451 703.81,-444.26 698.55,-435.85 694.35,-427.88"/>
<polygon fill="black" stroke="black" points="697.47,-426.3 689.93,-418.86 691.19,-429.38 697.47,-426.3"/>
</g>
<!-- 3bf2ee4f&#45;d562&#45;465b&#45;8df4&#45;c3dd7903bd8b -->
<g id="node19" class="node">
<title>3bf2ee4f&#45;d562&#45;465b&#45;8df4&#45;c3dd7903bd8b</title>
<polygon fill="none" stroke="black" points="775,-428.5 719,-428.5 719,-372.5 775,-372.5 775,-428.5"/>
<text text-anchor="middle" x="747" y="-392" font-family="Arial Unicode MS" font-size="10.00">defined </text>
</g>
<!-- 0c09de40&#45;6dd2&#45;4c1d&#45;8ecc&#45;8f61037c25c4&#45;&gt;3bf2ee4f&#45;d562&#45;465b&#45;8df4&#45;c3dd7903bd8b -->
<g id="edge18" class="edge">
<title>0c09de40&#45;6dd2&#45;4c1d&#45;8ecc&#45;8f61037c25c4&#45;&gt;3bf2ee4f&#45;d562&#45;465b&#45;8df4&#45;c3dd7903bd8b</title>
<path fill="none" stroke="black" d="M808.39,-486.67C796.32,-469.92 783.43,-452.04 772.6,-437.01"/>
<polygon fill="black" stroke="black" points="775.17,-434.59 766.48,-428.52 769.49,-438.68 775.17,-434.59"/>
</g>
<!-- 99052813&#45;f9ea&#45;4f7f&#45;bbab&#45;78a7c7338161 -->
<g id="node20" class="node">
<title>99052813&#45;f9ea&#45;4f7f&#45;bbab&#45;78a7c7338161</title>
<polygon fill="none" stroke="black" points="829,-418.5 793,-418.5 793,-382.5 829,-382.5 829,-418.5"/>
<text text-anchor="middle" x="811" y="-392" font-family="Arial Unicode MS" font-size="10.00">A </text>
</g>
<!-- 0c09de40&#45;6dd2&#45;4c1d&#45;8ecc&#45;8f61037c25c4&#45;&gt;99052813&#45;f9ea&#45;4f7f&#45;bbab&#45;78a7c7338161 -->
<g id="edge19" class="edge">
<title>0c09de40&#45;6dd2&#45;4c1d&#45;8ecc&#45;8f61037c25c4&#45;&gt;99052813&#45;f9ea&#45;4f7f&#45;bbab&#45;78a7c7338161</title>
<path fill="none" stroke="black" d="M833.87,-486.67C828.51,-466.69 822.71,-445.11 818.3,-428.67"/>
<polygon fill="black" stroke="black" points="821.59,-427.43 815.61,-418.68 814.83,-429.25 821.59,-427.43"/>
</g>
<!-- bbf59aeb&#45;36d6&#45;43c5&#45;8c88&#45;47eb019b038c -->
<g id="node21" class="node">
<title>bbf59aeb&#45;36d6&#45;43c5&#45;8c88&#45;47eb019b038c</title>
<polygon fill="none" stroke="black" points="928.5,-441 847.5,-441 847.5,-360 928.5,-360 928.5,-441"/>
<text text-anchor="middle" x="888" y="-392" font-family="Arial Unicode MS" font-size="10.00">ProgramUnit </text>
</g>
<!-- 0c09de40&#45;6dd2&#45;4c1d&#45;8ecc&#45;8f61037c25c4&#45;&gt;bbf59aeb&#45;36d6&#45;43c5&#45;8c88&#45;47eb019b038c -->
<g id="edge20" class="edge">
<title>0c09de40&#45;6dd2&#45;4c1d&#45;8ecc&#45;8f61037c25c4&#45;&gt;bbf59aeb&#45;36d6&#45;43c5&#45;8c88&#45;47eb019b038c</title>
<path fill="none" stroke="black" d="M864.53,-486.67C867.78,-474.87 871.19,-462.5 874.36,-450.97"/>
<polygon fill="black" stroke="black" points="877.81,-451.66 877.09,-441.09 871.06,-449.8 877.81,-451.66"/>
</g>
<!-- da13034e&#45;d52b&#45;4dc3&#45;8575&#45;53de368459ab -->
<g id="node25" class="node">
<title>da13034e&#45;d52b&#45;4dc3&#45;8575&#45;53de368459ab</title>
<polygon fill="none" stroke="black" points="983,-418.5 947,-418.5 947,-382.5 983,-382.5 983,-418.5"/>
<text text-anchor="middle" x="965" y="-392" font-family="Arial Unicode MS" font-size="10.00"> </text>
</g>
<!-- 0c09de40&#45;6dd2&#45;4c1d&#45;8ecc&#45;8f61037c25c4&#45;&gt;da13034e&#45;d52b&#45;4dc3&#45;8575&#45;53de368459ab -->
<g id="edge24" class="edge">
<title>0c09de40&#45;6dd2&#45;4c1d&#45;8ecc&#45;8f61037c25c4&#45;&gt;da13034e&#45;d52b&#45;4dc3&#45;8575&#45;53de368459ab</title>
<path fill="none" stroke="black" d="M906.25,-487.54C917.01,-475.93 927.77,-463.42 937,-451 942.36,-443.79 947.45,-435.45 951.78,-427.69"/>
<polygon fill="black" stroke="black" points="954.99,-429.11 956.65,-418.64 948.83,-425.79 954.99,-429.11"/>
</g>
<!-- 4ec3b109&#45;f726&#45;4ebb&#45;ab43&#45;8f8b3f7ffeaa -->
<g id="node26" class="node">
<title>4ec3b109&#45;f726&#45;4ebb&#45;ab43&#45;8f8b3f7ffeaa</title>
<polygon fill="none" stroke="black" points="1037,-418.5 1001,-418.5 1001,-382.5 1037,-382.5 1037,-418.5"/>
<text text-anchor="middle" x="1019" y="-392" font-family="Arial Unicode MS" font-size="10.00">elif </text>
</g>
<!-- 0c09de40&#45;6dd2&#45;4c1d&#45;8ecc&#45;8f61037c25c4&#45;&gt;4ec3b109&#45;f726&#45;4ebb&#45;ab43&#45;8f8b3f7ffeaa -->
<g id="edge25" class="edge">
<title>0c09de40&#45;6dd2&#45;4c1d&#45;8ecc&#45;8f61037c25c4&#45;&gt;4ec3b109&#45;f726&#45;4ebb&#45;ab43&#45;8f8b3f7ffeaa</title>
<path fill="none" stroke="black" d="M906.27,-492.91C909.17,-490.85 912.09,-488.87 915,-487 946.8,-466.6 964.47,-476.87 992,-451 998.77,-444.64 1004.23,-436.19 1008.42,-428.08"/>
<polygon fill="black" stroke="black" points="1011.67,-429.4 1012.76,-418.86 1005.33,-426.42 1011.67,-429.4"/>
</g>
<!-- 66fd4e98&#45;63fc&#45;4ad4&#45;a885&#45;10dc3b05afe4 -->
<g id="node27" class="node">
<title>66fd4e98&#45;63fc&#45;4ad4&#45;a885&#45;10dc3b05afe4</title>
<polygon fill="none" stroke="black" points="1136.5,-441 1055.5,-441 1055.5,-360 1136.5,-360 1136.5,-441"/>
<text text-anchor="middle" x="1096" y="-392" font-family="Arial Unicode MS" font-size="10.00">ProgramUnit </text>
</g>
<!-- 0c09de40&#45;6dd2&#45;4c1d&#45;8ecc&#45;8f61037c25c4&#45;&gt;66fd4e98&#45;63fc&#45;4ad4&#45;a885&#45;10dc3b05afe4 -->
<g id="edge26" class="edge">
<title>0c09de40&#45;6dd2&#45;4c1d&#45;8ecc&#45;8f61037c25c4&#45;&gt;66fd4e98&#45;63fc&#45;4ad4&#45;a885&#45;10dc3b05afe4</title>
<path fill="none" stroke="black" d="M906.29,-492.04C909.17,-490.24 912.08,-488.54 915,-487 968.39,-458.8 993.73,-481.23 1046,-451 1047.98,-449.86 1049.93,-448.62 1051.85,-447.3"/>
<polygon fill="black" stroke="black" points="1054.2,-449.91 1060.08,-441.1 1049.99,-444.32 1054.2,-449.91"/>
</g>
<!-- f5cf119d&#45;def6&#45;46ae&#45;98dd&#45;d9b2a8fbcd01 -->
<g id="node30" class="node">
<title>f5cf119d&#45;def6&#45;46ae&#45;98dd&#45;d9b2a8fbcd01</title>
<polygon fill="none" stroke="black" points="1191,-418.5 1155,-418.5 1155,-382.5 1191,-382.5 1191,-418.5"/>
<text text-anchor="middle" x="1173" y="-392" font-family="Arial Unicode MS" font-size="10.00"> </text>
</g>
<!-- 0c09de40&#45;6dd2&#45;4c1d&#45;8ecc&#45;8f61037c25c4&#45;&gt;f5cf119d&#45;def6&#45;46ae&#45;98dd&#45;d9b2a8fbcd01 -->
<g id="edge29" class="edge">
<title>0c09de40&#45;6dd2&#45;4c1d&#45;8ecc&#45;8f61037c25c4&#45;&gt;f5cf119d&#45;def6&#45;46ae&#45;98dd&#45;d9b2a8fbcd01</title>
<path fill="none" stroke="black" d="M906.09,-491.62C909.02,-489.93 911.99,-488.38 915,-487 1009.07,-443.92 1059.94,-509.9 1145,-451 1153.02,-445.45 1159.02,-436.8 1163.37,-428.29"/>
<polygon fill="black" stroke="black" points="1166.68,-429.45 1167.59,-418.89 1160.3,-426.58 1166.68,-429.45"/>
</g>
<!-- cccce65b&#45;f355&#45;44d6&#45;afbd&#45;164bd88ff3a0 -->
<g id="node31" class="node">
<title>cccce65b&#45;f355&#45;44d6&#45;afbd&#45;164bd88ff3a0</title>
<polygon fill="none" stroke="black" points="1290.5,-441 1209.5,-441 1209.5,-360 1290.5,-360 1290.5,-441"/>
<text text-anchor="middle" x="1250" y="-392" font-family="Arial Unicode MS" font-size="10.00">ProgramUnit </text>
</g>
<!-- 0c09de40&#45;6dd2&#45;4c1d&#45;8ecc&#45;8f61037c25c4&#45;&gt;cccce65b&#45;f355&#45;44d6&#45;afbd&#45;164bd88ff3a0 -->
<g id="edge30" class="edge">
<title>0c09de40&#45;6dd2&#45;4c1d&#45;8ecc&#45;8f61037c25c4&#45;&gt;cccce65b&#45;f355&#45;44d6&#45;afbd&#45;164bd88ff3a0</title>
<path fill="none" stroke="black" d="M906.04,-491.51C908.98,-489.85 911.97,-488.33 915,-487 1031.85,-435.57 1085.2,-506.88 1200,-451 1202.35,-449.85 1204.67,-448.55 1206.92,-447.13"/>
<polygon fill="black" stroke="black" points="1209.24,-449.77 1215.35,-441.12 1205.18,-444.08 1209.24,-449.77"/>
</g>
<!-- c8e2f052&#45;3a0b&#45;46f0&#45;a03d&#45;1a447e9b75a5 -->
<g id="node36" class="node">
<title>c8e2f052&#45;3a0b&#45;46f0&#45;a03d&#45;1a447e9b75a5</title>
<polygon fill="none" stroke="black" points="1345,-418.5 1309,-418.5 1309,-382.5 1345,-382.5 1345,-418.5"/>
<text text-anchor="middle" x="1327" y="-392" font-family="Arial Unicode MS" font-size="10.00"> </text>
</g>
<!-- 0c09de40&#45;6dd2&#45;4c1d&#45;8ecc&#45;8f61037c25c4&#45;&gt;c8e2f052&#45;3a0b&#45;46f0&#45;a03d&#45;1a447e9b75a5 -->
<g id="edge35" class="edge">
<title>0c09de40&#45;6dd2&#45;4c1d&#45;8ecc&#45;8f61037c25c4&#45;&gt;c8e2f052&#45;3a0b&#45;46f0&#45;a03d&#45;1a447e9b75a5</title>
<path fill="none" stroke="black" d="M906.39,-491.16C909.22,-489.63 912.09,-488.22 915,-487 993.99,-453.74 1227.06,-497.59 1299,-451 1307.4,-445.56 1313.54,-436.67 1317.89,-427.91"/>
<polygon fill="black" stroke="black" points="1321.14,-429.2 1321.93,-418.63 1314.72,-426.41 1321.14,-429.2"/>
</g>
<!-- d1c674ec&#45;d2c1&#45;4d2e&#45;803d&#45;378113a2fd49 -->
<g id="node37" class="node">
<title>d1c674ec&#45;d2c1&#45;4d2e&#45;803d&#45;378113a2fd49</title>
<polygon fill="none" stroke="black" points="1570.5,-441 1489.5,-441 1489.5,-360 1570.5,-360 1570.5,-441"/>
<text text-anchor="middle" x="1530" y="-392" font-family="Arial Unicode MS" font-size="10.00">ProgramUnit </text>
</g>
<!-- 0c09de40&#45;6dd2&#45;4c1d&#45;8ecc&#45;8f61037c25c4&#45;&gt;d1c674ec&#45;d2c1&#45;4d2e&#45;803d&#45;378113a2fd49 -->
<g id="edge36" class="edge">
<title>0c09de40&#45;6dd2&#45;4c1d&#45;8ecc&#45;8f61037c25c4&#45;&gt;d1c674ec&#45;d2c1&#45;4d2e&#45;803d&#45;378113a2fd49</title>
<path fill="none" stroke="black" d="M906.37,-491.12C909.2,-489.59 912.08,-488.21 915,-487 1095.86,-412.08 1161.33,-485.66 1354,-451 1396.93,-443.28 1444.49,-429.58 1479.34,-418.55"/>
<polygon fill="black" stroke="black" points="1480.81,-421.75 1489.27,-415.37 1478.68,-415.08 1480.81,-421.75"/>
</g>
<!-- 8b96c1ac&#45;17a8&#45;42f5&#45;90f5&#45;074ddf4359e0 -->
<g id="node42" class="node">
<title>8b96c1ac&#45;17a8&#45;42f5&#45;90f5&#45;074ddf4359e0</title>
<polygon fill="none" stroke="black" points="1762.5,-441 1681.5,-441 1681.5,-360 1762.5,-360 1762.5,-441"/>
<text text-anchor="middle" x="1722" y="-392" font-family="Arial Unicode MS" font-size="10.00">ProgramUnit </text>
</g>
<!-- 0c09de40&#45;6dd2&#45;4c1d&#45;8ecc&#45;8f61037c25c4&#45;&gt;8b96c1ac&#45;17a8&#45;42f5&#45;90f5&#45;074ddf4359e0 -->
<g id="edge41" class="edge">
<title>0c09de40&#45;6dd2&#45;4c1d&#45;8ecc&#45;8f61037c25c4&#45;&gt;8b96c1ac&#45;17a8&#45;42f5&#45;90f5&#45;074ddf4359e0</title>
<path fill="none" stroke="black" d="M906.33,-491.02C909.17,-489.52 912.07,-488.17 915,-487 1052.29,-432.34 1433.99,-479.45 1579,-451 1610.57,-444.81 1644.66,-433.21 1671.63,-422.8"/>
<polygon fill="black" stroke="black" points="1673.2,-425.94 1681.23,-419.03 1670.64,-419.43 1673.2,-425.94"/>
</g>
<!-- 912a8343&#45;a7d3&#45;4041&#45;b02d&#45;6b1dbcb2b8d3 -->
<g id="node4" class="node">
<title>912a8343&#45;a7d3&#45;4041&#45;b02d&#45;6b1dbcb2b8d3</title>
<polygon fill="none" stroke="black" points="36,-281 0,-281 0,-245 36,-245 36,-281"/>
<text text-anchor="middle" x="18" y="-254.5" font-family="Arial Unicode MS" font-size="10.00"> </text>
</g>
<!-- ae9e7bc0&#45;947d&#45;4a32&#45;82af&#45;acbaffabb129&#45;&gt;912a8343&#45;a7d3&#45;4041&#45;b02d&#45;6b1dbcb2b8d3 -->
<g id="edge3" class="edge">
<title>ae9e7bc0&#45;947d&#45;4a32&#45;82af&#45;acbaffabb129&#45;&gt;912a8343&#45;a7d3&#45;4041&#45;b02d&#45;6b1dbcb2b8d3</title>
<path fill="none" stroke="black" d="M69.69,-359.94C57.61,-337.52 42.83,-310.09 32.17,-290.31"/>
<polygon fill="black" stroke="black" points="35.13,-288.41 27.3,-281.27 28.96,-291.73 35.13,-288.41"/>
</g>
<!-- 548b3cef&#45;1c1f&#45;4464&#45;bd31&#45;f59767c4e3da -->
<g id="node5" class="node">
<title>548b3cef&#45;1c1f&#45;4464&#45;bd31&#45;f59767c4e3da</title>
<polygon fill="none" stroke="black" points="127.5,-299.5 54.5,-299.5 54.5,-226.5 127.5,-226.5 127.5,-299.5"/>
<text text-anchor="middle" x="91" y="-254.5" font-family="Arial Unicode MS" font-size="10.00">HelloWorld </text>
</g>
<!-- ae9e7bc0&#45;947d&#45;4a32&#45;82af&#45;acbaffabb129&#45;&gt;548b3cef&#45;1c1f&#45;4464&#45;bd31&#45;f59767c4e3da -->
<g id="edge4" class="edge">
<title>ae9e7bc0&#45;947d&#45;4a32&#45;82af&#45;acbaffabb129&#45;&gt;548b3cef&#45;1c1f&#45;4464&#45;bd31&#45;f59767c4e3da</title>
<path fill="none" stroke="black" d="M91,-359.94C91,-344.31 91,-326.24 91,-310.02"/>
<polygon fill="black" stroke="black" points="94.5,-309.68 91,-299.68 87.5,-309.68 94.5,-309.68"/>
</g>
<!-- 94b0949b&#45;1495&#45;40a6&#45;a26f&#45;762c309552a2 -->
<g id="node7" class="node">
<title>94b0949b&#45;1495&#45;40a6&#45;a26f&#45;762c309552a2</title>
<polygon fill="none" stroke="black" points="210.5,-295.5 145.5,-295.5 145.5,-230.5 210.5,-230.5 210.5,-295.5"/>
<text text-anchor="middle" x="178" y="-254.5" font-family="Arial Unicode MS" font-size="10.00">character </text>
</g>
<!-- 2cbf4027&#45;7388&#45;4f7b&#45;bfae&#45;561963628fbb&#45;&gt;94b0949b&#45;1495&#45;40a6&#45;a26f&#45;762c309552a2 -->
<g id="edge6" class="edge">
<title>2cbf4027&#45;7388&#45;4f7b&#45;bfae&#45;561963628fbb&#45;&gt;94b0949b&#45;1495&#45;40a6&#45;a26f&#45;762c309552a2</title>
<path fill="none" stroke="black" d="M248.81,-359.94C235.83,-342.36 220.57,-321.68 207.55,-304.04"/>
<polygon fill="black" stroke="black" points="210.11,-301.61 201.36,-295.65 204.48,-305.77 210.11,-301.61"/>
</g>
<!-- 4e3419e8&#45;a403&#45;42f5&#45;9911&#45;ac07cc9976b5 -->
<g id="node8" class="node">
<title>4e3419e8&#45;a403&#45;42f5&#45;9911&#45;ac07cc9976b5</title>
<polygon fill="none" stroke="black" points="265,-281 229,-281 229,-245 265,-245 265,-281"/>
<text text-anchor="middle" x="247" y="-254.5" font-family="Arial Unicode MS" font-size="10.00">( </text>
</g>
<!-- 2cbf4027&#45;7388&#45;4f7b&#45;bfae&#45;561963628fbb&#45;&gt;4e3419e8&#45;a403&#45;42f5&#45;9911&#45;ac07cc9976b5 -->
<g id="edge7" class="edge">
<title>2cbf4027&#45;7388&#45;4f7b&#45;bfae&#45;561963628fbb&#45;&gt;4e3419e8&#45;a403&#45;42f5&#45;9911&#45;ac07cc9976b5</title>
<path fill="none" stroke="black" d="M268.95,-359.94C263.89,-337.83 257.71,-310.83 253.2,-291.12"/>
<polygon fill="black" stroke="black" points="256.59,-290.23 250.95,-281.27 249.77,-291.79 256.59,-290.23"/>
</g>
<!-- cc5b9aad&#45;dc3a&#45;40ef&#45;bdda&#45;fdb6d4b161e5 -->
<g id="node9" class="node">
<title>cc5b9aad&#45;dc3a&#45;40ef&#45;bdda&#45;fdb6d4b161e5</title>
<polygon fill="none" stroke="black" points="319,-281 283,-281 283,-245 319,-245 319,-281"/>
<text text-anchor="middle" x="301" y="-254.5" font-family="Arial Unicode MS" font-size="10.00">len </text>
</g>
<!-- 2cbf4027&#45;7388&#45;4f7b&#45;bfae&#45;561963628fbb&#45;&gt;cc5b9aad&#45;dc3a&#45;40ef&#45;bdda&#45;fdb6d4b161e5 -->
<g id="edge8" class="edge">
<title>2cbf4027&#45;7388&#45;4f7b&#45;bfae&#45;561963628fbb&#45;&gt;cc5b9aad&#45;dc3a&#45;40ef&#45;bdda&#45;fdb6d4b161e5</title>
<path fill="none" stroke="black" d="M284.71,-359.94C288.45,-337.93 293.01,-311.08 296.35,-291.39"/>
<polygon fill="black" stroke="black" points="299.85,-291.71 298.07,-281.27 292.95,-290.54 299.85,-291.71"/>
</g>
<!-- 6de88a17&#45;a266&#45;423c&#45;824f&#45;b5280356d636 -->
<g id="node10" class="node">
<title>6de88a17&#45;a266&#45;423c&#45;824f&#45;b5280356d636</title>
<polygon fill="none" stroke="black" points="373,-281 337,-281 337,-245 373,-245 373,-281"/>
<text text-anchor="middle" x="355" y="-254.5" font-family="Arial Unicode MS" font-size="10.00">= </text>
</g>
<!-- 2cbf4027&#45;7388&#45;4f7b&#45;bfae&#45;561963628fbb&#45;&gt;6de88a17&#45;a266&#45;423c&#45;824f&#45;b5280356d636 -->
<g id="edge9" class="edge">
<title>2cbf4027&#45;7388&#45;4f7b&#45;bfae&#45;561963628fbb&#45;&gt;6de88a17&#45;a266&#45;423c&#45;824f&#45;b5280356d636</title>
<path fill="none" stroke="black" d="M301.68,-359.64C310.1,-345.31 319.57,-328.99 328,-314 332.33,-306.3 336.94,-297.86 341.09,-290.15"/>
<polygon fill="black" stroke="black" points="344.25,-291.67 345.9,-281.2 338.08,-288.36 344.25,-291.67"/>
</g>
<!-- 4ba6c711&#45;afb9&#45;4e6c&#45;a8b6&#45;afb6078957ca -->
<g id="node13" class="node">
<title>4ba6c711&#45;afb9&#45;4e6c&#45;a8b6&#45;afb6078957ca</title>
<polygon fill="none" stroke="black" points="427,-281 391,-281 391,-245 427,-245 427,-281"/>
<text text-anchor="middle" x="409" y="-254.5" font-family="Arial Unicode MS" font-size="10.00">13 </text>
</g>
<!-- bbf1c0e5&#45;e3e9&#45;4162&#45;a121&#45;568375b02d24&#45;&gt;4ba6c711&#45;afb9&#45;4e6c&#45;a8b6&#45;afb6078957ca -->
<g id="edge12" class="edge">
<title>bbf1c0e5&#45;e3e9&#45;4162&#45;a121&#45;568375b02d24&#45;&gt;4ba6c711&#45;afb9&#45;4e6c&#45;a8b6&#45;afb6078957ca</title>
<path fill="none" stroke="black" d="M425.29,-359.94C421.55,-337.93 416.99,-311.08 413.65,-291.39"/>
<polygon fill="black" stroke="black" points="417.05,-290.54 411.93,-281.27 410.15,-291.71 417.05,-290.54"/>
</g>
<!-- b05a9b61&#45;e778&#45;45d0&#45;98df&#45;93b536dd240b -->
<g id="node14" class="node">
<title>b05a9b61&#45;e778&#45;45d0&#45;98df&#45;93b536dd240b</title>
<polygon fill="none" stroke="black" points="481,-281 445,-281 445,-245 481,-245 481,-281"/>
<text text-anchor="middle" x="463" y="-254.5" font-family="Arial Unicode MS" font-size="10.00">) </text>
</g>
<!-- bbf1c0e5&#45;e3e9&#45;4162&#45;a121&#45;568375b02d24&#45;&gt;b05a9b61&#45;e778&#45;45d0&#45;98df&#45;93b536dd240b -->
<g id="edge13" class="edge">
<title>bbf1c0e5&#45;e3e9&#45;4162&#45;a121&#45;568375b02d24&#45;&gt;b05a9b61&#45;e778&#45;45d0&#45;98df&#45;93b536dd240b</title>
<path fill="none" stroke="black" d="M441.05,-359.94C446.11,-337.83 452.29,-310.83 456.8,-291.12"/>
<polygon fill="black" stroke="black" points="460.23,-291.79 459.05,-281.27 453.41,-290.23 460.23,-291.79"/>
</g>
<!-- fb225931&#45;4194&#45;4c18&#45;9e46&#45;3f96fe559caf -->
<g id="node15" class="node">
<title>fb225931&#45;4194&#45;4c18&#45;9e46&#45;3f96fe559caf</title>
<polygon fill="none" stroke="black" points="535,-281 499,-281 499,-245 535,-245 535,-281"/>
<text text-anchor="middle" x="517" y="-254.5" font-family="Arial Unicode MS" font-size="10.00">:: </text>
</g>
<!-- bbf1c0e5&#45;e3e9&#45;4162&#45;a121&#45;568375b02d24&#45;&gt;fb225931&#45;4194&#45;4c18&#45;9e46&#45;3f96fe559caf -->
<g id="edge14" class="edge">
<title>bbf1c0e5&#45;e3e9&#45;4162&#45;a121&#45;568375b02d24&#45;&gt;fb225931&#45;4194&#45;4c18&#45;9e46&#45;3f96fe559caf</title>
<path fill="none" stroke="black" d="M460.29,-359.6C470.02,-345.41 480.79,-329.18 490,-314 494.59,-306.45 499.27,-298.06 503.42,-290.34"/>
<polygon fill="black" stroke="black" points="506.58,-291.84 508.17,-281.37 500.4,-288.56 506.58,-291.84"/>
</g>
<!-- acfc60e0&#45;372e&#45;49c1&#45;b9a3&#45;e2a6c770e77f -->
<g id="node22" class="node">
<title>acfc60e0&#45;372e&#45;49c1&#45;b9a3&#45;e2a6c770e77f</title>
<polygon fill="none" stroke="black" points="851.5,-313.5 750.5,-313.5 750.5,-212.5 851.5,-212.5 851.5,-313.5"/>
<text text-anchor="middle" x="801" y="-254.5" font-family="Arial Unicode MS" font-size="10.00">output_message </text>
</g>
<!-- bbf59aeb&#45;36d6&#45;43c5&#45;8c88&#45;47eb019b038c&#45;&gt;acfc60e0&#45;372e&#45;49c1&#45;b9a3&#45;e2a6c770e77f -->
<g id="edge21" class="edge">
<title>bbf59aeb&#45;36d6&#45;43c5&#45;8c88&#45;47eb019b038c&#45;&gt;acfc60e0&#45;372e&#45;49c1&#45;b9a3&#45;e2a6c770e77f</title>
<path fill="none" stroke="black" d="M862.6,-359.94C855.1,-348.27 846.73,-335.23 838.64,-322.62"/>
<polygon fill="black" stroke="black" points="841.44,-320.5 833.09,-313.98 835.55,-324.29 841.44,-320.5"/>
</g>
<!-- f78b994d&#45;736b&#45;4838&#45;943a&#45;b90f423ad2a6 -->
<g id="node23" class="node">
<title>f78b994d&#45;736b&#45;4838&#45;943a&#45;b90f423ad2a6</title>
<polygon fill="none" stroke="black" points="906,-281 870,-281 870,-245 906,-245 906,-281"/>
<text text-anchor="middle" x="888" y="-254.5" font-family="Arial Unicode MS" font-size="10.00">= </text>
</g>
<!-- bbf59aeb&#45;36d6&#45;43c5&#45;8c88&#45;47eb019b038c&#45;&gt;f78b994d&#45;736b&#45;4838&#45;943a&#45;b90f423ad2a6 -->
<g id="edge22" class="edge">
<title>bbf59aeb&#45;36d6&#45;43c5&#45;8c88&#45;47eb019b038c&#45;&gt;f78b994d&#45;736b&#45;4838&#45;943a&#45;b90f423ad2a6</title>
<path fill="none" stroke="black" d="M888,-359.94C888,-337.93 888,-311.08 888,-291.39"/>
<polygon fill="black" stroke="black" points="891.5,-291.27 888,-281.27 884.5,-291.27 891.5,-291.27"/>
</g>
<!-- f11b01e9&#45;c6fc&#45;4527&#45;887d&#45;9cc455e44b0b -->
<g id="node24" class="node">
<title>f11b01e9&#45;c6fc&#45;4527&#45;887d&#45;9cc455e44b0b</title>
<polygon fill="none" stroke="black" points="960,-281 924,-281 924,-245 960,-245 960,-281"/>
<text text-anchor="middle" x="942" y="-254.5" font-family="Arial Unicode MS" font-size="10.00">&quot;A&quot; </text>
</g>
<!-- bbf59aeb&#45;36d6&#45;43c5&#45;8c88&#45;47eb019b038c&#45;&gt;f11b01e9&#45;c6fc&#45;4527&#45;887d&#45;9cc455e44b0b -->
<g id="edge23" class="edge">
<title>bbf59aeb&#45;36d6&#45;43c5&#45;8c88&#45;47eb019b038c&#45;&gt;f11b01e9&#45;c6fc&#45;4527&#45;887d&#45;9cc455e44b0b</title>
<path fill="none" stroke="black" d="M903.76,-359.94C912.66,-337.62 923.53,-310.34 931.41,-290.58"/>
<polygon fill="black" stroke="black" points="934.67,-291.85 935.12,-281.27 928.17,-289.26 934.67,-291.85"/>
</g>
<!-- a10ef736&#45;9674&#45;4a1d&#45;9fb9&#45;9e45c305a081 -->
<g id="node28" class="node">
<title>a10ef736&#45;9674&#45;4a1d&#45;9fb9&#45;9e45c305a081</title>
<polygon fill="none" stroke="black" points="1034,-288 984,-288 984,-238 1034,-238 1034,-288"/>
<text text-anchor="middle" x="1009" y="-254.5" font-family="Arial Unicode MS" font-size="10.00">define </text>
</g>
<!-- 66fd4e98&#45;63fc&#45;4ad4&#45;a885&#45;10dc3b05afe4&#45;&gt;a10ef736&#45;9674&#45;4a1d&#45;9fb9&#45;9e45c305a081 -->
<g id="edge27" class="edge">
<title>66fd4e98&#45;63fc&#45;4ad4&#45;a885&#45;10dc3b05afe4&#45;&gt;a10ef736&#45;9674&#45;4a1d&#45;9fb9&#45;9e45c305a081</title>
<path fill="none" stroke="black" d="M1070.6,-359.94C1057.7,-339.85 1042.21,-315.72 1029.99,-296.69"/>
<polygon fill="black" stroke="black" points="1032.8,-294.6 1024.46,-288.07 1026.91,-298.38 1032.8,-294.6"/>
</g>
<!-- 3684524a&#45;37c4&#45;4556&#45;a4ba&#45;39f766552586 -->
<g id="node29" class="node">
<title>3684524a&#45;37c4&#45;4556&#45;a4ba&#45;39f766552586</title>
<polygon fill="none" stroke="black" points="1088,-281 1052,-281 1052,-245 1088,-245 1088,-281"/>
<text text-anchor="middle" x="1070" y="-254.5" font-family="Arial Unicode MS" font-size="10.00">&quot;B&quot; </text>
</g>
<!-- 66fd4e98&#45;63fc&#45;4ad4&#45;a885&#45;10dc3b05afe4&#45;&gt;3684524a&#45;37c4&#45;4556&#45;a4ba&#45;39f766552586 -->
<g id="edge28" class="edge">
<title>66fd4e98&#45;63fc&#45;4ad4&#45;a885&#45;10dc3b05afe4&#45;&gt;3684524a&#45;37c4&#45;4556&#45;a4ba&#45;39f766552586</title>
<path fill="none" stroke="black" d="M1088.41,-359.94C1084.17,-337.83 1078.99,-310.83 1075.2,-291.12"/>
<polygon fill="black" stroke="black" points="1078.63,-290.43 1073.31,-281.27 1071.76,-291.75 1078.63,-290.43"/>
</g>
<!-- 2f134ddf&#45;6bd2&#45;459c&#45;9b19&#45;2a5b3373d0a6 -->
<g id="node32" class="node">
<title>2f134ddf&#45;6bd2&#45;459c&#45;9b19&#45;2a5b3373d0a6</title>
<polygon fill="none" stroke="black" points="1207.5,-313.5 1106.5,-313.5 1106.5,-212.5 1207.5,-212.5 1207.5,-313.5"/>
<text text-anchor="middle" x="1157" y="-254.5" font-family="Arial Unicode MS" font-size="10.00">output_message </text>
</g>
<!-- cccce65b&#45;f355&#45;44d6&#45;afbd&#45;164bd88ff3a0&#45;&gt;2f134ddf&#45;6bd2&#45;459c&#45;9b19&#45;2a5b3373d0a6 -->
<g id="edge31" class="edge">
<title>cccce65b&#45;f355&#45;44d6&#45;afbd&#45;164bd88ff3a0&#45;&gt;2f134ddf&#45;6bd2&#45;459c&#45;9b19&#45;2a5b3373d0a6</title>
<path fill="none" stroke="black" d="M1222.85,-359.94C1214.76,-348.15 1205.71,-334.98 1196.98,-322.25"/>
<polygon fill="black" stroke="black" points="1199.85,-320.24 1191.3,-313.98 1194.08,-324.21 1199.85,-320.24"/>
</g>
<!-- 3ad73dfa&#45;2135&#45;464e&#45;b3a2&#45;d706a37913bb -->
<g id="node33" class="node">
<title>3ad73dfa&#45;2135&#45;464e&#45;b3a2&#45;d706a37913bb</title>
<polygon fill="none" stroke="black" points="1262,-281 1226,-281 1226,-245 1262,-245 1262,-281"/>
<text text-anchor="middle" x="1244" y="-254.5" font-family="Arial Unicode MS" font-size="10.00">= </text>
</g>
<!-- cccce65b&#45;f355&#45;44d6&#45;afbd&#45;164bd88ff3a0&#45;&gt;3ad73dfa&#45;2135&#45;464e&#45;b3a2&#45;d706a37913bb -->
<g id="edge32" class="edge">
<title>cccce65b&#45;f355&#45;44d6&#45;afbd&#45;164bd88ff3a0&#45;&gt;3ad73dfa&#45;2135&#45;464e&#45;b3a2&#45;d706a37913bb</title>
<path fill="none" stroke="black" d="M1248.25,-359.94C1247.27,-337.93 1246.08,-311.08 1245.21,-291.39"/>
<polygon fill="black" stroke="black" points="1248.7,-291.1 1244.76,-281.27 1241.71,-291.41 1248.7,-291.1"/>
</g>
<!-- cb7740ce&#45;470b&#45;4c60&#45;8a2e&#45;0321baf1a8a6 -->
<g id="node34" class="node">
<title>cb7740ce&#45;470b&#45;4c60&#45;8a2e&#45;0321baf1a8a6</title>
<polygon fill="none" stroke="black" points="1316,-281 1280,-281 1280,-245 1316,-245 1316,-281"/>
<text text-anchor="middle" x="1298" y="-254.5" font-family="Arial Unicode MS" font-size="10.00">&quot;B&quot; </text>
</g>
<!-- cccce65b&#45;f355&#45;44d6&#45;afbd&#45;164bd88ff3a0&#45;&gt;cb7740ce&#45;470b&#45;4c60&#45;8a2e&#45;0321baf1a8a6 -->
<g id="edge33" class="edge">
<title>cccce65b&#45;f355&#45;44d6&#45;afbd&#45;164bd88ff3a0&#45;&gt;cb7740ce&#45;470b&#45;4c60&#45;8a2e&#45;0321baf1a8a6</title>
<path fill="none" stroke="black" d="M1264.01,-359.94C1271.88,-337.73 1281.5,-310.59 1288.49,-290.85"/>
<polygon fill="black" stroke="black" points="1291.84,-291.86 1291.88,-281.27 1285.25,-289.52 1291.84,-291.86"/>
</g>
<!-- 767099d4&#45;3af6&#45;462f&#45;9a0d&#45;03d4e9e0a16b -->
<g id="node35" class="node">
<title>767099d4&#45;3af6&#45;462f&#45;9a0d&#45;03d4e9e0a16b</title>
<polygon fill="none" stroke="black" points="1374,-283 1334,-283 1334,-243 1374,-243 1374,-283"/>
<text text-anchor="middle" x="1354" y="-254.5" font-family="Arial Unicode MS" font-size="10.00">else </text>
</g>
<!-- cccce65b&#45;f355&#45;44d6&#45;afbd&#45;164bd88ff3a0&#45;&gt;767099d4&#45;3af6&#45;462f&#45;9a0d&#45;03d4e9e0a16b -->
<g id="edge34" class="edge">
<title>cccce65b&#45;f355&#45;44d6&#45;afbd&#45;164bd88ff3a0&#45;&gt;767099d4&#45;3af6&#45;462f&#45;9a0d&#45;03d4e9e0a16b</title>
<path fill="none" stroke="black" d="M1287.54,-359.96C1300.08,-345.93 1313.71,-329.72 1325,-314 1329.94,-307.12 1334.77,-299.35 1339.03,-292.01"/>
<polygon fill="black" stroke="black" points="1342.22,-293.49 1344.09,-283.06 1336.13,-290.05 1342.22,-293.49"/>
</g>
<!-- 49db8f56&#45;12ce&#45;45bc&#45;877b&#45;2bab63883052 -->
<g id="node38" class="node">
<title>49db8f56&#45;12ce&#45;45bc&#45;877b&#45;2bab63883052</title>
<polygon fill="none" stroke="black" points="1493.5,-313.5 1392.5,-313.5 1392.5,-212.5 1493.5,-212.5 1493.5,-313.5"/>
<text text-anchor="middle" x="1443" y="-254.5" font-family="Arial Unicode MS" font-size="10.00">output_message </text>
</g>
<!-- d1c674ec&#45;d2c1&#45;4d2e&#45;803d&#45;378113a2fd49&#45;&gt;49db8f56&#45;12ce&#45;45bc&#45;877b&#45;2bab63883052 -->
<g id="edge37" class="edge">
<title>d1c674ec&#45;d2c1&#45;4d2e&#45;803d&#45;378113a2fd49&#45;&gt;49db8f56&#45;12ce&#45;45bc&#45;877b&#45;2bab63883052</title>
<path fill="none" stroke="black" d="M1504.6,-359.94C1497.1,-348.27 1488.73,-335.23 1480.64,-322.62"/>
<polygon fill="black" stroke="black" points="1483.44,-320.5 1475.09,-313.98 1477.55,-324.29 1483.44,-320.5"/>
</g>
<!-- f47ebe27&#45;b94e&#45;45be&#45;b515&#45;ca64d6d88c18 -->
<g id="node39" class="node">
<title>f47ebe27&#45;b94e&#45;45be&#45;b515&#45;ca64d6d88c18</title>
<polygon fill="none" stroke="black" points="1548,-281 1512,-281 1512,-245 1548,-245 1548,-281"/>
<text text-anchor="middle" x="1530" y="-254.5" font-family="Arial Unicode MS" font-size="10.00">= </text>
</g>
<!-- d1c674ec&#45;d2c1&#45;4d2e&#45;803d&#45;378113a2fd49&#45;&gt;f47ebe27&#45;b94e&#45;45be&#45;b515&#45;ca64d6d88c18 -->
<g id="edge38" class="edge">
<title>d1c674ec&#45;d2c1&#45;4d2e&#45;803d&#45;378113a2fd49&#45;&gt;f47ebe27&#45;b94e&#45;45be&#45;b515&#45;ca64d6d88c18</title>
<path fill="none" stroke="black" d="M1530,-359.94C1530,-337.93 1530,-311.08 1530,-291.39"/>
<polygon fill="black" stroke="black" points="1533.5,-291.27 1530,-281.27 1526.5,-291.27 1533.5,-291.27"/>
</g>
<!-- c5b070b0&#45;d465&#45;4cdb&#45;9ff6&#45;341ad353b14f -->
<g id="node40" class="node">
<title>c5b070b0&#45;d465&#45;4cdb&#45;9ff6&#45;341ad353b14f</title>
<polygon fill="none" stroke="black" points="1619.5,-289.5 1566.5,-289.5 1566.5,-236.5 1619.5,-236.5 1619.5,-289.5"/>
<text text-anchor="middle" x="1593" y="-254.5" font-family="Arial Unicode MS" font-size="10.00">&quot;none&quot; </text>
</g>
<!-- d1c674ec&#45;d2c1&#45;4d2e&#45;803d&#45;378113a2fd49&#45;&gt;c5b070b0&#45;d465&#45;4cdb&#45;9ff6&#45;341ad353b14f -->
<g id="edge39" class="edge">
<title>d1c674ec&#45;d2c1&#45;4d2e&#45;803d&#45;378113a2fd49&#45;&gt;c5b070b0&#45;d465&#45;4cdb&#45;9ff6&#45;341ad353b14f</title>
<path fill="none" stroke="black" d="M1548.39,-359.94C1557.36,-340.65 1568.06,-317.65 1576.72,-299.01"/>
<polygon fill="black" stroke="black" points="1580.01,-300.24 1581.05,-289.69 1573.66,-297.29 1580.01,-300.24"/>
</g>
<!-- 17bdce81&#45;1850&#45;439a&#45;a9c4&#45;1df64e96f6cf -->
<g id="node41" class="node">
<title>17bdce81&#45;1850&#45;439a&#45;a9c4&#45;1df64e96f6cf</title>
<polygon fill="none" stroke="black" points="1682,-285 1638,-285 1638,-241 1682,-241 1682,-285"/>
<text text-anchor="middle" x="1660" y="-254.5" font-family="Arial Unicode MS" font-size="10.00">endif </text>
</g>
<!-- d1c674ec&#45;d2c1&#45;4d2e&#45;803d&#45;378113a2fd49&#45;&gt;17bdce81&#45;1850&#45;439a&#45;a9c4&#45;1df64e96f6cf -->
<g id="edge40" class="edge">
<title>d1c674ec&#45;d2c1&#45;4d2e&#45;803d&#45;378113a2fd49&#45;&gt;17bdce81&#45;1850&#45;439a&#45;a9c4&#45;1df64e96f6cf</title>
<path fill="none" stroke="black" d="M1570.53,-368.56C1589.18,-353.25 1610.9,-333.84 1628,-314 1633.3,-307.85 1638.37,-300.76 1642.84,-293.88"/>
<polygon fill="black" stroke="black" points="1645.83,-295.7 1648.17,-285.36 1639.9,-291.98 1645.83,-295.7"/>
</g>
<!-- b3e2c8e7&#45;e78a&#45;4ec2&#45;9a9d&#45;686cfc9460e6 -->
<g id="node43" class="node">
<title>b3e2c8e7&#45;e78a&#45;4ec2&#45;9a9d&#45;686cfc9460e6</title>
<polygon fill="none" stroke="black" points="1744,-285 1700,-285 1700,-241 1744,-241 1744,-285"/>
<text text-anchor="middle" x="1722" y="-254.5" font-family="Arial Unicode MS" font-size="10.00">Body </text>
</g>
<!-- 8b96c1ac&#45;17a8&#45;42f5&#45;90f5&#45;074ddf4359e0&#45;&gt;b3e2c8e7&#45;e78a&#45;4ec2&#45;9a9d&#45;686cfc9460e6 -->
<g id="edge42" class="edge">
<title>8b96c1ac&#45;17a8&#45;42f5&#45;90f5&#45;074ddf4359e0&#45;&gt;b3e2c8e7&#45;e78a&#45;4ec2&#45;9a9d&#45;686cfc9460e6</title>
<path fill="none" stroke="black" d="M1722,-359.94C1722,-339.38 1722,-314.6 1722,-295.37"/>
<polygon fill="black" stroke="black" points="1725.5,-295.33 1722,-285.33 1718.5,-295.33 1725.5,-295.33"/>
</g>
<!-- 3b5e017c&#45;f2df&#45;4258&#45;954a&#45;a710e543da7a -->
<g id="node52" class="node">
<title>3b5e017c&#45;f2df&#45;4258&#45;954a&#45;a710e543da7a</title>
<polygon fill="none" stroke="black" points="2026,-314 1924,-314 1924,-212 2026,-212 2026,-314"/>
<text text-anchor="middle" x="1975" y="-254.5" font-family="Arial Unicode MS" font-size="10.00">EndProgramStmt </text>
</g>
<!-- 8b96c1ac&#45;17a8&#45;42f5&#45;90f5&#45;074ddf4359e0&#45;&gt;3b5e017c&#45;f2df&#45;4258&#45;954a&#45;a710e543da7a -->
<g id="edge51" class="edge">
<title>8b96c1ac&#45;17a8&#45;42f5&#45;90f5&#45;074ddf4359e0&#45;&gt;3b5e017c&#45;f2df&#45;4258&#45;954a&#45;a710e543da7a</title>
<path fill="none" stroke="black" d="M1762.65,-377.73C1803.85,-355.66 1868.07,-321.27 1915.1,-296.08"/>
<polygon fill="black" stroke="black" points="1916.81,-299.14 1923.97,-291.33 1913.5,-292.97 1916.81,-299.14"/>
</g>
<!-- d4ef30a1&#45;2125&#45;486e&#45;9769&#45;ae5a6a10fd7b -->
<g id="node44" class="node">
<title>d4ef30a1&#45;2125&#45;486e&#45;9769&#45;ae5a6a10fd7b</title>
<polygon fill="none" stroke="black" points="1554,-146 1510,-146 1510,-102 1554,-102 1554,-146"/>
<text text-anchor="middle" x="1532" y="-115.5" font-family="Arial Unicode MS" font-size="10.00">write </text>
</g>
<!-- b3e2c8e7&#45;e78a&#45;4ec2&#45;9a9d&#45;686cfc9460e6&#45;&gt;d4ef30a1&#45;2125&#45;486e&#45;9769&#45;ae5a6a10fd7b -->
<g id="edge43" class="edge">
<title>b3e2c8e7&#45;e78a&#45;4ec2&#45;9a9d&#45;686cfc9460e6&#45;&gt;d4ef30a1&#45;2125&#45;486e&#45;9769&#45;ae5a6a10fd7b</title>
<path fill="none" stroke="black" d="M1713.34,-240.9C1708.22,-230.82 1700.79,-219.37 1691,-212 1643.78,-176.47 1610.07,-211.74 1563,-176 1555.76,-170.51 1549.85,-162.79 1545.2,-155.02"/>
<polygon fill="black" stroke="black" points="1548.15,-153.13 1540.31,-146.01 1542,-156.47 1548.15,-153.13"/>
</g>
<!-- cb5d050c&#45;40b9&#45;4705&#45;81d5&#45;cea4b41a7a50 -->
<g id="node45" class="node">
<title>cb5d050c&#45;40b9&#45;4705&#45;81d5&#45;cea4b41a7a50</title>
<polygon fill="none" stroke="black" points="1608,-142 1572,-142 1572,-106 1608,-106 1608,-142"/>
<text text-anchor="middle" x="1590" y="-115.5" font-family="Arial Unicode MS" font-size="10.00">( </text>
</g>
<!-- b3e2c8e7&#45;e78a&#45;4ec2&#45;9a9d&#45;686cfc9460e6&#45;&gt;cb5d050c&#45;40b9&#45;4705&#45;81d5&#45;cea4b41a7a50 -->
<g id="edge44" class="edge">
<title>b3e2c8e7&#45;e78a&#45;4ec2&#45;9a9d&#45;686cfc9460e6&#45;&gt;cb5d050c&#45;40b9&#45;4705&#45;81d5&#45;cea4b41a7a50</title>
<path fill="none" stroke="black" d="M1712.22,-240.62C1706.98,-230.95 1699.79,-219.94 1691,-212 1663.85,-187.49 1643.3,-201.42 1617,-176 1609.99,-169.22 1604.4,-160.22 1600.17,-151.67"/>
<polygon fill="black" stroke="black" points="1603.27,-150.03 1595.97,-142.35 1596.89,-152.91 1603.27,-150.03"/>
</g>
<!-- 14406a6a&#45;f9d1&#45;41a3&#45;9d7d&#45;811619652574 -->
<g id="node46" class="node">
<title>14406a6a&#45;f9d1&#45;41a3&#45;9d7d&#45;811619652574</title>
<polygon fill="none" stroke="black" points="1730,-176 1626,-176 1626,-72 1730,-72 1730,-176"/>
<text text-anchor="middle" x="1678" y="-115.5" font-family="Arial Unicode MS" font-size="10.00">IoControlSpecList </text>
</g>
<!-- b3e2c8e7&#45;e78a&#45;4ec2&#45;9a9d&#45;686cfc9460e6&#45;&gt;14406a6a&#45;f9d1&#45;41a3&#45;9d7d&#45;811619652574 -->
<g id="edge45" class="edge">
<title>b3e2c8e7&#45;e78a&#45;4ec2&#45;9a9d&#45;686cfc9460e6&#45;&gt;14406a6a&#45;f9d1&#45;41a3&#45;9d7d&#45;811619652574</title>
<path fill="none" stroke="black" d="M1715.22,-240.89C1710.46,-226.06 1703.82,-205.41 1697.47,-185.64"/>
<polygon fill="black" stroke="black" points="1700.78,-184.48 1694.39,-176.03 1694.12,-186.62 1700.78,-184.48"/>
</g>
<!-- e2a6c2cb&#45;efa4&#45;4867&#45;919d&#45;1b1d600995f2 -->
<g id="node50" class="node">
<title>e2a6c2cb&#45;efa4&#45;4867&#45;919d&#45;1b1d600995f2</title>
<polygon fill="none" stroke="black" points="1784,-142 1748,-142 1748,-106 1784,-106 1784,-142"/>
<text text-anchor="middle" x="1766" y="-115.5" font-family="Arial Unicode MS" font-size="10.00">) </text>
</g>
<!-- b3e2c8e7&#45;e78a&#45;4ec2&#45;9a9d&#45;686cfc9460e6&#45;&gt;e2a6c2cb&#45;efa4&#45;4867&#45;919d&#45;1b1d600995f2 -->
<g id="edge49" class="edge">
<title>b3e2c8e7&#45;e78a&#45;4ec2&#45;9a9d&#45;686cfc9460e6&#45;&gt;e2a6c2cb&#45;efa4&#45;4867&#45;919d&#45;1b1d600995f2</title>
<path fill="none" stroke="black" d="M1728.78,-240.89C1736.48,-216.91 1749.07,-177.71 1757.44,-151.64"/>
<polygon fill="black" stroke="black" points="1760.81,-152.61 1760.53,-142.02 1754.14,-150.47 1760.81,-152.61"/>
</g>
<!-- d567c7fa&#45;0695&#45;4882&#45;84b5&#45;056254c0dfd3 -->
<g id="node51" class="node">
<title>d567c7fa&#45;0695&#45;4882&#45;84b5&#45;056254c0dfd3</title>
<polygon fill="none" stroke="black" points="1903.5,-174.5 1802.5,-174.5 1802.5,-73.5 1903.5,-73.5 1903.5,-174.5"/>
<text text-anchor="middle" x="1853" y="-115.5" font-family="Arial Unicode MS" font-size="10.00">output_message </text>
</g>
<!-- b3e2c8e7&#45;e78a&#45;4ec2&#45;9a9d&#45;686cfc9460e6&#45;&gt;d567c7fa&#45;0695&#45;4882&#45;84b5&#45;056254c0dfd3 -->
<g id="edge50" class="edge">
<title>b3e2c8e7&#45;e78a&#45;4ec2&#45;9a9d&#45;686cfc9460e6&#45;&gt;d567c7fa&#45;0695&#45;4882&#45;84b5&#45;056254c0dfd3</title>
<path fill="none" stroke="black" d="M1742.18,-240.89C1757.27,-225.12 1778.65,-202.76 1798.61,-181.88"/>
<polygon fill="black" stroke="black" points="1801.22,-184.22 1805.6,-174.57 1796.16,-179.38 1801.22,-184.22"/>
</g>
<!-- cda087fc&#45;bd7e&#45;419c&#45;8fd8&#45;5f1df8e351a1 -->
<g id="node47" class="node">
<title>cda087fc&#45;bd7e&#45;419c&#45;8fd8&#45;5f1df8e351a1</title>
<polygon fill="none" stroke="black" points="1642,-36 1606,-36 1606,0 1642,0 1642,-36"/>
<text text-anchor="middle" x="1624" y="-9.5" font-family="Arial Unicode MS" font-size="10.00">* </text>
</g>
<!-- 14406a6a&#45;f9d1&#45;41a3&#45;9d7d&#45;811619652574&#45;&gt;cda087fc&#45;bd7e&#45;419c&#45;8fd8&#45;5f1df8e351a1 -->
<g id="edge46" class="edge">
<title>14406a6a&#45;f9d1&#45;41a3&#45;9d7d&#45;811619652574&#45;&gt;cda087fc&#45;bd7e&#45;419c&#45;8fd8&#45;5f1df8e351a1</title>
<path fill="none" stroke="black" d="M1651.47,-71.91C1646.64,-62.61 1641.79,-53.27 1637.54,-45.08"/>
<polygon fill="black" stroke="black" points="1640.57,-43.32 1632.86,-36.06 1634.36,-46.55 1640.57,-43.32"/>
</g>
<!-- f40f80ec&#45;4d24&#45;45e0&#45;804f&#45;2e440ce4d825 -->
<g id="node48" class="node">
<title>f40f80ec&#45;4d24&#45;45e0&#45;804f&#45;2e440ce4d825</title>
<polygon fill="none" stroke="black" points="1696,-36 1660,-36 1660,0 1696,0 1696,-36"/>
<text text-anchor="middle" x="1678" y="-9.5" font-family="Arial Unicode MS" font-size="10.00">, </text>
</g>
<!-- 14406a6a&#45;f9d1&#45;41a3&#45;9d7d&#45;811619652574&#45;&gt;f40f80ec&#45;4d24&#45;45e0&#45;804f&#45;2e440ce4d825 -->
<g id="edge47" class="edge">
<title>14406a6a&#45;f9d1&#45;41a3&#45;9d7d&#45;811619652574&#45;&gt;f40f80ec&#45;4d24&#45;45e0&#45;804f&#45;2e440ce4d825</title>
<path fill="none" stroke="black" d="M1678,-71.91C1678,-63.01 1678,-54.08 1678,-46.15"/>
<polygon fill="black" stroke="black" points="1681.5,-46.06 1678,-36.06 1674.5,-46.06 1681.5,-46.06"/>
</g>
<!-- c36556af&#45;de15&#45;4841&#45;90a2&#45;228f5a73d718 -->
<g id="node49" class="node">
<title>c36556af&#45;de15&#45;4841&#45;90a2&#45;228f5a73d718</title>
<polygon fill="none" stroke="black" points="1750,-36 1714,-36 1714,0 1750,0 1750,-36"/>
<text text-anchor="middle" x="1732" y="-9.5" font-family="Arial Unicode MS" font-size="10.00">* </text>
</g>
<!-- 14406a6a&#45;f9d1&#45;41a3&#45;9d7d&#45;811619652574&#45;&gt;c36556af&#45;de15&#45;4841&#45;90a2&#45;228f5a73d718 -->
<g id="edge48" class="edge">
<title>14406a6a&#45;f9d1&#45;41a3&#45;9d7d&#45;811619652574&#45;&gt;c36556af&#45;de15&#45;4841&#45;90a2&#45;228f5a73d718</title>
<path fill="none" stroke="black" d="M1704.53,-71.91C1709.36,-62.61 1714.21,-53.27 1718.46,-45.08"/>
<polygon fill="black" stroke="black" points="1721.64,-46.55 1723.14,-36.06 1715.43,-43.32 1721.64,-46.55"/>
</g>
<!-- b785e771&#45;4e40&#45;4437&#45;af65&#45;75307b9d6fb8 -->
<g id="node53" class="node">
<title>b785e771&#45;4e40&#45;4437&#45;af65&#45;75307b9d6fb8</title>
<polygon fill="none" stroke="black" points="1960,-143 1922,-143 1922,-105 1960,-105 1960,-143"/>
<text text-anchor="middle" x="1941" y="-115.5" font-family="Arial Unicode MS" font-size="10.00">end </text>
</g>
<!-- 3b5e017c&#45;f2df&#45;4258&#45;954a&#45;a710e543da7a&#45;&gt;b785e771&#45;4e40&#45;4437&#45;af65&#45;75307b9d6fb8 -->
<g id="edge52" class="edge">
<title>3b5e017c&#45;f2df&#45;4258&#45;954a&#45;a710e543da7a&#45;&gt;b785e771&#45;4e40&#45;4437&#45;af65&#45;75307b9d6fb8</title>
<path fill="none" stroke="black" d="M1962.53,-211.76C1957.6,-191.91 1952.13,-169.84 1947.93,-152.93"/>
<polygon fill="black" stroke="black" points="1951.31,-152 1945.5,-143.13 1944.51,-153.68 1951.31,-152"/>
</g>
<!-- 66f7b46b&#45;8d44&#45;4701&#45;842d&#45;c8ab278506a5 -->
<g id="node54" class="node">
<title>66f7b46b&#45;8d44&#45;4701&#45;842d&#45;c8ab278506a5</title>
<polygon fill="none" stroke="black" points="2039.5,-154.5 1978.5,-154.5 1978.5,-93.5 2039.5,-93.5 2039.5,-154.5"/>
<text text-anchor="middle" x="2009" y="-115.5" font-family="Arial Unicode MS" font-size="10.00">program </text>
</g>
<!-- 3b5e017c&#45;f2df&#45;4258&#45;954a&#45;a710e543da7a&#45;&gt;66f7b46b&#45;8d44&#45;4701&#45;842d&#45;c8ab278506a5 -->
<g id="edge53" class="edge">
<title>3b5e017c&#45;f2df&#45;4258&#45;954a&#45;a710e543da7a&#45;&gt;66f7b46b&#45;8d44&#45;4701&#45;842d&#45;c8ab278506a5</title>
<path fill="none" stroke="black" d="M1987.47,-211.76C1991.35,-196.13 1995.57,-179.12 1999.24,-164.34"/>
<polygon fill="black" stroke="black" points="2002.66,-165.06 2001.68,-154.51 1995.87,-163.37 2002.66,-165.06"/>
</g>
<!-- ec1bd0a9&#45;cfe0&#45;4983&#45;9232&#45;7fe4298a6fd5 -->
<g id="node55" class="node">
<title>ec1bd0a9&#45;cfe0&#45;4983&#45;9232&#45;7fe4298a6fd5</title>
<polygon fill="none" stroke="black" points="2130.5,-160.5 2057.5,-160.5 2057.5,-87.5 2130.5,-87.5 2130.5,-160.5"/>
<text text-anchor="middle" x="2094" y="-115.5" font-family="Arial Unicode MS" font-size="10.00">HelloWorld </text>
</g>
<!-- 3b5e017c&#45;f2df&#45;4258&#45;954a&#45;a710e543da7a&#45;&gt;ec1bd0a9&#45;cfe0&#45;4983&#45;9232&#45;7fe4298a6fd5 -->
<g id="edge54" class="edge">
<title>3b5e017c&#45;f2df&#45;4258&#45;954a&#45;a710e543da7a&#45;&gt;ec1bd0a9&#45;cfe0&#45;4983&#45;9232&#45;7fe4298a6fd5</title>
<path fill="none" stroke="black" d="M2018.64,-211.76C2030.95,-197.59 2044.23,-182.3 2056.17,-168.55"/>
<polygon fill="black" stroke="black" points="2059.11,-170.5 2063.03,-160.66 2053.83,-165.91 2059.11,-170.5"/>
</g>
</g>
</svg>
