<?xml version="1.0" encoding="UTF-8" standalone="no"?>
<!DOCTYPE svg PUBLIC "-//W3C//DTD SVG 1.1//EN"
 "http://www.w3.org/Graphics/SVG/1.1/DTD/svg11.dtd">
<!-- Generated by graphviz version 2.43.0 (0)
 -->
<!-- Title: G Pages: 1 -->
<svg width="1439pt" height="433pt"
 viewBox="0.00 0.00 1439.00 433.00" xmlns="http://www.w3.org/2000/svg" xmlns:xlink="http://www.w3.org/1999/xlink">
<g id="graph0" class="graph" transform="scale(1 1) rotate(0) translate(4 429)">
<title>G</title>
<polygon fill="white" stroke="transparent" points="-4,4 -4,-429 1435,-429 1435,4 -4,4"/>
<!-- e98c3f8d&#45;95fd&#45;42ff&#45;97a0&#45;4232eed9543c -->
<g id="node1" class="node">
<title>e98c3f8d&#45;95fd&#45;42ff&#45;97a0&#45;4232eed9543c</title>
<polygon fill="none" stroke="black" points="636.5,-425 575.5,-425 575.5,-364 636.5,-364 636.5,-425"/>
<text text-anchor="middle" x="606" y="-386" font-family="Arial Unicode MS" font-size="10.00">Program </text>
</g>
<!-- 74d8a6fc&#45;184d&#45;4193&#45;a016&#45;709cd0300656 -->
<g id="node2" class="node">
<title>74d8a6fc&#45;184d&#45;4193&#45;a016&#45;709cd0300656</title>
<polygon fill="none" stroke="black" points="612,-328 498,-328 498,-214 612,-214 612,-328"/>
<text text-anchor="middle" x="555" y="-262.5" font-family="Arial Unicode MS" font-size="10.00">ExecutableProgram </text>
</g>
<!-- e98c3f8d&#45;95fd&#45;42ff&#45;97a0&#45;4232eed9543c&#45;&gt;74d8a6fc&#45;184d&#45;4193&#45;a016&#45;709cd0300656 -->
<g id="edge1" class="edge">
<title>e98c3f8d&#45;95fd&#45;42ff&#45;97a0&#45;4232eed9543c&#45;&gt;74d8a6fc&#45;184d&#45;4193&#45;a016&#45;709cd0300656</title>
<path fill="none" stroke="black" d="M593.52,-363.78C590.2,-355.85 586.47,-346.96 582.67,-337.92"/>
<polygon fill="black" stroke="black" points="585.8,-336.34 578.71,-328.48 579.35,-339.05 585.8,-336.34"/>
</g>
<!-- e7206f6d&#45;5858&#45;4b0c&#45;a3c9&#45;892138a34554 -->
<g id="node39" class="node">
<title>e7206f6d&#45;5858&#45;4b0c&#45;a3c9&#45;892138a34554</title>
<polygon fill="none" stroke="black" points="686,-299 630,-299 630,-243 686,-243 686,-299"/>
<text text-anchor="middle" x="658" y="-262.5" font-family="Arial Unicode MS" font-size="10.00">&lt;EOF&gt; </text>
</g>
<!-- e98c3f8d&#45;95fd&#45;42ff&#45;97a0&#45;4232eed9543c&#45;&gt;e7206f6d&#45;5858&#45;4b0c&#45;a3c9&#45;892138a34554 -->
<g id="edge38" class="edge">
<title>e98c3f8d&#45;95fd&#45;42ff&#45;97a0&#45;4232eed9543c&#45;&gt;e7206f6d&#45;5858&#45;4b0c&#45;a3c9&#45;892138a34554</title>
<path fill="none" stroke="black" d="M618.72,-363.78C625.82,-347.18 634.74,-326.36 642.27,-308.75"/>
<polygon fill="black" stroke="black" points="645.58,-309.91 646.3,-299.34 639.15,-307.15 645.58,-309.91"/>
</g>
<!-- c8da627a&#45;b9a1&#45;437d&#45;af94&#45;557e3a5ef2fc -->
<g id="node3" class="node">
<title>c8da627a&#45;b9a1&#45;437d&#45;af94&#45;557e3a5ef2fc</title>
<polygon fill="none" stroke="black" points="121.5,-178 40.5,-178 40.5,-97 121.5,-97 121.5,-178"/>
<text text-anchor="middle" x="81" y="-129" font-family="Arial Unicode MS" font-size="10.00">ProgramUnit </text>
</g>
<!-- 74d8a6fc&#45;184d&#45;4193&#45;a016&#45;709cd0300656&#45;&gt;c8da627a&#45;b9a1&#45;437d&#45;af94&#45;557e3a5ef2fc -->
<g id="edge2" class="edge">
<title>74d8a6fc&#45;184d&#45;4193&#45;a016&#45;709cd0300656&#45;&gt;c8da627a&#45;b9a1&#45;437d&#45;af94&#45;557e3a5ef2fc</title>
<path fill="none" stroke="black" d="M497.84,-263.27C416.92,-252.4 265.43,-227.06 145,-178 140.21,-176.05 135.37,-173.76 130.61,-171.27"/>
<polygon fill="black" stroke="black" points="132.04,-168.06 121.59,-166.31 128.66,-174.2 132.04,-168.06"/>
</g>
<!-- 0e448528&#45;69e5&#45;402a&#45;9a56&#45;0a57c538ce07 -->
<g id="node6" class="node">
<title>0e448528&#45;69e5&#45;402a&#45;9a56&#45;0a57c538ce07</title>
<polygon fill="none" stroke="black" points="235.5,-178 154.5,-178 154.5,-97 235.5,-97 235.5,-178"/>
<text text-anchor="middle" x="195" y="-129" font-family="Arial Unicode MS" font-size="10.00">ProgramUnit </text>
</g>
<!-- 74d8a6fc&#45;184d&#45;4193&#45;a016&#45;709cd0300656&#45;&gt;0e448528&#45;69e5&#45;402a&#45;9a56&#45;0a57c538ce07 -->
<g id="edge5" class="edge">
<title>74d8a6fc&#45;184d&#45;4193&#45;a016&#45;709cd0300656&#45;&gt;0e448528&#45;69e5&#45;402a&#45;9a56&#45;0a57c538ce07</title>
<path fill="none" stroke="black" d="M497.8,-256.78C437.01,-241.7 338.84,-214.34 259,-178 254.29,-175.86 249.51,-173.43 244.79,-170.86"/>
<polygon fill="black" stroke="black" points="246.24,-167.67 235.82,-165.78 242.79,-173.76 246.24,-167.67"/>
</g>
<!-- c19ae6ad&#45;ac04&#45;4478&#45;aba2&#45;f03b8afcd19e -->
<g id="node8" class="node">
<title>c19ae6ad&#45;ac04&#45;4478&#45;aba2&#45;f03b8afcd19e</title>
<polygon fill="none" stroke="black" points="304,-155.5 268,-155.5 268,-119.5 304,-119.5 304,-155.5"/>
<text text-anchor="middle" x="286" y="-129" font-family="Arial Unicode MS" font-size="10.00"> </text>
</g>
<!-- 74d8a6fc&#45;184d&#45;4193&#45;a016&#45;709cd0300656&#45;&gt;c19ae6ad&#45;ac04&#45;4478&#45;aba2&#45;f03b8afcd19e -->
<g id="edge7" class="edge">
<title>74d8a6fc&#45;184d&#45;4193&#45;a016&#45;709cd0300656&#45;&gt;c19ae6ad&#45;ac04&#45;4478&#45;aba2&#45;f03b8afcd19e</title>
<path fill="none" stroke="black" d="M497.78,-258.59C445.4,-245.9 367.9,-221.25 313,-178 308.15,-174.18 303.84,-169.25 300.17,-164.17"/>
<polygon fill="black" stroke="black" points="303.01,-162.12 294.6,-155.67 297.15,-165.95 303.01,-162.12"/>
</g>
<!-- d78e9da9&#45;b1cc&#45;46b3&#45;ad8d&#45;b428987be1f8 -->
<g id="node9" class="node">
<title>d78e9da9&#45;b1cc&#45;46b3&#45;ad8d&#45;b428987be1f8</title>
<polygon fill="none" stroke="black" points="403.5,-178 322.5,-178 322.5,-97 403.5,-97 403.5,-178"/>
<text text-anchor="middle" x="363" y="-129" font-family="Arial Unicode MS" font-size="10.00">ProgramUnit </text>
</g>
<!-- 74d8a6fc&#45;184d&#45;4193&#45;a016&#45;709cd0300656&#45;&gt;d78e9da9&#45;b1cc&#45;46b3&#45;ad8d&#45;b428987be1f8 -->
<g id="edge8" class="edge">
<title>74d8a6fc&#45;184d&#45;4193&#45;a016&#45;709cd0300656&#45;&gt;d78e9da9&#45;b1cc&#45;46b3&#45;ad8d&#45;b428987be1f8</title>
<path fill="none" stroke="black" d="M497.87,-234.71C471.63,-218.06 440.34,-197.59 413,-178 412.62,-177.73 412.23,-177.45 411.85,-177.17"/>
<polygon fill="black" stroke="black" points="413.82,-174.27 403.69,-171.15 409.66,-179.91 413.82,-174.27"/>
</g>
<!-- 12666774&#45;6381&#45;42c4&#45;910e&#45;0e65d0a01c85 -->
<g id="node15" class="node">
<title>12666774&#45;6381&#45;42c4&#45;910e&#45;0e65d0a01c85</title>
<polygon fill="none" stroke="black" points="458,-155.5 422,-155.5 422,-119.5 458,-119.5 458,-155.5"/>
<text text-anchor="middle" x="440" y="-129" font-family="Arial Unicode MS" font-size="10.00"> </text>
</g>
<!-- 74d8a6fc&#45;184d&#45;4193&#45;a016&#45;709cd0300656&#45;&gt;12666774&#45;6381&#45;42c4&#45;910e&#45;0e65d0a01c85 -->
<g id="edge14" class="edge">
<title>74d8a6fc&#45;184d&#45;4193&#45;a016&#45;709cd0300656&#45;&gt;12666774&#45;6381&#45;42c4&#45;910e&#45;0e65d0a01c85</title>
<path fill="none" stroke="black" d="M498.57,-213.91C487.74,-202.34 476.75,-190.02 467,-178 463.47,-173.65 459.92,-168.84 456.61,-164.13"/>
<polygon fill="black" stroke="black" points="459.5,-162.14 450.97,-155.85 453.72,-166.09 459.5,-162.14"/>
</g>
<!-- 95083fb5&#45;fe84&#45;4d36&#45;b013&#45;f205f1b6e7de -->
<g id="node16" class="node">
<title>95083fb5&#45;fe84&#45;4d36&#45;b013&#45;f205f1b6e7de</title>
<polygon fill="none" stroke="black" points="557.5,-178 476.5,-178 476.5,-97 557.5,-97 557.5,-178"/>
<text text-anchor="middle" x="517" y="-129" font-family="Arial Unicode MS" font-size="10.00">ProgramUnit </text>
</g>
<!-- 74d8a6fc&#45;184d&#45;4193&#45;a016&#45;709cd0300656&#45;&gt;95083fb5&#45;fe84&#45;4d36&#45;b013&#45;f205f1b6e7de -->
<g id="edge15" class="edge">
<title>74d8a6fc&#45;184d&#45;4193&#45;a016&#45;709cd0300656&#45;&gt;95083fb5&#45;fe84&#45;4d36&#45;b013&#45;f205f1b6e7de</title>
<path fill="none" stroke="black" d="M538.77,-213.85C536.28,-205.22 533.72,-196.37 531.27,-187.9"/>
<polygon fill="black" stroke="black" points="534.6,-186.8 528.46,-178.17 527.88,-188.75 534.6,-186.8"/>
</g>
<!-- 2908ba89&#45;3109&#45;4eac&#45;b61f&#45;b23345a41f2f -->
<g id="node19" class="node">
<title>2908ba89&#45;3109&#45;4eac&#45;b61f&#45;b23345a41f2f</title>
<polygon fill="none" stroke="black" points="612,-155.5 576,-155.5 576,-119.5 612,-119.5 612,-155.5"/>
<text text-anchor="middle" x="594" y="-129" font-family="Arial Unicode MS" font-size="10.00"> </text>
</g>
<!-- 74d8a6fc&#45;184d&#45;4193&#45;a016&#45;709cd0300656&#45;&gt;2908ba89&#45;3109&#45;4eac&#45;b61f&#45;b23345a41f2f -->
<g id="edge18" class="edge">
<title>74d8a6fc&#45;184d&#45;4193&#45;a016&#45;709cd0300656&#45;&gt;2908ba89&#45;3109&#45;4eac&#45;b61f&#45;b23345a41f2f</title>
<path fill="none" stroke="black" d="M571.65,-213.85C576.6,-197.16 581.8,-179.63 585.94,-165.68"/>
<polygon fill="black" stroke="black" points="589.39,-166.37 588.87,-155.79 582.67,-164.38 589.39,-166.37"/>
</g>
<!-- fd2adbc5&#45;9e65&#45;4ba8&#45;9128&#45;b0f1bef5d049 -->
<g id="node20" class="node">
<title>fd2adbc5&#45;9e65&#45;4ba8&#45;9128&#45;b0f1bef5d049</title>
<polygon fill="none" stroke="black" points="711.5,-178 630.5,-178 630.5,-97 711.5,-97 711.5,-178"/>
<text text-anchor="middle" x="671" y="-129" font-family="Arial Unicode MS" font-size="10.00">ProgramUnit </text>
</g>
<!-- 74d8a6fc&#45;184d&#45;4193&#45;a016&#45;709cd0300656&#45;&gt;fd2adbc5&#45;9e65&#45;4ba8&#45;9128&#45;b0f1bef5d049 -->
<g id="edge19" class="edge">
<title>74d8a6fc&#45;184d&#45;4193&#45;a016&#45;709cd0300656&#45;&gt;fd2adbc5&#45;9e65&#45;4ba8&#45;9128&#45;b0f1bef5d049</title>
<path fill="none" stroke="black" d="M604.53,-213.85C612.81,-204.47 621.32,-194.82 629.37,-185.7"/>
<polygon fill="black" stroke="black" points="632.02,-187.98 636.01,-178.17 626.77,-183.35 632.02,-187.98"/>
</g>
<!-- e8ed31df&#45;2c7f&#45;4f56&#45;9f30&#45;85de450d9c21 -->
<g id="node23" class="node">
<title>e8ed31df&#45;2c7f&#45;4f56&#45;9f30&#45;85de450d9c21</title>
<polygon fill="none" stroke="black" points="766,-155.5 730,-155.5 730,-119.5 766,-119.5 766,-155.5"/>
<text text-anchor="middle" x="748" y="-129" font-family="Arial Unicode MS" font-size="10.00"> </text>
</g>
<!-- 74d8a6fc&#45;184d&#45;4193&#45;a016&#45;709cd0300656&#45;&gt;e8ed31df&#45;2c7f&#45;4f56&#45;9f30&#45;85de450d9c21 -->
<g id="edge22" class="edge">
<title>74d8a6fc&#45;184d&#45;4193&#45;a016&#45;709cd0300656&#45;&gt;e8ed31df&#45;2c7f&#45;4f56&#45;9f30&#45;85de450d9c21</title>
<path fill="none" stroke="black" d="M612.07,-219.59C615.03,-217.61 618.01,-215.74 621,-214 661.49,-190.49 682.77,-206.39 720,-178 724.97,-174.21 729.41,-169.3 733.21,-164.22"/>
<polygon fill="black" stroke="black" points="736.27,-165.95 738.99,-155.71 730.48,-162.02 736.27,-165.95"/>
</g>
<!-- 30fb954d&#45;e5a9&#45;4e20&#45;b62e&#45;ba347107f60e -->
<g id="node24" class="node">
<title>30fb954d&#45;e5a9&#45;4e20&#45;b62e&#45;ba347107f60e</title>
<polygon fill="none" stroke="black" points="820,-155.5 784,-155.5 784,-119.5 820,-119.5 820,-155.5"/>
<text text-anchor="middle" x="802" y="-129" font-family="Arial Unicode MS" font-size="10.00">3 </text>
</g>
<!-- 74d8a6fc&#45;184d&#45;4193&#45;a016&#45;709cd0300656&#45;&gt;30fb954d&#45;e5a9&#45;4e20&#45;b62e&#45;ba347107f60e -->
<g id="edge23" class="edge">
<title>74d8a6fc&#45;184d&#45;4193&#45;a016&#45;709cd0300656&#45;&gt;30fb954d&#45;e5a9&#45;4e20&#45;b62e&#45;ba347107f60e</title>
<path fill="none" stroke="black" d="M612.22,-218.9C615.11,-217.13 618.05,-215.49 621,-214 683.78,-182.38 717,-217.71 775,-178 780.18,-174.45 784.66,-169.56 788.39,-164.42"/>
<polygon fill="black" stroke="black" points="791.51,-166.04 793.97,-155.73 785.62,-162.25 791.51,-166.04"/>
</g>
<!-- c5cde322&#45;6061&#45;4eb5&#45;b902&#45;94337fbf0d47 -->
<g id="node25" class="node">
<title>c5cde322&#45;6061&#45;4eb5&#45;b902&#45;94337fbf0d47</title>
<polygon fill="none" stroke="black" points="970.5,-178 889.5,-178 889.5,-97 970.5,-97 970.5,-178"/>
<text text-anchor="middle" x="930" y="-129" font-family="Arial Unicode MS" font-size="10.00">ProgramUnit </text>
</g>
<!-- 74d8a6fc&#45;184d&#45;4193&#45;a016&#45;709cd0300656&#45;&gt;c5cde322&#45;6061&#45;4eb5&#45;b902&#45;94337fbf0d47 -->
<g id="edge24" class="edge">
<title>74d8a6fc&#45;184d&#45;4193&#45;a016&#45;709cd0300656&#45;&gt;c5cde322&#45;6061&#45;4eb5&#45;b902&#45;94337fbf0d47</title>
<path fill="none" stroke="black" d="M612.12,-218.68C615.04,-216.97 618.01,-215.4 621,-214 705.98,-174.25 738.63,-203.21 829,-178 845.82,-173.31 863.71,-166.83 879.69,-160.48"/>
<polygon fill="black" stroke="black" points="881.41,-163.56 889.36,-156.55 878.78,-157.07 881.41,-163.56"/>
</g>
<!-- 1cf4a67d&#45;84b4&#45;47ab&#45;bcb5&#45;bd6fe2481736 -->
<g id="node35" class="node">
<title>1cf4a67d&#45;84b4&#45;47ab&#45;bcb5&#45;bd6fe2481736</title>
<polygon fill="none" stroke="black" points="1334.5,-178 1253.5,-178 1253.5,-97 1334.5,-97 1334.5,-178"/>
<text text-anchor="middle" x="1294" y="-129" font-family="Arial Unicode MS" font-size="10.00">ProgramUnit </text>
</g>
<!-- 74d8a6fc&#45;184d&#45;4193&#45;a016&#45;709cd0300656&#45;&gt;1cf4a67d&#45;84b4&#45;47ab&#45;bcb5&#45;bd6fe2481736 -->
<g id="edge34" class="edge">
<title>74d8a6fc&#45;184d&#45;4193&#45;a016&#45;709cd0300656&#45;&gt;1cf4a67d&#45;84b4&#45;47ab&#45;bcb5&#45;bd6fe2481736</title>
<path fill="none" stroke="black" d="M612.4,-218.19C615.22,-216.64 618.1,-215.23 621,-214 768.17,-151.44 820.1,-195.95 979,-178 1072.38,-167.45 1181.11,-153.43 1243.32,-145.24"/>
<polygon fill="black" stroke="black" points="1243.81,-148.71 1253.26,-143.93 1242.89,-141.77 1243.81,-148.71"/>
</g>
<!-- 7c2749d3&#45;e4e4&#45;49b5&#45;918b&#45;2fccd5c60815 -->
<g id="node4" class="node">
<title>7c2749d3&#45;e4e4&#45;49b5&#45;918b&#45;2fccd5c60815</title>
<polygon fill="none" stroke="black" points="36,-48.5 0,-48.5 0,-12.5 36,-12.5 36,-48.5"/>
<text text-anchor="middle" x="18" y="-22" font-family="Arial Unicode MS" font-size="10.00"> </text>
</g>
<!-- c8da627a&#45;b9a1&#45;437d&#45;af94&#45;557e3a5ef2fc&#45;&gt;7c2749d3&#45;e4e4&#45;49b5&#45;918b&#45;2fccd5c60815 -->
<g id="edge3" class="edge">
<title>c8da627a&#45;b9a1&#45;437d&#45;af94&#45;557e3a5ef2fc&#45;&gt;7c2749d3&#45;e4e4&#45;49b5&#45;918b&#45;2fccd5c60815</title>
<path fill="none" stroke="black" d="M57.18,-96.8C49.32,-83.7 40.78,-69.46 33.68,-57.63"/>
<polygon fill="black" stroke="black" points="36.48,-55.5 28.34,-48.73 30.48,-59.11 36.48,-55.5"/>
</g>
<!-- 7be86cb3&#45;e342&#45;41f7&#45;960e&#45;d3111abede56 -->
<g id="node5" class="node">
<title>7be86cb3&#45;e342&#45;41f7&#45;960e&#45;d3111abede56</title>
<polygon fill="none" stroke="black" points="108,-57.5 54,-57.5 54,-3.5 108,-3.5 108,-57.5"/>
<text text-anchor="middle" x="81" y="-22" font-family="Arial Unicode MS" font-size="10.00">p2_4_9 </text>
</g>
<!-- c8da627a&#45;b9a1&#45;437d&#45;af94&#45;557e3a5ef2fc&#45;&gt;7be86cb3&#45;e342&#45;41f7&#45;960e&#45;d3111abede56 -->
<g id="edge4" class="edge">
<title>c8da627a&#45;b9a1&#45;437d&#45;af94&#45;557e3a5ef2fc&#45;&gt;7be86cb3&#45;e342&#45;41f7&#45;960e&#45;d3111abede56</title>
<path fill="none" stroke="black" d="M81,-96.8C81,-87.27 81,-77.13 81,-67.76"/>
<polygon fill="black" stroke="black" points="84.5,-67.58 81,-57.58 77.5,-67.58 84.5,-67.58"/>
</g>
<!-- b3785eb0&#45;37db&#45;4fd3&#45;9972&#45;3ac6107ea2c6 -->
<g id="node7" class="node">
<title>b3785eb0&#45;37db&#45;4fd3&#45;9972&#45;3ac6107ea2c6</title>
<polygon fill="none" stroke="black" points="170,-52.5 126,-52.5 126,-8.5 170,-8.5 170,-52.5"/>
<text text-anchor="middle" x="148" y="-22" font-family="Arial Unicode MS" font-size="10.00">none </text>
</g>
<!-- 0e448528&#45;69e5&#45;402a&#45;9a56&#45;0a57c538ce07&#45;&gt;b3785eb0&#45;37db&#45;4fd3&#45;9972&#45;3ac6107ea2c6 -->
<g id="edge6" class="edge">
<title>0e448528&#45;69e5&#45;402a&#45;9a56&#45;0a57c538ce07&#45;&gt;b3785eb0&#45;37db&#45;4fd3&#45;9972&#45;3ac6107ea2c6</title>
<path fill="none" stroke="black" d="M177.23,-96.8C172.1,-85.33 166.57,-72.99 161.72,-62.16"/>
<polygon fill="black" stroke="black" points="164.77,-60.4 157.49,-52.71 158.38,-63.26 164.77,-60.4"/>
</g>
<!-- 0ecdf772&#45;3462&#45;40cb&#45;94d9&#45;f03c2d0f71ca -->
<g id="node10" class="node">
<title>0ecdf772&#45;3462&#45;40cb&#45;94d9&#45;f03c2d0f71ca</title>
<polygon fill="none" stroke="black" points="242,-57.5 188,-57.5 188,-3.5 242,-3.5 242,-57.5"/>
<text text-anchor="middle" x="215" y="-22" font-family="Arial Unicode MS" font-size="10.00">integer </text>
</g>
<!-- d78e9da9&#45;b1cc&#45;46b3&#45;ad8d&#45;b428987be1f8&#45;&gt;0ecdf772&#45;3462&#45;40cb&#45;94d9&#45;f03c2d0f71ca -->
<g id="edge9" class="edge">
<title>d78e9da9&#45;b1cc&#45;46b3&#45;ad8d&#45;b428987be1f8&#45;&gt;0ecdf772&#45;3462&#45;40cb&#45;94d9&#45;f03c2d0f71ca</title>
<path fill="none" stroke="black" d="M322.43,-103.68C319.28,-101.37 316.11,-99.12 313,-97 286.65,-79.08 277.18,-79.16 251,-61 250.82,-60.87 250.63,-60.75 250.45,-60.62"/>
<polygon fill="black" stroke="black" points="252.29,-57.63 242.16,-54.52 248.14,-63.26 252.29,-57.63"/>
</g>
<!-- 7d421a1c&#45;90f6&#45;4afd&#45;b5a0&#45;5288c38be0e3 -->
<g id="node11" class="node">
<title>7d421a1c&#45;90f6&#45;4afd&#45;b5a0&#45;5288c38be0e3</title>
<polygon fill="none" stroke="black" points="296,-48.5 260,-48.5 260,-12.5 296,-12.5 296,-48.5"/>
<text text-anchor="middle" x="278" y="-22" font-family="Arial Unicode MS" font-size="10.00">:: </text>
</g>
<!-- d78e9da9&#45;b1cc&#45;46b3&#45;ad8d&#45;b428987be1f8&#45;&gt;7d421a1c&#45;90f6&#45;4afd&#45;b5a0&#45;5288c38be0e3 -->
<g id="edge10" class="edge">
<title>d78e9da9&#45;b1cc&#45;46b3&#45;ad8d&#45;b428987be1f8&#45;&gt;7d421a1c&#45;90f6&#45;4afd&#45;b5a0&#45;5288c38be0e3</title>
<path fill="none" stroke="black" d="M330.87,-96.8C319.94,-83.31 308.04,-68.61 298.31,-56.58"/>
<polygon fill="black" stroke="black" points="300.96,-54.3 291.95,-48.73 295.52,-58.7 300.96,-54.3"/>
</g>
<!-- 290263bc&#45;84e3&#45;4957&#45;b4da&#45;5024cb94cf7b -->
<g id="node12" class="node">
<title>290263bc&#45;84e3&#45;4957&#45;b4da&#45;5024cb94cf7b</title>
<polygon fill="none" stroke="black" points="361.5,-54 314.5,-54 314.5,-7 361.5,-7 361.5,-54"/>
<text text-anchor="middle" x="338" y="-22" font-family="Arial Unicode MS" font-size="10.00">result </text>
</g>
<!-- d78e9da9&#45;b1cc&#45;46b3&#45;ad8d&#45;b428987be1f8&#45;&gt;290263bc&#45;84e3&#45;4957&#45;b4da&#45;5024cb94cf7b -->
<g id="edge11" class="edge">
<title>d78e9da9&#45;b1cc&#45;46b3&#45;ad8d&#45;b428987be1f8&#45;&gt;290263bc&#45;84e3&#45;4957&#45;b4da&#45;5024cb94cf7b</title>
<path fill="none" stroke="black" d="M353.55,-96.8C350.98,-86 348.22,-74.43 345.76,-64.07"/>
<polygon fill="black" stroke="black" points="349.12,-63.11 343.4,-54.19 342.31,-64.73 349.12,-63.11"/>
</g>
<!-- 58165d9a&#45;e2f1&#45;4283&#45;9679&#45;6f680701dd79 -->
<g id="node13" class="node">
<title>58165d9a&#45;e2f1&#45;4283&#45;9679&#45;6f680701dd79</title>
<polygon fill="none" stroke="black" points="426.5,-54 379.5,-54 379.5,-7 426.5,-7 426.5,-54"/>
<text text-anchor="middle" x="403" y="-22" font-family="Arial Unicode MS" font-size="10.00">result </text>
</g>
<!-- d78e9da9&#45;b1cc&#45;46b3&#45;ad8d&#45;b428987be1f8&#45;&gt;58165d9a&#45;e2f1&#45;4283&#45;9679&#45;6f680701dd79 -->
<g id="edge12" class="edge">
<title>d78e9da9&#45;b1cc&#45;46b3&#45;ad8d&#45;b428987be1f8&#45;&gt;58165d9a&#45;e2f1&#45;4283&#45;9679&#45;6f680701dd79</title>
<path fill="none" stroke="black" d="M378.12,-96.8C382.28,-85.89 386.74,-74.19 390.71,-63.75"/>
<polygon fill="black" stroke="black" points="394.07,-64.79 394.35,-54.19 387.52,-62.29 394.07,-64.79"/>
</g>
<!-- 8d124e8f&#45;de94&#45;4612&#45;a569&#45;97b16814c539 -->
<g id="node14" class="node">
<title>8d124e8f&#45;de94&#45;4612&#45;a569&#45;97b16814c539</title>
<polygon fill="none" stroke="black" points="481,-48.5 445,-48.5 445,-12.5 481,-12.5 481,-48.5"/>
<text text-anchor="middle" x="463" y="-22" font-family="Arial Unicode MS" font-size="10.00">= </text>
</g>
<!-- d78e9da9&#45;b1cc&#45;46b3&#45;ad8d&#45;b428987be1f8&#45;&gt;8d124e8f&#45;de94&#45;4612&#45;a569&#45;97b16814c539 -->
<g id="edge13" class="edge">
<title>d78e9da9&#45;b1cc&#45;46b3&#45;ad8d&#45;b428987be1f8&#45;&gt;8d124e8f&#45;de94&#45;4612&#45;a569&#45;97b16814c539</title>
<path fill="none" stroke="black" d="M400.76,-96.94C411.8,-85.36 423.89,-72.68 435,-61 436.54,-59.38 438.13,-57.71 439.73,-56.02"/>
<polygon fill="black" stroke="black" points="442.37,-58.33 446.72,-48.67 437.3,-53.51 442.37,-58.33"/>
</g>
<!-- 9c401326&#45;ad73&#45;4864&#45;ae3f&#45;cbf2b513b3f3 -->
<g id="node17" class="node">
<title>9c401326&#45;ad73&#45;4864&#45;ae3f&#45;cbf2b513b3f3</title>
<polygon fill="none" stroke="black" points="535,-48.5 499,-48.5 499,-12.5 535,-12.5 535,-48.5"/>
<text text-anchor="middle" x="517" y="-22" font-family="Arial Unicode MS" font-size="10.00">2 </text>
</g>
<!-- 95083fb5&#45;fe84&#45;4d36&#45;b013&#45;f205f1b6e7de&#45;&gt;9c401326&#45;ad73&#45;4864&#45;ae3f&#45;cbf2b513b3f3 -->
<g id="edge16" class="edge">
<title>95083fb5&#45;fe84&#45;4d36&#45;b013&#45;f205f1b6e7de&#45;&gt;9c401326&#45;ad73&#45;4864&#45;ae3f&#45;cbf2b513b3f3</title>
<path fill="none" stroke="black" d="M517,-96.8C517,-84.22 517,-70.58 517,-59.05"/>
<polygon fill="black" stroke="black" points="520.5,-58.73 517,-48.73 513.5,-58.73 520.5,-58.73"/>
</g>
<!-- b5d214c3&#45;bf3c&#45;4fb0&#45;944c&#45;d81f53812554 -->
<g id="node18" class="node">
<title>b5d214c3&#45;bf3c&#45;4fb0&#45;944c&#45;d81f53812554</title>
<polygon fill="none" stroke="black" points="589,-48.5 553,-48.5 553,-12.5 589,-12.5 589,-48.5"/>
<text text-anchor="middle" x="571" y="-22" font-family="Arial Unicode MS" font-size="10.00">* </text>
</g>
<!-- 95083fb5&#45;fe84&#45;4d36&#45;b013&#45;f205f1b6e7de&#45;&gt;b5d214c3&#45;bf3c&#45;4fb0&#45;944c&#45;d81f53812554 -->
<g id="edge17" class="edge">
<title>95083fb5&#45;fe84&#45;4d36&#45;b013&#45;f205f1b6e7de&#45;&gt;b5d214c3&#45;bf3c&#45;4fb0&#45;944c&#45;d81f53812554</title>
<path fill="none" stroke="black" d="M537.42,-96.8C544.16,-83.7 551.48,-69.46 557.56,-57.63"/>
<polygon fill="black" stroke="black" points="560.68,-59.22 562.14,-48.73 554.45,-56.02 560.68,-59.22"/>
</g>
<!-- 3f98ca16&#45;3de6&#45;4873&#45;87a5&#45;e8f35026865e -->
<g id="node21" class="node">
<title>3f98ca16&#45;3de6&#45;4873&#45;87a5&#45;e8f35026865e</title>
<polygon fill="none" stroke="black" points="643,-48.5 607,-48.5 607,-12.5 643,-12.5 643,-48.5"/>
<text text-anchor="middle" x="625" y="-22" font-family="Arial Unicode MS" font-size="10.00">7 </text>
</g>
<!-- fd2adbc5&#45;9e65&#45;4ba8&#45;9128&#45;b0f1bef5d049&#45;&gt;3f98ca16&#45;3de6&#45;4873&#45;87a5&#45;e8f35026865e -->
<g id="edge20" class="edge">
<title>fd2adbc5&#45;9e65&#45;4ba8&#45;9128&#45;b0f1bef5d049&#45;&gt;3f98ca16&#45;3de6&#45;4873&#45;87a5&#45;e8f35026865e</title>
<path fill="none" stroke="black" d="M653.61,-96.8C647.92,-83.83 641.75,-69.74 636.6,-57.98"/>
<polygon fill="black" stroke="black" points="639.77,-56.49 632.55,-48.73 633.36,-59.29 639.77,-56.49"/>
</g>
<!-- 948dfe06&#45;1096&#45;45bb&#45;bd97&#45;c0f361d1545c -->
<g id="node22" class="node">
<title>948dfe06&#45;1096&#45;45bb&#45;bd97&#45;c0f361d1545c</title>
<polygon fill="none" stroke="black" points="697,-48.5 661,-48.5 661,-12.5 697,-12.5 697,-48.5"/>
<text text-anchor="middle" x="679" y="-22" font-family="Arial Unicode MS" font-size="10.00">+ </text>
</g>
<!-- fd2adbc5&#45;9e65&#45;4ba8&#45;9128&#45;b0f1bef5d049&#45;&gt;948dfe06&#45;1096&#45;45bb&#45;bd97&#45;c0f361d1545c -->
<g id="edge21" class="edge">
<title>fd2adbc5&#45;9e65&#45;4ba8&#45;9128&#45;b0f1bef5d049&#45;&gt;948dfe06&#45;1096&#45;45bb&#45;bd97&#45;c0f361d1545c</title>
<path fill="none" stroke="black" d="M674.02,-96.8C674.98,-84.22 676.02,-70.58 676.9,-59.05"/>
<polygon fill="black" stroke="black" points="680.42,-58.97 677.69,-48.73 673.44,-58.44 680.42,-58.97"/>
</g>
<!-- ce694cf1&#45;a350&#45;4b05&#45;849a&#45;d63ef802c332 -->
<g id="node26" class="node">
<title>ce694cf1&#45;a350&#45;4b05&#45;849a&#45;d63ef802c332</title>
<polygon fill="none" stroke="black" points="759,-52.5 715,-52.5 715,-8.5 759,-8.5 759,-52.5"/>
<text text-anchor="middle" x="737" y="-22" font-family="Arial Unicode MS" font-size="10.00">write </text>
</g>
<!-- c5cde322&#45;6061&#45;4eb5&#45;b902&#45;94337fbf0d47&#45;&gt;ce694cf1&#45;a350&#45;4b05&#45;849a&#45;d63ef802c332 -->
<g id="edge25" class="edge">
<title>c5cde322&#45;6061&#45;4eb5&#45;b902&#45;94337fbf0d47&#45;&gt;ce694cf1&#45;a350&#45;4b05&#45;849a&#45;d63ef802c332</title>
<path fill="none" stroke="black" d="M889.46,-121.87C855.47,-108.63 806.46,-87.22 768,-61 767.11,-60.39 766.22,-59.76 765.34,-59.11"/>
<polygon fill="black" stroke="black" points="767.53,-56.38 757.56,-52.79 763.11,-61.81 767.53,-56.38"/>
</g>
<!-- 10618863&#45;e810&#45;4cd5&#45;a566&#45;784ccce7f22b -->
<g id="node27" class="node">
<title>10618863&#45;e810&#45;4cd5&#45;a566&#45;784ccce7f22b</title>
<polygon fill="none" stroke="black" points="813,-48.5 777,-48.5 777,-12.5 813,-12.5 813,-48.5"/>
<text text-anchor="middle" x="795" y="-22" font-family="Arial Unicode MS" font-size="10.00">( </text>
</g>
<!-- c5cde322&#45;6061&#45;4eb5&#45;b902&#45;94337fbf0d47&#45;&gt;10618863&#45;e810&#45;4cd5&#45;a566&#45;784ccce7f22b -->
<g id="edge26" class="edge">
<title>c5cde322&#45;6061&#45;4eb5&#45;b902&#45;94337fbf0d47&#45;&gt;10618863&#45;e810&#45;4cd5&#45;a566&#45;784ccce7f22b</title>
<path fill="none" stroke="black" d="M889.46,-111.22C868.5,-97.41 842.99,-79.4 822,-61 820.26,-59.48 818.52,-57.85 816.8,-56.17"/>
<polygon fill="black" stroke="black" points="819,-53.41 809.53,-48.66 813.97,-58.28 819,-53.41"/>
</g>
<!-- 77e4f689&#45;2f72&#45;44ab&#45;87ab&#45;e3ba22221803 -->
<g id="node28" class="node">
<title>77e4f689&#45;2f72&#45;44ab&#45;87ab&#45;e3ba22221803</title>
<polygon fill="none" stroke="black" points="867,-48.5 831,-48.5 831,-12.5 867,-12.5 867,-48.5"/>
<text text-anchor="middle" x="849" y="-22" font-family="Arial Unicode MS" font-size="10.00">* </text>
</g>
<!-- c5cde322&#45;6061&#45;4eb5&#45;b902&#45;94337fbf0d47&#45;&gt;77e4f689&#45;2f72&#45;44ab&#45;87ab&#45;e3ba22221803 -->
<g id="edge27" class="edge">
<title>c5cde322&#45;6061&#45;4eb5&#45;b902&#45;94337fbf0d47&#45;&gt;77e4f689&#45;2f72&#45;44ab&#45;87ab&#45;e3ba22221803</title>
<path fill="none" stroke="black" d="M899.38,-96.8C889.07,-83.44 877.85,-68.89 868.62,-56.93"/>
<polygon fill="black" stroke="black" points="871.17,-54.51 862.29,-48.73 865.63,-58.79 871.17,-54.51"/>
</g>
<!-- e1ef1931&#45;3f52&#45;44a6&#45;b86c&#45;4172f079837b -->
<g id="node29" class="node">
<title>e1ef1931&#45;3f52&#45;44a6&#45;b86c&#45;4172f079837b</title>
<polygon fill="none" stroke="black" points="921,-48.5 885,-48.5 885,-12.5 921,-12.5 921,-48.5"/>
<text text-anchor="middle" x="903" y="-22" font-family="Arial Unicode MS" font-size="10.00">, </text>
</g>
<!-- c5cde322&#45;6061&#45;4eb5&#45;b902&#45;94337fbf0d47&#45;&gt;e1ef1931&#45;3f52&#45;44a6&#45;b86c&#45;4172f079837b -->
<g id="edge28" class="edge">
<title>c5cde322&#45;6061&#45;4eb5&#45;b902&#45;94337fbf0d47&#45;&gt;e1ef1931&#45;3f52&#45;44a6&#45;b86c&#45;4172f079837b</title>
<path fill="none" stroke="black" d="M919.79,-96.8C916.52,-84.09 912.98,-70.3 909.99,-58.69"/>
<polygon fill="black" stroke="black" points="913.31,-57.54 907.43,-48.73 906.53,-59.29 913.31,-57.54"/>
</g>
<!-- 89c85480&#45;c83b&#45;4aa4&#45;8e39&#45;c2821df42c6b -->
<g id="node30" class="node">
<title>89c85480&#45;c83b&#45;4aa4&#45;8e39&#45;c2821df42c6b</title>
<polygon fill="none" stroke="black" points="975,-48.5 939,-48.5 939,-12.5 975,-12.5 975,-48.5"/>
<text text-anchor="middle" x="957" y="-22" font-family="Arial Unicode MS" font-size="10.00">* </text>
</g>
<!-- c5cde322&#45;6061&#45;4eb5&#45;b902&#45;94337fbf0d47&#45;&gt;89c85480&#45;c83b&#45;4aa4&#45;8e39&#45;c2821df42c6b -->
<g id="edge29" class="edge">
<title>c5cde322&#45;6061&#45;4eb5&#45;b902&#45;94337fbf0d47&#45;&gt;89c85480&#45;c83b&#45;4aa4&#45;8e39&#45;c2821df42c6b</title>
<path fill="none" stroke="black" d="M940.21,-96.8C943.48,-84.09 947.02,-70.3 950.01,-58.69"/>
<polygon fill="black" stroke="black" points="953.47,-59.29 952.57,-48.73 946.69,-57.54 953.47,-59.29"/>
</g>
<!-- 75eb88d4&#45;28c9&#45;4f96&#45;adce&#45;23a4c876513a -->
<g id="node31" class="node">
<title>75eb88d4&#45;28c9&#45;4f96&#45;adce&#45;23a4c876513a</title>
<polygon fill="none" stroke="black" points="1029,-48.5 993,-48.5 993,-12.5 1029,-12.5 1029,-48.5"/>
<text text-anchor="middle" x="1011" y="-22" font-family="Arial Unicode MS" font-size="10.00">) </text>
</g>
<!-- c5cde322&#45;6061&#45;4eb5&#45;b902&#45;94337fbf0d47&#45;&gt;75eb88d4&#45;28c9&#45;4f96&#45;adce&#45;23a4c876513a -->
<g id="edge30" class="edge">
<title>c5cde322&#45;6061&#45;4eb5&#45;b902&#45;94337fbf0d47&#45;&gt;75eb88d4&#45;28c9&#45;4f96&#45;adce&#45;23a4c876513a</title>
<path fill="none" stroke="black" d="M960.62,-96.8C970.93,-83.44 982.15,-68.89 991.38,-56.93"/>
<polygon fill="black" stroke="black" points="994.37,-58.79 997.71,-48.73 988.83,-54.51 994.37,-58.79"/>
</g>
<!-- 1e570aa5&#45;1a43&#45;42d8&#45;88ce&#45;2f96182b80aa -->
<g id="node32" class="node">
<title>1e570aa5&#45;1a43&#45;42d8&#45;88ce&#45;2f96182b80aa</title>
<polygon fill="none" stroke="black" points="1103,-58.5 1047,-58.5 1047,-2.5 1103,-2.5 1103,-58.5"/>
<text text-anchor="middle" x="1075" y="-22" font-family="Arial Unicode MS" font-size="10.00">STRING </text>
</g>
<!-- c5cde322&#45;6061&#45;4eb5&#45;b902&#45;94337fbf0d47&#45;&gt;1e570aa5&#45;1a43&#45;42d8&#45;88ce&#45;2f96182b80aa -->
<g id="edge31" class="edge">
<title>c5cde322&#45;6061&#45;4eb5&#45;b902&#45;94337fbf0d47&#45;&gt;1e570aa5&#45;1a43&#45;42d8&#45;88ce&#45;2f96182b80aa</title>
<path fill="none" stroke="black" d="M970.69,-108.95C991.11,-94.9 1016.1,-77.36 1038,-61 1038.27,-60.8 1038.54,-60.59 1038.82,-60.39"/>
<polygon fill="black" stroke="black" points="1041.05,-63.09 1046.86,-54.23 1036.79,-57.53 1041.05,-63.09"/>
</g>
<!-- 2bda8989&#45;4ca9&#45;440f&#45;9fc6&#45;dd5574ad23f5 -->
<g id="node33" class="node">
<title>2bda8989&#45;4ca9&#45;440f&#45;9fc6&#45;dd5574ad23f5</title>
<polygon fill="none" stroke="black" points="1157,-48.5 1121,-48.5 1121,-12.5 1157,-12.5 1157,-48.5"/>
<text text-anchor="middle" x="1139" y="-22" font-family="Arial Unicode MS" font-size="10.00">, </text>
</g>
<!-- c5cde322&#45;6061&#45;4eb5&#45;b902&#45;94337fbf0d47&#45;&gt;2bda8989&#45;4ca9&#45;440f&#45;9fc6&#45;dd5574ad23f5 -->
<g id="edge32" class="edge">
<title>c5cde322&#45;6061&#45;4eb5&#45;b902&#45;94337fbf0d47&#45;&gt;2bda8989&#45;4ca9&#45;440f&#45;9fc6&#45;dd5574ad23f5</title>
<path fill="none" stroke="black" d="M970.5,-125.31C1009.16,-113.38 1067.88,-91.93 1112,-61 1114.14,-59.5 1116.23,-57.8 1118.25,-56"/>
<polygon fill="black" stroke="black" points="1120.95,-58.25 1125.56,-48.71 1116.01,-53.29 1120.95,-58.25"/>
</g>
<!-- 01038d41&#45;83e4&#45;4104&#45;8703&#45;2c31cbb98141 -->
<g id="node34" class="node">
<title>01038d41&#45;83e4&#45;4104&#45;8703&#45;2c31cbb98141</title>
<polygon fill="none" stroke="black" points="1222.5,-54 1175.5,-54 1175.5,-7 1222.5,-7 1222.5,-54"/>
<text text-anchor="middle" x="1199" y="-22" font-family="Arial Unicode MS" font-size="10.00">result </text>
</g>
<!-- c5cde322&#45;6061&#45;4eb5&#45;b902&#45;94337fbf0d47&#45;&gt;01038d41&#45;83e4&#45;4104&#45;8703&#45;2c31cbb98141 -->
<g id="edge33" class="edge">
<title>c5cde322&#45;6061&#45;4eb5&#45;b902&#45;94337fbf0d47&#45;&gt;01038d41&#45;83e4&#45;4104&#45;8703&#45;2c31cbb98141</title>
<path fill="none" stroke="black" d="M970.51,-128.96C1019.28,-118.69 1102.52,-97.31 1166,-61 1166.65,-60.63 1167.3,-60.24 1167.95,-59.84"/>
<polygon fill="black" stroke="black" points="1169.98,-62.69 1176.14,-54.06 1165.95,-56.97 1169.98,-62.69"/>
</g>
<!-- 3a69e835&#45;5405&#45;478a&#45;b80d&#45;fa32dd1bbf54 -->
<g id="node36" class="node">
<title>3a69e835&#45;5405&#45;478a&#45;b80d&#45;fa32dd1bbf54</title>
<polygon fill="none" stroke="black" points="1279,-49.5 1241,-49.5 1241,-11.5 1279,-11.5 1279,-49.5"/>
<text text-anchor="middle" x="1260" y="-22" font-family="Arial Unicode MS" font-size="10.00">end </text>
</g>
<!-- 1cf4a67d&#45;84b4&#45;47ab&#45;bcb5&#45;bd6fe2481736&#45;&gt;3a69e835&#45;5405&#45;478a&#45;b80d&#45;fa32dd1bbf54 -->
<g id="edge35" class="edge">
<title>1cf4a67d&#45;84b4&#45;47ab&#45;bcb5&#45;bd6fe2481736&#45;&gt;3a69e835&#45;5405&#45;478a&#45;b80d&#45;fa32dd1bbf54</title>
<path fill="none" stroke="black" d="M1281.15,-96.8C1277.07,-84.23 1272.66,-70.61 1268.93,-59.07"/>
<polygon fill="black" stroke="black" points="1272.26,-57.99 1265.85,-49.56 1265.6,-60.15 1272.26,-57.99"/>
</g>
<!-- 1385097b&#45;e15f&#45;4144&#45;b1c8&#45;c9a8af7efd37 -->
<g id="node37" class="node">
<title>1385097b&#45;e15f&#45;4144&#45;b1c8&#45;c9a8af7efd37</title>
<polygon fill="none" stroke="black" points="1358.5,-61 1297.5,-61 1297.5,0 1358.5,0 1358.5,-61"/>
<text text-anchor="middle" x="1328" y="-22" font-family="Arial Unicode MS" font-size="10.00">program </text>
</g>
<!-- 1cf4a67d&#45;84b4&#45;47ab&#45;bcb5&#45;bd6fe2481736&#45;&gt;1385097b&#45;e15f&#45;4144&#45;b1c8&#45;c9a8af7efd37 -->
<g id="edge36" class="edge">
<title>1cf4a67d&#45;84b4&#45;47ab&#45;bcb5&#45;bd6fe2481736&#45;&gt;1385097b&#45;e15f&#45;4144&#45;b1c8&#45;c9a8af7efd37</title>
<path fill="none" stroke="black" d="M1306.85,-96.8C1309.61,-88.29 1312.52,-79.3 1315.28,-70.8"/>
<polygon fill="black" stroke="black" points="1318.66,-71.69 1318.41,-61.1 1312,-69.54 1318.66,-71.69"/>
</g>
<!-- a33b97fd&#45;33d0&#45;412d&#45;9d5f&#45;7b7a032f28ae -->
<g id="node38" class="node">
<title>a33b97fd&#45;33d0&#45;412d&#45;9d5f&#45;7b7a032f28ae</title>
<polygon fill="none" stroke="black" points="1431,-57.5 1377,-57.5 1377,-3.5 1431,-3.5 1431,-57.5"/>
<text text-anchor="middle" x="1404" y="-22" font-family="Arial Unicode MS" font-size="10.00">p2_4_9 </text>
</g>
<!-- 1cf4a67d&#45;84b4&#45;47ab&#45;bcb5&#45;bd6fe2481736&#45;&gt;a33b97fd&#45;33d0&#45;412d&#45;9d5f&#45;7b7a032f28ae -->
<g id="edge37" class="edge">
<title>1cf4a67d&#45;84b4&#45;47ab&#45;bcb5&#45;bd6fe2481736&#45;&gt;a33b97fd&#45;33d0&#45;412d&#45;9d5f&#45;7b7a032f28ae</title>
<path fill="none" stroke="black" d="M1334.65,-97.7C1346.08,-86.78 1358.41,-75.02 1369.46,-64.47"/>
<polygon fill="black" stroke="black" points="1372.05,-66.83 1376.87,-57.4 1367.22,-61.77 1372.05,-66.83"/>
</g>
</g>
</svg>
