<?xml version="1.0" encoding="UTF-8" standalone="no"?>
<!DOCTYPE svg PUBLIC "-//W3C//DTD SVG 1.1//EN"
 "http://www.w3.org/Graphics/SVG/1.1/DTD/svg11.dtd">
<!-- Generated by graphviz version 2.43.0 (0)
 -->
<!-- Title: G Pages: 1 -->
<svg width="598pt" height="2980pt"
 viewBox="0.00 0.00 597.50 2980.00" xmlns="http://www.w3.org/2000/svg" xmlns:xlink="http://www.w3.org/1999/xlink">
<g id="graph0" class="graph" transform="scale(1 1) rotate(0) translate(4 2976)">
<title>G</title>
<polygon fill="white" stroke="transparent" points="-4,4 -4,-2976 593.5,-2976 593.5,4 -4,4"/>
<!-- 8972d24f&#45;520a&#45;4bb0&#45;83d7&#45;5a76f47005e4 -->
<g id="node1" class="node">
<title>8972d24f&#45;520a&#45;4bb0&#45;83d7&#45;5a76f47005e4</title>
<polygon fill="none" stroke="black" points="251,-2972 190,-2972 190,-2911 251,-2911 251,-2972"/>
<text text-anchor="middle" x="220.5" y="-2933" font-family="Arial Unicode MS" font-size="10.00">Program </text>
</g>
<!-- 82f88b67&#45;d689&#45;42cb&#45;8a18&#45;3ecbb3dc1e31 -->
<g id="node2" class="node">
<title>82f88b67&#45;d689&#45;42cb&#45;8a18&#45;3ecbb3dc1e31</title>
<polygon fill="none" stroke="black" points="226.5,-2875 112.5,-2875 112.5,-2761 226.5,-2761 226.5,-2875"/>
<text text-anchor="middle" x="169.5" y="-2809.5" font-family="Arial Unicode MS" font-size="10.00">ExecutableProgram </text>
</g>
<!-- 8972d24f&#45;520a&#45;4bb0&#45;83d7&#45;5a76f47005e4&#45;&gt;82f88b67&#45;d689&#45;42cb&#45;8a18&#45;3ecbb3dc1e31 -->
<g id="edge1" class="edge">
<title>8972d24f&#45;520a&#45;4bb0&#45;83d7&#45;5a76f47005e4&#45;&gt;82f88b67&#45;d689&#45;42cb&#45;8a18&#45;3ecbb3dc1e31</title>
<path fill="none" stroke="black" d="M208.02,-2910.78C204.7,-2902.85 200.97,-2893.96 197.17,-2884.92"/>
<polygon fill="black" stroke="black" points="200.3,-2883.34 193.21,-2875.48 193.85,-2886.05 200.3,-2883.34"/>
</g>
<!-- cef905d7&#45;ea5e&#45;4393&#45;9ed8&#45;c096b0b1f495 -->
<g id="node55" class="node">
<title>cef905d7&#45;ea5e&#45;4393&#45;9ed8&#45;c096b0b1f495</title>
<polygon fill="none" stroke="black" points="300.5,-2846 244.5,-2846 244.5,-2790 300.5,-2790 300.5,-2846"/>
<text text-anchor="middle" x="272.5" y="-2809.5" font-family="Arial Unicode MS" font-size="10.00">&lt;EOF&gt; </text>
</g>
<!-- 8972d24f&#45;520a&#45;4bb0&#45;83d7&#45;5a76f47005e4&#45;&gt;cef905d7&#45;ea5e&#45;4393&#45;9ed8&#45;c096b0b1f495 -->
<g id="edge54" class="edge">
<title>8972d24f&#45;520a&#45;4bb0&#45;83d7&#45;5a76f47005e4&#45;&gt;cef905d7&#45;ea5e&#45;4393&#45;9ed8&#45;c096b0b1f495</title>
<path fill="none" stroke="black" d="M233.22,-2910.78C240.32,-2894.18 249.24,-2873.36 256.77,-2855.75"/>
<polygon fill="black" stroke="black" points="260.08,-2856.91 260.8,-2846.34 253.65,-2854.15 260.08,-2856.91"/>
</g>
<!-- 767d8c9c&#45;6fbe&#45;4e23&#45;9e83&#45;b07976e419fa -->
<g id="node3" class="node">
<title>767d8c9c&#45;6fbe&#45;4e23&#45;9e83&#45;b07976e419fa</title>
<polygon fill="none" stroke="black" points="210,-2725 129,-2725 129,-2644 210,-2644 210,-2725"/>
<text text-anchor="middle" x="169.5" y="-2676" font-family="Arial Unicode MS" font-size="10.00">ProgramUnit </text>
</g>
<!-- 82f88b67&#45;d689&#45;42cb&#45;8a18&#45;3ecbb3dc1e31&#45;&gt;767d8c9c&#45;6fbe&#45;4e23&#45;9e83&#45;b07976e419fa -->
<g id="edge2" class="edge">
<title>82f88b67&#45;d689&#45;42cb&#45;8a18&#45;3ecbb3dc1e31&#45;&gt;767d8c9c&#45;6fbe&#45;4e23&#45;9e83&#45;b07976e419fa</title>
<path fill="none" stroke="black" d="M169.5,-2760.85C169.5,-2752.31 169.5,-2743.56 169.5,-2735.17"/>
<polygon fill="black" stroke="black" points="173,-2735.17 169.5,-2725.17 166,-2735.17 173,-2735.17"/>
</g>
<!-- 4882466a&#45;d17f&#45;4b86&#45;a527&#45;e9f4002d376c -->
<g id="node4" class="node">
<title>4882466a&#45;d17f&#45;4b86&#45;a527&#45;e9f4002d376c</title>
<polygon fill="none" stroke="black" points="212,-2608 127,-2608 127,-2523 212,-2523 212,-2608"/>
<text text-anchor="middle" x="169.5" y="-2557" font-family="Arial Unicode MS" font-size="10.00">MainProgram </text>
</g>
<!-- 767d8c9c&#45;6fbe&#45;4e23&#45;9e83&#45;b07976e419fa&#45;&gt;4882466a&#45;d17f&#45;4b86&#45;a527&#45;e9f4002d376c -->
<g id="edge3" class="edge">
<title>767d8c9c&#45;6fbe&#45;4e23&#45;9e83&#45;b07976e419fa&#45;&gt;4882466a&#45;d17f&#45;4b86&#45;a527&#45;e9f4002d376c</title>
<path fill="none" stroke="black" d="M169.5,-2643.89C169.5,-2635.6 169.5,-2626.74 169.5,-2618.09"/>
<polygon fill="black" stroke="black" points="173,-2618.07 169.5,-2608.07 166,-2618.07 173,-2618.07"/>
</g>
<!-- ee74fc6a&#45;cf69&#45;4dd3&#45;9d13&#45;f4d66068610f -->
<g id="node5" class="node">
<title>ee74fc6a&#45;cf69&#45;4dd3&#45;9d13&#45;f4d66068610f</title>
<polygon fill="none" stroke="black" points="163.5,-2487 79.5,-2487 79.5,-2403 163.5,-2403 163.5,-2487"/>
<text text-anchor="middle" x="121.5" y="-2436.5" font-family="Arial Unicode MS" font-size="10.00">ProgramStmt </text>
</g>
<!-- 4882466a&#45;d17f&#45;4b86&#45;a527&#45;e9f4002d376c&#45;&gt;ee74fc6a&#45;cf69&#45;4dd3&#45;9d13&#45;f4d66068610f -->
<g id="edge4" class="edge">
<title>4882466a&#45;d17f&#45;4b86&#45;a527&#45;e9f4002d376c&#45;&gt;ee74fc6a&#45;cf69&#45;4dd3&#45;9d13&#45;f4d66068610f</title>
<path fill="none" stroke="black" d="M152.58,-2522.72C149.13,-2514.21 145.46,-2505.16 141.91,-2496.39"/>
<polygon fill="black" stroke="black" points="145.11,-2494.96 138.11,-2487 138.62,-2497.59 145.11,-2494.96"/>
</g>
<!-- 76af315b&#45;0a76&#45;4995&#45;9e6c&#45;8668be5f0e8b -->
<g id="node8" class="node">
<title>76af315b&#45;0a76&#45;4995&#45;9e6c&#45;8668be5f0e8b</title>
<polygon fill="none" stroke="black" points="255.5,-2482 181.5,-2482 181.5,-2408 255.5,-2408 255.5,-2482"/>
<text text-anchor="middle" x="218.5" y="-2436.5" font-family="Arial Unicode MS" font-size="10.00">MainRange </text>
</g>
<!-- 4882466a&#45;d17f&#45;4b86&#45;a527&#45;e9f4002d376c&#45;&gt;76af315b&#45;0a76&#45;4995&#45;9e6c&#45;8668be5f0e8b -->
<g id="edge7" class="edge">
<title>4882466a&#45;d17f&#45;4b86&#45;a527&#45;e9f4002d376c&#45;&gt;76af315b&#45;0a76&#45;4995&#45;9e6c&#45;8668be5f0e8b</title>
<path fill="none" stroke="black" d="M186.78,-2522.72C190.91,-2512.72 195.35,-2502 199.55,-2491.83"/>
<polygon fill="black" stroke="black" points="202.91,-2492.87 203.5,-2482.29 196.44,-2490.19 202.91,-2492.87"/>
</g>
<!-- 68b45f90&#45;b937&#45;46aa&#45;88cc&#45;dd4a3c611b35 -->
<g id="node6" class="node">
<title>68b45f90&#45;b937&#45;46aa&#45;88cc&#45;dd4a3c611b35</title>
<polygon fill="none" stroke="black" points="75,-2346.5 14,-2346.5 14,-2285.5 75,-2285.5 75,-2346.5"/>
<text text-anchor="middle" x="44.5" y="-2307.5" font-family="Arial Unicode MS" font-size="10.00">program </text>
</g>
<!-- ee74fc6a&#45;cf69&#45;4dd3&#45;9d13&#45;f4d66068610f&#45;&gt;68b45f90&#45;b937&#45;46aa&#45;88cc&#45;dd4a3c611b35 -->
<g id="edge5" class="edge">
<title>ee74fc6a&#45;cf69&#45;4dd3&#45;9d13&#45;f4d66068610f&#45;&gt;68b45f90&#45;b937&#45;46aa&#45;88cc&#45;dd4a3c611b35</title>
<path fill="none" stroke="black" d="M96.5,-2402.77C87.34,-2387.65 77,-2370.61 67.98,-2355.72"/>
<polygon fill="black" stroke="black" points="70.73,-2353.5 62.55,-2346.77 64.74,-2357.13 70.73,-2353.5"/>
</g>
<!-- fb626382&#45;45dd&#45;4645&#45;96ee&#45;7f3619d0ee03 -->
<g id="node7" class="node">
<title>fb626382&#45;45dd&#45;4645&#45;96ee&#45;7f3619d0ee03</title>
<polygon fill="none" stroke="black" points="162,-2350.5 93,-2350.5 93,-2281.5 162,-2281.5 162,-2350.5"/>
<text text-anchor="middle" x="127.5" y="-2307.5" font-family="Arial Unicode MS" font-size="10.00">Calculator </text>
</g>
<!-- ee74fc6a&#45;cf69&#45;4dd3&#45;9d13&#45;f4d66068610f&#45;&gt;fb626382&#45;45dd&#45;4645&#45;96ee&#45;7f3619d0ee03 -->
<g id="edge6" class="edge">
<title>ee74fc6a&#45;cf69&#45;4dd3&#45;9d13&#45;f4d66068610f&#45;&gt;fb626382&#45;45dd&#45;4645&#45;96ee&#45;7f3619d0ee03</title>
<path fill="none" stroke="black" d="M123.45,-2402.77C124.08,-2389.38 124.78,-2374.47 125.43,-2360.9"/>
<polygon fill="black" stroke="black" points="128.93,-2360.97 125.9,-2350.82 121.93,-2360.64 128.93,-2360.97"/>
</g>
<!-- 056a6ea3&#45;9d50&#45;49a9&#45;afb0&#45;e6a62436c6e0 -->
<g id="node9" class="node">
<title>056a6ea3&#45;9d50&#45;49a9&#45;afb0&#45;e6a62436c6e0</title>
<polygon fill="none" stroke="black" points="235.5,-2338 191.5,-2338 191.5,-2294 235.5,-2294 235.5,-2338"/>
<text text-anchor="middle" x="213.5" y="-2307.5" font-family="Arial Unicode MS" font-size="10.00">Body </text>
</g>
<!-- 76af315b&#45;0a76&#45;4995&#45;9e6c&#45;8668be5f0e8b&#45;&gt;056a6ea3&#45;9d50&#45;49a9&#45;afb0&#45;e6a62436c6e0 -->
<g id="edge8" class="edge">
<title>76af315b&#45;0a76&#45;4995&#45;9e6c&#45;8668be5f0e8b&#45;&gt;056a6ea3&#45;9d50&#45;49a9&#45;afb0&#45;e6a62436c6e0</title>
<path fill="none" stroke="black" d="M217.08,-2407.95C216.34,-2389.07 215.44,-2366.18 214.72,-2348.08"/>
<polygon fill="black" stroke="black" points="218.22,-2347.91 214.33,-2338.05 211.23,-2348.18 218.22,-2347.91"/>
</g>
<!-- 44009315&#45;d563&#45;48f5&#45;9c1b&#45;b2349f511f71 -->
<g id="node51" class="node">
<title>44009315&#45;d563&#45;48f5&#45;9c1b&#45;b2349f511f71</title>
<polygon fill="none" stroke="black" points="385.5,-2367 283.5,-2367 283.5,-2265 385.5,-2265 385.5,-2367"/>
<text text-anchor="middle" x="334.5" y="-2307.5" font-family="Arial Unicode MS" font-size="10.00">EndProgramStmt </text>
</g>
<!-- 76af315b&#45;0a76&#45;4995&#45;9e6c&#45;8668be5f0e8b&#45;&gt;44009315&#45;d563&#45;48f5&#45;9c1b&#45;b2349f511f71 -->
<g id="edge50" class="edge">
<title>76af315b&#45;0a76&#45;4995&#45;9e6c&#45;8668be5f0e8b&#45;&gt;44009315&#45;d563&#45;48f5&#45;9c1b&#45;b2349f511f71</title>
<path fill="none" stroke="black" d="M251.43,-2407.95C260.79,-2397.7 271.23,-2386.27 281.46,-2375.07"/>
<polygon fill="black" stroke="black" points="284.34,-2377.11 288.5,-2367.36 279.17,-2372.39 284.34,-2377.11"/>
</g>
<!-- ba3dfae9&#45;5846&#45;424c&#45;a8a1&#45;6203cc40d9b5 -->
<g id="node10" class="node">
<title>ba3dfae9&#45;5846&#45;424c&#45;a8a1&#45;6203cc40d9b5</title>
<polygon fill="none" stroke="black" points="140,-2229 49,-2229 49,-2138 140,-2138 140,-2229"/>
<text text-anchor="middle" x="94.5" y="-2175" font-family="Arial Unicode MS" font-size="10.00">BodyConstruct </text>
</g>
<!-- 056a6ea3&#45;9d50&#45;49a9&#45;afb0&#45;e6a62436c6e0&#45;&gt;ba3dfae9&#45;5846&#45;424c&#45;a8a1&#45;6203cc40d9b5 -->
<g id="edge9" class="edge">
<title>056a6ea3&#45;9d50&#45;49a9&#45;afb0&#45;e6a62436c6e0&#45;&gt;ba3dfae9&#45;5846&#45;424c&#45;a8a1&#45;6203cc40d9b5</title>
<path fill="none" stroke="black" d="M195.72,-2293.89C188.06,-2284.9 178.93,-2274.36 170.5,-2265 162.17,-2255.76 153.2,-2246.05 144.44,-2236.7"/>
<polygon fill="black" stroke="black" points="146.88,-2234.18 137.48,-2229.29 141.78,-2238.97 146.88,-2234.18"/>
</g>
<!-- f1c06020&#45;0744&#45;4450&#45;81f3&#45;f7020ced3226 -->
<g id="node15" class="node">
<title>f1c06020&#45;0744&#45;4450&#45;81f3&#45;f7020ced3226</title>
<polygon fill="none" stroke="black" points="259,-2229 168,-2229 168,-2138 259,-2138 259,-2229"/>
<text text-anchor="middle" x="213.5" y="-2175" font-family="Arial Unicode MS" font-size="10.00">BodyConstruct </text>
</g>
<!-- 056a6ea3&#45;9d50&#45;49a9&#45;afb0&#45;e6a62436c6e0&#45;&gt;f1c06020&#45;0744&#45;4450&#45;81f3&#45;f7020ced3226 -->
<g id="edge14" class="edge">
<title>056a6ea3&#45;9d50&#45;49a9&#45;afb0&#45;e6a62436c6e0&#45;&gt;f1c06020&#45;0744&#45;4450&#45;81f3&#45;f7020ced3226</title>
<path fill="none" stroke="black" d="M213.5,-2293.74C213.5,-2278.93 213.5,-2258.45 213.5,-2239.22"/>
<polygon fill="black" stroke="black" points="217,-2239.02 213.5,-2229.02 210,-2239.02 217,-2239.02"/>
</g>
<!-- c4b23aca&#45;5b37&#45;4309&#45;b457&#45;0e3a909d50e7 -->
<g id="node11" class="node">
<title>c4b23aca&#45;5b37&#45;4309&#45;b457&#45;0e3a909d50e7</title>
<polygon fill="none" stroke="black" points="147,-2102 0,-2102 0,-1955 147,-1955 147,-2102"/>
<text text-anchor="middle" x="73.5" y="-2020" font-family="Arial Unicode MS" font-size="10.00">SpecificationPartConstruct </text>
</g>
<!-- ba3dfae9&#45;5846&#45;424c&#45;a8a1&#45;6203cc40d9b5&#45;&gt;c4b23aca&#45;5b37&#45;4309&#45;b457&#45;0e3a909d50e7 -->
<g id="edge10" class="edge">
<title>ba3dfae9&#45;5846&#45;424c&#45;a8a1&#45;6203cc40d9b5&#45;&gt;c4b23aca&#45;5b37&#45;4309&#45;b457&#45;0e3a909d50e7</title>
<path fill="none" stroke="black" d="M88.37,-2137.83C87.25,-2129.7 86.05,-2120.97 84.84,-2112.14"/>
<polygon fill="black" stroke="black" points="88.3,-2111.57 83.47,-2102.14 81.36,-2112.53 88.3,-2111.57"/>
</g>
<!-- c53aef34&#45;53c7&#45;4baf&#45;9174&#45;53f42e0a2a34 -->
<g id="node12" class="node">
<title>c53aef34&#45;53c7&#45;4baf&#45;9174&#45;53f42e0a2a34</title>
<polygon fill="none" stroke="black" points="113.5,-1919 33.5,-1919 33.5,-1839 113.5,-1839 113.5,-1919"/>
<text text-anchor="middle" x="73.5" y="-1870.5" font-family="Arial Unicode MS" font-size="10.00">ImplicitStmt </text>
</g>
<!-- c4b23aca&#45;5b37&#45;4309&#45;b457&#45;0e3a909d50e7&#45;&gt;c53aef34&#45;53c7&#45;4baf&#45;9174&#45;53f42e0a2a34 -->
<g id="edge11" class="edge">
<title>c4b23aca&#45;5b37&#45;4309&#45;b457&#45;0e3a909d50e7&#45;&gt;c53aef34&#45;53c7&#45;4baf&#45;9174&#45;53f42e0a2a34</title>
<path fill="none" stroke="black" d="M73.5,-1954.61C73.5,-1946.04 73.5,-1937.45 73.5,-1929.31"/>
<polygon fill="black" stroke="black" points="77,-1929.27 73.5,-1919.27 70,-1929.27 77,-1929.27"/>
</g>
<!-- 7c925b9e&#45;b614&#45;4361&#45;96c9&#45;cf99a0be1a60 -->
<g id="node13" class="node">
<title>7c925b9e&#45;b614&#45;4361&#45;96c9&#45;cf99a0be1a60</title>
<polygon fill="none" stroke="black" points="67.5,-1798.5 11.5,-1798.5 11.5,-1742.5 67.5,-1742.5 67.5,-1798.5"/>
<text text-anchor="middle" x="39.5" y="-1762" font-family="Arial Unicode MS" font-size="10.00">implicit </text>
</g>
<!-- c53aef34&#45;53c7&#45;4baf&#45;9174&#45;53f42e0a2a34&#45;&gt;7c925b9e&#45;b614&#45;4361&#45;96c9&#45;cf99a0be1a60 -->
<g id="edge12" class="edge">
<title>c53aef34&#45;53c7&#45;4baf&#45;9174&#45;53f42e0a2a34&#45;&gt;7c925b9e&#45;b614&#45;4361&#45;96c9&#45;cf99a0be1a60</title>
<path fill="none" stroke="black" d="M61.03,-1838.95C57.82,-1828.89 54.37,-1818.09 51.2,-1808.16"/>
<polygon fill="black" stroke="black" points="54.52,-1807.03 48.14,-1798.57 47.85,-1809.16 54.52,-1807.03"/>
</g>
<!-- 51fe34c0&#45;cfee&#45;402a&#45;8493&#45;a69cbdd7e742 -->
<g id="node14" class="node">
<title>51fe34c0&#45;cfee&#45;402a&#45;8493&#45;a69cbdd7e742</title>
<polygon fill="none" stroke="black" points="129.5,-1792.5 85.5,-1792.5 85.5,-1748.5 129.5,-1748.5 129.5,-1792.5"/>
<text text-anchor="middle" x="107.5" y="-1762" font-family="Arial Unicode MS" font-size="10.00">none </text>
</g>
<!-- c53aef34&#45;53c7&#45;4baf&#45;9174&#45;53f42e0a2a34&#45;&gt;51fe34c0&#45;cfee&#45;402a&#45;8493&#45;a69cbdd7e742 -->
<g id="edge13" class="edge">
<title>c53aef34&#45;53c7&#45;4baf&#45;9174&#45;53f42e0a2a34&#45;&gt;51fe34c0&#45;cfee&#45;402a&#45;8493&#45;a69cbdd7e742</title>
<path fill="none" stroke="black" d="M85.97,-1838.95C89.84,-1826.83 94.04,-1813.65 97.71,-1802.18"/>
<polygon fill="black" stroke="black" points="101.05,-1803.2 100.76,-1792.61 94.38,-1801.07 101.05,-1803.2"/>
</g>
<!-- b26776d8&#45;fc3c&#45;4705&#45;8da9&#45;fe0589b5b2ba -->
<g id="node16" class="node">
<title>b26776d8&#45;fc3c&#45;4705&#45;8da9&#45;fe0589b5b2ba</title>
<polygon fill="none" stroke="black" points="284,-2088 165,-2088 165,-1969 284,-1969 284,-2088"/>
<text text-anchor="middle" x="224.5" y="-2020" font-family="Arial Unicode MS" font-size="10.00">ExecutableConstruct </text>
</g>
<!-- f1c06020&#45;0744&#45;4450&#45;81f3&#45;f7020ced3226&#45;&gt;b26776d8&#45;fc3c&#45;4705&#45;8da9&#45;fe0589b5b2ba -->
<g id="edge15" class="edge">
<title>f1c06020&#45;0744&#45;4450&#45;81f3&#45;f7020ced3226&#45;&gt;b26776d8&#45;fc3c&#45;4705&#45;8da9&#45;fe0589b5b2ba</title>
<path fill="none" stroke="black" d="M216.71,-2137.83C217.6,-2125.46 218.59,-2111.74 219.55,-2098.34"/>
<polygon fill="black" stroke="black" points="223.06,-2098.4 220.28,-2088.18 216.07,-2097.9 223.06,-2098.4"/>
</g>
<!-- 8cd6c7ac&#45;9893&#45;4881&#45;b84f&#45;13435a375c5f -->
<g id="node17" class="node">
<title>8cd6c7ac&#45;9893&#45;4881&#45;b84f&#45;13435a375c5f</title>
<polygon fill="none" stroke="black" points="261.5,-1916 187.5,-1916 187.5,-1842 261.5,-1842 261.5,-1916"/>
<text text-anchor="middle" x="224.5" y="-1870.5" font-family="Arial Unicode MS" font-size="10.00">ActionStmt </text>
</g>
<!-- b26776d8&#45;fc3c&#45;4705&#45;8da9&#45;fe0589b5b2ba&#45;&gt;8cd6c7ac&#45;9893&#45;4881&#45;b84f&#45;13435a375c5f -->
<g id="edge16" class="edge">
<title>b26776d8&#45;fc3c&#45;4705&#45;8da9&#45;fe0589b5b2ba&#45;&gt;8cd6c7ac&#45;9893&#45;4881&#45;b84f&#45;13435a375c5f</title>
<path fill="none" stroke="black" d="M224.5,-1968.78C224.5,-1954.57 224.5,-1939.58 224.5,-1926.04"/>
<polygon fill="black" stroke="black" points="228,-1926.02 224.5,-1916.02 221,-1926.02 228,-1926.02"/>
</g>
<!-- 49b167b3&#45;a878&#45;48bd&#45;bff2&#45;04c2bd75a4eb -->
<g id="node18" class="node">
<title>49b167b3&#45;a878&#45;48bd&#45;bff2&#45;04c2bd75a4eb</title>
<polygon fill="none" stroke="black" points="257,-1803 192,-1803 192,-1738 257,-1738 257,-1803"/>
<text text-anchor="middle" x="224.5" y="-1762" font-family="Arial Unicode MS" font-size="10.00">PrintStmt </text>
</g>
<!-- 8cd6c7ac&#45;9893&#45;4881&#45;b84f&#45;13435a375c5f&#45;&gt;49b167b3&#45;a878&#45;48bd&#45;bff2&#45;04c2bd75a4eb -->
<g id="edge17" class="edge">
<title>8cd6c7ac&#45;9893&#45;4881&#45;b84f&#45;13435a375c5f&#45;&gt;49b167b3&#45;a878&#45;48bd&#45;bff2&#45;04c2bd75a4eb</title>
<path fill="none" stroke="black" d="M224.5,-1841.94C224.5,-1832.73 224.5,-1822.74 224.5,-1813.26"/>
<polygon fill="black" stroke="black" points="228,-1813.24 224.5,-1803.24 221,-1813.24 228,-1813.24"/>
</g>
<!-- 6a1eb868&#45;6902&#45;44ab&#45;9e42&#45;4452cddf6d12 -->
<g id="node19" class="node">
<title>6a1eb868&#45;6902&#45;44ab&#45;9e42&#45;4452cddf6d12</title>
<polygon fill="none" stroke="black" points="115.5,-1674 73.5,-1674 73.5,-1632 115.5,-1632 115.5,-1674"/>
<text text-anchor="middle" x="94.5" y="-1644.5" font-family="Arial Unicode MS" font-size="10.00">print </text>
</g>
<!-- 49b167b3&#45;a878&#45;48bd&#45;bff2&#45;04c2bd75a4eb&#45;&gt;6a1eb868&#45;6902&#45;44ab&#45;9e42&#45;4452cddf6d12 -->
<g id="edge18" class="edge">
<title>49b167b3&#45;a878&#45;48bd&#45;bff2&#45;04c2bd75a4eb&#45;&gt;6a1eb868&#45;6902&#45;44ab&#45;9e42&#45;4452cddf6d12</title>
<path fill="none" stroke="black" d="M191.76,-1752.15C170.88,-1740 144.14,-1722.34 124.5,-1702 119.06,-1696.36 114.09,-1689.58 109.84,-1682.91"/>
<polygon fill="black" stroke="black" points="112.64,-1680.78 104.5,-1674.01 106.64,-1684.38 112.64,-1680.78"/>
</g>
<!-- dc463ca1&#45;19b4&#45;4a46&#45;9c3f&#45;5774eb36d4f8 -->
<g id="node20" class="node">
<title>dc463ca1&#45;19b4&#45;4a46&#45;9c3f&#45;5774eb36d4f8</title>
<polygon fill="none" stroke="black" points="231.5,-1702 133.5,-1702 133.5,-1604 231.5,-1604 231.5,-1702"/>
<text text-anchor="middle" x="182.5" y="-1644.5" font-family="Arial Unicode MS" font-size="10.00">FormatIdentifier </text>
</g>
<!-- 49b167b3&#45;a878&#45;48bd&#45;bff2&#45;04c2bd75a4eb&#45;&gt;dc463ca1&#45;19b4&#45;4a46&#45;9c3f&#45;5774eb36d4f8 -->
<g id="edge19" class="edge">
<title>49b167b3&#45;a878&#45;48bd&#45;bff2&#45;04c2bd75a4eb&#45;&gt;dc463ca1&#45;19b4&#45;4a46&#45;9c3f&#45;5774eb36d4f8</title>
<path fill="none" stroke="black" d="M213.02,-1737.94C210.1,-1729.89 206.86,-1720.99 203.62,-1712.08"/>
<polygon fill="black" stroke="black" points="206.82,-1710.64 200.11,-1702.44 200.24,-1713.03 206.82,-1710.64"/>
</g>
<!-- 4d1b7ccf&#45;8487&#45;4f22&#45;8213&#45;1e016d4b6b91 -->
<g id="node22" class="node">
<title>4d1b7ccf&#45;8487&#45;4f22&#45;8213&#45;1e016d4b6b91</title>
<polygon fill="none" stroke="black" points="285.5,-1671 249.5,-1671 249.5,-1635 285.5,-1635 285.5,-1671"/>
<text text-anchor="middle" x="267.5" y="-1644.5" font-family="Arial Unicode MS" font-size="10.00">, </text>
</g>
<!-- 49b167b3&#45;a878&#45;48bd&#45;bff2&#45;04c2bd75a4eb&#45;&gt;4d1b7ccf&#45;8487&#45;4f22&#45;8213&#45;1e016d4b6b91 -->
<g id="edge21" class="edge">
<title>49b167b3&#45;a878&#45;48bd&#45;bff2&#45;04c2bd75a4eb&#45;&gt;4d1b7ccf&#45;8487&#45;4f22&#45;8213&#45;1e016d4b6b91</title>
<path fill="none" stroke="black" d="M236.25,-1737.94C242.94,-1719.96 251.24,-1697.69 257.6,-1680.6"/>
<polygon fill="black" stroke="black" points="260.88,-1681.81 261.09,-1671.21 254.32,-1679.36 260.88,-1681.81"/>
</g>
<!-- 492961d2&#45;dd1b&#45;4fe1&#45;9fe8&#45;6410a07d4645 -->
<g id="node23" class="node">
<title>492961d2&#45;dd1b&#45;4fe1&#45;9fe8&#45;6410a07d4645</title>
<polygon fill="none" stroke="black" points="395.5,-1699 303.5,-1699 303.5,-1607 395.5,-1607 395.5,-1699"/>
<text text-anchor="middle" x="349.5" y="-1644.5" font-family="Arial Unicode MS" font-size="10.00">OutputItemList </text>
</g>
<!-- 49b167b3&#45;a878&#45;48bd&#45;bff2&#45;04c2bd75a4eb&#45;&gt;492961d2&#45;dd1b&#45;4fe1&#45;9fe8&#45;6410a07d4645 -->
<g id="edge22" class="edge">
<title>49b167b3&#45;a878&#45;48bd&#45;bff2&#45;04c2bd75a4eb&#45;&gt;492961d2&#45;dd1b&#45;4fe1&#45;9fe8&#45;6410a07d4645</title>
<path fill="none" stroke="black" d="M257.02,-1739.46C268.75,-1728.62 282.33,-1716.07 295.4,-1703.99"/>
<polygon fill="black" stroke="black" points="298.06,-1706.3 303.03,-1696.94 293.31,-1701.16 298.06,-1706.3"/>
</g>
<!-- fe963b26&#45;738a&#45;49f3&#45;bc75&#45;08d07909d1b2 -->
<g id="node21" class="node">
<title>fe963b26&#45;738a&#45;49f3&#45;bc75&#45;08d07909d1b2</title>
<polygon fill="none" stroke="black" points="200.5,-1549.5 164.5,-1549.5 164.5,-1513.5 200.5,-1513.5 200.5,-1549.5"/>
<text text-anchor="middle" x="182.5" y="-1523" font-family="Arial Unicode MS" font-size="10.00">* </text>
</g>
<!-- dc463ca1&#45;19b4&#45;4a46&#45;9c3f&#45;5774eb36d4f8&#45;&gt;fe963b26&#45;738a&#45;49f3&#45;bc75&#45;08d07909d1b2 -->
<g id="edge20" class="edge">
<title>dc463ca1&#45;19b4&#45;4a46&#45;9c3f&#45;5774eb36d4f8&#45;&gt;fe963b26&#45;738a&#45;49f3&#45;bc75&#45;08d07909d1b2</title>
<path fill="none" stroke="black" d="M182.5,-1603.74C182.5,-1588.76 182.5,-1572.78 182.5,-1559.76"/>
<polygon fill="black" stroke="black" points="186,-1559.6 182.5,-1549.6 179,-1559.6 186,-1559.6"/>
</g>
<!-- fd560191&#45;719b&#45;4763&#45;beb2&#45;d3b854d36f02 -->
<g id="node24" class="node">
<title>fd560191&#45;719b&#45;4763&#45;beb2&#45;d3b854d36f02</title>
<polygon fill="none" stroke="black" points="386,-1568 313,-1568 313,-1495 386,-1495 386,-1568"/>
<text text-anchor="middle" x="349.5" y="-1523" font-family="Arial Unicode MS" font-size="10.00">Expression </text>
</g>
<!-- 492961d2&#45;dd1b&#45;4fe1&#45;9fe8&#45;6410a07d4645&#45;&gt;fd560191&#45;719b&#45;4763&#45;beb2&#45;d3b854d36f02 -->
<g id="edge23" class="edge">
<title>492961d2&#45;dd1b&#45;4fe1&#45;9fe8&#45;6410a07d4645&#45;&gt;fd560191&#45;719b&#45;4763&#45;beb2&#45;d3b854d36f02</title>
<path fill="none" stroke="black" d="M349.5,-1606.82C349.5,-1597.51 349.5,-1587.69 349.5,-1578.35"/>
<polygon fill="black" stroke="black" points="353,-1578.06 349.5,-1568.06 346,-1578.06 353,-1578.06"/>
</g>
<!-- b6e9ef0c&#45;ce07&#45;4513&#45;acd9&#45;b737b0b2451c -->
<g id="node25" class="node">
<title>b6e9ef0c&#45;ce07&#45;4513&#45;acd9&#45;b737b0b2451c</title>
<polygon fill="none" stroke="black" points="386.5,-1459 312.5,-1459 312.5,-1385 386.5,-1385 386.5,-1459"/>
<text text-anchor="middle" x="349.5" y="-1413.5" font-family="Arial Unicode MS" font-size="10.00">Level5Expr </text>
</g>
<!-- fd560191&#45;719b&#45;4763&#45;beb2&#45;d3b854d36f02&#45;&gt;b6e9ef0c&#45;ce07&#45;4513&#45;acd9&#45;b737b0b2451c -->
<g id="edge24" class="edge">
<title>fd560191&#45;719b&#45;4763&#45;beb2&#45;d3b854d36f02&#45;&gt;b6e9ef0c&#45;ce07&#45;4513&#45;acd9&#45;b737b0b2451c</title>
<path fill="none" stroke="black" d="M349.5,-1494.7C349.5,-1486.54 349.5,-1477.75 349.5,-1469.22"/>
<polygon fill="black" stroke="black" points="353,-1469.01 349.5,-1459.01 346,-1469.01 353,-1469.01"/>
</g>
<!-- e42884c5&#45;62d6&#45;4f86&#45;9927&#45;1c0d08d1048f -->
<g id="node26" class="node">
<title>e42884c5&#45;62d6&#45;4f86&#45;9927&#45;1c0d08d1048f</title>
<polygon fill="none" stroke="black" points="393.5,-1349 305.5,-1349 305.5,-1261 393.5,-1261 393.5,-1349"/>
<text text-anchor="middle" x="349.5" y="-1296.5" font-family="Arial Unicode MS" font-size="10.00">EquivOperand </text>
</g>
<!-- b6e9ef0c&#45;ce07&#45;4513&#45;acd9&#45;b737b0b2451c&#45;&gt;e42884c5&#45;62d6&#45;4f86&#45;9927&#45;1c0d08d1048f -->
<g id="edge25" class="edge">
<title>b6e9ef0c&#45;ce07&#45;4513&#45;acd9&#45;b737b0b2451c&#45;&gt;e42884c5&#45;62d6&#45;4f86&#45;9927&#45;1c0d08d1048f</title>
<path fill="none" stroke="black" d="M349.5,-1384.93C349.5,-1376.79 349.5,-1367.97 349.5,-1359.29"/>
<polygon fill="black" stroke="black" points="353,-1359.2 349.5,-1349.2 346,-1359.2 353,-1359.2"/>
</g>
<!-- 7492e285&#45;09f8&#45;4231&#45;ad02&#45;020d8d4040a6 -->
<g id="node27" class="node">
<title>7492e285&#45;09f8&#45;4231&#45;ad02&#45;020d8d4040a6</title>
<polygon fill="none" stroke="black" points="385.5,-1225 313.5,-1225 313.5,-1153 385.5,-1153 385.5,-1225"/>
<text text-anchor="middle" x="349.5" y="-1180.5" font-family="Arial Unicode MS" font-size="10.00">OrOperand </text>
</g>
<!-- e42884c5&#45;62d6&#45;4f86&#45;9927&#45;1c0d08d1048f&#45;&gt;7492e285&#45;09f8&#45;4231&#45;ad02&#45;020d8d4040a6 -->
<g id="edge26" class="edge">
<title>e42884c5&#45;62d6&#45;4f86&#45;9927&#45;1c0d08d1048f&#45;&gt;7492e285&#45;09f8&#45;4231&#45;ad02&#45;020d8d4040a6</title>
<path fill="none" stroke="black" d="M349.5,-1260.9C349.5,-1252.47 349.5,-1243.62 349.5,-1235.12"/>
<polygon fill="black" stroke="black" points="353,-1235 349.5,-1225 346,-1235 353,-1235"/>
</g>
<!-- 5af1a843&#45;9e7d&#45;45de&#45;a3ea&#45;88c2cd82182c -->
<g id="node28" class="node">
<title>5af1a843&#45;9e7d&#45;45de&#45;a3ea&#45;88c2cd82182c</title>
<polygon fill="none" stroke="black" points="389.5,-1117 309.5,-1117 309.5,-1037 389.5,-1037 389.5,-1117"/>
<text text-anchor="middle" x="349.5" y="-1068.5" font-family="Arial Unicode MS" font-size="10.00">AndOperand </text>
</g>
<!-- 7492e285&#45;09f8&#45;4231&#45;ad02&#45;020d8d4040a6&#45;&gt;5af1a843&#45;9e7d&#45;45de&#45;a3ea&#45;88c2cd82182c -->
<g id="edge27" class="edge">
<title>7492e285&#45;09f8&#45;4231&#45;ad02&#45;020d8d4040a6&#45;&gt;5af1a843&#45;9e7d&#45;45de&#45;a3ea&#45;88c2cd82182c</title>
<path fill="none" stroke="black" d="M349.5,-1152.89C349.5,-1144.85 349.5,-1136.14 349.5,-1127.62"/>
<polygon fill="black" stroke="black" points="353,-1127.36 349.5,-1117.36 346,-1127.36 353,-1127.36"/>
</g>
<!-- efdcd84c&#45;cdde&#45;41df&#45;9f90&#45;07ad4beb29b6 -->
<g id="node29" class="node">
<title>efdcd84c&#45;cdde&#45;41df&#45;9f90&#45;07ad4beb29b6</title>
<polygon fill="none" stroke="black" points="386.5,-1001 312.5,-1001 312.5,-927 386.5,-927 386.5,-1001"/>
<text text-anchor="middle" x="349.5" y="-955.5" font-family="Arial Unicode MS" font-size="10.00">Level4Expr </text>
</g>
<!-- 5af1a843&#45;9e7d&#45;45de&#45;a3ea&#45;88c2cd82182c&#45;&gt;efdcd84c&#45;cdde&#45;41df&#45;9f90&#45;07ad4beb29b6 -->
<g id="edge28" class="edge">
<title>5af1a843&#45;9e7d&#45;45de&#45;a3ea&#45;88c2cd82182c&#45;&gt;efdcd84c&#45;cdde&#45;41df&#45;9f90&#45;07ad4beb29b6</title>
<path fill="none" stroke="black" d="M349.5,-1036.87C349.5,-1028.61 349.5,-1019.83 349.5,-1011.34"/>
<polygon fill="black" stroke="black" points="353,-1011.18 349.5,-1001.18 346,-1011.18 353,-1011.18"/>
</g>
<!-- d2faae56&#45;1c50&#45;4f44&#45;a3e8&#45;f157afb8f1ba -->
<g id="node30" class="node">
<title>d2faae56&#45;1c50&#45;4f44&#45;a3e8&#45;f157afb8f1ba</title>
<polygon fill="none" stroke="black" points="386.5,-891 312.5,-891 312.5,-817 386.5,-817 386.5,-891"/>
<text text-anchor="middle" x="349.5" y="-845.5" font-family="Arial Unicode MS" font-size="10.00">Level3Expr </text>
</g>
<!-- efdcd84c&#45;cdde&#45;41df&#45;9f90&#45;07ad4beb29b6&#45;&gt;d2faae56&#45;1c50&#45;4f44&#45;a3e8&#45;f157afb8f1ba -->
<g id="edge29" class="edge">
<title>efdcd84c&#45;cdde&#45;41df&#45;9f90&#45;07ad4beb29b6&#45;&gt;d2faae56&#45;1c50&#45;4f44&#45;a3e8&#45;f157afb8f1ba</title>
<path fill="none" stroke="black" d="M349.5,-926.74C349.5,-918.63 349.5,-909.93 349.5,-901.48"/>
<polygon fill="black" stroke="black" points="353,-901.35 349.5,-891.35 346,-901.35 353,-901.35"/>
</g>
<!-- a2dd3bbf&#45;8a35&#45;469a&#45;8a29&#45;c5dbd6d85bca -->
<g id="node31" class="node">
<title>a2dd3bbf&#45;8a35&#45;469a&#45;8a29&#45;c5dbd6d85bca</title>
<polygon fill="none" stroke="black" points="386.5,-781 312.5,-781 312.5,-707 386.5,-707 386.5,-781"/>
<text text-anchor="middle" x="349.5" y="-735.5" font-family="Arial Unicode MS" font-size="10.00">Level2Expr </text>
</g>
<!-- d2faae56&#45;1c50&#45;4f44&#45;a3e8&#45;f157afb8f1ba&#45;&gt;a2dd3bbf&#45;8a35&#45;469a&#45;8a29&#45;c5dbd6d85bca -->
<g id="edge30" class="edge">
<title>d2faae56&#45;1c50&#45;4f44&#45;a3e8&#45;f157afb8f1ba&#45;&gt;a2dd3bbf&#45;8a35&#45;469a&#45;8a29&#45;c5dbd6d85bca</title>
<path fill="none" stroke="black" d="M349.5,-816.74C349.5,-808.63 349.5,-799.93 349.5,-791.48"/>
<polygon fill="black" stroke="black" points="353,-791.35 349.5,-781.35 346,-791.35 353,-791.35"/>
</g>
<!-- a524501c&#45;7cab&#45;45bb&#45;a45a&#45;2fd1ceb444d4 -->
<g id="node32" class="node">
<title>a524501c&#45;7cab&#45;45bb&#45;a45a&#45;2fd1ceb444d4</title>
<polygon fill="none" stroke="black" points="306.5,-671 226.5,-671 226.5,-591 306.5,-591 306.5,-671"/>
<text text-anchor="middle" x="266.5" y="-622.5" font-family="Arial Unicode MS" font-size="10.00">AddOperand </text>
</g>
<!-- a2dd3bbf&#45;8a35&#45;469a&#45;8a29&#45;c5dbd6d85bca&#45;&gt;a524501c&#45;7cab&#45;45bb&#45;a45a&#45;2fd1ceb444d4 -->
<g id="edge31" class="edge">
<title>a2dd3bbf&#45;8a35&#45;469a&#45;8a29&#45;c5dbd6d85bca&#45;&gt;a524501c&#45;7cab&#45;45bb&#45;a45a&#45;2fd1ceb444d4</title>
<path fill="none" stroke="black" d="M322.55,-706.96C315.96,-698.15 308.81,-688.59 301.89,-679.33"/>
<polygon fill="black" stroke="black" points="304.68,-677.22 295.89,-671.31 299.08,-681.41 304.68,-677.22"/>
</g>
<!-- 9e72d09b&#45;2dab&#45;4582&#45;8823&#45;2eef3be29858 -->
<g id="node44" class="node">
<title>9e72d09b&#45;2dab&#45;4582&#45;8823&#45;2eef3be29858</title>
<polygon fill="none" stroke="black" points="367.5,-649 331.5,-649 331.5,-613 367.5,-613 367.5,-649"/>
<text text-anchor="middle" x="349.5" y="-622.5" font-family="Arial Unicode MS" font-size="10.00">+ </text>
</g>
<!-- a2dd3bbf&#45;8a35&#45;469a&#45;8a29&#45;c5dbd6d85bca&#45;&gt;9e72d09b&#45;2dab&#45;4582&#45;8823&#45;2eef3be29858 -->
<g id="edge43" class="edge">
<title>a2dd3bbf&#45;8a35&#45;469a&#45;8a29&#45;c5dbd6d85bca&#45;&gt;9e72d09b&#45;2dab&#45;4582&#45;8823&#45;2eef3be29858</title>
<path fill="none" stroke="black" d="M349.5,-706.96C349.5,-691.53 349.5,-673.79 349.5,-659.45"/>
<polygon fill="black" stroke="black" points="353,-659.23 349.5,-649.23 346,-659.23 353,-659.23"/>
</g>
<!-- aa776839&#45;4939&#45;47f6&#45;b1c8&#45;11ae71c82515 -->
<g id="node45" class="node">
<title>aa776839&#45;4939&#45;47f6&#45;b1c8&#45;11ae71c82515</title>
<polygon fill="none" stroke="black" points="468.5,-671 388.5,-671 388.5,-591 468.5,-591 468.5,-671"/>
<text text-anchor="middle" x="428.5" y="-622.5" font-family="Arial Unicode MS" font-size="10.00">AddOperand </text>
</g>
<!-- a2dd3bbf&#45;8a35&#45;469a&#45;8a29&#45;c5dbd6d85bca&#45;&gt;aa776839&#45;4939&#45;47f6&#45;b1c8&#45;11ae71c82515 -->
<g id="edge44" class="edge">
<title>a2dd3bbf&#45;8a35&#45;469a&#45;8a29&#45;c5dbd6d85bca&#45;&gt;aa776839&#45;4939&#45;47f6&#45;b1c8&#45;11ae71c82515</title>
<path fill="none" stroke="black" d="M375.15,-706.96C381.36,-698.24 388.09,-688.78 394.61,-679.61"/>
<polygon fill="black" stroke="black" points="397.58,-681.48 400.52,-671.31 391.87,-677.43 397.58,-681.48"/>
</g>
<!-- ee9795cb&#45;023a&#45;427d&#45;b9b1&#45;e6be4b901f6c -->
<g id="node33" class="node">
<title>ee9795cb&#45;023a&#45;427d&#45;b9b1&#45;e6be4b901f6c</title>
<polygon fill="none" stroke="black" points="214,-555 131,-555 131,-472 214,-472 214,-555"/>
<text text-anchor="middle" x="172.5" y="-505" font-family="Arial Unicode MS" font-size="10.00">MultOperand </text>
</g>
<!-- a524501c&#45;7cab&#45;45bb&#45;a45a&#45;2fd1ceb444d4&#45;&gt;ee9795cb&#45;023a&#45;427d&#45;b9b1&#45;e6be4b901f6c -->
<g id="edge32" class="edge">
<title>a524501c&#45;7cab&#45;45bb&#45;a45a&#45;2fd1ceb444d4&#45;&gt;ee9795cb&#45;023a&#45;427d&#45;b9b1&#45;e6be4b901f6c</title>
<path fill="none" stroke="black" d="M234.68,-590.9C227.43,-581.99 219.64,-572.42 212.11,-563.16"/>
<polygon fill="black" stroke="black" points="214.6,-560.69 205.57,-555.14 209.17,-565.11 214.6,-560.69"/>
</g>
<!-- fdbae875&#45;a44e&#45;4ef7&#45;a662&#45;bf7713171e60 -->
<g id="node38" class="node">
<title>fdbae875&#45;a44e&#45;4ef7&#45;a662&#45;bf7713171e60</title>
<polygon fill="none" stroke="black" points="271.5,-531.5 235.5,-531.5 235.5,-495.5 271.5,-495.5 271.5,-531.5"/>
<text text-anchor="middle" x="253.5" y="-505" font-family="Arial Unicode MS" font-size="10.00">* </text>
</g>
<!-- a524501c&#45;7cab&#45;45bb&#45;a45a&#45;2fd1ceb444d4&#45;&gt;fdbae875&#45;a44e&#45;4ef7&#45;a662&#45;bf7713171e60 -->
<g id="edge37" class="edge">
<title>a524501c&#45;7cab&#45;45bb&#45;a45a&#45;2fd1ceb444d4&#45;&gt;fdbae875&#45;a44e&#45;4ef7&#45;a662&#45;bf7713171e60</title>
<path fill="none" stroke="black" d="M262.1,-590.9C260.27,-574.68 258.2,-556.26 256.55,-541.57"/>
<polygon fill="black" stroke="black" points="260.02,-541.17 255.43,-531.62 253.07,-541.95 260.02,-541.17"/>
</g>
<!-- c1fb0c25&#45;c2c2&#45;4707&#45;8a12&#45;302525b13229 -->
<g id="node39" class="node">
<title>c1fb0c25&#45;c2c2&#45;4707&#45;8a12&#45;302525b13229</title>
<polygon fill="none" stroke="black" points="373,-555 290,-555 290,-472 373,-472 373,-555"/>
<text text-anchor="middle" x="331.5" y="-505" font-family="Arial Unicode MS" font-size="10.00">MultOperand </text>
</g>
<!-- a524501c&#45;7cab&#45;45bb&#45;a45a&#45;2fd1ceb444d4&#45;&gt;c1fb0c25&#45;c2c2&#45;4707&#45;8a12&#45;302525b13229 -->
<g id="edge38" class="edge">
<title>a524501c&#45;7cab&#45;45bb&#45;a45a&#45;2fd1ceb444d4&#45;&gt;c1fb0c25&#45;c2c2&#45;4707&#45;8a12&#45;302525b13229</title>
<path fill="none" stroke="black" d="M288.51,-590.9C293.37,-582.26 298.58,-573 303.64,-564.01"/>
<polygon fill="black" stroke="black" points="306.77,-565.57 308.63,-555.14 300.67,-562.14 306.77,-565.57"/>
</g>
<!-- aada537c&#45;e558&#45;417b&#45;ac3b&#45;993f73b4abc3 -->
<g id="node34" class="node">
<title>aada537c&#45;e558&#45;417b&#45;ac3b&#45;993f73b4abc3</title>
<polygon fill="none" stroke="black" points="204.5,-436 130.5,-436 130.5,-362 204.5,-362 204.5,-436"/>
<text text-anchor="middle" x="167.5" y="-390.5" font-family="Arial Unicode MS" font-size="10.00">Level1Expr </text>
</g>
<!-- ee9795cb&#45;023a&#45;427d&#45;b9b1&#45;e6be4b901f6c&#45;&gt;aada537c&#45;e558&#45;417b&#45;ac3b&#45;993f73b4abc3 -->
<g id="edge33" class="edge">
<title>ee9795cb&#45;023a&#45;427d&#45;b9b1&#45;e6be4b901f6c&#45;&gt;aada537c&#45;e558&#45;417b&#45;ac3b&#45;993f73b4abc3</title>
<path fill="none" stroke="black" d="M170.69,-471.88C170.32,-463.56 169.93,-454.74 169.56,-446.24"/>
<polygon fill="black" stroke="black" points="173.04,-445.91 169.1,-436.08 166.05,-446.22 173.04,-445.91"/>
</g>
<!-- bc24a450&#45;fa6f&#45;42bd&#45;82da&#45;27b47e3ae4ba -->
<g id="node35" class="node">
<title>bc24a450&#45;fa6f&#45;42bd&#45;82da&#45;27b47e3ae4ba</title>
<polygon fill="none" stroke="black" points="185.5,-326 127.5,-326 127.5,-268 185.5,-268 185.5,-326"/>
<text text-anchor="middle" x="156.5" y="-288.5" font-family="Arial Unicode MS" font-size="10.00">Primary </text>
</g>
<!-- aada537c&#45;e558&#45;417b&#45;ac3b&#45;993f73b4abc3&#45;&gt;bc24a450&#45;fa6f&#45;42bd&#45;82da&#45;27b47e3ae4ba -->
<g id="edge34" class="edge">
<title>aada537c&#45;e558&#45;417b&#45;ac3b&#45;993f73b4abc3&#45;&gt;bc24a450&#45;fa6f&#45;42bd&#45;82da&#45;27b47e3ae4ba</title>
<path fill="none" stroke="black" d="M163.53,-361.9C162.61,-353.55 161.63,-344.63 160.7,-336.19"/>
<polygon fill="black" stroke="black" points="164.18,-335.76 159.6,-326.2 157.22,-336.53 164.18,-335.76"/>
</g>
<!-- 24a0023f&#45;6928&#45;48a1&#45;ab5e&#45;89825c13a849 -->
<g id="node36" class="node">
<title>24a0023f&#45;6928&#45;48a1&#45;ab5e&#45;89825c13a849</title>
<polygon fill="none" stroke="black" points="233.5,-232 73.5,-232 73.5,-72 233.5,-72 233.5,-232"/>
<text text-anchor="middle" x="153.5" y="-143.5" font-family="Arial Unicode MS" font-size="10.00">UnsignedArithmeticConstant </text>
</g>
<!-- bc24a450&#45;fa6f&#45;42bd&#45;82da&#45;27b47e3ae4ba&#45;&gt;24a0023f&#45;6928&#45;48a1&#45;ab5e&#45;89825c13a849 -->
<g id="edge35" class="edge">
<title>bc24a450&#45;fa6f&#45;42bd&#45;82da&#45;27b47e3ae4ba&#45;&gt;24a0023f&#45;6928&#45;48a1&#45;ab5e&#45;89825c13a849</title>
<path fill="none" stroke="black" d="M155.91,-267.75C155.75,-260.1 155.56,-251.39 155.37,-242.27"/>
<polygon fill="black" stroke="black" points="158.87,-242.16 155.16,-232.24 151.87,-242.31 158.87,-242.16"/>
</g>
<!-- adbf6142&#45;3779&#45;42a3&#45;a35c&#45;30391ea5828b -->
<g id="node37" class="node">
<title>adbf6142&#45;3779&#45;42a3&#45;a35c&#45;30391ea5828b</title>
<polygon fill="none" stroke="black" points="171.5,-36 135.5,-36 135.5,0 171.5,0 171.5,-36"/>
<text text-anchor="middle" x="153.5" y="-9.5" font-family="Arial Unicode MS" font-size="10.00">2 </text>
</g>
<!-- 24a0023f&#45;6928&#45;48a1&#45;ab5e&#45;89825c13a849&#45;&gt;adbf6142&#45;3779&#45;42a3&#45;a35c&#45;30391ea5828b -->
<g id="edge36" class="edge">
<title>24a0023f&#45;6928&#45;48a1&#45;ab5e&#45;89825c13a849&#45;&gt;adbf6142&#45;3779&#45;42a3&#45;a35c&#45;30391ea5828b</title>
<path fill="none" stroke="black" d="M153.5,-71.93C153.5,-62.82 153.5,-54.06 153.5,-46.38"/>
<polygon fill="black" stroke="black" points="157,-46.31 153.5,-36.31 150,-46.31 157,-46.31"/>
</g>
<!-- 403a82b9&#45;8fca&#45;4e39&#45;b1e2&#45;9ee25d129357 -->
<g id="node40" class="node">
<title>403a82b9&#45;8fca&#45;4e39&#45;b1e2&#45;9ee25d129357</title>
<polygon fill="none" stroke="black" points="368.5,-436 294.5,-436 294.5,-362 368.5,-362 368.5,-436"/>
<text text-anchor="middle" x="331.5" y="-390.5" font-family="Arial Unicode MS" font-size="10.00">Level1Expr </text>
</g>
<!-- c1fb0c25&#45;c2c2&#45;4707&#45;8a12&#45;302525b13229&#45;&gt;403a82b9&#45;8fca&#45;4e39&#45;b1e2&#45;9ee25d129357 -->
<g id="edge39" class="edge">
<title>c1fb0c25&#45;c2c2&#45;4707&#45;8a12&#45;302525b13229&#45;&gt;403a82b9&#45;8fca&#45;4e39&#45;b1e2&#45;9ee25d129357</title>
<path fill="none" stroke="black" d="M331.5,-471.88C331.5,-463.56 331.5,-454.74 331.5,-446.24"/>
<polygon fill="black" stroke="black" points="335,-446.08 331.5,-436.08 328,-446.08 335,-446.08"/>
</g>
<!-- 5337d3be&#45;d193&#45;491b&#45;8dce&#45;2ae05cdd858f -->
<g id="node41" class="node">
<title>5337d3be&#45;d193&#45;491b&#45;8dce&#45;2ae05cdd858f</title>
<polygon fill="none" stroke="black" points="360.5,-326 302.5,-326 302.5,-268 360.5,-268 360.5,-326"/>
<text text-anchor="middle" x="331.5" y="-288.5" font-family="Arial Unicode MS" font-size="10.00">Primary </text>
</g>
<!-- 403a82b9&#45;8fca&#45;4e39&#45;b1e2&#45;9ee25d129357&#45;&gt;5337d3be&#45;d193&#45;491b&#45;8dce&#45;2ae05cdd858f -->
<g id="edge40" class="edge">
<title>403a82b9&#45;8fca&#45;4e39&#45;b1e2&#45;9ee25d129357&#45;&gt;5337d3be&#45;d193&#45;491b&#45;8dce&#45;2ae05cdd858f</title>
<path fill="none" stroke="black" d="M331.5,-361.9C331.5,-353.64 331.5,-344.83 331.5,-336.47"/>
<polygon fill="black" stroke="black" points="335,-336.2 331.5,-326.2 328,-336.21 335,-336.2"/>
</g>
<!-- 76c4690f&#45;91f5&#45;429a&#45;8acc&#45;0903ed580196 -->
<g id="node42" class="node">
<title>76c4690f&#45;91f5&#45;429a&#45;8acc&#45;0903ed580196</title>
<polygon fill="none" stroke="black" points="411.5,-232 251.5,-232 251.5,-72 411.5,-72 411.5,-232"/>
<text text-anchor="middle" x="331.5" y="-143.5" font-family="Arial Unicode MS" font-size="10.00">UnsignedArithmeticConstant </text>
</g>
<!-- 5337d3be&#45;d193&#45;491b&#45;8dce&#45;2ae05cdd858f&#45;&gt;76c4690f&#45;91f5&#45;429a&#45;8acc&#45;0903ed580196 -->
<g id="edge41" class="edge">
<title>5337d3be&#45;d193&#45;491b&#45;8dce&#45;2ae05cdd858f&#45;&gt;76c4690f&#45;91f5&#45;429a&#45;8acc&#45;0903ed580196</title>
<path fill="none" stroke="black" d="M331.5,-267.75C331.5,-260.1 331.5,-251.39 331.5,-242.27"/>
<polygon fill="black" stroke="black" points="335,-242.24 331.5,-232.24 328,-242.24 335,-242.24"/>
</g>
<!-- e4f0a9fb&#45;1d43&#45;4b7d&#45;adae&#45;f2b625a14b9d -->
<g id="node43" class="node">
<title>e4f0a9fb&#45;1d43&#45;4b7d&#45;adae&#45;f2b625a14b9d</title>
<polygon fill="none" stroke="black" points="349.5,-36 313.5,-36 313.5,0 349.5,0 349.5,-36"/>
<text text-anchor="middle" x="331.5" y="-9.5" font-family="Arial Unicode MS" font-size="10.00">7 </text>
</g>
<!-- 76c4690f&#45;91f5&#45;429a&#45;8acc&#45;0903ed580196&#45;&gt;e4f0a9fb&#45;1d43&#45;4b7d&#45;adae&#45;f2b625a14b9d -->
<g id="edge42" class="edge">
<title>76c4690f&#45;91f5&#45;429a&#45;8acc&#45;0903ed580196&#45;&gt;e4f0a9fb&#45;1d43&#45;4b7d&#45;adae&#45;f2b625a14b9d</title>
<path fill="none" stroke="black" d="M331.5,-71.93C331.5,-62.82 331.5,-54.06 331.5,-46.38"/>
<polygon fill="black" stroke="black" points="335,-46.31 331.5,-36.31 328,-46.31 335,-46.31"/>
</g>
<!-- e9dbef04&#45;a56d&#45;47da&#45;ac3e&#45;b52905b6568f -->
<g id="node46" class="node">
<title>e9dbef04&#45;a56d&#45;47da&#45;ac3e&#45;b52905b6568f</title>
<polygon fill="none" stroke="black" points="512,-555 429,-555 429,-472 512,-472 512,-555"/>
<text text-anchor="middle" x="470.5" y="-505" font-family="Arial Unicode MS" font-size="10.00">MultOperand </text>
</g>
<!-- aa776839&#45;4939&#45;47f6&#45;b1c8&#45;11ae71c82515&#45;&gt;e9dbef04&#45;a56d&#45;47da&#45;ac3e&#45;b52905b6568f -->
<g id="edge45" class="edge">
<title>aa776839&#45;4939&#45;47f6&#45;b1c8&#45;11ae71c82515&#45;&gt;e9dbef04&#45;a56d&#45;47da&#45;ac3e&#45;b52905b6568f</title>
<path fill="none" stroke="black" d="M442.72,-590.9C445.8,-582.44 449.09,-573.38 452.29,-564.57"/>
<polygon fill="black" stroke="black" points="455.59,-565.73 455.72,-555.14 449.02,-563.34 455.59,-565.73"/>
</g>
<!-- b12fd66f&#45;a086&#45;4a91&#45;9b85&#45;df52dcfde029 -->
<g id="node47" class="node">
<title>b12fd66f&#45;a086&#45;4a91&#45;9b85&#45;df52dcfde029</title>
<polygon fill="none" stroke="black" points="526.5,-436 452.5,-436 452.5,-362 526.5,-362 526.5,-436"/>
<text text-anchor="middle" x="489.5" y="-390.5" font-family="Arial Unicode MS" font-size="10.00">Level1Expr </text>
</g>
<!-- e9dbef04&#45;a56d&#45;47da&#45;ac3e&#45;b52905b6568f&#45;&gt;b12fd66f&#45;a086&#45;4a91&#45;9b85&#45;df52dcfde029 -->
<g id="edge46" class="edge">
<title>e9dbef04&#45;a56d&#45;47da&#45;ac3e&#45;b52905b6568f&#45;&gt;b12fd66f&#45;a086&#45;4a91&#45;9b85&#45;df52dcfde029</title>
<path fill="none" stroke="black" d="M477.36,-471.88C478.78,-463.47 480.29,-454.55 481.74,-445.96"/>
<polygon fill="black" stroke="black" points="485.19,-446.52 483.41,-436.08 478.29,-445.36 485.19,-446.52"/>
</g>
<!-- dcef40d3&#45;5fbd&#45;4e78&#45;8b84&#45;93a1e04781db -->
<g id="node48" class="node">
<title>dcef40d3&#45;5fbd&#45;4e78&#45;8b84&#45;93a1e04781db</title>
<polygon fill="none" stroke="black" points="528.5,-326 470.5,-326 470.5,-268 528.5,-268 528.5,-326"/>
<text text-anchor="middle" x="499.5" y="-288.5" font-family="Arial Unicode MS" font-size="10.00">Primary </text>
</g>
<!-- b12fd66f&#45;a086&#45;4a91&#45;9b85&#45;df52dcfde029&#45;&gt;dcef40d3&#45;5fbd&#45;4e78&#45;8b84&#45;93a1e04781db -->
<g id="edge47" class="edge">
<title>b12fd66f&#45;a086&#45;4a91&#45;9b85&#45;df52dcfde029&#45;&gt;dcef40d3&#45;5fbd&#45;4e78&#45;8b84&#45;93a1e04781db</title>
<path fill="none" stroke="black" d="M493.11,-361.9C493.95,-353.55 494.84,-344.63 495.68,-336.19"/>
<polygon fill="black" stroke="black" points="499.17,-336.5 496.68,-326.2 492.2,-335.81 499.17,-336.5"/>
</g>
<!-- 52f8a09f&#45;44d3&#45;4eb9&#45;b4e9&#45;470a82c87d57 -->
<g id="node49" class="node">
<title>52f8a09f&#45;44d3&#45;4eb9&#45;b4e9&#45;470a82c87d57</title>
<polygon fill="none" stroke="black" points="589.5,-232 429.5,-232 429.5,-72 589.5,-72 589.5,-232"/>
<text text-anchor="middle" x="509.5" y="-143.5" font-family="Arial Unicode MS" font-size="10.00">UnsignedArithmeticConstant </text>
</g>
<!-- dcef40d3&#45;5fbd&#45;4e78&#45;8b84&#45;93a1e04781db&#45;&gt;52f8a09f&#45;44d3&#45;4eb9&#45;b4e9&#45;470a82c87d57 -->
<g id="edge48" class="edge">
<title>dcef40d3&#45;5fbd&#45;4e78&#45;8b84&#45;93a1e04781db&#45;&gt;52f8a09f&#45;44d3&#45;4eb9&#45;b4e9&#45;470a82c87d57</title>
<path fill="none" stroke="black" d="M501.48,-267.75C502.01,-260.1 502.62,-251.39 503.26,-242.27"/>
<polygon fill="black" stroke="black" points="506.75,-242.46 503.96,-232.24 499.77,-241.97 506.75,-242.46"/>
</g>
<!-- 84dce690&#45;5ad0&#45;4086&#45;a498&#45;66cccfacb40d -->
<g id="node50" class="node">
<title>84dce690&#45;5ad0&#45;4086&#45;a498&#45;66cccfacb40d</title>
<polygon fill="none" stroke="black" points="527.5,-36 491.5,-36 491.5,0 527.5,0 527.5,-36"/>
<text text-anchor="middle" x="509.5" y="-9.5" font-family="Arial Unicode MS" font-size="10.00">3 </text>
</g>
<!-- 52f8a09f&#45;44d3&#45;4eb9&#45;b4e9&#45;470a82c87d57&#45;&gt;84dce690&#45;5ad0&#45;4086&#45;a498&#45;66cccfacb40d -->
<g id="edge49" class="edge">
<title>52f8a09f&#45;44d3&#45;4eb9&#45;b4e9&#45;470a82c87d57&#45;&gt;84dce690&#45;5ad0&#45;4086&#45;a498&#45;66cccfacb40d</title>
<path fill="none" stroke="black" d="M509.5,-71.93C509.5,-62.82 509.5,-54.06 509.5,-46.38"/>
<polygon fill="black" stroke="black" points="513,-46.31 509.5,-36.31 506,-46.31 513,-46.31"/>
</g>
<!-- 89be22e0&#45;ed26&#45;4bd6&#45;aa17&#45;7fa0b35198f1 -->
<g id="node52" class="node">
<title>89be22e0&#45;ed26&#45;4bd6&#45;aa17&#45;7fa0b35198f1</title>
<polygon fill="none" stroke="black" points="315.5,-2202.5 277.5,-2202.5 277.5,-2164.5 315.5,-2164.5 315.5,-2202.5"/>
<text text-anchor="middle" x="296.5" y="-2175" font-family="Arial Unicode MS" font-size="10.00">end </text>
</g>
<!-- 44009315&#45;d563&#45;48f5&#45;9c1b&#45;b2349f511f71&#45;&gt;89be22e0&#45;ed26&#45;4bd6&#45;aa17&#45;7fa0b35198f1 -->
<g id="edge51" class="edge">
<title>44009315&#45;d563&#45;48f5&#45;9c1b&#45;b2349f511f71&#45;&gt;89be22e0&#45;ed26&#45;4bd6&#45;aa17&#45;7fa0b35198f1</title>
<path fill="none" stroke="black" d="M319.92,-2264.92C314.75,-2247.16 309.12,-2227.82 304.67,-2212.56"/>
<polygon fill="black" stroke="black" points="307.96,-2211.34 301.8,-2202.71 301.24,-2213.29 307.96,-2211.34"/>
</g>
<!-- b1e57703&#45;6a50&#45;48f4&#45;a482&#45;3a9bbdaef682 -->
<g id="node53" class="node">
<title>b1e57703&#45;6a50&#45;48f4&#45;a482&#45;3a9bbdaef682</title>
<polygon fill="none" stroke="black" points="395,-2214 334,-2214 334,-2153 395,-2153 395,-2214"/>
<text text-anchor="middle" x="364.5" y="-2175" font-family="Arial Unicode MS" font-size="10.00">program </text>
</g>
<!-- 44009315&#45;d563&#45;48f5&#45;9c1b&#45;b2349f511f71&#45;&gt;b1e57703&#45;6a50&#45;48f4&#45;a482&#45;3a9bbdaef682 -->
<g id="edge52" class="edge">
<title>44009315&#45;d563&#45;48f5&#45;9c1b&#45;b2349f511f71&#45;&gt;b1e57703&#45;6a50&#45;48f4&#45;a482&#45;3a9bbdaef682</title>
<path fill="none" stroke="black" d="M346.01,-2264.92C349.12,-2251.42 352.43,-2237 355.38,-2224.16"/>
<polygon fill="black" stroke="black" points="358.83,-2224.78 357.66,-2214.25 352.01,-2223.21 358.83,-2224.78"/>
</g>
<!-- fad0638d&#45;a32d&#45;4205&#45;a247&#45;992403ccb043 -->
<g id="node54" class="node">
<title>fad0638d&#45;a32d&#45;4205&#45;a247&#45;992403ccb043</title>
<polygon fill="none" stroke="black" points="482,-2218 413,-2218 413,-2149 482,-2149 482,-2218"/>
<text text-anchor="middle" x="447.5" y="-2175" font-family="Arial Unicode MS" font-size="10.00">Calculator </text>
</g>
<!-- 44009315&#45;d563&#45;48f5&#45;9c1b&#45;b2349f511f71&#45;&gt;fad0638d&#45;a32d&#45;4205&#45;a247&#45;992403ccb043 -->
<g id="edge53" class="edge">
<title>44009315&#45;d563&#45;48f5&#45;9c1b&#45;b2349f511f71&#45;&gt;fad0638d&#45;a32d&#45;4205&#45;a247&#45;992403ccb043</title>
<path fill="none" stroke="black" d="M377.87,-2264.92C389.1,-2251.94 401.07,-2238.12 411.86,-2225.66"/>
<polygon fill="black" stroke="black" points="414.51,-2227.95 418.41,-2218.1 409.22,-2223.37 414.51,-2227.95"/>
</g>
</g>
</svg>
