<?xml version="1.0" encoding="UTF-8" standalone="no"?>
<!DOCTYPE svg PUBLIC "-//W3C//DTD SVG 1.1//EN"
 "http://www.w3.org/Graphics/SVG/1.1/DTD/svg11.dtd">
<!-- Generated by graphviz version 2.43.0 (0)
 -->
<!-- Title: G Pages: 1 -->
<svg width="491pt" height="920pt"
 viewBox="0.00 0.00 490.50 920.00" xmlns="http://www.w3.org/2000/svg" xmlns:xlink="http://www.w3.org/1999/xlink">
<g id="graph0" class="graph" transform="scale(1 1) rotate(0) translate(4 916)">
<title>G</title>
<polygon fill="white" stroke="transparent" points="-4,4 -4,-916 486.5,-916 486.5,4 -4,4"/>
<!-- 8972d24f&#45;520a&#45;4bb0&#45;83d7&#45;5a76f47005e4 -->
<g id="node1" class="node">
<title>8972d24f&#45;520a&#45;4bb0&#45;83d7&#45;5a76f47005e4</title>
<polygon fill="none" stroke="black" points="257.5,-912 196.5,-912 196.5,-851 257.5,-851 257.5,-912"/>
<text text-anchor="middle" x="227" y="-873" font-family="Arial Unicode MS" font-size="10.00">Program </text>
</g>
<!-- 82f88b67&#45;d689&#45;42cb&#45;8a18&#45;3ecbb3dc1e31 -->
<g id="node2" class="node">
<title>82f88b67&#45;d689&#45;42cb&#45;8a18&#45;3ecbb3dc1e31</title>
<polygon fill="none" stroke="black" points="233,-815 119,-815 119,-701 233,-701 233,-815"/>
<text text-anchor="middle" x="176" y="-749.5" font-family="Arial Unicode MS" font-size="10.00">ExecutableProgram </text>
</g>
<!-- 8972d24f&#45;520a&#45;4bb0&#45;83d7&#45;5a76f47005e4&#45;&gt;82f88b67&#45;d689&#45;42cb&#45;8a18&#45;3ecbb3dc1e31 -->
<g id="edge1" class="edge">
<title>8972d24f&#45;520a&#45;4bb0&#45;83d7&#45;5a76f47005e4&#45;&gt;82f88b67&#45;d689&#45;42cb&#45;8a18&#45;3ecbb3dc1e31</title>
<path fill="none" stroke="black" d="M214.52,-850.78C211.2,-842.85 207.47,-833.96 203.67,-824.92"/>
<polygon fill="black" stroke="black" points="206.8,-823.34 199.71,-815.48 200.35,-826.05 206.8,-823.34"/>
</g>
<!-- cef905d7&#45;ea5e&#45;4393&#45;9ed8&#45;c096b0b1f495 -->
<g id="node25" class="node">
<title>cef905d7&#45;ea5e&#45;4393&#45;9ed8&#45;c096b0b1f495</title>
<polygon fill="none" stroke="black" points="307,-786 251,-786 251,-730 307,-730 307,-786"/>
<text text-anchor="middle" x="279" y="-749.5" font-family="Arial Unicode MS" font-size="10.00">&lt;EOF&gt; </text>
</g>
<!-- 8972d24f&#45;520a&#45;4bb0&#45;83d7&#45;5a76f47005e4&#45;&gt;cef905d7&#45;ea5e&#45;4393&#45;9ed8&#45;c096b0b1f495 -->
<g id="edge24" class="edge">
<title>8972d24f&#45;520a&#45;4bb0&#45;83d7&#45;5a76f47005e4&#45;&gt;cef905d7&#45;ea5e&#45;4393&#45;9ed8&#45;c096b0b1f495</title>
<path fill="none" stroke="black" d="M239.72,-850.78C246.82,-834.18 255.74,-813.36 263.27,-795.75"/>
<polygon fill="black" stroke="black" points="266.58,-796.91 267.3,-786.34 260.15,-794.15 266.58,-796.91"/>
</g>
<!-- ee74fc6a&#45;cf69&#45;4dd3&#45;9d13&#45;f4d66068610f -->
<g id="node3" class="node">
<title>ee74fc6a&#45;cf69&#45;4dd3&#45;9d13&#45;f4d66068610f</title>
<polygon fill="none" stroke="black" points="170,-665 86,-665 86,-581 170,-581 170,-665"/>
<text text-anchor="middle" x="128" y="-614.5" font-family="Arial Unicode MS" font-size="10.00">ProgramStmt </text>
</g>
<!-- 82f88b67&#45;d689&#45;42cb&#45;8a18&#45;3ecbb3dc1e31&#45;&gt;ee74fc6a&#45;cf69&#45;4dd3&#45;9d13&#45;f4d66068610f -->
<g id="edge2" class="edge">
<title>82f88b67&#45;d689&#45;42cb&#45;8a18&#45;3ecbb3dc1e31&#45;&gt;ee74fc6a&#45;cf69&#45;4dd3&#45;9d13&#45;f4d66068610f</title>
<path fill="none" stroke="black" d="M155.78,-700.98C152.62,-692.21 149.36,-683.19 146.25,-674.56"/>
<polygon fill="black" stroke="black" points="149.48,-673.22 142.8,-665 142.9,-675.6 149.48,-673.22"/>
</g>
<!-- 76af315b&#45;0a76&#45;4995&#45;9e6c&#45;8668be5f0e8b -->
<g id="node5" class="node">
<title>76af315b&#45;0a76&#45;4995&#45;9e6c&#45;8668be5f0e8b</title>
<polygon fill="none" stroke="black" points="262,-660 188,-660 188,-586 262,-586 262,-660"/>
<text text-anchor="middle" x="225" y="-614.5" font-family="Arial Unicode MS" font-size="10.00">MainRange </text>
</g>
<!-- 82f88b67&#45;d689&#45;42cb&#45;8a18&#45;3ecbb3dc1e31&#45;&gt;76af315b&#45;0a76&#45;4995&#45;9e6c&#45;8668be5f0e8b -->
<g id="edge4" class="edge">
<title>82f88b67&#45;d689&#45;42cb&#45;8a18&#45;3ecbb3dc1e31&#45;&gt;76af315b&#45;0a76&#45;4995&#45;9e6c&#45;8668be5f0e8b</title>
<path fill="none" stroke="black" d="M196.64,-700.98C200.48,-690.54 204.46,-679.75 208.17,-669.67"/>
<polygon fill="black" stroke="black" points="211.47,-670.86 211.64,-660.26 204.9,-668.44 211.47,-670.86"/>
</g>
<!-- fb626382&#45;45dd&#45;4645&#45;96ee&#45;7f3619d0ee03 -->
<g id="node4" class="node">
<title>fb626382&#45;45dd&#45;4645&#45;96ee&#45;7f3619d0ee03</title>
<polygon fill="none" stroke="black" points="162.5,-528.5 93.5,-528.5 93.5,-459.5 162.5,-459.5 162.5,-528.5"/>
<text text-anchor="middle" x="128" y="-485.5" font-family="Arial Unicode MS" font-size="10.00">Calculator </text>
</g>
<!-- ee74fc6a&#45;cf69&#45;4dd3&#45;9d13&#45;f4d66068610f&#45;&gt;fb626382&#45;45dd&#45;4645&#45;96ee&#45;7f3619d0ee03 -->
<g id="edge3" class="edge">
<title>ee74fc6a&#45;cf69&#45;4dd3&#45;9d13&#45;f4d66068610f&#45;&gt;fb626382&#45;45dd&#45;4645&#45;96ee&#45;7f3619d0ee03</title>
<path fill="none" stroke="black" d="M128,-580.77C128,-567.38 128,-552.47 128,-538.9"/>
<polygon fill="black" stroke="black" points="131.5,-538.82 128,-528.82 124.5,-538.82 131.5,-538.82"/>
</g>
<!-- 056a6ea3&#45;9d50&#45;49a9&#45;afb0&#45;e6a62436c6e0 -->
<g id="node6" class="node">
<title>056a6ea3&#45;9d50&#45;49a9&#45;afb0&#45;e6a62436c6e0</title>
<polygon fill="none" stroke="black" points="236,-516 192,-516 192,-472 236,-472 236,-516"/>
<text text-anchor="middle" x="214" y="-485.5" font-family="Arial Unicode MS" font-size="10.00">Body </text>
</g>
<!-- 76af315b&#45;0a76&#45;4995&#45;9e6c&#45;8668be5f0e8b&#45;&gt;056a6ea3&#45;9d50&#45;49a9&#45;afb0&#45;e6a62436c6e0 -->
<g id="edge5" class="edge">
<title>76af315b&#45;0a76&#45;4995&#45;9e6c&#45;8668be5f0e8b&#45;&gt;056a6ea3&#45;9d50&#45;49a9&#45;afb0&#45;e6a62436c6e0</title>
<path fill="none" stroke="black" d="M221.88,-585.95C220.24,-567.07 218.26,-544.18 216.69,-526.08"/>
<polygon fill="black" stroke="black" points="220.17,-525.71 215.82,-516.05 213.2,-526.32 220.17,-525.71"/>
</g>
<!-- 44009315&#45;d563&#45;48f5&#45;9c1b&#45;b2349f511f71 -->
<g id="node21" class="node">
<title>44009315&#45;d563&#45;48f5&#45;9c1b&#45;b2349f511f71</title>
<polygon fill="none" stroke="black" points="386,-545 284,-545 284,-443 386,-443 386,-545"/>
<text text-anchor="middle" x="335" y="-485.5" font-family="Arial Unicode MS" font-size="10.00">EndProgramStmt </text>
</g>
<!-- 76af315b&#45;0a76&#45;4995&#45;9e6c&#45;8668be5f0e8b&#45;&gt;44009315&#45;d563&#45;48f5&#45;9c1b&#45;b2349f511f71 -->
<g id="edge20" class="edge">
<title>76af315b&#45;0a76&#45;4995&#45;9e6c&#45;8668be5f0e8b&#45;&gt;44009315&#45;d563&#45;48f5&#45;9c1b&#45;b2349f511f71</title>
<path fill="none" stroke="black" d="M256.23,-585.95C265.1,-575.7 275,-564.27 284.71,-553.07"/>
<polygon fill="black" stroke="black" points="287.48,-555.22 291.38,-545.36 282.18,-550.63 287.48,-555.22"/>
</g>
<!-- ba3dfae9&#45;5846&#45;424c&#45;a8a1&#45;6203cc40d9b5 -->
<g id="node7" class="node">
<title>ba3dfae9&#45;5846&#45;424c&#45;a8a1&#45;6203cc40d9b5</title>
<polygon fill="none" stroke="black" points="141.5,-407 50.5,-407 50.5,-316 141.5,-316 141.5,-407"/>
<text text-anchor="middle" x="96" y="-353" font-family="Arial Unicode MS" font-size="10.00">BodyConstruct </text>
</g>
<!-- 056a6ea3&#45;9d50&#45;49a9&#45;afb0&#45;e6a62436c6e0&#45;&gt;ba3dfae9&#45;5846&#45;424c&#45;a8a1&#45;6203cc40d9b5 -->
<g id="edge6" class="edge">
<title>056a6ea3&#45;9d50&#45;49a9&#45;afb0&#45;e6a62436c6e0&#45;&gt;ba3dfae9&#45;5846&#45;424c&#45;a8a1&#45;6203cc40d9b5</title>
<path fill="none" stroke="black" d="M196.19,-471.92C188.52,-462.93 179.4,-452.38 171,-443 162.76,-433.79 153.89,-424.1 145.24,-414.75"/>
<polygon fill="black" stroke="black" points="147.73,-412.29 138.37,-407.34 142.6,-417.05 147.73,-412.29"/>
</g>
<!-- f1c06020&#45;0744&#45;4450&#45;81f3&#45;f7020ced3226 -->
<g id="node10" class="node">
<title>f1c06020&#45;0744&#45;4450&#45;81f3&#45;f7020ced3226</title>
<polygon fill="none" stroke="black" points="259.5,-407 168.5,-407 168.5,-316 259.5,-316 259.5,-407"/>
<text text-anchor="middle" x="214" y="-353" font-family="Arial Unicode MS" font-size="10.00">BodyConstruct </text>
</g>
<!-- 056a6ea3&#45;9d50&#45;49a9&#45;afb0&#45;e6a62436c6e0&#45;&gt;f1c06020&#45;0744&#45;4450&#45;81f3&#45;f7020ced3226 -->
<g id="edge9" class="edge">
<title>056a6ea3&#45;9d50&#45;49a9&#45;afb0&#45;e6a62436c6e0&#45;&gt;f1c06020&#45;0744&#45;4450&#45;81f3&#45;f7020ced3226</title>
<path fill="none" stroke="black" d="M214,-471.74C214,-456.93 214,-436.45 214,-417.22"/>
<polygon fill="black" stroke="black" points="217.5,-417.02 214,-407.02 210.5,-417.02 217.5,-417.02"/>
</g>
<!-- 7c925b9e&#45;b614&#45;4361&#45;96c9&#45;cf99a0be1a60 -->
<g id="node8" class="node">
<title>7c925b9e&#45;b614&#45;4361&#45;96c9&#45;cf99a0be1a60</title>
<polygon fill="none" stroke="black" points="56,-262 0,-262 0,-206 56,-206 56,-262"/>
<text text-anchor="middle" x="28" y="-225.5" font-family="Arial Unicode MS" font-size="10.00">implicit </text>
</g>
<!-- ba3dfae9&#45;5846&#45;424c&#45;a8a1&#45;6203cc40d9b5&#45;&gt;7c925b9e&#45;b614&#45;4361&#45;96c9&#45;cf99a0be1a60 -->
<g id="edge7" class="edge">
<title>ba3dfae9&#45;5846&#45;424c&#45;a8a1&#45;6203cc40d9b5&#45;&gt;7c925b9e&#45;b614&#45;4361&#45;96c9&#45;cf99a0be1a60</title>
<path fill="none" stroke="black" d="M71.83,-315.9C63.88,-301.22 55.14,-285.09 47.57,-271.12"/>
<polygon fill="black" stroke="black" points="50.63,-269.42 42.79,-262.29 44.47,-272.75 50.63,-269.42"/>
</g>
<!-- 51fe34c0&#45;cfee&#45;402a&#45;8493&#45;a69cbdd7e742 -->
<g id="node9" class="node">
<title>51fe34c0&#45;cfee&#45;402a&#45;8493&#45;a69cbdd7e742</title>
<polygon fill="none" stroke="black" points="118,-256 74,-256 74,-212 118,-212 118,-256"/>
<text text-anchor="middle" x="96" y="-225.5" font-family="Arial Unicode MS" font-size="10.00">none </text>
</g>
<!-- ba3dfae9&#45;5846&#45;424c&#45;a8a1&#45;6203cc40d9b5&#45;&gt;51fe34c0&#45;cfee&#45;402a&#45;8493&#45;a69cbdd7e742 -->
<g id="edge8" class="edge">
<title>ba3dfae9&#45;5846&#45;424c&#45;a8a1&#45;6203cc40d9b5&#45;&gt;51fe34c0&#45;cfee&#45;402a&#45;8493&#45;a69cbdd7e742</title>
<path fill="none" stroke="black" d="M96,-315.9C96,-299.57 96,-281.45 96,-266.5"/>
<polygon fill="black" stroke="black" points="99.5,-266.25 96,-256.25 92.5,-266.25 99.5,-266.25"/>
</g>
<!-- 6a1eb868&#45;6902&#45;44ab&#45;9e42&#45;4452cddf6d12 -->
<g id="node11" class="node">
<title>6a1eb868&#45;6902&#45;44ab&#45;9e42&#45;4452cddf6d12</title>
<polygon fill="none" stroke="black" points="178,-255 136,-255 136,-213 178,-213 178,-255"/>
<text text-anchor="middle" x="157" y="-225.5" font-family="Arial Unicode MS" font-size="10.00">print </text>
</g>
<!-- f1c06020&#45;0744&#45;4450&#45;81f3&#45;f7020ced3226&#45;&gt;6a1eb868&#45;6902&#45;44ab&#45;9e42&#45;4452cddf6d12 -->
<g id="edge10" class="edge">
<title>f1c06020&#45;0744&#45;4450&#45;81f3&#45;f7020ced3226&#45;&gt;6a1eb868&#45;6902&#45;44ab&#45;9e42&#45;4452cddf6d12</title>
<path fill="none" stroke="black" d="M193.74,-315.9C186.03,-298.91 177.43,-279.97 170.49,-264.7"/>
<polygon fill="black" stroke="black" points="173.52,-262.9 166.19,-255.24 167.14,-265.8 173.52,-262.9"/>
</g>
<!-- dc463ca1&#45;19b4&#45;4a46&#45;9c3f&#45;5774eb36d4f8 -->
<g id="node12" class="node">
<title>dc463ca1&#45;19b4&#45;4a46&#45;9c3f&#45;5774eb36d4f8</title>
<polygon fill="none" stroke="black" points="232,-252 196,-252 196,-216 232,-216 232,-252"/>
<text text-anchor="middle" x="214" y="-225.5" font-family="Arial Unicode MS" font-size="10.00">* </text>
</g>
<!-- f1c06020&#45;0744&#45;4450&#45;81f3&#45;f7020ced3226&#45;&gt;dc463ca1&#45;19b4&#45;4a46&#45;9c3f&#45;5774eb36d4f8 -->
<g id="edge11" class="edge">
<title>f1c06020&#45;0744&#45;4450&#45;81f3&#45;f7020ced3226&#45;&gt;dc463ca1&#45;19b4&#45;4a46&#45;9c3f&#45;5774eb36d4f8</title>
<path fill="none" stroke="black" d="M214,-315.9C214,-297.93 214,-277.78 214,-262.08"/>
<polygon fill="black" stroke="black" points="217.5,-262.01 214,-252.01 210.5,-262.01 217.5,-262.01"/>
</g>
<!-- 4d1b7ccf&#45;8487&#45;4f22&#45;8213&#45;1e016d4b6b91 -->
<g id="node13" class="node">
<title>4d1b7ccf&#45;8487&#45;4f22&#45;8213&#45;1e016d4b6b91</title>
<polygon fill="none" stroke="black" points="286,-252 250,-252 250,-216 286,-216 286,-252"/>
<text text-anchor="middle" x="268" y="-225.5" font-family="Arial Unicode MS" font-size="10.00">, </text>
</g>
<!-- f1c06020&#45;0744&#45;4450&#45;81f3&#45;f7020ced3226&#45;&gt;4d1b7ccf&#45;8487&#45;4f22&#45;8213&#45;1e016d4b6b91 -->
<g id="edge12" class="edge">
<title>f1c06020&#45;0744&#45;4450&#45;81f3&#45;f7020ced3226&#45;&gt;4d1b7ccf&#45;8487&#45;4f22&#45;8213&#45;1e016d4b6b91</title>
<path fill="none" stroke="black" d="M233.19,-315.9C241,-297.75 249.76,-277.39 256.54,-261.63"/>
<polygon fill="black" stroke="black" points="259.94,-262.58 260.68,-252.01 253.51,-259.82 259.94,-262.58"/>
</g>
<!-- 492961d2&#45;dd1b&#45;4fe1&#45;9fe8&#45;6410a07d4645 -->
<g id="node14" class="node">
<title>492961d2&#45;dd1b&#45;4fe1&#45;9fe8&#45;6410a07d4645</title>
<polygon fill="none" stroke="black" points="396,-280 304,-280 304,-188 396,-188 396,-280"/>
<text text-anchor="middle" x="350" y="-225.5" font-family="Arial Unicode MS" font-size="10.00">OutputItemList </text>
</g>
<!-- f1c06020&#45;0744&#45;4450&#45;81f3&#45;f7020ced3226&#45;&gt;492961d2&#45;dd1b&#45;4fe1&#45;9fe8&#45;6410a07d4645 -->
<g id="edge13" class="edge">
<title>f1c06020&#45;0744&#45;4450&#45;81f3&#45;f7020ced3226&#45;&gt;492961d2&#45;dd1b&#45;4fe1&#45;9fe8&#45;6410a07d4645</title>
<path fill="none" stroke="black" d="M259.66,-318.36C271.42,-307.51 284.18,-295.74 296.31,-284.55"/>
<polygon fill="black" stroke="black" points="298.79,-287.02 303.76,-277.67 294.04,-281.88 298.79,-287.02"/>
</g>
<!-- a524501c&#45;7cab&#45;45bb&#45;a45a&#45;2fd1ceb444d4 -->
<g id="node15" class="node">
<title>a524501c&#45;7cab&#45;45bb&#45;a45a&#45;2fd1ceb444d4</title>
<polygon fill="none" stroke="black" points="314,-152 234,-152 234,-72 314,-72 314,-152"/>
<text text-anchor="middle" x="274" y="-103.5" font-family="Arial Unicode MS" font-size="10.00">AddOperand </text>
</g>
<!-- 492961d2&#45;dd1b&#45;4fe1&#45;9fe8&#45;6410a07d4645&#45;&gt;a524501c&#45;7cab&#45;45bb&#45;a45a&#45;2fd1ceb444d4 -->
<g id="edge14" class="edge">
<title>492961d2&#45;dd1b&#45;4fe1&#45;9fe8&#45;6410a07d4645&#45;&gt;a524501c&#45;7cab&#45;45bb&#45;a45a&#45;2fd1ceb444d4</title>
<path fill="none" stroke="black" d="M321.48,-187.98C315.92,-179.2 310.08,-169.96 304.46,-161.09"/>
<polygon fill="black" stroke="black" points="307.24,-158.94 298.93,-152.37 301.32,-162.69 307.24,-158.94"/>
</g>
<!-- 9e72d09b&#45;2dab&#45;4582&#45;8823&#45;2eef3be29858 -->
<g id="node19" class="node">
<title>9e72d09b&#45;2dab&#45;4582&#45;8823&#45;2eef3be29858</title>
<polygon fill="none" stroke="black" points="368,-130 332,-130 332,-94 368,-94 368,-130"/>
<text text-anchor="middle" x="350" y="-103.5" font-family="Arial Unicode MS" font-size="10.00">+ </text>
</g>
<!-- 492961d2&#45;dd1b&#45;4fe1&#45;9fe8&#45;6410a07d4645&#45;&gt;9e72d09b&#45;2dab&#45;4582&#45;8823&#45;2eef3be29858 -->
<g id="edge18" class="edge">
<title>492961d2&#45;dd1b&#45;4fe1&#45;9fe8&#45;6410a07d4645&#45;&gt;9e72d09b&#45;2dab&#45;4582&#45;8823&#45;2eef3be29858</title>
<path fill="none" stroke="black" d="M350,-187.98C350,-171.86 350,-154.21 350,-140.09"/>
<polygon fill="black" stroke="black" points="353.5,-140.06 350,-130.06 346.5,-140.06 353.5,-140.06"/>
</g>
<!-- aa776839&#45;4939&#45;47f6&#45;b1c8&#45;11ae71c82515 -->
<g id="node20" class="node">
<title>aa776839&#45;4939&#45;47f6&#45;b1c8&#45;11ae71c82515</title>
<polygon fill="none" stroke="black" points="422,-130 386,-130 386,-94 422,-94 422,-130"/>
<text text-anchor="middle" x="404" y="-103.5" font-family="Arial Unicode MS" font-size="10.00">3 </text>
</g>
<!-- 492961d2&#45;dd1b&#45;4fe1&#45;9fe8&#45;6410a07d4645&#45;&gt;aa776839&#45;4939&#45;47f6&#45;b1c8&#45;11ae71c82515 -->
<g id="edge19" class="edge">
<title>492961d2&#45;dd1b&#45;4fe1&#45;9fe8&#45;6410a07d4645&#45;&gt;aa776839&#45;4939&#45;47f6&#45;b1c8&#45;11ae71c82515</title>
<path fill="none" stroke="black" d="M370.26,-187.98C377.65,-171.55 385.77,-153.52 392.18,-139.26"/>
<polygon fill="black" stroke="black" points="395.41,-140.61 396.32,-130.06 389.03,-137.74 395.41,-140.61"/>
</g>
<!-- ee9795cb&#45;023a&#45;427d&#45;b9b1&#45;e6be4b901f6c -->
<g id="node16" class="node">
<title>ee9795cb&#45;023a&#45;427d&#45;b9b1&#45;e6be4b901f6c</title>
<polygon fill="none" stroke="black" points="238,-36 202,-36 202,0 238,0 238,-36"/>
<text text-anchor="middle" x="220" y="-9.5" font-family="Arial Unicode MS" font-size="10.00">2 </text>
</g>
<!-- a524501c&#45;7cab&#45;45bb&#45;a45a&#45;2fd1ceb444d4&#45;&gt;ee9795cb&#45;023a&#45;427d&#45;b9b1&#45;e6be4b901f6c -->
<g id="edge15" class="edge">
<title>a524501c&#45;7cab&#45;45bb&#45;a45a&#45;2fd1ceb444d4&#45;&gt;ee9795cb&#45;023a&#45;427d&#45;b9b1&#45;e6be4b901f6c</title>
<path fill="none" stroke="black" d="M251.1,-71.98C245.69,-62.78 240.07,-53.19 235.11,-44.74"/>
<polygon fill="black" stroke="black" points="238.11,-42.94 230.03,-36.09 232.07,-46.48 238.11,-42.94"/>
</g>
<!-- fdbae875&#45;a44e&#45;4ef7&#45;a662&#45;bf7713171e60 -->
<g id="node17" class="node">
<title>fdbae875&#45;a44e&#45;4ef7&#45;a662&#45;bf7713171e60</title>
<polygon fill="none" stroke="black" points="292,-36 256,-36 256,0 292,0 292,-36"/>
<text text-anchor="middle" x="274" y="-9.5" font-family="Arial Unicode MS" font-size="10.00">* </text>
</g>
<!-- a524501c&#45;7cab&#45;45bb&#45;a45a&#45;2fd1ceb444d4&#45;&gt;fdbae875&#45;a44e&#45;4ef7&#45;a662&#45;bf7713171e60 -->
<g id="edge16" class="edge">
<title>a524501c&#45;7cab&#45;45bb&#45;a45a&#45;2fd1ceb444d4&#45;&gt;fdbae875&#45;a44e&#45;4ef7&#45;a662&#45;bf7713171e60</title>
<path fill="none" stroke="black" d="M274,-71.98C274,-63.27 274,-54.21 274,-46.1"/>
<polygon fill="black" stroke="black" points="277.5,-46.09 274,-36.09 270.5,-46.09 277.5,-46.09"/>
</g>
<!-- c1fb0c25&#45;c2c2&#45;4707&#45;8a12&#45;302525b13229 -->
<g id="node18" class="node">
<title>c1fb0c25&#45;c2c2&#45;4707&#45;8a12&#45;302525b13229</title>
<polygon fill="none" stroke="black" points="346,-36 310,-36 310,0 346,0 346,-36"/>
<text text-anchor="middle" x="328" y="-9.5" font-family="Arial Unicode MS" font-size="10.00">7 </text>
</g>
<!-- a524501c&#45;7cab&#45;45bb&#45;a45a&#45;2fd1ceb444d4&#45;&gt;c1fb0c25&#45;c2c2&#45;4707&#45;8a12&#45;302525b13229 -->
<g id="edge17" class="edge">
<title>a524501c&#45;7cab&#45;45bb&#45;a45a&#45;2fd1ceb444d4&#45;&gt;c1fb0c25&#45;c2c2&#45;4707&#45;8a12&#45;302525b13229</title>
<path fill="none" stroke="black" d="M296.9,-71.98C302.31,-62.78 307.93,-53.19 312.89,-44.74"/>
<polygon fill="black" stroke="black" points="315.93,-46.48 317.97,-36.09 309.89,-42.94 315.93,-46.48"/>
</g>
<!-- 89be22e0&#45;ed26&#45;4bd6&#45;aa17&#45;7fa0b35198f1 -->
<g id="node22" class="node">
<title>89be22e0&#45;ed26&#45;4bd6&#45;aa17&#45;7fa0b35198f1</title>
<polygon fill="none" stroke="black" points="316,-380.5 278,-380.5 278,-342.5 316,-342.5 316,-380.5"/>
<text text-anchor="middle" x="297" y="-353" font-family="Arial Unicode MS" font-size="10.00">end </text>
</g>
<!-- 44009315&#45;d563&#45;48f5&#45;9c1b&#45;b2349f511f71&#45;&gt;89be22e0&#45;ed26&#45;4bd6&#45;aa17&#45;7fa0b35198f1 -->
<g id="edge21" class="edge">
<title>44009315&#45;d563&#45;48f5&#45;9c1b&#45;b2349f511f71&#45;&gt;89be22e0&#45;ed26&#45;4bd6&#45;aa17&#45;7fa0b35198f1</title>
<path fill="none" stroke="black" d="M320.42,-442.92C315.25,-425.16 309.62,-405.82 305.17,-390.56"/>
<polygon fill="black" stroke="black" points="308.46,-389.34 302.3,-380.71 301.74,-391.29 308.46,-389.34"/>
</g>
<!-- b1e57703&#45;6a50&#45;48f4&#45;a482&#45;3a9bbdaef682 -->
<g id="node23" class="node">
<title>b1e57703&#45;6a50&#45;48f4&#45;a482&#45;3a9bbdaef682</title>
<polygon fill="none" stroke="black" points="395.5,-392 334.5,-392 334.5,-331 395.5,-331 395.5,-392"/>
<text text-anchor="middle" x="365" y="-353" font-family="Arial Unicode MS" font-size="10.00">program </text>
</g>
<!-- 44009315&#45;d563&#45;48f5&#45;9c1b&#45;b2349f511f71&#45;&gt;b1e57703&#45;6a50&#45;48f4&#45;a482&#45;3a9bbdaef682 -->
<g id="edge22" class="edge">
<title>44009315&#45;d563&#45;48f5&#45;9c1b&#45;b2349f511f71&#45;&gt;b1e57703&#45;6a50&#45;48f4&#45;a482&#45;3a9bbdaef682</title>
<path fill="none" stroke="black" d="M346.51,-442.92C349.62,-429.42 352.93,-415 355.88,-402.16"/>
<polygon fill="black" stroke="black" points="359.33,-402.78 358.16,-392.25 352.51,-401.21 359.33,-402.78"/>
</g>
<!-- fad0638d&#45;a32d&#45;4205&#45;a247&#45;992403ccb043 -->
<g id="node24" class="node">
<title>fad0638d&#45;a32d&#45;4205&#45;a247&#45;992403ccb043</title>
<polygon fill="none" stroke="black" points="482.5,-396 413.5,-396 413.5,-327 482.5,-327 482.5,-396"/>
<text text-anchor="middle" x="448" y="-353" font-family="Arial Unicode MS" font-size="10.00">Calculator </text>
</g>
<!-- 44009315&#45;d563&#45;48f5&#45;9c1b&#45;b2349f511f71&#45;&gt;fad0638d&#45;a32d&#45;4205&#45;a247&#45;992403ccb043 -->
<g id="edge23" class="edge">
<title>44009315&#45;d563&#45;48f5&#45;9c1b&#45;b2349f511f71&#45;&gt;fad0638d&#45;a32d&#45;4205&#45;a247&#45;992403ccb043</title>
<path fill="none" stroke="black" d="M378.37,-442.92C389.6,-429.94 401.57,-416.12 412.36,-403.66"/>
<polygon fill="black" stroke="black" points="415.01,-405.95 418.91,-396.1 409.72,-401.37 415.01,-405.95"/>
</g>
</g>
</svg>
