<?xml version="1.0" encoding="UTF-8" standalone="no"?>
<!DOCTYPE svg PUBLIC "-//W3C//DTD SVG 1.1//EN"
 "http://www.w3.org/Graphics/SVG/1.1/DTD/svg11.dtd">
<!-- Generated by graphviz version 2.43.0 (0)
 -->
<!-- Title: G Pages: 1 -->
<svg width="636pt" height="1041pt"
 viewBox="0.00 0.00 636.00 1041.00" xmlns="http://www.w3.org/2000/svg" xmlns:xlink="http://www.w3.org/1999/xlink">
<g id="graph0" class="graph" transform="scale(1 1) rotate(0) translate(4 1037)">
<title>G</title>
<polygon fill="white" stroke="transparent" points="-4,4 -4,-1037 632,-1037 632,4 -4,4"/>
<!-- 17b7873a&#45;b85c&#45;4fea&#45;8b59&#45;65614d2a718b -->
<g id="node1" class="node">
<title>17b7873a&#45;b85c&#45;4fea&#45;8b59&#45;65614d2a718b</title>
<polygon fill="none" stroke="black" points="307.5,-1033 246.5,-1033 246.5,-972 307.5,-972 307.5,-1033"/>
<text text-anchor="middle" x="277" y="-994" font-family="Arial Unicode MS" font-size="10.00">Program </text>
</g>
<!-- 59976d32&#45;7bdc&#45;4caa&#45;8bde&#45;abdab086585c -->
<g id="node2" class="node">
<title>59976d32&#45;7bdc&#45;4caa&#45;8bde&#45;abdab086585c</title>
<polygon fill="none" stroke="black" points="283,-936 169,-936 169,-822 283,-822 283,-936"/>
<text text-anchor="middle" x="226" y="-870.5" font-family="Arial Unicode MS" font-size="10.00">ExecutableProgram </text>
</g>
<!-- 17b7873a&#45;b85c&#45;4fea&#45;8b59&#45;65614d2a718b&#45;&gt;59976d32&#45;7bdc&#45;4caa&#45;8bde&#45;abdab086585c -->
<g id="edge1" class="edge">
<title>17b7873a&#45;b85c&#45;4fea&#45;8b59&#45;65614d2a718b&#45;&gt;59976d32&#45;7bdc&#45;4caa&#45;8bde&#45;abdab086585c</title>
<path fill="none" stroke="black" d="M264.52,-971.78C261.2,-963.85 257.47,-954.96 253.67,-945.92"/>
<polygon fill="black" stroke="black" points="256.8,-944.34 249.71,-936.48 250.35,-947.05 256.8,-944.34"/>
</g>
<!-- 3d2f84ad&#45;0eff&#45;42c0&#45;b69f&#45;ec5e91ca1760 -->
<g id="node32" class="node">
<title>3d2f84ad&#45;0eff&#45;42c0&#45;b69f&#45;ec5e91ca1760</title>
<polygon fill="none" stroke="black" points="357,-907 301,-907 301,-851 357,-851 357,-907"/>
<text text-anchor="middle" x="329" y="-870.5" font-family="Arial Unicode MS" font-size="10.00">&lt;EOF&gt; </text>
</g>
<!-- 17b7873a&#45;b85c&#45;4fea&#45;8b59&#45;65614d2a718b&#45;&gt;3d2f84ad&#45;0eff&#45;42c0&#45;b69f&#45;ec5e91ca1760 -->
<g id="edge31" class="edge">
<title>17b7873a&#45;b85c&#45;4fea&#45;8b59&#45;65614d2a718b&#45;&gt;3d2f84ad&#45;0eff&#45;42c0&#45;b69f&#45;ec5e91ca1760</title>
<path fill="none" stroke="black" d="M289.72,-971.78C296.82,-955.18 305.74,-934.36 313.27,-916.75"/>
<polygon fill="black" stroke="black" points="316.58,-917.91 317.3,-907.34 310.15,-915.15 316.58,-917.91"/>
</g>
<!-- 0782a927&#45;633f&#45;44e6&#45;a701&#45;efeec303ba58 -->
<g id="node3" class="node">
<title>0782a927&#45;633f&#45;44e6&#45;a701&#45;efeec303ba58</title>
<polygon fill="none" stroke="black" points="220,-786 136,-786 136,-702 220,-702 220,-786"/>
<text text-anchor="middle" x="178" y="-735.5" font-family="Arial Unicode MS" font-size="10.00">ProgramStmt </text>
</g>
<!-- 59976d32&#45;7bdc&#45;4caa&#45;8bde&#45;abdab086585c&#45;&gt;0782a927&#45;633f&#45;44e6&#45;a701&#45;efeec303ba58 -->
<g id="edge2" class="edge">
<title>59976d32&#45;7bdc&#45;4caa&#45;8bde&#45;abdab086585c&#45;&gt;0782a927&#45;633f&#45;44e6&#45;a701&#45;efeec303ba58</title>
<path fill="none" stroke="black" d="M205.78,-821.98C202.62,-813.21 199.36,-804.19 196.25,-795.56"/>
<polygon fill="black" stroke="black" points="199.48,-794.22 192.8,-786 192.9,-796.6 199.48,-794.22"/>
</g>
<!-- d696137c&#45;7b85&#45;47a7&#45;b0e6&#45;0c2a4fa82041 -->
<g id="node5" class="node">
<title>d696137c&#45;7b85&#45;47a7&#45;b0e6&#45;0c2a4fa82041</title>
<polygon fill="none" stroke="black" points="312,-781 238,-781 238,-707 312,-707 312,-781"/>
<text text-anchor="middle" x="275" y="-735.5" font-family="Arial Unicode MS" font-size="10.00">MainRange </text>
</g>
<!-- 59976d32&#45;7bdc&#45;4caa&#45;8bde&#45;abdab086585c&#45;&gt;d696137c&#45;7b85&#45;47a7&#45;b0e6&#45;0c2a4fa82041 -->
<g id="edge4" class="edge">
<title>59976d32&#45;7bdc&#45;4caa&#45;8bde&#45;abdab086585c&#45;&gt;d696137c&#45;7b85&#45;47a7&#45;b0e6&#45;0c2a4fa82041</title>
<path fill="none" stroke="black" d="M246.64,-821.98C250.48,-811.54 254.46,-800.75 258.17,-790.67"/>
<polygon fill="black" stroke="black" points="261.47,-791.86 261.64,-781.26 254.9,-789.44 261.47,-791.86"/>
</g>
<!-- 0a470e27&#45;2ae2&#45;4e73&#45;b043&#45;1d53b6520137 -->
<g id="node4" class="node">
<title>0a470e27&#45;2ae2&#45;4e73&#45;b043&#45;1d53b6520137</title>
<polygon fill="none" stroke="black" points="205,-642 151,-642 151,-588 205,-588 205,-642"/>
<text text-anchor="middle" x="178" y="-606.5" font-family="Arial Unicode MS" font-size="10.00">p2_7_3 </text>
</g>
<!-- 0782a927&#45;633f&#45;44e6&#45;a701&#45;efeec303ba58&#45;&gt;0a470e27&#45;2ae2&#45;4e73&#45;b043&#45;1d53b6520137 -->
<g id="edge3" class="edge">
<title>0782a927&#45;633f&#45;44e6&#45;a701&#45;efeec303ba58&#45;&gt;0a470e27&#45;2ae2&#45;4e73&#45;b043&#45;1d53b6520137</title>
<path fill="none" stroke="black" d="M178,-701.77C178,-685.88 178,-667.86 178,-652.45"/>
<polygon fill="black" stroke="black" points="181.5,-652.26 178,-642.26 174.5,-652.26 181.5,-652.26"/>
</g>
<!-- 93bbb237&#45;4b65&#45;4103&#45;aee4&#45;c69e1588a3cb -->
<g id="node6" class="node">
<title>93bbb237&#45;4b65&#45;4103&#45;aee4&#45;c69e1588a3cb</title>
<polygon fill="none" stroke="black" points="282,-637 238,-637 238,-593 282,-593 282,-637"/>
<text text-anchor="middle" x="260" y="-606.5" font-family="Arial Unicode MS" font-size="10.00">Body </text>
</g>
<!-- d696137c&#45;7b85&#45;47a7&#45;b0e6&#45;0c2a4fa82041&#45;&gt;93bbb237&#45;4b65&#45;4103&#45;aee4&#45;c69e1588a3cb -->
<g id="edge5" class="edge">
<title>d696137c&#45;7b85&#45;47a7&#45;b0e6&#45;0c2a4fa82041&#45;&gt;93bbb237&#45;4b65&#45;4103&#45;aee4&#45;c69e1588a3cb</title>
<path fill="none" stroke="black" d="M270.74,-706.95C268.51,-688.07 265.81,-665.18 263.67,-647.08"/>
<polygon fill="black" stroke="black" points="267.14,-646.57 262.49,-637.05 260.18,-647.39 267.14,-646.57"/>
</g>
<!-- eaa65aa5&#45;60bd&#45;4150&#45;a9ef&#45;7a04d2982497 -->
<g id="node28" class="node">
<title>eaa65aa5&#45;60bd&#45;4150&#45;a9ef&#45;7a04d2982497</title>
<polygon fill="none" stroke="black" points="432,-666 330,-666 330,-564 432,-564 432,-666"/>
<text text-anchor="middle" x="381" y="-606.5" font-family="Arial Unicode MS" font-size="10.00">EndProgramStmt </text>
</g>
<!-- d696137c&#45;7b85&#45;47a7&#45;b0e6&#45;0c2a4fa82041&#45;&gt;eaa65aa5&#45;60bd&#45;4150&#45;a9ef&#45;7a04d2982497 -->
<g id="edge27" class="edge">
<title>d696137c&#45;7b85&#45;47a7&#45;b0e6&#45;0c2a4fa82041&#45;&gt;eaa65aa5&#45;60bd&#45;4150&#45;a9ef&#45;7a04d2982497</title>
<path fill="none" stroke="black" d="M305.09,-706.95C313.65,-696.7 323.19,-685.27 332.53,-674.07"/>
<polygon fill="black" stroke="black" points="335.24,-676.28 338.96,-666.36 329.87,-671.8 335.24,-676.28"/>
</g>
<!-- f3c386e4&#45;5d05&#45;411b&#45;a8f7&#45;32a9e8e03a7d -->
<g id="node7" class="node">
<title>f3c386e4&#45;5d05&#45;411b&#45;a8f7&#45;32a9e8e03a7d</title>
<polygon fill="none" stroke="black" points="141.5,-528 50.5,-528 50.5,-437 141.5,-437 141.5,-528"/>
<text text-anchor="middle" x="96" y="-474" font-family="Arial Unicode MS" font-size="10.00">BodyConstruct </text>
</g>
<!-- 93bbb237&#45;4b65&#45;4103&#45;aee4&#45;c69e1588a3cb&#45;&gt;f3c386e4&#45;5d05&#45;411b&#45;a8f7&#45;32a9e8e03a7d -->
<g id="edge6" class="edge">
<title>93bbb237&#45;4b65&#45;4103&#45;aee4&#45;c69e1588a3cb&#45;&gt;f3c386e4&#45;5d05&#45;411b&#45;a8f7&#45;32a9e8e03a7d</title>
<path fill="none" stroke="black" d="M242.2,-592.54C234.05,-583.29 223.99,-572.64 214,-564 194.3,-546.97 170.9,-530.36 150.15,-516.7"/>
<polygon fill="black" stroke="black" points="152.04,-513.75 141.75,-511.22 148.22,-519.61 152.04,-513.75"/>
</g>
<!-- 1a143feb&#45;8814&#45;4961&#45;9925&#45;a63e72fdc677 -->
<g id="node10" class="node">
<title>1a143feb&#45;8814&#45;4961&#45;9925&#45;a63e72fdc677</title>
<polygon fill="none" stroke="black" points="305.5,-528 214.5,-528 214.5,-437 305.5,-437 305.5,-528"/>
<text text-anchor="middle" x="260" y="-474" font-family="Arial Unicode MS" font-size="10.00">BodyConstruct </text>
</g>
<!-- 93bbb237&#45;4b65&#45;4103&#45;aee4&#45;c69e1588a3cb&#45;&gt;1a143feb&#45;8814&#45;4961&#45;9925&#45;a63e72fdc677 -->
<g id="edge9" class="edge">
<title>93bbb237&#45;4b65&#45;4103&#45;aee4&#45;c69e1588a3cb&#45;&gt;1a143feb&#45;8814&#45;4961&#45;9925&#45;a63e72fdc677</title>
<path fill="none" stroke="black" d="M260,-592.74C260,-577.93 260,-557.45 260,-538.22"/>
<polygon fill="black" stroke="black" points="263.5,-538.02 260,-528.02 256.5,-538.02 263.5,-538.02"/>
</g>
<!-- f73b3bee&#45;c24a&#45;4682&#45;acaa&#45;6fe35384fed6 -->
<g id="node8" class="node">
<title>f73b3bee&#45;c24a&#45;4682&#45;acaa&#45;6fe35384fed6</title>
<polygon fill="none" stroke="black" points="56,-377 0,-377 0,-321 56,-321 56,-377"/>
<text text-anchor="middle" x="28" y="-340.5" font-family="Arial Unicode MS" font-size="10.00">implicit </text>
</g>
<!-- f3c386e4&#45;5d05&#45;411b&#45;a8f7&#45;32a9e8e03a7d&#45;&gt;f73b3bee&#45;c24a&#45;4682&#45;acaa&#45;6fe35384fed6 -->
<g id="edge7" class="edge">
<title>f3c386e4&#45;5d05&#45;411b&#45;a8f7&#45;32a9e8e03a7d&#45;&gt;f73b3bee&#45;c24a&#45;4682&#45;acaa&#45;6fe35384fed6</title>
<path fill="none" stroke="black" d="M72.98,-436.98C64.41,-420.41 54.8,-401.83 46.67,-386.11"/>
<polygon fill="black" stroke="black" points="49.78,-384.49 42.07,-377.22 43.56,-387.71 49.78,-384.49"/>
</g>
<!-- 68d93361&#45;ecfb&#45;4dac&#45;9599&#45;bd24ec8e4fdc -->
<g id="node9" class="node">
<title>68d93361&#45;ecfb&#45;4dac&#45;9599&#45;bd24ec8e4fdc</title>
<polygon fill="none" stroke="black" points="118,-371 74,-371 74,-327 118,-327 118,-371"/>
<text text-anchor="middle" x="96" y="-340.5" font-family="Arial Unicode MS" font-size="10.00">none </text>
</g>
<!-- f3c386e4&#45;5d05&#45;411b&#45;a8f7&#45;32a9e8e03a7d&#45;&gt;68d93361&#45;ecfb&#45;4dac&#45;9599&#45;bd24ec8e4fdc -->
<g id="edge8" class="edge">
<title>f3c386e4&#45;5d05&#45;411b&#45;a8f7&#45;32a9e8e03a7d&#45;&gt;68d93361&#45;ecfb&#45;4dac&#45;9599&#45;bd24ec8e4fdc</title>
<path fill="none" stroke="black" d="M96,-436.98C96,-418.77 96,-398.12 96,-381.51"/>
<polygon fill="black" stroke="black" points="99.5,-381.25 96,-371.25 92.5,-381.25 99.5,-381.25"/>
</g>
<!-- 61890054&#45;1f76&#45;4eda&#45;a6ff&#45;b64a3355773e -->
<g id="node11" class="node">
<title>61890054&#45;1f76&#45;4eda&#45;a6ff&#45;b64a3355773e</title>
<polygon fill="none" stroke="black" points="180,-371 136,-371 136,-327 180,-327 180,-371"/>
<text text-anchor="middle" x="158" y="-340.5" font-family="Arial Unicode MS" font-size="10.00">write </text>
</g>
<!-- 1a143feb&#45;8814&#45;4961&#45;9925&#45;a63e72fdc677&#45;&gt;61890054&#45;1f76&#45;4eda&#45;a6ff&#45;b64a3355773e -->
<g id="edge10" class="edge">
<title>1a143feb&#45;8814&#45;4961&#45;9925&#45;a63e72fdc677&#45;&gt;61890054&#45;1f76&#45;4eda&#45;a6ff&#45;b64a3355773e</title>
<path fill="none" stroke="black" d="M218,-436.7C208.08,-425.37 197.84,-413.01 189,-401 184.16,-394.43 179.37,-387.07 175.05,-380.04"/>
<polygon fill="black" stroke="black" points="178,-378.16 169.86,-371.38 172,-381.76 178,-378.16"/>
</g>
<!-- 419ea954&#45;ad9a&#45;4896&#45;a8ec&#45;f8d5300e4c5e -->
<g id="node12" class="node">
<title>419ea954&#45;ad9a&#45;4896&#45;a8ec&#45;f8d5300e4c5e</title>
<polygon fill="none" stroke="black" points="234,-367 198,-367 198,-331 234,-331 234,-367"/>
<text text-anchor="middle" x="216" y="-340.5" font-family="Arial Unicode MS" font-size="10.00">( </text>
</g>
<!-- 1a143feb&#45;8814&#45;4961&#45;9925&#45;a63e72fdc677&#45;&gt;419ea954&#45;ad9a&#45;4896&#45;a8ec&#45;f8d5300e4c5e -->
<g id="edge11" class="edge">
<title>1a143feb&#45;8814&#45;4961&#45;9925&#45;a63e72fdc677&#45;&gt;419ea954&#45;ad9a&#45;4896&#45;a8ec&#45;f8d5300e4c5e</title>
<path fill="none" stroke="black" d="M245.1,-436.98C238.46,-417.11 230.84,-394.35 225.06,-377.09"/>
<polygon fill="black" stroke="black" points="228.22,-375.5 221.73,-367.13 221.59,-377.73 228.22,-375.5"/>
</g>
<!-- 1243ad18&#45;10b3&#45;449e&#45;82cb&#45;851389461f23 -->
<g id="node13" class="node">
<title>1243ad18&#45;10b3&#45;449e&#45;82cb&#45;851389461f23</title>
<polygon fill="none" stroke="black" points="356,-401 252,-401 252,-297 356,-297 356,-401"/>
<text text-anchor="middle" x="304" y="-340.5" font-family="Arial Unicode MS" font-size="10.00">IoControlSpecList </text>
</g>
<!-- 1a143feb&#45;8814&#45;4961&#45;9925&#45;a63e72fdc677&#45;&gt;1243ad18&#45;10b3&#45;449e&#45;82cb&#45;851389461f23 -->
<g id="edge12" class="edge">
<title>1a143feb&#45;8814&#45;4961&#45;9925&#45;a63e72fdc677&#45;&gt;1243ad18&#45;10b3&#45;449e&#45;82cb&#45;851389461f23</title>
<path fill="none" stroke="black" d="M274.9,-436.98C277.72,-428.55 280.71,-419.61 283.66,-410.78"/>
<polygon fill="black" stroke="black" points="286.99,-411.87 286.84,-401.28 280.35,-409.65 286.99,-411.87"/>
</g>
<!-- a2604b82&#45;af1e&#45;4594&#45;8187&#45;79d984f65c6f -->
<g id="node17" class="node">
<title>a2604b82&#45;af1e&#45;4594&#45;8187&#45;79d984f65c6f</title>
<polygon fill="none" stroke="black" points="410,-367 374,-367 374,-331 410,-331 410,-367"/>
<text text-anchor="middle" x="392" y="-340.5" font-family="Arial Unicode MS" font-size="10.00">) </text>
</g>
<!-- 1a143feb&#45;8814&#45;4961&#45;9925&#45;a63e72fdc677&#45;&gt;a2604b82&#45;af1e&#45;4594&#45;8187&#45;79d984f65c6f -->
<g id="edge16" class="edge">
<title>1a143feb&#45;8814&#45;4961&#45;9925&#45;a63e72fdc677&#45;&gt;a2604b82&#45;af1e&#45;4594&#45;8187&#45;79d984f65c6f</title>
<path fill="none" stroke="black" d="M305.76,-444.15C308.87,-441.71 311.97,-439.31 315,-437 336.76,-420.38 347.01,-421.64 365,-401 371.31,-393.76 376.68,-384.78 380.94,-376.39"/>
<polygon fill="black" stroke="black" points="384.13,-377.82 385.25,-367.29 377.8,-374.83 384.13,-377.82"/>
</g>
<!-- 23f9ee5e&#45;5376&#45;4854&#45;a63b&#45;00c51fd799ba -->
<g id="node18" class="node">
<title>23f9ee5e&#45;5376&#45;4854&#45;a63b&#45;00c51fd799ba</title>
<polygon fill="none" stroke="black" points="526,-395 434,-395 434,-303 526,-303 526,-395"/>
<text text-anchor="middle" x="480" y="-340.5" font-family="Arial Unicode MS" font-size="10.00">OutputItemList </text>
</g>
<!-- 1a143feb&#45;8814&#45;4961&#45;9925&#45;a63e72fdc677&#45;&gt;23f9ee5e&#45;5376&#45;4854&#45;a63b&#45;00c51fd799ba -->
<g id="edge17" class="edge">
<title>1a143feb&#45;8814&#45;4961&#45;9925&#45;a63e72fdc677&#45;&gt;23f9ee5e&#45;5376&#45;4854&#45;a63b&#45;00c51fd799ba</title>
<path fill="none" stroke="black" d="M305.7,-442.66C308.77,-440.64 311.89,-438.73 315,-437 357.77,-413.26 376.43,-425.08 419,-401 421.21,-399.75 423.41,-398.42 425.6,-397.02"/>
<polygon fill="black" stroke="black" points="427.66,-399.86 433.97,-391.35 423.73,-394.07 427.66,-399.86"/>
</g>
<!-- a62e9771&#45;1f7d&#45;4391&#45;885e&#45;41843472b2ea -->
<g id="node14" class="node">
<title>a62e9771&#45;1f7d&#45;4391&#45;885e&#45;41843472b2ea</title>
<polygon fill="none" stroke="black" points="265,-242.5 229,-242.5 229,-206.5 265,-206.5 265,-242.5"/>
<text text-anchor="middle" x="247" y="-216" font-family="Arial Unicode MS" font-size="10.00">* </text>
</g>
<!-- 1243ad18&#45;10b3&#45;449e&#45;82cb&#45;851389461f23&#45;&gt;a62e9771&#45;1f7d&#45;4391&#45;885e&#45;41843472b2ea -->
<g id="edge13" class="edge">
<title>1243ad18&#45;10b3&#45;449e&#45;82cb&#45;851389461f23&#45;&gt;a62e9771&#45;1f7d&#45;4391&#45;885e&#45;41843472b2ea</title>
<path fill="none" stroke="black" d="M280.16,-296.76C273.01,-281.4 265.46,-265.18 259.37,-252.09"/>
<polygon fill="black" stroke="black" points="262.43,-250.36 255.04,-242.77 256.08,-253.31 262.43,-250.36"/>
</g>
<!-- 89cd813e&#45;4598&#45;4697&#45;aed6&#45;65d45f258eaf -->
<g id="node15" class="node">
<title>89cd813e&#45;4598&#45;4697&#45;aed6&#45;65d45f258eaf</title>
<polygon fill="none" stroke="black" points="319,-242.5 283,-242.5 283,-206.5 319,-206.5 319,-242.5"/>
<text text-anchor="middle" x="301" y="-216" font-family="Arial Unicode MS" font-size="10.00">, </text>
</g>
<!-- 1243ad18&#45;10b3&#45;449e&#45;82cb&#45;851389461f23&#45;&gt;89cd813e&#45;4598&#45;4697&#45;aed6&#45;65d45f258eaf -->
<g id="edge14" class="edge">
<title>1243ad18&#45;10b3&#45;449e&#45;82cb&#45;851389461f23&#45;&gt;89cd813e&#45;4598&#45;4697&#45;aed6&#45;65d45f258eaf</title>
<path fill="none" stroke="black" d="M302.75,-296.76C302.38,-281.7 301.99,-265.81 301.67,-252.87"/>
<polygon fill="black" stroke="black" points="305.17,-252.68 301.42,-242.77 298.17,-252.85 305.17,-252.68"/>
</g>
<!-- b10f6620&#45;4be7&#45;41e7&#45;9d77&#45;c56e3f6f773c -->
<g id="node16" class="node">
<title>b10f6620&#45;4be7&#45;41e7&#45;9d77&#45;c56e3f6f773c</title>
<polygon fill="none" stroke="black" points="373,-242.5 337,-242.5 337,-206.5 373,-206.5 373,-242.5"/>
<text text-anchor="middle" x="355" y="-216" font-family="Arial Unicode MS" font-size="10.00">* </text>
</g>
<!-- 1243ad18&#45;10b3&#45;449e&#45;82cb&#45;851389461f23&#45;&gt;b10f6620&#45;4be7&#45;41e7&#45;9d77&#45;c56e3f6f773c -->
<g id="edge15" class="edge">
<title>1243ad18&#45;10b3&#45;449e&#45;82cb&#45;851389461f23&#45;&gt;b10f6620&#45;4be7&#45;41e7&#45;9d77&#45;c56e3f6f773c</title>
<path fill="none" stroke="black" d="M325.33,-296.76C331.73,-281.4 338.48,-265.18 343.93,-252.09"/>
<polygon fill="black" stroke="black" points="347.2,-253.35 347.81,-242.77 340.73,-250.66 347.2,-253.35"/>
</g>
<!-- b65a0733&#45;4b38&#45;4bb6&#45;b30e&#45;8844db3e516e -->
<g id="node19" class="node">
<title>b65a0733&#45;4b38&#45;4bb6&#45;b30e&#45;8844db3e516e</title>
<polygon fill="none" stroke="black" points="447,-252.5 391,-252.5 391,-196.5 447,-196.5 447,-252.5"/>
<text text-anchor="middle" x="419" y="-216" font-family="Arial Unicode MS" font-size="10.00">STRING </text>
</g>
<!-- 23f9ee5e&#45;5376&#45;4854&#45;a63b&#45;00c51fd799ba&#45;&gt;b65a0733&#45;4b38&#45;4bb6&#45;b30e&#45;8844db3e516e -->
<g id="edge18" class="edge">
<title>23f9ee5e&#45;5376&#45;4854&#45;a63b&#45;00c51fd799ba&#45;&gt;b65a0733&#45;4b38&#45;4bb6&#45;b30e&#45;8844db3e516e</title>
<path fill="none" stroke="black" d="M457.46,-302.73C450.74,-289.24 443.47,-274.64 437.08,-261.8"/>
<polygon fill="black" stroke="black" points="440.19,-260.19 432.6,-252.8 433.92,-263.31 440.19,-260.19"/>
</g>
<!-- da1553d9&#45;518c&#45;4f22&#45;bb89&#45;311e38ae4aea -->
<g id="node20" class="node">
<title>da1553d9&#45;518c&#45;4f22&#45;bb89&#45;311e38ae4aea</title>
<polygon fill="none" stroke="black" points="501,-242.5 465,-242.5 465,-206.5 501,-206.5 501,-242.5"/>
<text text-anchor="middle" x="483" y="-216" font-family="Arial Unicode MS" font-size="10.00">, </text>
</g>
<!-- 23f9ee5e&#45;5376&#45;4854&#45;a63b&#45;00c51fd799ba&#45;&gt;da1553d9&#45;518c&#45;4f22&#45;bb89&#45;311e38ae4aea -->
<g id="edge19" class="edge">
<title>23f9ee5e&#45;5376&#45;4854&#45;a63b&#45;00c51fd799ba&#45;&gt;da1553d9&#45;518c&#45;4f22&#45;bb89&#45;311e38ae4aea</title>
<path fill="none" stroke="black" d="M481.11,-302.73C481.52,-286.01 481.97,-267.57 482.33,-252.9"/>
<polygon fill="black" stroke="black" points="485.84,-252.6 482.58,-242.51 478.84,-252.43 485.84,-252.6"/>
</g>
<!-- 6bee027c&#45;98a1&#45;41fa&#45;8702&#45;ac6c5c7be5fa -->
<g id="node21" class="node">
<title>6bee027c&#45;98a1&#45;41fa&#45;8702&#45;ac6c5c7be5fa</title>
<polygon fill="none" stroke="black" points="592.5,-261 519.5,-261 519.5,-188 592.5,-188 592.5,-261"/>
<text text-anchor="middle" x="556" y="-216" font-family="Arial Unicode MS" font-size="10.00">Expression </text>
</g>
<!-- 23f9ee5e&#45;5376&#45;4854&#45;a63b&#45;00c51fd799ba&#45;&gt;6bee027c&#45;98a1&#45;41fa&#45;8702&#45;ac6c5c7be5fa -->
<g id="edge20" class="edge">
<title>23f9ee5e&#45;5376&#45;4854&#45;a63b&#45;00c51fd799ba&#45;&gt;6bee027c&#45;98a1&#45;41fa&#45;8702&#45;ac6c5c7be5fa</title>
<path fill="none" stroke="black" d="M508.08,-302.73C514.76,-291.98 521.87,-280.51 528.51,-269.8"/>
<polygon fill="black" stroke="black" points="531.67,-271.36 533.97,-261.01 525.72,-267.67 531.67,-271.36"/>
</g>
<!-- 5e0ed2ef&#45;1da9&#45;4874&#45;b9ac&#45;8d42fe8eda7e -->
<g id="node22" class="node">
<title>5e0ed2ef&#45;1da9&#45;4874&#45;b9ac&#45;8d42fe8eda7e</title>
<polygon fill="none" stroke="black" points="520,-152 440,-152 440,-72 520,-72 520,-152"/>
<text text-anchor="middle" x="480" y="-103.5" font-family="Arial Unicode MS" font-size="10.00">AddOperand </text>
</g>
<!-- 6bee027c&#45;98a1&#45;41fa&#45;8702&#45;ac6c5c7be5fa&#45;&gt;5e0ed2ef&#45;1da9&#45;4874&#45;b9ac&#45;8d42fe8eda7e -->
<g id="edge21" class="edge">
<title>6bee027c&#45;98a1&#45;41fa&#45;8702&#45;ac6c5c7be5fa&#45;&gt;5e0ed2ef&#45;1da9&#45;4874&#45;b9ac&#45;8d42fe8eda7e</title>
<path fill="none" stroke="black" d="M531.53,-187.93C525.55,-179.23 519.06,-169.79 512.76,-160.63"/>
<polygon fill="black" stroke="black" points="515.6,-158.59 507.05,-152.33 509.84,-162.56 515.6,-158.59"/>
</g>
<!-- a4beef66&#45;e1d5&#45;4a61&#45;95ef&#45;eb27c00877fb -->
<g id="node26" class="node">
<title>a4beef66&#45;e1d5&#45;4a61&#45;95ef&#45;eb27c00877fb</title>
<polygon fill="none" stroke="black" points="574,-130 538,-130 538,-94 574,-94 574,-130"/>
<text text-anchor="middle" x="556" y="-103.5" font-family="Arial Unicode MS" font-size="10.00">+ </text>
</g>
<!-- 6bee027c&#45;98a1&#45;41fa&#45;8702&#45;ac6c5c7be5fa&#45;&gt;a4beef66&#45;e1d5&#45;4a61&#45;95ef&#45;eb27c00877fb -->
<g id="edge25" class="edge">
<title>6bee027c&#45;98a1&#45;41fa&#45;8702&#45;ac6c5c7be5fa&#45;&gt;a4beef66&#45;e1d5&#45;4a61&#45;95ef&#45;eb27c00877fb</title>
<path fill="none" stroke="black" d="M556,-187.93C556,-172.54 556,-154.82 556,-140.47"/>
<polygon fill="black" stroke="black" points="559.5,-140.25 556,-130.25 552.5,-140.25 559.5,-140.25"/>
</g>
<!-- cba95279&#45;8502&#45;45d1&#45;8756&#45;35135bfbae40 -->
<g id="node27" class="node">
<title>cba95279&#45;8502&#45;45d1&#45;8756&#45;35135bfbae40</title>
<polygon fill="none" stroke="black" points="628,-130 592,-130 592,-94 628,-94 628,-130"/>
<text text-anchor="middle" x="610" y="-103.5" font-family="Arial Unicode MS" font-size="10.00">3 </text>
</g>
<!-- 6bee027c&#45;98a1&#45;41fa&#45;8702&#45;ac6c5c7be5fa&#45;&gt;cba95279&#45;8502&#45;45d1&#45;8756&#45;35135bfbae40 -->
<g id="edge26" class="edge">
<title>6bee027c&#45;98a1&#45;41fa&#45;8702&#45;ac6c5c7be5fa&#45;&gt;cba95279&#45;8502&#45;45d1&#45;8756&#45;35135bfbae40</title>
<path fill="none" stroke="black" d="M573.38,-187.93C581.05,-172.24 589.9,-154.12 596.99,-139.63"/>
<polygon fill="black" stroke="black" points="600.32,-140.77 601.57,-130.25 594.03,-137.7 600.32,-140.77"/>
</g>
<!-- 6181a961&#45;d6d3&#45;42ce&#45;8f53&#45;44d80e3f4a23 -->
<g id="node23" class="node">
<title>6181a961&#45;d6d3&#45;42ce&#45;8f53&#45;44d80e3f4a23</title>
<polygon fill="none" stroke="black" points="444,-36 408,-36 408,0 444,0 444,-36"/>
<text text-anchor="middle" x="426" y="-9.5" font-family="Arial Unicode MS" font-size="10.00">2 </text>
</g>
<!-- 5e0ed2ef&#45;1da9&#45;4874&#45;b9ac&#45;8d42fe8eda7e&#45;&gt;6181a961&#45;d6d3&#45;42ce&#45;8f53&#45;44d80e3f4a23 -->
<g id="edge22" class="edge">
<title>5e0ed2ef&#45;1da9&#45;4874&#45;b9ac&#45;8d42fe8eda7e&#45;&gt;6181a961&#45;d6d3&#45;42ce&#45;8f53&#45;44d80e3f4a23</title>
<path fill="none" stroke="black" d="M457.1,-71.98C451.69,-62.78 446.07,-53.19 441.11,-44.74"/>
<polygon fill="black" stroke="black" points="444.11,-42.94 436.03,-36.09 438.07,-46.48 444.11,-42.94"/>
</g>
<!-- 5e5fd84d&#45;72c0&#45;4c49&#45;893e&#45;a022b9e7e4a7 -->
<g id="node24" class="node">
<title>5e5fd84d&#45;72c0&#45;4c49&#45;893e&#45;a022b9e7e4a7</title>
<polygon fill="none" stroke="black" points="498,-36 462,-36 462,0 498,0 498,-36"/>
<text text-anchor="middle" x="480" y="-9.5" font-family="Arial Unicode MS" font-size="10.00">* </text>
</g>
<!-- 5e0ed2ef&#45;1da9&#45;4874&#45;b9ac&#45;8d42fe8eda7e&#45;&gt;5e5fd84d&#45;72c0&#45;4c49&#45;893e&#45;a022b9e7e4a7 -->
<g id="edge23" class="edge">
<title>5e0ed2ef&#45;1da9&#45;4874&#45;b9ac&#45;8d42fe8eda7e&#45;&gt;5e5fd84d&#45;72c0&#45;4c49&#45;893e&#45;a022b9e7e4a7</title>
<path fill="none" stroke="black" d="M480,-71.98C480,-63.27 480,-54.21 480,-46.1"/>
<polygon fill="black" stroke="black" points="483.5,-46.09 480,-36.09 476.5,-46.09 483.5,-46.09"/>
</g>
<!-- 9533c8c8&#45;b64d&#45;41c3&#45;ab1f&#45;185992f4c77f -->
<g id="node25" class="node">
<title>9533c8c8&#45;b64d&#45;41c3&#45;ab1f&#45;185992f4c77f</title>
<polygon fill="none" stroke="black" points="552,-36 516,-36 516,0 552,0 552,-36"/>
<text text-anchor="middle" x="534" y="-9.5" font-family="Arial Unicode MS" font-size="10.00">7 </text>
</g>
<!-- 5e0ed2ef&#45;1da9&#45;4874&#45;b9ac&#45;8d42fe8eda7e&#45;&gt;9533c8c8&#45;b64d&#45;41c3&#45;ab1f&#45;185992f4c77f -->
<g id="edge24" class="edge">
<title>5e0ed2ef&#45;1da9&#45;4874&#45;b9ac&#45;8d42fe8eda7e&#45;&gt;9533c8c8&#45;b64d&#45;41c3&#45;ab1f&#45;185992f4c77f</title>
<path fill="none" stroke="black" d="M502.9,-71.98C508.31,-62.78 513.93,-53.19 518.89,-44.74"/>
<polygon fill="black" stroke="black" points="521.93,-46.48 523.97,-36.09 515.89,-42.94 521.93,-46.48"/>
</g>
<!-- c7c3af20&#45;d33c&#45;4345&#45;bee1&#45;ac93c325e43e -->
<g id="node29" class="node">
<title>c7c3af20&#45;d33c&#45;4345&#45;bee1&#45;ac93c325e43e</title>
<polygon fill="none" stroke="black" points="362,-501.5 324,-501.5 324,-463.5 362,-463.5 362,-501.5"/>
<text text-anchor="middle" x="343" y="-474" font-family="Arial Unicode MS" font-size="10.00">end </text>
</g>
<!-- eaa65aa5&#45;60bd&#45;4150&#45;a9ef&#45;7a04d2982497&#45;&gt;c7c3af20&#45;d33c&#45;4345&#45;bee1&#45;ac93c325e43e -->
<g id="edge28" class="edge">
<title>eaa65aa5&#45;60bd&#45;4150&#45;a9ef&#45;7a04d2982497&#45;&gt;c7c3af20&#45;d33c&#45;4345&#45;bee1&#45;ac93c325e43e</title>
<path fill="none" stroke="black" d="M366.42,-563.92C361.25,-546.16 355.62,-526.82 351.17,-511.56"/>
<polygon fill="black" stroke="black" points="354.46,-510.34 348.3,-501.71 347.74,-512.29 354.46,-510.34"/>
</g>
<!-- 8f424617&#45;e226&#45;472f&#45;958c&#45;b7a7ab5a14d0 -->
<g id="node30" class="node">
<title>8f424617&#45;e226&#45;472f&#45;958c&#45;b7a7ab5a14d0</title>
<polygon fill="none" stroke="black" points="441.5,-513 380.5,-513 380.5,-452 441.5,-452 441.5,-513"/>
<text text-anchor="middle" x="411" y="-474" font-family="Arial Unicode MS" font-size="10.00">program </text>
</g>
<!-- eaa65aa5&#45;60bd&#45;4150&#45;a9ef&#45;7a04d2982497&#45;&gt;8f424617&#45;e226&#45;472f&#45;958c&#45;b7a7ab5a14d0 -->
<g id="edge29" class="edge">
<title>eaa65aa5&#45;60bd&#45;4150&#45;a9ef&#45;7a04d2982497&#45;&gt;8f424617&#45;e226&#45;472f&#45;958c&#45;b7a7ab5a14d0</title>
<path fill="none" stroke="black" d="M392.51,-563.92C395.62,-550.42 398.93,-536 401.88,-523.16"/>
<polygon fill="black" stroke="black" points="405.33,-523.78 404.16,-513.25 398.51,-522.21 405.33,-523.78"/>
</g>
<!-- 8512b39c&#45;ddce&#45;46c5&#45;a017&#45;c4e175091891 -->
<g id="node31" class="node">
<title>8512b39c&#45;ddce&#45;46c5&#45;a017&#45;c4e175091891</title>
<polygon fill="none" stroke="black" points="514,-509.5 460,-509.5 460,-455.5 514,-455.5 514,-509.5"/>
<text text-anchor="middle" x="487" y="-474" font-family="Arial Unicode MS" font-size="10.00">p2_7_3 </text>
</g>
<!-- eaa65aa5&#45;60bd&#45;4150&#45;a9ef&#45;7a04d2982497&#45;&gt;8512b39c&#45;ddce&#45;46c5&#45;a017&#45;c4e175091891 -->
<g id="edge30" class="edge">
<title>eaa65aa5&#45;60bd&#45;4150&#45;a9ef&#45;7a04d2982497&#45;&gt;8512b39c&#45;ddce&#45;46c5&#45;a017&#45;c4e175091891</title>
<path fill="none" stroke="black" d="M421.74,-564C431.34,-552.2 441.54,-539.66 451,-528 453.68,-524.7 456.46,-521.26 459.25,-517.82"/>
<polygon fill="black" stroke="black" points="462.12,-519.84 465.69,-509.86 456.68,-515.43 462.12,-519.84"/>
</g>
</g>
</svg>
