<?xml version="1.0" encoding="UTF-8" standalone="no"?>
<!DOCTYPE svg PUBLIC "-//W3C//DTD SVG 1.1//EN"
 "http://www.w3.org/Graphics/SVG/1.1/DTD/svg11.dtd">
<!-- Generated by graphviz version 2.43.0 (0)
 -->
<!-- Title: G Pages: 1 -->
<svg width="1439pt" height="433pt"
 viewBox="0.00 0.00 1439.00 433.00" xmlns="http://www.w3.org/2000/svg" xmlns:xlink="http://www.w3.org/1999/xlink">
<g id="graph0" class="graph" transform="scale(1 1) rotate(0) translate(4 429)">
<title>G</title>
<polygon fill="white" stroke="transparent" points="-4,4 -4,-429 1435,-429 1435,4 -4,4"/>
<!-- ba42c1fa&#45;d9cc&#45;4016&#45;9a9c&#45;73fe47627a19 -->
<g id="node1" class="node">
<title>ba42c1fa&#45;d9cc&#45;4016&#45;9a9c&#45;73fe47627a19</title>
<polygon fill="none" stroke="black" points="636.5,-425 575.5,-425 575.5,-364 636.5,-364 636.5,-425"/>
<text text-anchor="middle" x="606" y="-386" font-family="Arial Unicode MS" font-size="10.00">Program </text>
</g>
<!-- 80eca7d2&#45;5b20&#45;4b9f&#45;9b75&#45;79ae5e82b6a8 -->
<g id="node2" class="node">
<title>80eca7d2&#45;5b20&#45;4b9f&#45;9b75&#45;79ae5e82b6a8</title>
<polygon fill="none" stroke="black" points="612,-328 498,-328 498,-214 612,-214 612,-328"/>
<text text-anchor="middle" x="555" y="-262.5" font-family="Arial Unicode MS" font-size="10.00">ExecutableProgram </text>
</g>
<!-- ba42c1fa&#45;d9cc&#45;4016&#45;9a9c&#45;73fe47627a19&#45;&gt;80eca7d2&#45;5b20&#45;4b9f&#45;9b75&#45;79ae5e82b6a8 -->
<g id="edge1" class="edge">
<title>ba42c1fa&#45;d9cc&#45;4016&#45;9a9c&#45;73fe47627a19&#45;&gt;80eca7d2&#45;5b20&#45;4b9f&#45;9b75&#45;79ae5e82b6a8</title>
<path fill="none" stroke="black" d="M593.52,-363.78C590.2,-355.85 586.47,-346.96 582.67,-337.92"/>
<polygon fill="black" stroke="black" points="585.8,-336.34 578.71,-328.48 579.35,-339.05 585.8,-336.34"/>
</g>
<!-- ec264c07&#45;766a&#45;4d04&#45;9dee&#45;6b6faff17681 -->
<g id="node39" class="node">
<title>ec264c07&#45;766a&#45;4d04&#45;9dee&#45;6b6faff17681</title>
<polygon fill="none" stroke="black" points="686,-299 630,-299 630,-243 686,-243 686,-299"/>
<text text-anchor="middle" x="658" y="-262.5" font-family="Arial Unicode MS" font-size="10.00">&lt;EOF&gt; </text>
</g>
<!-- ba42c1fa&#45;d9cc&#45;4016&#45;9a9c&#45;73fe47627a19&#45;&gt;ec264c07&#45;766a&#45;4d04&#45;9dee&#45;6b6faff17681 -->
<g id="edge38" class="edge">
<title>ba42c1fa&#45;d9cc&#45;4016&#45;9a9c&#45;73fe47627a19&#45;&gt;ec264c07&#45;766a&#45;4d04&#45;9dee&#45;6b6faff17681</title>
<path fill="none" stroke="black" d="M618.72,-363.78C625.82,-347.18 634.74,-326.36 642.27,-308.75"/>
<polygon fill="black" stroke="black" points="645.58,-309.91 646.3,-299.34 639.15,-307.15 645.58,-309.91"/>
</g>
<!-- 58524029&#45;6595&#45;48b5&#45;a817&#45;f3929254cffe -->
<g id="node3" class="node">
<title>58524029&#45;6595&#45;48b5&#45;a817&#45;f3929254cffe</title>
<polygon fill="none" stroke="black" points="121.5,-178 40.5,-178 40.5,-97 121.5,-97 121.5,-178"/>
<text text-anchor="middle" x="81" y="-129" font-family="Arial Unicode MS" font-size="10.00">ProgramUnit </text>
</g>
<!-- 80eca7d2&#45;5b20&#45;4b9f&#45;9b75&#45;79ae5e82b6a8&#45;&gt;58524029&#45;6595&#45;48b5&#45;a817&#45;f3929254cffe -->
<g id="edge2" class="edge">
<title>80eca7d2&#45;5b20&#45;4b9f&#45;9b75&#45;79ae5e82b6a8&#45;&gt;58524029&#45;6595&#45;48b5&#45;a817&#45;f3929254cffe</title>
<path fill="none" stroke="black" d="M497.84,-263.27C416.92,-252.4 265.43,-227.06 145,-178 140.21,-176.05 135.37,-173.76 130.61,-171.27"/>
<polygon fill="black" stroke="black" points="132.04,-168.06 121.59,-166.31 128.66,-174.2 132.04,-168.06"/>
</g>
<!-- 9d377415&#45;01ce&#45;4a49&#45;8eea&#45;8f1adc203faa -->
<g id="node6" class="node">
<title>9d377415&#45;01ce&#45;4a49&#45;8eea&#45;8f1adc203faa</title>
<polygon fill="none" stroke="black" points="235.5,-178 154.5,-178 154.5,-97 235.5,-97 235.5,-178"/>
<text text-anchor="middle" x="195" y="-129" font-family="Arial Unicode MS" font-size="10.00">ProgramUnit </text>
</g>
<!-- 80eca7d2&#45;5b20&#45;4b9f&#45;9b75&#45;79ae5e82b6a8&#45;&gt;9d377415&#45;01ce&#45;4a49&#45;8eea&#45;8f1adc203faa -->
<g id="edge5" class="edge">
<title>80eca7d2&#45;5b20&#45;4b9f&#45;9b75&#45;79ae5e82b6a8&#45;&gt;9d377415&#45;01ce&#45;4a49&#45;8eea&#45;8f1adc203faa</title>
<path fill="none" stroke="black" d="M497.8,-256.78C437.01,-241.7 338.84,-214.34 259,-178 254.29,-175.86 249.51,-173.43 244.79,-170.86"/>
<polygon fill="black" stroke="black" points="246.24,-167.67 235.82,-165.78 242.79,-173.76 246.24,-167.67"/>
</g>
<!-- c5414797&#45;9b5a&#45;4d41&#45;a7ef&#45;4e4ff3011a98 -->
<g id="node8" class="node">
<title>c5414797&#45;9b5a&#45;4d41&#45;a7ef&#45;4e4ff3011a98</title>
<polygon fill="none" stroke="black" points="304,-155.5 268,-155.5 268,-119.5 304,-119.5 304,-155.5"/>
<text text-anchor="middle" x="286" y="-129" font-family="Arial Unicode MS" font-size="10.00"> </text>
</g>
<!-- 80eca7d2&#45;5b20&#45;4b9f&#45;9b75&#45;79ae5e82b6a8&#45;&gt;c5414797&#45;9b5a&#45;4d41&#45;a7ef&#45;4e4ff3011a98 -->
<g id="edge7" class="edge">
<title>80eca7d2&#45;5b20&#45;4b9f&#45;9b75&#45;79ae5e82b6a8&#45;&gt;c5414797&#45;9b5a&#45;4d41&#45;a7ef&#45;4e4ff3011a98</title>
<path fill="none" stroke="black" d="M497.78,-258.59C445.4,-245.9 367.9,-221.25 313,-178 308.15,-174.18 303.84,-169.25 300.17,-164.17"/>
<polygon fill="black" stroke="black" points="303.01,-162.12 294.6,-155.67 297.15,-165.95 303.01,-162.12"/>
</g>
<!-- d5e06fa5&#45;6192&#45;48a8&#45;8246&#45;c38a57f41cb6 -->
<g id="node9" class="node">
<title>d5e06fa5&#45;6192&#45;48a8&#45;8246&#45;c38a57f41cb6</title>
<polygon fill="none" stroke="black" points="403.5,-178 322.5,-178 322.5,-97 403.5,-97 403.5,-178"/>
<text text-anchor="middle" x="363" y="-129" font-family="Arial Unicode MS" font-size="10.00">ProgramUnit </text>
</g>
<!-- 80eca7d2&#45;5b20&#45;4b9f&#45;9b75&#45;79ae5e82b6a8&#45;&gt;d5e06fa5&#45;6192&#45;48a8&#45;8246&#45;c38a57f41cb6 -->
<g id="edge8" class="edge">
<title>80eca7d2&#45;5b20&#45;4b9f&#45;9b75&#45;79ae5e82b6a8&#45;&gt;d5e06fa5&#45;6192&#45;48a8&#45;8246&#45;c38a57f41cb6</title>
<path fill="none" stroke="black" d="M497.87,-234.71C471.63,-218.06 440.34,-197.59 413,-178 412.62,-177.73 412.23,-177.45 411.85,-177.17"/>
<polygon fill="black" stroke="black" points="413.82,-174.27 403.69,-171.15 409.66,-179.91 413.82,-174.27"/>
</g>
<!-- 8ba4bab4&#45;7f90&#45;4619&#45;9feb&#45;a75a0f03f7ab -->
<g id="node15" class="node">
<title>8ba4bab4&#45;7f90&#45;4619&#45;9feb&#45;a75a0f03f7ab</title>
<polygon fill="none" stroke="black" points="458,-155.5 422,-155.5 422,-119.5 458,-119.5 458,-155.5"/>
<text text-anchor="middle" x="440" y="-129" font-family="Arial Unicode MS" font-size="10.00"> </text>
</g>
<!-- 80eca7d2&#45;5b20&#45;4b9f&#45;9b75&#45;79ae5e82b6a8&#45;&gt;8ba4bab4&#45;7f90&#45;4619&#45;9feb&#45;a75a0f03f7ab -->
<g id="edge14" class="edge">
<title>80eca7d2&#45;5b20&#45;4b9f&#45;9b75&#45;79ae5e82b6a8&#45;&gt;8ba4bab4&#45;7f90&#45;4619&#45;9feb&#45;a75a0f03f7ab</title>
<path fill="none" stroke="black" d="M498.57,-213.91C487.74,-202.34 476.75,-190.02 467,-178 463.47,-173.65 459.92,-168.84 456.61,-164.13"/>
<polygon fill="black" stroke="black" points="459.5,-162.14 450.97,-155.85 453.72,-166.09 459.5,-162.14"/>
</g>
<!-- b0aa62eb&#45;a57a&#45;4c9c&#45;b97f&#45;62b2b7979211 -->
<g id="node16" class="node">
<title>b0aa62eb&#45;a57a&#45;4c9c&#45;b97f&#45;62b2b7979211</title>
<polygon fill="none" stroke="black" points="557.5,-178 476.5,-178 476.5,-97 557.5,-97 557.5,-178"/>
<text text-anchor="middle" x="517" y="-129" font-family="Arial Unicode MS" font-size="10.00">ProgramUnit </text>
</g>
<!-- 80eca7d2&#45;5b20&#45;4b9f&#45;9b75&#45;79ae5e82b6a8&#45;&gt;b0aa62eb&#45;a57a&#45;4c9c&#45;b97f&#45;62b2b7979211 -->
<g id="edge15" class="edge">
<title>80eca7d2&#45;5b20&#45;4b9f&#45;9b75&#45;79ae5e82b6a8&#45;&gt;b0aa62eb&#45;a57a&#45;4c9c&#45;b97f&#45;62b2b7979211</title>
<path fill="none" stroke="black" d="M538.77,-213.85C536.28,-205.22 533.72,-196.37 531.27,-187.9"/>
<polygon fill="black" stroke="black" points="534.6,-186.8 528.46,-178.17 527.88,-188.75 534.6,-186.8"/>
</g>
<!-- 8da58aef&#45;fc3e&#45;4a30&#45;a737&#45;2a58c1df445a -->
<g id="node19" class="node">
<title>8da58aef&#45;fc3e&#45;4a30&#45;a737&#45;2a58c1df445a</title>
<polygon fill="none" stroke="black" points="612,-155.5 576,-155.5 576,-119.5 612,-119.5 612,-155.5"/>
<text text-anchor="middle" x="594" y="-129" font-family="Arial Unicode MS" font-size="10.00"> </text>
</g>
<!-- 80eca7d2&#45;5b20&#45;4b9f&#45;9b75&#45;79ae5e82b6a8&#45;&gt;8da58aef&#45;fc3e&#45;4a30&#45;a737&#45;2a58c1df445a -->
<g id="edge18" class="edge">
<title>80eca7d2&#45;5b20&#45;4b9f&#45;9b75&#45;79ae5e82b6a8&#45;&gt;8da58aef&#45;fc3e&#45;4a30&#45;a737&#45;2a58c1df445a</title>
<path fill="none" stroke="black" d="M571.65,-213.85C576.6,-197.16 581.8,-179.63 585.94,-165.68"/>
<polygon fill="black" stroke="black" points="589.39,-166.37 588.87,-155.79 582.67,-164.38 589.39,-166.37"/>
</g>
<!-- c801e570&#45;bc6d&#45;4051&#45;900e&#45;1e7557444659 -->
<g id="node20" class="node">
<title>c801e570&#45;bc6d&#45;4051&#45;900e&#45;1e7557444659</title>
<polygon fill="none" stroke="black" points="711.5,-178 630.5,-178 630.5,-97 711.5,-97 711.5,-178"/>
<text text-anchor="middle" x="671" y="-129" font-family="Arial Unicode MS" font-size="10.00">ProgramUnit </text>
</g>
<!-- 80eca7d2&#45;5b20&#45;4b9f&#45;9b75&#45;79ae5e82b6a8&#45;&gt;c801e570&#45;bc6d&#45;4051&#45;900e&#45;1e7557444659 -->
<g id="edge19" class="edge">
<title>80eca7d2&#45;5b20&#45;4b9f&#45;9b75&#45;79ae5e82b6a8&#45;&gt;c801e570&#45;bc6d&#45;4051&#45;900e&#45;1e7557444659</title>
<path fill="none" stroke="black" d="M604.53,-213.85C612.81,-204.47 621.32,-194.82 629.37,-185.7"/>
<polygon fill="black" stroke="black" points="632.02,-187.98 636.01,-178.17 626.77,-183.35 632.02,-187.98"/>
</g>
<!-- a0281026&#45;f413&#45;4ffa&#45;95d5&#45;ea7df1de3368 -->
<g id="node23" class="node">
<title>a0281026&#45;f413&#45;4ffa&#45;95d5&#45;ea7df1de3368</title>
<polygon fill="none" stroke="black" points="766,-155.5 730,-155.5 730,-119.5 766,-119.5 766,-155.5"/>
<text text-anchor="middle" x="748" y="-129" font-family="Arial Unicode MS" font-size="10.00"> </text>
</g>
<!-- 80eca7d2&#45;5b20&#45;4b9f&#45;9b75&#45;79ae5e82b6a8&#45;&gt;a0281026&#45;f413&#45;4ffa&#45;95d5&#45;ea7df1de3368 -->
<g id="edge22" class="edge">
<title>80eca7d2&#45;5b20&#45;4b9f&#45;9b75&#45;79ae5e82b6a8&#45;&gt;a0281026&#45;f413&#45;4ffa&#45;95d5&#45;ea7df1de3368</title>
<path fill="none" stroke="black" d="M612.07,-219.59C615.03,-217.61 618.01,-215.74 621,-214 661.49,-190.49 682.77,-206.39 720,-178 724.97,-174.21 729.41,-169.3 733.21,-164.22"/>
<polygon fill="black" stroke="black" points="736.27,-165.95 738.99,-155.71 730.48,-162.02 736.27,-165.95"/>
</g>
<!-- 759ce8d7&#45;be2b&#45;43c4&#45;914f&#45;12403dc6ea85 -->
<g id="node24" class="node">
<title>759ce8d7&#45;be2b&#45;43c4&#45;914f&#45;12403dc6ea85</title>
<polygon fill="none" stroke="black" points="820,-155.5 784,-155.5 784,-119.5 820,-119.5 820,-155.5"/>
<text text-anchor="middle" x="802" y="-129" font-family="Arial Unicode MS" font-size="10.00">3 </text>
</g>
<!-- 80eca7d2&#45;5b20&#45;4b9f&#45;9b75&#45;79ae5e82b6a8&#45;&gt;759ce8d7&#45;be2b&#45;43c4&#45;914f&#45;12403dc6ea85 -->
<g id="edge23" class="edge">
<title>80eca7d2&#45;5b20&#45;4b9f&#45;9b75&#45;79ae5e82b6a8&#45;&gt;759ce8d7&#45;be2b&#45;43c4&#45;914f&#45;12403dc6ea85</title>
<path fill="none" stroke="black" d="M612.22,-218.9C615.11,-217.13 618.05,-215.49 621,-214 683.78,-182.38 717,-217.71 775,-178 780.18,-174.45 784.66,-169.56 788.39,-164.42"/>
<polygon fill="black" stroke="black" points="791.51,-166.04 793.97,-155.73 785.62,-162.25 791.51,-166.04"/>
</g>
<!-- 52ecee2a&#45;d35d&#45;497d&#45;af15&#45;b1e7f498bc07 -->
<g id="node25" class="node">
<title>52ecee2a&#45;d35d&#45;497d&#45;af15&#45;b1e7f498bc07</title>
<polygon fill="none" stroke="black" points="970.5,-178 889.5,-178 889.5,-97 970.5,-97 970.5,-178"/>
<text text-anchor="middle" x="930" y="-129" font-family="Arial Unicode MS" font-size="10.00">ProgramUnit </text>
</g>
<!-- 80eca7d2&#45;5b20&#45;4b9f&#45;9b75&#45;79ae5e82b6a8&#45;&gt;52ecee2a&#45;d35d&#45;497d&#45;af15&#45;b1e7f498bc07 -->
<g id="edge24" class="edge">
<title>80eca7d2&#45;5b20&#45;4b9f&#45;9b75&#45;79ae5e82b6a8&#45;&gt;52ecee2a&#45;d35d&#45;497d&#45;af15&#45;b1e7f498bc07</title>
<path fill="none" stroke="black" d="M612.12,-218.68C615.04,-216.97 618.01,-215.4 621,-214 705.98,-174.25 738.63,-203.21 829,-178 845.82,-173.31 863.71,-166.83 879.69,-160.48"/>
<polygon fill="black" stroke="black" points="881.41,-163.56 889.36,-156.55 878.78,-157.07 881.41,-163.56"/>
</g>
<!-- 505ca195&#45;3c42&#45;4c14&#45;91c3&#45;c362b067d7ca -->
<g id="node35" class="node">
<title>505ca195&#45;3c42&#45;4c14&#45;91c3&#45;c362b067d7ca</title>
<polygon fill="none" stroke="black" points="1334.5,-178 1253.5,-178 1253.5,-97 1334.5,-97 1334.5,-178"/>
<text text-anchor="middle" x="1294" y="-129" font-family="Arial Unicode MS" font-size="10.00">ProgramUnit </text>
</g>
<!-- 80eca7d2&#45;5b20&#45;4b9f&#45;9b75&#45;79ae5e82b6a8&#45;&gt;505ca195&#45;3c42&#45;4c14&#45;91c3&#45;c362b067d7ca -->
<g id="edge34" class="edge">
<title>80eca7d2&#45;5b20&#45;4b9f&#45;9b75&#45;79ae5e82b6a8&#45;&gt;505ca195&#45;3c42&#45;4c14&#45;91c3&#45;c362b067d7ca</title>
<path fill="none" stroke="black" d="M612.4,-218.19C615.22,-216.64 618.1,-215.23 621,-214 768.17,-151.44 820.1,-195.95 979,-178 1072.38,-167.45 1181.11,-153.43 1243.32,-145.24"/>
<polygon fill="black" stroke="black" points="1243.81,-148.71 1253.26,-143.93 1242.89,-141.77 1243.81,-148.71"/>
</g>
<!-- 6ae37693&#45;aeb1&#45;44ac&#45;a5b5&#45;c2197d809945 -->
<g id="node4" class="node">
<title>6ae37693&#45;aeb1&#45;44ac&#45;a5b5&#45;c2197d809945</title>
<polygon fill="none" stroke="black" points="36,-48.5 0,-48.5 0,-12.5 36,-12.5 36,-48.5"/>
<text text-anchor="middle" x="18" y="-22" font-family="Arial Unicode MS" font-size="10.00"> </text>
</g>
<!-- 58524029&#45;6595&#45;48b5&#45;a817&#45;f3929254cffe&#45;&gt;6ae37693&#45;aeb1&#45;44ac&#45;a5b5&#45;c2197d809945 -->
<g id="edge3" class="edge">
<title>58524029&#45;6595&#45;48b5&#45;a817&#45;f3929254cffe&#45;&gt;6ae37693&#45;aeb1&#45;44ac&#45;a5b5&#45;c2197d809945</title>
<path fill="none" stroke="black" d="M57.18,-96.8C49.32,-83.7 40.78,-69.46 33.68,-57.63"/>
<polygon fill="black" stroke="black" points="36.48,-55.5 28.34,-48.73 30.48,-59.11 36.48,-55.5"/>
</g>
<!-- 91fbe1a1&#45;b94b&#45;4cf6&#45;aad6&#45;25be03776da7 -->
<g id="node5" class="node">
<title>91fbe1a1&#45;b94b&#45;4cf6&#45;aad6&#45;25be03776da7</title>
<polygon fill="none" stroke="black" points="108,-57.5 54,-57.5 54,-3.5 108,-3.5 108,-57.5"/>
<text text-anchor="middle" x="81" y="-22" font-family="Arial Unicode MS" font-size="10.00">p2_7_3 </text>
</g>
<!-- 58524029&#45;6595&#45;48b5&#45;a817&#45;f3929254cffe&#45;&gt;91fbe1a1&#45;b94b&#45;4cf6&#45;aad6&#45;25be03776da7 -->
<g id="edge4" class="edge">
<title>58524029&#45;6595&#45;48b5&#45;a817&#45;f3929254cffe&#45;&gt;91fbe1a1&#45;b94b&#45;4cf6&#45;aad6&#45;25be03776da7</title>
<path fill="none" stroke="black" d="M81,-96.8C81,-87.27 81,-77.13 81,-67.76"/>
<polygon fill="black" stroke="black" points="84.5,-67.58 81,-57.58 77.5,-67.58 84.5,-67.58"/>
</g>
<!-- cafe7d17&#45;e679&#45;43ee&#45;bc79&#45;b51c4d12f929 -->
<g id="node7" class="node">
<title>cafe7d17&#45;e679&#45;43ee&#45;bc79&#45;b51c4d12f929</title>
<polygon fill="none" stroke="black" points="170,-52.5 126,-52.5 126,-8.5 170,-8.5 170,-52.5"/>
<text text-anchor="middle" x="148" y="-22" font-family="Arial Unicode MS" font-size="10.00">none </text>
</g>
<!-- 9d377415&#45;01ce&#45;4a49&#45;8eea&#45;8f1adc203faa&#45;&gt;cafe7d17&#45;e679&#45;43ee&#45;bc79&#45;b51c4d12f929 -->
<g id="edge6" class="edge">
<title>9d377415&#45;01ce&#45;4a49&#45;8eea&#45;8f1adc203faa&#45;&gt;cafe7d17&#45;e679&#45;43ee&#45;bc79&#45;b51c4d12f929</title>
<path fill="none" stroke="black" d="M177.23,-96.8C172.1,-85.33 166.57,-72.99 161.72,-62.16"/>
<polygon fill="black" stroke="black" points="164.77,-60.4 157.49,-52.71 158.38,-63.26 164.77,-60.4"/>
</g>
<!-- 26e902be&#45;9688&#45;473f&#45;814f&#45;95aa97ba640d -->
<g id="node10" class="node">
<title>26e902be&#45;9688&#45;473f&#45;814f&#45;95aa97ba640d</title>
<polygon fill="none" stroke="black" points="242,-57.5 188,-57.5 188,-3.5 242,-3.5 242,-57.5"/>
<text text-anchor="middle" x="215" y="-22" font-family="Arial Unicode MS" font-size="10.00">integer </text>
</g>
<!-- d5e06fa5&#45;6192&#45;48a8&#45;8246&#45;c38a57f41cb6&#45;&gt;26e902be&#45;9688&#45;473f&#45;814f&#45;95aa97ba640d -->
<g id="edge9" class="edge">
<title>d5e06fa5&#45;6192&#45;48a8&#45;8246&#45;c38a57f41cb6&#45;&gt;26e902be&#45;9688&#45;473f&#45;814f&#45;95aa97ba640d</title>
<path fill="none" stroke="black" d="M322.43,-103.68C319.28,-101.37 316.11,-99.12 313,-97 286.65,-79.08 277.18,-79.16 251,-61 250.82,-60.87 250.63,-60.75 250.45,-60.62"/>
<polygon fill="black" stroke="black" points="252.29,-57.63 242.16,-54.52 248.14,-63.26 252.29,-57.63"/>
</g>
<!-- 57e7448b&#45;d247&#45;4add&#45;a134&#45;e37c104d690d -->
<g id="node11" class="node">
<title>57e7448b&#45;d247&#45;4add&#45;a134&#45;e37c104d690d</title>
<polygon fill="none" stroke="black" points="296,-48.5 260,-48.5 260,-12.5 296,-12.5 296,-48.5"/>
<text text-anchor="middle" x="278" y="-22" font-family="Arial Unicode MS" font-size="10.00">:: </text>
</g>
<!-- d5e06fa5&#45;6192&#45;48a8&#45;8246&#45;c38a57f41cb6&#45;&gt;57e7448b&#45;d247&#45;4add&#45;a134&#45;e37c104d690d -->
<g id="edge10" class="edge">
<title>d5e06fa5&#45;6192&#45;48a8&#45;8246&#45;c38a57f41cb6&#45;&gt;57e7448b&#45;d247&#45;4add&#45;a134&#45;e37c104d690d</title>
<path fill="none" stroke="black" d="M330.87,-96.8C319.94,-83.31 308.04,-68.61 298.31,-56.58"/>
<polygon fill="black" stroke="black" points="300.96,-54.3 291.95,-48.73 295.52,-58.7 300.96,-54.3"/>
</g>
<!-- a1fcd110&#45;1baa&#45;42c6&#45;bb28&#45;7d0069f71829 -->
<g id="node12" class="node">
<title>a1fcd110&#45;1baa&#45;42c6&#45;bb28&#45;7d0069f71829</title>
<polygon fill="none" stroke="black" points="361.5,-54 314.5,-54 314.5,-7 361.5,-7 361.5,-54"/>
<text text-anchor="middle" x="338" y="-22" font-family="Arial Unicode MS" font-size="10.00">result </text>
</g>
<!-- d5e06fa5&#45;6192&#45;48a8&#45;8246&#45;c38a57f41cb6&#45;&gt;a1fcd110&#45;1baa&#45;42c6&#45;bb28&#45;7d0069f71829 -->
<g id="edge11" class="edge">
<title>d5e06fa5&#45;6192&#45;48a8&#45;8246&#45;c38a57f41cb6&#45;&gt;a1fcd110&#45;1baa&#45;42c6&#45;bb28&#45;7d0069f71829</title>
<path fill="none" stroke="black" d="M353.55,-96.8C350.98,-86 348.22,-74.43 345.76,-64.07"/>
<polygon fill="black" stroke="black" points="349.12,-63.11 343.4,-54.19 342.31,-64.73 349.12,-63.11"/>
</g>
<!-- cbe0136b&#45;13fc&#45;4b54&#45;8269&#45;1be6f3026427 -->
<g id="node13" class="node">
<title>cbe0136b&#45;13fc&#45;4b54&#45;8269&#45;1be6f3026427</title>
<polygon fill="none" stroke="black" points="426.5,-54 379.5,-54 379.5,-7 426.5,-7 426.5,-54"/>
<text text-anchor="middle" x="403" y="-22" font-family="Arial Unicode MS" font-size="10.00">result </text>
</g>
<!-- d5e06fa5&#45;6192&#45;48a8&#45;8246&#45;c38a57f41cb6&#45;&gt;cbe0136b&#45;13fc&#45;4b54&#45;8269&#45;1be6f3026427 -->
<g id="edge12" class="edge">
<title>d5e06fa5&#45;6192&#45;48a8&#45;8246&#45;c38a57f41cb6&#45;&gt;cbe0136b&#45;13fc&#45;4b54&#45;8269&#45;1be6f3026427</title>
<path fill="none" stroke="black" d="M378.12,-96.8C382.28,-85.89 386.74,-74.19 390.71,-63.75"/>
<polygon fill="black" stroke="black" points="394.07,-64.79 394.35,-54.19 387.52,-62.29 394.07,-64.79"/>
</g>
<!-- c1f956a4&#45;596a&#45;4848&#45;8023&#45;473b930e2433 -->
<g id="node14" class="node">
<title>c1f956a4&#45;596a&#45;4848&#45;8023&#45;473b930e2433</title>
<polygon fill="none" stroke="black" points="481,-48.5 445,-48.5 445,-12.5 481,-12.5 481,-48.5"/>
<text text-anchor="middle" x="463" y="-22" font-family="Arial Unicode MS" font-size="10.00">= </text>
</g>
<!-- d5e06fa5&#45;6192&#45;48a8&#45;8246&#45;c38a57f41cb6&#45;&gt;c1f956a4&#45;596a&#45;4848&#45;8023&#45;473b930e2433 -->
<g id="edge13" class="edge">
<title>d5e06fa5&#45;6192&#45;48a8&#45;8246&#45;c38a57f41cb6&#45;&gt;c1f956a4&#45;596a&#45;4848&#45;8023&#45;473b930e2433</title>
<path fill="none" stroke="black" d="M400.76,-96.94C411.8,-85.36 423.89,-72.68 435,-61 436.54,-59.38 438.13,-57.71 439.73,-56.02"/>
<polygon fill="black" stroke="black" points="442.37,-58.33 446.72,-48.67 437.3,-53.51 442.37,-58.33"/>
</g>
<!-- 067c4d97&#45;bbe1&#45;48bc&#45;8ace&#45;987b740100ff -->
<g id="node17" class="node">
<title>067c4d97&#45;bbe1&#45;48bc&#45;8ace&#45;987b740100ff</title>
<polygon fill="none" stroke="black" points="535,-48.5 499,-48.5 499,-12.5 535,-12.5 535,-48.5"/>
<text text-anchor="middle" x="517" y="-22" font-family="Arial Unicode MS" font-size="10.00">2 </text>
</g>
<!-- b0aa62eb&#45;a57a&#45;4c9c&#45;b97f&#45;62b2b7979211&#45;&gt;067c4d97&#45;bbe1&#45;48bc&#45;8ace&#45;987b740100ff -->
<g id="edge16" class="edge">
<title>b0aa62eb&#45;a57a&#45;4c9c&#45;b97f&#45;62b2b7979211&#45;&gt;067c4d97&#45;bbe1&#45;48bc&#45;8ace&#45;987b740100ff</title>
<path fill="none" stroke="black" d="M517,-96.8C517,-84.22 517,-70.58 517,-59.05"/>
<polygon fill="black" stroke="black" points="520.5,-58.73 517,-48.73 513.5,-58.73 520.5,-58.73"/>
</g>
<!-- acb9637a&#45;7aa2&#45;4ff5&#45;9c3c&#45;30de70cba26b -->
<g id="node18" class="node">
<title>acb9637a&#45;7aa2&#45;4ff5&#45;9c3c&#45;30de70cba26b</title>
<polygon fill="none" stroke="black" points="589,-48.5 553,-48.5 553,-12.5 589,-12.5 589,-48.5"/>
<text text-anchor="middle" x="571" y="-22" font-family="Arial Unicode MS" font-size="10.00">* </text>
</g>
<!-- b0aa62eb&#45;a57a&#45;4c9c&#45;b97f&#45;62b2b7979211&#45;&gt;acb9637a&#45;7aa2&#45;4ff5&#45;9c3c&#45;30de70cba26b -->
<g id="edge17" class="edge">
<title>b0aa62eb&#45;a57a&#45;4c9c&#45;b97f&#45;62b2b7979211&#45;&gt;acb9637a&#45;7aa2&#45;4ff5&#45;9c3c&#45;30de70cba26b</title>
<path fill="none" stroke="black" d="M537.42,-96.8C544.16,-83.7 551.48,-69.46 557.56,-57.63"/>
<polygon fill="black" stroke="black" points="560.68,-59.22 562.14,-48.73 554.45,-56.02 560.68,-59.22"/>
</g>
<!-- d68f97b3&#45;cef4&#45;48be&#45;881b&#45;5cfbe5c7430f -->
<g id="node21" class="node">
<title>d68f97b3&#45;cef4&#45;48be&#45;881b&#45;5cfbe5c7430f</title>
<polygon fill="none" stroke="black" points="643,-48.5 607,-48.5 607,-12.5 643,-12.5 643,-48.5"/>
<text text-anchor="middle" x="625" y="-22" font-family="Arial Unicode MS" font-size="10.00">7 </text>
</g>
<!-- c801e570&#45;bc6d&#45;4051&#45;900e&#45;1e7557444659&#45;&gt;d68f97b3&#45;cef4&#45;48be&#45;881b&#45;5cfbe5c7430f -->
<g id="edge20" class="edge">
<title>c801e570&#45;bc6d&#45;4051&#45;900e&#45;1e7557444659&#45;&gt;d68f97b3&#45;cef4&#45;48be&#45;881b&#45;5cfbe5c7430f</title>
<path fill="none" stroke="black" d="M653.61,-96.8C647.92,-83.83 641.75,-69.74 636.6,-57.98"/>
<polygon fill="black" stroke="black" points="639.77,-56.49 632.55,-48.73 633.36,-59.29 639.77,-56.49"/>
</g>
<!-- e32d8492&#45;e65a&#45;4e24&#45;a1b3&#45;86086f22762d -->
<g id="node22" class="node">
<title>e32d8492&#45;e65a&#45;4e24&#45;a1b3&#45;86086f22762d</title>
<polygon fill="none" stroke="black" points="697,-48.5 661,-48.5 661,-12.5 697,-12.5 697,-48.5"/>
<text text-anchor="middle" x="679" y="-22" font-family="Arial Unicode MS" font-size="10.00">+ </text>
</g>
<!-- c801e570&#45;bc6d&#45;4051&#45;900e&#45;1e7557444659&#45;&gt;e32d8492&#45;e65a&#45;4e24&#45;a1b3&#45;86086f22762d -->
<g id="edge21" class="edge">
<title>c801e570&#45;bc6d&#45;4051&#45;900e&#45;1e7557444659&#45;&gt;e32d8492&#45;e65a&#45;4e24&#45;a1b3&#45;86086f22762d</title>
<path fill="none" stroke="black" d="M674.02,-96.8C674.98,-84.22 676.02,-70.58 676.9,-59.05"/>
<polygon fill="black" stroke="black" points="680.42,-58.97 677.69,-48.73 673.44,-58.44 680.42,-58.97"/>
</g>
<!-- 32a28fef&#45;867d&#45;41d1&#45;868e&#45;debce539a7d3 -->
<g id="node26" class="node">
<title>32a28fef&#45;867d&#45;41d1&#45;868e&#45;debce539a7d3</title>
<polygon fill="none" stroke="black" points="759,-52.5 715,-52.5 715,-8.5 759,-8.5 759,-52.5"/>
<text text-anchor="middle" x="737" y="-22" font-family="Arial Unicode MS" font-size="10.00">write </text>
</g>
<!-- 52ecee2a&#45;d35d&#45;497d&#45;af15&#45;b1e7f498bc07&#45;&gt;32a28fef&#45;867d&#45;41d1&#45;868e&#45;debce539a7d3 -->
<g id="edge25" class="edge">
<title>52ecee2a&#45;d35d&#45;497d&#45;af15&#45;b1e7f498bc07&#45;&gt;32a28fef&#45;867d&#45;41d1&#45;868e&#45;debce539a7d3</title>
<path fill="none" stroke="black" d="M889.46,-121.87C855.47,-108.63 806.46,-87.22 768,-61 767.11,-60.39 766.22,-59.76 765.34,-59.11"/>
<polygon fill="black" stroke="black" points="767.53,-56.38 757.56,-52.79 763.11,-61.81 767.53,-56.38"/>
</g>
<!-- 8afd8a2a&#45;d198&#45;4538&#45;9c95&#45;9bea5bfdfea4 -->
<g id="node27" class="node">
<title>8afd8a2a&#45;d198&#45;4538&#45;9c95&#45;9bea5bfdfea4</title>
<polygon fill="none" stroke="black" points="813,-48.5 777,-48.5 777,-12.5 813,-12.5 813,-48.5"/>
<text text-anchor="middle" x="795" y="-22" font-family="Arial Unicode MS" font-size="10.00">( </text>
</g>
<!-- 52ecee2a&#45;d35d&#45;497d&#45;af15&#45;b1e7f498bc07&#45;&gt;8afd8a2a&#45;d198&#45;4538&#45;9c95&#45;9bea5bfdfea4 -->
<g id="edge26" class="edge">
<title>52ecee2a&#45;d35d&#45;497d&#45;af15&#45;b1e7f498bc07&#45;&gt;8afd8a2a&#45;d198&#45;4538&#45;9c95&#45;9bea5bfdfea4</title>
<path fill="none" stroke="black" d="M889.46,-111.22C868.5,-97.41 842.99,-79.4 822,-61 820.26,-59.48 818.52,-57.85 816.8,-56.17"/>
<polygon fill="black" stroke="black" points="819,-53.41 809.53,-48.66 813.97,-58.28 819,-53.41"/>
</g>
<!-- ab9c8a14&#45;bf19&#45;4353&#45;a60a&#45;0dea3c8cc6dd -->
<g id="node28" class="node">
<title>ab9c8a14&#45;bf19&#45;4353&#45;a60a&#45;0dea3c8cc6dd</title>
<polygon fill="none" stroke="black" points="867,-48.5 831,-48.5 831,-12.5 867,-12.5 867,-48.5"/>
<text text-anchor="middle" x="849" y="-22" font-family="Arial Unicode MS" font-size="10.00">* </text>
</g>
<!-- 52ecee2a&#45;d35d&#45;497d&#45;af15&#45;b1e7f498bc07&#45;&gt;ab9c8a14&#45;bf19&#45;4353&#45;a60a&#45;0dea3c8cc6dd -->
<g id="edge27" class="edge">
<title>52ecee2a&#45;d35d&#45;497d&#45;af15&#45;b1e7f498bc07&#45;&gt;ab9c8a14&#45;bf19&#45;4353&#45;a60a&#45;0dea3c8cc6dd</title>
<path fill="none" stroke="black" d="M899.38,-96.8C889.07,-83.44 877.85,-68.89 868.62,-56.93"/>
<polygon fill="black" stroke="black" points="871.17,-54.51 862.29,-48.73 865.63,-58.79 871.17,-54.51"/>
</g>
<!-- 2abf33ff&#45;9a2d&#45;4bb2&#45;affb&#45;4189427b3eea -->
<g id="node29" class="node">
<title>2abf33ff&#45;9a2d&#45;4bb2&#45;affb&#45;4189427b3eea</title>
<polygon fill="none" stroke="black" points="921,-48.5 885,-48.5 885,-12.5 921,-12.5 921,-48.5"/>
<text text-anchor="middle" x="903" y="-22" font-family="Arial Unicode MS" font-size="10.00">, </text>
</g>
<!-- 52ecee2a&#45;d35d&#45;497d&#45;af15&#45;b1e7f498bc07&#45;&gt;2abf33ff&#45;9a2d&#45;4bb2&#45;affb&#45;4189427b3eea -->
<g id="edge28" class="edge">
<title>52ecee2a&#45;d35d&#45;497d&#45;af15&#45;b1e7f498bc07&#45;&gt;2abf33ff&#45;9a2d&#45;4bb2&#45;affb&#45;4189427b3eea</title>
<path fill="none" stroke="black" d="M919.79,-96.8C916.52,-84.09 912.98,-70.3 909.99,-58.69"/>
<polygon fill="black" stroke="black" points="913.31,-57.54 907.43,-48.73 906.53,-59.29 913.31,-57.54"/>
</g>
<!-- 396822d1&#45;961e&#45;4129&#45;820a&#45;14c192640a89 -->
<g id="node30" class="node">
<title>396822d1&#45;961e&#45;4129&#45;820a&#45;14c192640a89</title>
<polygon fill="none" stroke="black" points="975,-48.5 939,-48.5 939,-12.5 975,-12.5 975,-48.5"/>
<text text-anchor="middle" x="957" y="-22" font-family="Arial Unicode MS" font-size="10.00">* </text>
</g>
<!-- 52ecee2a&#45;d35d&#45;497d&#45;af15&#45;b1e7f498bc07&#45;&gt;396822d1&#45;961e&#45;4129&#45;820a&#45;14c192640a89 -->
<g id="edge29" class="edge">
<title>52ecee2a&#45;d35d&#45;497d&#45;af15&#45;b1e7f498bc07&#45;&gt;396822d1&#45;961e&#45;4129&#45;820a&#45;14c192640a89</title>
<path fill="none" stroke="black" d="M940.21,-96.8C943.48,-84.09 947.02,-70.3 950.01,-58.69"/>
<polygon fill="black" stroke="black" points="953.47,-59.29 952.57,-48.73 946.69,-57.54 953.47,-59.29"/>
</g>
<!-- 3c231ad1&#45;2b9f&#45;4d2c&#45;b5de&#45;abb0786761dd -->
<g id="node31" class="node">
<title>3c231ad1&#45;2b9f&#45;4d2c&#45;b5de&#45;abb0786761dd</title>
<polygon fill="none" stroke="black" points="1029,-48.5 993,-48.5 993,-12.5 1029,-12.5 1029,-48.5"/>
<text text-anchor="middle" x="1011" y="-22" font-family="Arial Unicode MS" font-size="10.00">) </text>
</g>
<!-- 52ecee2a&#45;d35d&#45;497d&#45;af15&#45;b1e7f498bc07&#45;&gt;3c231ad1&#45;2b9f&#45;4d2c&#45;b5de&#45;abb0786761dd -->
<g id="edge30" class="edge">
<title>52ecee2a&#45;d35d&#45;497d&#45;af15&#45;b1e7f498bc07&#45;&gt;3c231ad1&#45;2b9f&#45;4d2c&#45;b5de&#45;abb0786761dd</title>
<path fill="none" stroke="black" d="M960.62,-96.8C970.93,-83.44 982.15,-68.89 991.38,-56.93"/>
<polygon fill="black" stroke="black" points="994.37,-58.79 997.71,-48.73 988.83,-54.51 994.37,-58.79"/>
</g>
<!-- 3040a3e3&#45;db3d&#45;4ff9&#45;8414&#45;1aa8f75da270 -->
<g id="node32" class="node">
<title>3040a3e3&#45;db3d&#45;4ff9&#45;8414&#45;1aa8f75da270</title>
<polygon fill="none" stroke="black" points="1103,-58.5 1047,-58.5 1047,-2.5 1103,-2.5 1103,-58.5"/>
<text text-anchor="middle" x="1075" y="-22" font-family="Arial Unicode MS" font-size="10.00">STRING </text>
</g>
<!-- 52ecee2a&#45;d35d&#45;497d&#45;af15&#45;b1e7f498bc07&#45;&gt;3040a3e3&#45;db3d&#45;4ff9&#45;8414&#45;1aa8f75da270 -->
<g id="edge31" class="edge">
<title>52ecee2a&#45;d35d&#45;497d&#45;af15&#45;b1e7f498bc07&#45;&gt;3040a3e3&#45;db3d&#45;4ff9&#45;8414&#45;1aa8f75da270</title>
<path fill="none" stroke="black" d="M970.69,-108.95C991.11,-94.9 1016.1,-77.36 1038,-61 1038.27,-60.8 1038.54,-60.59 1038.82,-60.39"/>
<polygon fill="black" stroke="black" points="1041.05,-63.09 1046.86,-54.23 1036.79,-57.53 1041.05,-63.09"/>
</g>
<!-- 41fb73e6&#45;50dd&#45;4b54&#45;b3e3&#45;4b72ffbdfcf7 -->
<g id="node33" class="node">
<title>41fb73e6&#45;50dd&#45;4b54&#45;b3e3&#45;4b72ffbdfcf7</title>
<polygon fill="none" stroke="black" points="1157,-48.5 1121,-48.5 1121,-12.5 1157,-12.5 1157,-48.5"/>
<text text-anchor="middle" x="1139" y="-22" font-family="Arial Unicode MS" font-size="10.00">, </text>
</g>
<!-- 52ecee2a&#45;d35d&#45;497d&#45;af15&#45;b1e7f498bc07&#45;&gt;41fb73e6&#45;50dd&#45;4b54&#45;b3e3&#45;4b72ffbdfcf7 -->
<g id="edge32" class="edge">
<title>52ecee2a&#45;d35d&#45;497d&#45;af15&#45;b1e7f498bc07&#45;&gt;41fb73e6&#45;50dd&#45;4b54&#45;b3e3&#45;4b72ffbdfcf7</title>
<path fill="none" stroke="black" d="M970.5,-125.31C1009.16,-113.38 1067.88,-91.93 1112,-61 1114.14,-59.5 1116.23,-57.8 1118.25,-56"/>
<polygon fill="black" stroke="black" points="1120.95,-58.25 1125.56,-48.71 1116.01,-53.29 1120.95,-58.25"/>
</g>
<!-- 667908a4&#45;ddb6&#45;40f5&#45;abfa&#45;9c02f76a8372 -->
<g id="node34" class="node">
<title>667908a4&#45;ddb6&#45;40f5&#45;abfa&#45;9c02f76a8372</title>
<polygon fill="none" stroke="black" points="1222.5,-54 1175.5,-54 1175.5,-7 1222.5,-7 1222.5,-54"/>
<text text-anchor="middle" x="1199" y="-22" font-family="Arial Unicode MS" font-size="10.00">result </text>
</g>
<!-- 52ecee2a&#45;d35d&#45;497d&#45;af15&#45;b1e7f498bc07&#45;&gt;667908a4&#45;ddb6&#45;40f5&#45;abfa&#45;9c02f76a8372 -->
<g id="edge33" class="edge">
<title>52ecee2a&#45;d35d&#45;497d&#45;af15&#45;b1e7f498bc07&#45;&gt;667908a4&#45;ddb6&#45;40f5&#45;abfa&#45;9c02f76a8372</title>
<path fill="none" stroke="black" d="M970.51,-128.96C1019.28,-118.69 1102.52,-97.31 1166,-61 1166.65,-60.63 1167.3,-60.24 1167.95,-59.84"/>
<polygon fill="black" stroke="black" points="1169.98,-62.69 1176.14,-54.06 1165.95,-56.97 1169.98,-62.69"/>
</g>
<!-- bca5685b&#45;f95b&#45;4c47&#45;a054&#45;ec1e60c1ea66 -->
<g id="node36" class="node">
<title>bca5685b&#45;f95b&#45;4c47&#45;a054&#45;ec1e60c1ea66</title>
<polygon fill="none" stroke="black" points="1279,-49.5 1241,-49.5 1241,-11.5 1279,-11.5 1279,-49.5"/>
<text text-anchor="middle" x="1260" y="-22" font-family="Arial Unicode MS" font-size="10.00">end </text>
</g>
<!-- 505ca195&#45;3c42&#45;4c14&#45;91c3&#45;c362b067d7ca&#45;&gt;bca5685b&#45;f95b&#45;4c47&#45;a054&#45;ec1e60c1ea66 -->
<g id="edge35" class="edge">
<title>505ca195&#45;3c42&#45;4c14&#45;91c3&#45;c362b067d7ca&#45;&gt;bca5685b&#45;f95b&#45;4c47&#45;a054&#45;ec1e60c1ea66</title>
<path fill="none" stroke="black" d="M1281.15,-96.8C1277.07,-84.23 1272.66,-70.61 1268.93,-59.07"/>
<polygon fill="black" stroke="black" points="1272.26,-57.99 1265.85,-49.56 1265.6,-60.15 1272.26,-57.99"/>
</g>
<!-- 89435901&#45;85b3&#45;432d&#45;b589&#45;49ac8a787aa9 -->
<g id="node37" class="node">
<title>89435901&#45;85b3&#45;432d&#45;b589&#45;49ac8a787aa9</title>
<polygon fill="none" stroke="black" points="1358.5,-61 1297.5,-61 1297.5,0 1358.5,0 1358.5,-61"/>
<text text-anchor="middle" x="1328" y="-22" font-family="Arial Unicode MS" font-size="10.00">program </text>
</g>
<!-- 505ca195&#45;3c42&#45;4c14&#45;91c3&#45;c362b067d7ca&#45;&gt;89435901&#45;85b3&#45;432d&#45;b589&#45;49ac8a787aa9 -->
<g id="edge36" class="edge">
<title>505ca195&#45;3c42&#45;4c14&#45;91c3&#45;c362b067d7ca&#45;&gt;89435901&#45;85b3&#45;432d&#45;b589&#45;49ac8a787aa9</title>
<path fill="none" stroke="black" d="M1306.85,-96.8C1309.61,-88.29 1312.52,-79.3 1315.28,-70.8"/>
<polygon fill="black" stroke="black" points="1318.66,-71.69 1318.41,-61.1 1312,-69.54 1318.66,-71.69"/>
</g>
<!-- 7253296f&#45;cfc3&#45;42a7&#45;b265&#45;41eb7f7b6c87 -->
<g id="node38" class="node">
<title>7253296f&#45;cfc3&#45;42a7&#45;b265&#45;41eb7f7b6c87</title>
<polygon fill="none" stroke="black" points="1431,-57.5 1377,-57.5 1377,-3.5 1431,-3.5 1431,-57.5"/>
<text text-anchor="middle" x="1404" y="-22" font-family="Arial Unicode MS" font-size="10.00">p2_7_3 </text>
</g>
<!-- 505ca195&#45;3c42&#45;4c14&#45;91c3&#45;c362b067d7ca&#45;&gt;7253296f&#45;cfc3&#45;42a7&#45;b265&#45;41eb7f7b6c87 -->
<g id="edge37" class="edge">
<title>505ca195&#45;3c42&#45;4c14&#45;91c3&#45;c362b067d7ca&#45;&gt;7253296f&#45;cfc3&#45;42a7&#45;b265&#45;41eb7f7b6c87</title>
<path fill="none" stroke="black" d="M1334.65,-97.7C1346.08,-86.78 1358.41,-75.02 1369.46,-64.47"/>
<polygon fill="black" stroke="black" points="1372.05,-66.83 1376.87,-57.4 1367.22,-61.77 1372.05,-66.83"/>
</g>
</g>
</svg>
