<?xml version="1.0" encoding="UTF-8" standalone="no"?>
<!DOCTYPE svg PUBLIC "-//W3C//DTD SVG 1.1//EN"
 "http://www.w3.org/Graphics/SVG/1.1/DTD/svg11.dtd">
<!-- Generated by graphviz version 2.43.0 (0)
 -->
<!-- Title: G Pages: 1 -->
<svg width="491pt" height="920pt"
 viewBox="0.00 0.00 490.50 920.00" xmlns="http://www.w3.org/2000/svg" xmlns:xlink="http://www.w3.org/1999/xlink">
<g id="graph0" class="graph" transform="scale(1 1) rotate(0) translate(4 916)">
<title>G</title>
<polygon fill="white" stroke="transparent" points="-4,4 -4,-916 486.5,-916 486.5,4 -4,4"/>
<!-- 79a2c4c1&#45;874e&#45;4aa4&#45;b331&#45;8f743a9ff5e7 -->
<g id="node1" class="node">
<title>79a2c4c1&#45;874e&#45;4aa4&#45;b331&#45;8f743a9ff5e7</title>
<polygon fill="none" stroke="black" points="257.5,-912 196.5,-912 196.5,-851 257.5,-851 257.5,-912"/>
<text text-anchor="middle" x="227" y="-873" font-family="Arial Unicode MS" font-size="10.00">Program </text>
</g>
<!-- 9015a5d2&#45;5db8&#45;4ad8&#45;b9b6&#45;5e67252646e6 -->
<g id="node2" class="node">
<title>9015a5d2&#45;5db8&#45;4ad8&#45;b9b6&#45;5e67252646e6</title>
<polygon fill="none" stroke="black" points="233,-815 119,-815 119,-701 233,-701 233,-815"/>
<text text-anchor="middle" x="176" y="-749.5" font-family="Arial Unicode MS" font-size="10.00">ExecutableProgram </text>
</g>
<!-- 79a2c4c1&#45;874e&#45;4aa4&#45;b331&#45;8f743a9ff5e7&#45;&gt;9015a5d2&#45;5db8&#45;4ad8&#45;b9b6&#45;5e67252646e6 -->
<g id="edge1" class="edge">
<title>79a2c4c1&#45;874e&#45;4aa4&#45;b331&#45;8f743a9ff5e7&#45;&gt;9015a5d2&#45;5db8&#45;4ad8&#45;b9b6&#45;5e67252646e6</title>
<path fill="none" stroke="black" d="M214.52,-850.78C211.2,-842.85 207.47,-833.96 203.67,-824.92"/>
<polygon fill="black" stroke="black" points="206.8,-823.34 199.71,-815.48 200.35,-826.05 206.8,-823.34"/>
</g>
<!-- b43fbd0d&#45;cd61&#45;469c&#45;acbb&#45;2ca66974f2e7 -->
<g id="node25" class="node">
<title>b43fbd0d&#45;cd61&#45;469c&#45;acbb&#45;2ca66974f2e7</title>
<polygon fill="none" stroke="black" points="307,-786 251,-786 251,-730 307,-730 307,-786"/>
<text text-anchor="middle" x="279" y="-749.5" font-family="Arial Unicode MS" font-size="10.00">&lt;EOF&gt; </text>
</g>
<!-- 79a2c4c1&#45;874e&#45;4aa4&#45;b331&#45;8f743a9ff5e7&#45;&gt;b43fbd0d&#45;cd61&#45;469c&#45;acbb&#45;2ca66974f2e7 -->
<g id="edge24" class="edge">
<title>79a2c4c1&#45;874e&#45;4aa4&#45;b331&#45;8f743a9ff5e7&#45;&gt;b43fbd0d&#45;cd61&#45;469c&#45;acbb&#45;2ca66974f2e7</title>
<path fill="none" stroke="black" d="M239.72,-850.78C246.82,-834.18 255.74,-813.36 263.27,-795.75"/>
<polygon fill="black" stroke="black" points="266.58,-796.91 267.3,-786.34 260.15,-794.15 266.58,-796.91"/>
</g>
<!-- 3f70c89c&#45;e45f&#45;4697&#45;837d&#45;907d9bc34680 -->
<g id="node3" class="node">
<title>3f70c89c&#45;e45f&#45;4697&#45;837d&#45;907d9bc34680</title>
<polygon fill="none" stroke="black" points="170,-665 86,-665 86,-581 170,-581 170,-665"/>
<text text-anchor="middle" x="128" y="-614.5" font-family="Arial Unicode MS" font-size="10.00">ProgramStmt </text>
</g>
<!-- 9015a5d2&#45;5db8&#45;4ad8&#45;b9b6&#45;5e67252646e6&#45;&gt;3f70c89c&#45;e45f&#45;4697&#45;837d&#45;907d9bc34680 -->
<g id="edge2" class="edge">
<title>9015a5d2&#45;5db8&#45;4ad8&#45;b9b6&#45;5e67252646e6&#45;&gt;3f70c89c&#45;e45f&#45;4697&#45;837d&#45;907d9bc34680</title>
<path fill="none" stroke="black" d="M155.78,-700.98C152.62,-692.21 149.36,-683.19 146.25,-674.56"/>
<polygon fill="black" stroke="black" points="149.48,-673.22 142.8,-665 142.9,-675.6 149.48,-673.22"/>
</g>
<!-- 83dfdf94&#45;1120&#45;4799&#45;b756&#45;ae31a562f71d -->
<g id="node5" class="node">
<title>83dfdf94&#45;1120&#45;4799&#45;b756&#45;ae31a562f71d</title>
<polygon fill="none" stroke="black" points="262,-660 188,-660 188,-586 262,-586 262,-660"/>
<text text-anchor="middle" x="225" y="-614.5" font-family="Arial Unicode MS" font-size="10.00">MainRange </text>
</g>
<!-- 9015a5d2&#45;5db8&#45;4ad8&#45;b9b6&#45;5e67252646e6&#45;&gt;83dfdf94&#45;1120&#45;4799&#45;b756&#45;ae31a562f71d -->
<g id="edge4" class="edge">
<title>9015a5d2&#45;5db8&#45;4ad8&#45;b9b6&#45;5e67252646e6&#45;&gt;83dfdf94&#45;1120&#45;4799&#45;b756&#45;ae31a562f71d</title>
<path fill="none" stroke="black" d="M196.64,-700.98C200.48,-690.54 204.46,-679.75 208.17,-669.67"/>
<polygon fill="black" stroke="black" points="211.47,-670.86 211.64,-660.26 204.9,-668.44 211.47,-670.86"/>
</g>
<!-- 2ca46a6d&#45;125b&#45;4622&#45;9b65&#45;897d10b4c206 -->
<g id="node4" class="node">
<title>2ca46a6d&#45;125b&#45;4622&#45;9b65&#45;897d10b4c206</title>
<polygon fill="none" stroke="black" points="162.5,-528.5 93.5,-528.5 93.5,-459.5 162.5,-459.5 162.5,-528.5"/>
<text text-anchor="middle" x="128" y="-485.5" font-family="Arial Unicode MS" font-size="10.00">Calculator </text>
</g>
<!-- 3f70c89c&#45;e45f&#45;4697&#45;837d&#45;907d9bc34680&#45;&gt;2ca46a6d&#45;125b&#45;4622&#45;9b65&#45;897d10b4c206 -->
<g id="edge3" class="edge">
<title>3f70c89c&#45;e45f&#45;4697&#45;837d&#45;907d9bc34680&#45;&gt;2ca46a6d&#45;125b&#45;4622&#45;9b65&#45;897d10b4c206</title>
<path fill="none" stroke="black" d="M128,-580.77C128,-567.38 128,-552.47 128,-538.9"/>
<polygon fill="black" stroke="black" points="131.5,-538.82 128,-528.82 124.5,-538.82 131.5,-538.82"/>
</g>
<!-- e47de8e9&#45;0e28&#45;44b3&#45;bd68&#45;23d469d1c5b5 -->
<g id="node6" class="node">
<title>e47de8e9&#45;0e28&#45;44b3&#45;bd68&#45;23d469d1c5b5</title>
<polygon fill="none" stroke="black" points="236,-516 192,-516 192,-472 236,-472 236,-516"/>
<text text-anchor="middle" x="214" y="-485.5" font-family="Arial Unicode MS" font-size="10.00">Body </text>
</g>
<!-- 83dfdf94&#45;1120&#45;4799&#45;b756&#45;ae31a562f71d&#45;&gt;e47de8e9&#45;0e28&#45;44b3&#45;bd68&#45;23d469d1c5b5 -->
<g id="edge5" class="edge">
<title>83dfdf94&#45;1120&#45;4799&#45;b756&#45;ae31a562f71d&#45;&gt;e47de8e9&#45;0e28&#45;44b3&#45;bd68&#45;23d469d1c5b5</title>
<path fill="none" stroke="black" d="M221.88,-585.95C220.24,-567.07 218.26,-544.18 216.69,-526.08"/>
<polygon fill="black" stroke="black" points="220.17,-525.71 215.82,-516.05 213.2,-526.32 220.17,-525.71"/>
</g>
<!-- 77d98aeb&#45;aed1&#45;45ae&#45;8b9d&#45;9174b0fa2544 -->
<g id="node21" class="node">
<title>77d98aeb&#45;aed1&#45;45ae&#45;8b9d&#45;9174b0fa2544</title>
<polygon fill="none" stroke="black" points="386,-545 284,-545 284,-443 386,-443 386,-545"/>
<text text-anchor="middle" x="335" y="-485.5" font-family="Arial Unicode MS" font-size="10.00">EndProgramStmt </text>
</g>
<!-- 83dfdf94&#45;1120&#45;4799&#45;b756&#45;ae31a562f71d&#45;&gt;77d98aeb&#45;aed1&#45;45ae&#45;8b9d&#45;9174b0fa2544 -->
<g id="edge20" class="edge">
<title>83dfdf94&#45;1120&#45;4799&#45;b756&#45;ae31a562f71d&#45;&gt;77d98aeb&#45;aed1&#45;45ae&#45;8b9d&#45;9174b0fa2544</title>
<path fill="none" stroke="black" d="M256.23,-585.95C265.1,-575.7 275,-564.27 284.71,-553.07"/>
<polygon fill="black" stroke="black" points="287.48,-555.22 291.38,-545.36 282.18,-550.63 287.48,-555.22"/>
</g>
<!-- 57c69841&#45;e6d3&#45;4f85&#45;ac91&#45;a0dcf1c610dc -->
<g id="node7" class="node">
<title>57c69841&#45;e6d3&#45;4f85&#45;ac91&#45;a0dcf1c610dc</title>
<polygon fill="none" stroke="black" points="141.5,-407 50.5,-407 50.5,-316 141.5,-316 141.5,-407"/>
<text text-anchor="middle" x="96" y="-353" font-family="Arial Unicode MS" font-size="10.00">BodyConstruct </text>
</g>
<!-- e47de8e9&#45;0e28&#45;44b3&#45;bd68&#45;23d469d1c5b5&#45;&gt;57c69841&#45;e6d3&#45;4f85&#45;ac91&#45;a0dcf1c610dc -->
<g id="edge6" class="edge">
<title>e47de8e9&#45;0e28&#45;44b3&#45;bd68&#45;23d469d1c5b5&#45;&gt;57c69841&#45;e6d3&#45;4f85&#45;ac91&#45;a0dcf1c610dc</title>
<path fill="none" stroke="black" d="M196.19,-471.92C188.52,-462.93 179.4,-452.38 171,-443 162.76,-433.79 153.89,-424.1 145.24,-414.75"/>
<polygon fill="black" stroke="black" points="147.73,-412.29 138.37,-407.34 142.6,-417.05 147.73,-412.29"/>
</g>
<!-- 073fc46b&#45;0a23&#45;401b&#45;9956&#45;933815745be0 -->
<g id="node10" class="node">
<title>073fc46b&#45;0a23&#45;401b&#45;9956&#45;933815745be0</title>
<polygon fill="none" stroke="black" points="259.5,-407 168.5,-407 168.5,-316 259.5,-316 259.5,-407"/>
<text text-anchor="middle" x="214" y="-353" font-family="Arial Unicode MS" font-size="10.00">BodyConstruct </text>
</g>
<!-- e47de8e9&#45;0e28&#45;44b3&#45;bd68&#45;23d469d1c5b5&#45;&gt;073fc46b&#45;0a23&#45;401b&#45;9956&#45;933815745be0 -->
<g id="edge9" class="edge">
<title>e47de8e9&#45;0e28&#45;44b3&#45;bd68&#45;23d469d1c5b5&#45;&gt;073fc46b&#45;0a23&#45;401b&#45;9956&#45;933815745be0</title>
<path fill="none" stroke="black" d="M214,-471.74C214,-456.93 214,-436.45 214,-417.22"/>
<polygon fill="black" stroke="black" points="217.5,-417.02 214,-407.02 210.5,-417.02 217.5,-417.02"/>
</g>
<!-- 13e91eb3&#45;c69f&#45;481a&#45;85c7&#45;73b49be87b07 -->
<g id="node8" class="node">
<title>13e91eb3&#45;c69f&#45;481a&#45;85c7&#45;73b49be87b07</title>
<polygon fill="none" stroke="black" points="56,-262 0,-262 0,-206 56,-206 56,-262"/>
<text text-anchor="middle" x="28" y="-225.5" font-family="Arial Unicode MS" font-size="10.00">implicit </text>
</g>
<!-- 57c69841&#45;e6d3&#45;4f85&#45;ac91&#45;a0dcf1c610dc&#45;&gt;13e91eb3&#45;c69f&#45;481a&#45;85c7&#45;73b49be87b07 -->
<g id="edge7" class="edge">
<title>57c69841&#45;e6d3&#45;4f85&#45;ac91&#45;a0dcf1c610dc&#45;&gt;13e91eb3&#45;c69f&#45;481a&#45;85c7&#45;73b49be87b07</title>
<path fill="none" stroke="black" d="M71.83,-315.9C63.88,-301.22 55.14,-285.09 47.57,-271.12"/>
<polygon fill="black" stroke="black" points="50.63,-269.42 42.79,-262.29 44.47,-272.75 50.63,-269.42"/>
</g>
<!-- 47abec57&#45;67ce&#45;41c9&#45;9cd1&#45;76bcb3124be4 -->
<g id="node9" class="node">
<title>47abec57&#45;67ce&#45;41c9&#45;9cd1&#45;76bcb3124be4</title>
<polygon fill="none" stroke="black" points="118,-256 74,-256 74,-212 118,-212 118,-256"/>
<text text-anchor="middle" x="96" y="-225.5" font-family="Arial Unicode MS" font-size="10.00">none </text>
</g>
<!-- 57c69841&#45;e6d3&#45;4f85&#45;ac91&#45;a0dcf1c610dc&#45;&gt;47abec57&#45;67ce&#45;41c9&#45;9cd1&#45;76bcb3124be4 -->
<g id="edge8" class="edge">
<title>57c69841&#45;e6d3&#45;4f85&#45;ac91&#45;a0dcf1c610dc&#45;&gt;47abec57&#45;67ce&#45;41c9&#45;9cd1&#45;76bcb3124be4</title>
<path fill="none" stroke="black" d="M96,-315.9C96,-299.57 96,-281.45 96,-266.5"/>
<polygon fill="black" stroke="black" points="99.5,-266.25 96,-256.25 92.5,-266.25 99.5,-266.25"/>
</g>
<!-- 022730d9&#45;2912&#45;4992&#45;9d77&#45;cfaa02fb6dff -->
<g id="node11" class="node">
<title>022730d9&#45;2912&#45;4992&#45;9d77&#45;cfaa02fb6dff</title>
<polygon fill="none" stroke="black" points="178,-255 136,-255 136,-213 178,-213 178,-255"/>
<text text-anchor="middle" x="157" y="-225.5" font-family="Arial Unicode MS" font-size="10.00">print </text>
</g>
<!-- 073fc46b&#45;0a23&#45;401b&#45;9956&#45;933815745be0&#45;&gt;022730d9&#45;2912&#45;4992&#45;9d77&#45;cfaa02fb6dff -->
<g id="edge10" class="edge">
<title>073fc46b&#45;0a23&#45;401b&#45;9956&#45;933815745be0&#45;&gt;022730d9&#45;2912&#45;4992&#45;9d77&#45;cfaa02fb6dff</title>
<path fill="none" stroke="black" d="M193.74,-315.9C186.03,-298.91 177.43,-279.97 170.49,-264.7"/>
<polygon fill="black" stroke="black" points="173.52,-262.9 166.19,-255.24 167.14,-265.8 173.52,-262.9"/>
</g>
<!-- 2c03f59f&#45;b9bf&#45;4359&#45;b2cf&#45;b911636a8d6e -->
<g id="node12" class="node">
<title>2c03f59f&#45;b9bf&#45;4359&#45;b2cf&#45;b911636a8d6e</title>
<polygon fill="none" stroke="black" points="232,-252 196,-252 196,-216 232,-216 232,-252"/>
<text text-anchor="middle" x="214" y="-225.5" font-family="Arial Unicode MS" font-size="10.00">* </text>
</g>
<!-- 073fc46b&#45;0a23&#45;401b&#45;9956&#45;933815745be0&#45;&gt;2c03f59f&#45;b9bf&#45;4359&#45;b2cf&#45;b911636a8d6e -->
<g id="edge11" class="edge">
<title>073fc46b&#45;0a23&#45;401b&#45;9956&#45;933815745be0&#45;&gt;2c03f59f&#45;b9bf&#45;4359&#45;b2cf&#45;b911636a8d6e</title>
<path fill="none" stroke="black" d="M214,-315.9C214,-297.93 214,-277.78 214,-262.08"/>
<polygon fill="black" stroke="black" points="217.5,-262.01 214,-252.01 210.5,-262.01 217.5,-262.01"/>
</g>
<!-- cb38c00b&#45;66e1&#45;4788&#45;821e&#45;63b0ced037e6 -->
<g id="node13" class="node">
<title>cb38c00b&#45;66e1&#45;4788&#45;821e&#45;63b0ced037e6</title>
<polygon fill="none" stroke="black" points="286,-252 250,-252 250,-216 286,-216 286,-252"/>
<text text-anchor="middle" x="268" y="-225.5" font-family="Arial Unicode MS" font-size="10.00">, </text>
</g>
<!-- 073fc46b&#45;0a23&#45;401b&#45;9956&#45;933815745be0&#45;&gt;cb38c00b&#45;66e1&#45;4788&#45;821e&#45;63b0ced037e6 -->
<g id="edge12" class="edge">
<title>073fc46b&#45;0a23&#45;401b&#45;9956&#45;933815745be0&#45;&gt;cb38c00b&#45;66e1&#45;4788&#45;821e&#45;63b0ced037e6</title>
<path fill="none" stroke="black" d="M233.19,-315.9C241,-297.75 249.76,-277.39 256.54,-261.63"/>
<polygon fill="black" stroke="black" points="259.94,-262.58 260.68,-252.01 253.51,-259.82 259.94,-262.58"/>
</g>
<!-- d1f66422&#45;5c57&#45;4db8&#45;8be1&#45;1491ab464282 -->
<g id="node14" class="node">
<title>d1f66422&#45;5c57&#45;4db8&#45;8be1&#45;1491ab464282</title>
<polygon fill="none" stroke="black" points="396,-280 304,-280 304,-188 396,-188 396,-280"/>
<text text-anchor="middle" x="350" y="-225.5" font-family="Arial Unicode MS" font-size="10.00">OutputItemList </text>
</g>
<!-- 073fc46b&#45;0a23&#45;401b&#45;9956&#45;933815745be0&#45;&gt;d1f66422&#45;5c57&#45;4db8&#45;8be1&#45;1491ab464282 -->
<g id="edge13" class="edge">
<title>073fc46b&#45;0a23&#45;401b&#45;9956&#45;933815745be0&#45;&gt;d1f66422&#45;5c57&#45;4db8&#45;8be1&#45;1491ab464282</title>
<path fill="none" stroke="black" d="M259.66,-318.36C271.42,-307.51 284.18,-295.74 296.31,-284.55"/>
<polygon fill="black" stroke="black" points="298.79,-287.02 303.76,-277.67 294.04,-281.88 298.79,-287.02"/>
</g>
<!-- dfabac69&#45;a906&#45;427f&#45;b315&#45;34c1d981f2d3 -->
<g id="node15" class="node">
<title>dfabac69&#45;a906&#45;427f&#45;b315&#45;34c1d981f2d3</title>
<polygon fill="none" stroke="black" points="314,-152 234,-152 234,-72 314,-72 314,-152"/>
<text text-anchor="middle" x="274" y="-103.5" font-family="Arial Unicode MS" font-size="10.00">AddOperand </text>
</g>
<!-- d1f66422&#45;5c57&#45;4db8&#45;8be1&#45;1491ab464282&#45;&gt;dfabac69&#45;a906&#45;427f&#45;b315&#45;34c1d981f2d3 -->
<g id="edge14" class="edge">
<title>d1f66422&#45;5c57&#45;4db8&#45;8be1&#45;1491ab464282&#45;&gt;dfabac69&#45;a906&#45;427f&#45;b315&#45;34c1d981f2d3</title>
<path fill="none" stroke="black" d="M321.48,-187.98C315.92,-179.2 310.08,-169.96 304.46,-161.09"/>
<polygon fill="black" stroke="black" points="307.24,-158.94 298.93,-152.37 301.32,-162.69 307.24,-158.94"/>
</g>
<!-- ceaec43c&#45;2da2&#45;4f0e&#45;8f6f&#45;f7ea1bac87fb -->
<g id="node19" class="node">
<title>ceaec43c&#45;2da2&#45;4f0e&#45;8f6f&#45;f7ea1bac87fb</title>
<polygon fill="none" stroke="black" points="368,-130 332,-130 332,-94 368,-94 368,-130"/>
<text text-anchor="middle" x="350" y="-103.5" font-family="Arial Unicode MS" font-size="10.00">+ </text>
</g>
<!-- d1f66422&#45;5c57&#45;4db8&#45;8be1&#45;1491ab464282&#45;&gt;ceaec43c&#45;2da2&#45;4f0e&#45;8f6f&#45;f7ea1bac87fb -->
<g id="edge18" class="edge">
<title>d1f66422&#45;5c57&#45;4db8&#45;8be1&#45;1491ab464282&#45;&gt;ceaec43c&#45;2da2&#45;4f0e&#45;8f6f&#45;f7ea1bac87fb</title>
<path fill="none" stroke="black" d="M350,-187.98C350,-171.86 350,-154.21 350,-140.09"/>
<polygon fill="black" stroke="black" points="353.5,-140.06 350,-130.06 346.5,-140.06 353.5,-140.06"/>
</g>
<!-- 495a47ab&#45;e1a6&#45;4ac3&#45;8b4e&#45;4767f78ba95a -->
<g id="node20" class="node">
<title>495a47ab&#45;e1a6&#45;4ac3&#45;8b4e&#45;4767f78ba95a</title>
<polygon fill="none" stroke="black" points="422,-130 386,-130 386,-94 422,-94 422,-130"/>
<text text-anchor="middle" x="404" y="-103.5" font-family="Arial Unicode MS" font-size="10.00">4 </text>
</g>
<!-- d1f66422&#45;5c57&#45;4db8&#45;8be1&#45;1491ab464282&#45;&gt;495a47ab&#45;e1a6&#45;4ac3&#45;8b4e&#45;4767f78ba95a -->
<g id="edge19" class="edge">
<title>d1f66422&#45;5c57&#45;4db8&#45;8be1&#45;1491ab464282&#45;&gt;495a47ab&#45;e1a6&#45;4ac3&#45;8b4e&#45;4767f78ba95a</title>
<path fill="none" stroke="black" d="M370.26,-187.98C377.65,-171.55 385.77,-153.52 392.18,-139.26"/>
<polygon fill="black" stroke="black" points="395.41,-140.61 396.32,-130.06 389.03,-137.74 395.41,-140.61"/>
</g>
<!-- 7cddfa70&#45;6078&#45;4e31&#45;af74&#45;67d94fb14981 -->
<g id="node16" class="node">
<title>7cddfa70&#45;6078&#45;4e31&#45;af74&#45;67d94fb14981</title>
<polygon fill="none" stroke="black" points="238,-36 202,-36 202,0 238,0 238,-36"/>
<text text-anchor="middle" x="220" y="-9.5" font-family="Arial Unicode MS" font-size="10.00">2 </text>
</g>
<!-- dfabac69&#45;a906&#45;427f&#45;b315&#45;34c1d981f2d3&#45;&gt;7cddfa70&#45;6078&#45;4e31&#45;af74&#45;67d94fb14981 -->
<g id="edge15" class="edge">
<title>dfabac69&#45;a906&#45;427f&#45;b315&#45;34c1d981f2d3&#45;&gt;7cddfa70&#45;6078&#45;4e31&#45;af74&#45;67d94fb14981</title>
<path fill="none" stroke="black" d="M251.1,-71.98C245.69,-62.78 240.07,-53.19 235.11,-44.74"/>
<polygon fill="black" stroke="black" points="238.11,-42.94 230.03,-36.09 232.07,-46.48 238.11,-42.94"/>
</g>
<!-- c92d427e&#45;6544&#45;4bed&#45;9e3e&#45;27bf529352fb -->
<g id="node17" class="node">
<title>c92d427e&#45;6544&#45;4bed&#45;9e3e&#45;27bf529352fb</title>
<polygon fill="none" stroke="black" points="292,-36 256,-36 256,0 292,0 292,-36"/>
<text text-anchor="middle" x="274" y="-9.5" font-family="Arial Unicode MS" font-size="10.00">* </text>
</g>
<!-- dfabac69&#45;a906&#45;427f&#45;b315&#45;34c1d981f2d3&#45;&gt;c92d427e&#45;6544&#45;4bed&#45;9e3e&#45;27bf529352fb -->
<g id="edge16" class="edge">
<title>dfabac69&#45;a906&#45;427f&#45;b315&#45;34c1d981f2d3&#45;&gt;c92d427e&#45;6544&#45;4bed&#45;9e3e&#45;27bf529352fb</title>
<path fill="none" stroke="black" d="M274,-71.98C274,-63.27 274,-54.21 274,-46.1"/>
<polygon fill="black" stroke="black" points="277.5,-46.09 274,-36.09 270.5,-46.09 277.5,-46.09"/>
</g>
<!-- ecfdbfdd&#45;5856&#45;4999&#45;85fa&#45;0512c10424ac -->
<g id="node18" class="node">
<title>ecfdbfdd&#45;5856&#45;4999&#45;85fa&#45;0512c10424ac</title>
<polygon fill="none" stroke="black" points="346,-36 310,-36 310,0 346,0 346,-36"/>
<text text-anchor="middle" x="328" y="-9.5" font-family="Arial Unicode MS" font-size="10.00">7 </text>
</g>
<!-- dfabac69&#45;a906&#45;427f&#45;b315&#45;34c1d981f2d3&#45;&gt;ecfdbfdd&#45;5856&#45;4999&#45;85fa&#45;0512c10424ac -->
<g id="edge17" class="edge">
<title>dfabac69&#45;a906&#45;427f&#45;b315&#45;34c1d981f2d3&#45;&gt;ecfdbfdd&#45;5856&#45;4999&#45;85fa&#45;0512c10424ac</title>
<path fill="none" stroke="black" d="M296.9,-71.98C302.31,-62.78 307.93,-53.19 312.89,-44.74"/>
<polygon fill="black" stroke="black" points="315.93,-46.48 317.97,-36.09 309.89,-42.94 315.93,-46.48"/>
</g>
<!-- feef57c4&#45;3472&#45;4c99&#45;8988&#45;e1851aceeeb2 -->
<g id="node22" class="node">
<title>feef57c4&#45;3472&#45;4c99&#45;8988&#45;e1851aceeeb2</title>
<polygon fill="none" stroke="black" points="316,-380.5 278,-380.5 278,-342.5 316,-342.5 316,-380.5"/>
<text text-anchor="middle" x="297" y="-353" font-family="Arial Unicode MS" font-size="10.00">end </text>
</g>
<!-- 77d98aeb&#45;aed1&#45;45ae&#45;8b9d&#45;9174b0fa2544&#45;&gt;feef57c4&#45;3472&#45;4c99&#45;8988&#45;e1851aceeeb2 -->
<g id="edge21" class="edge">
<title>77d98aeb&#45;aed1&#45;45ae&#45;8b9d&#45;9174b0fa2544&#45;&gt;feef57c4&#45;3472&#45;4c99&#45;8988&#45;e1851aceeeb2</title>
<path fill="none" stroke="black" d="M320.42,-442.92C315.25,-425.16 309.62,-405.82 305.17,-390.56"/>
<polygon fill="black" stroke="black" points="308.46,-389.34 302.3,-380.71 301.74,-391.29 308.46,-389.34"/>
</g>
<!-- c237d130&#45;b9e0&#45;44c8&#45;a0d1&#45;504753ecdc3f -->
<g id="node23" class="node">
<title>c237d130&#45;b9e0&#45;44c8&#45;a0d1&#45;504753ecdc3f</title>
<polygon fill="none" stroke="black" points="395.5,-392 334.5,-392 334.5,-331 395.5,-331 395.5,-392"/>
<text text-anchor="middle" x="365" y="-353" font-family="Arial Unicode MS" font-size="10.00">program </text>
</g>
<!-- 77d98aeb&#45;aed1&#45;45ae&#45;8b9d&#45;9174b0fa2544&#45;&gt;c237d130&#45;b9e0&#45;44c8&#45;a0d1&#45;504753ecdc3f -->
<g id="edge22" class="edge">
<title>77d98aeb&#45;aed1&#45;45ae&#45;8b9d&#45;9174b0fa2544&#45;&gt;c237d130&#45;b9e0&#45;44c8&#45;a0d1&#45;504753ecdc3f</title>
<path fill="none" stroke="black" d="M346.51,-442.92C349.62,-429.42 352.93,-415 355.88,-402.16"/>
<polygon fill="black" stroke="black" points="359.33,-402.78 358.16,-392.25 352.51,-401.21 359.33,-402.78"/>
</g>
<!-- b8833460&#45;6b7a&#45;47d1&#45;879c&#45;d6162632ef03 -->
<g id="node24" class="node">
<title>b8833460&#45;6b7a&#45;47d1&#45;879c&#45;d6162632ef03</title>
<polygon fill="none" stroke="black" points="482.5,-396 413.5,-396 413.5,-327 482.5,-327 482.5,-396"/>
<text text-anchor="middle" x="448" y="-353" font-family="Arial Unicode MS" font-size="10.00">Calculator </text>
</g>
<!-- 77d98aeb&#45;aed1&#45;45ae&#45;8b9d&#45;9174b0fa2544&#45;&gt;b8833460&#45;6b7a&#45;47d1&#45;879c&#45;d6162632ef03 -->
<g id="edge23" class="edge">
<title>77d98aeb&#45;aed1&#45;45ae&#45;8b9d&#45;9174b0fa2544&#45;&gt;b8833460&#45;6b7a&#45;47d1&#45;879c&#45;d6162632ef03</title>
<path fill="none" stroke="black" d="M378.37,-442.92C389.6,-429.94 401.57,-416.12 412.36,-403.66"/>
<polygon fill="black" stroke="black" points="415.01,-405.95 418.91,-396.1 409.72,-401.37 415.01,-405.95"/>
</g>
</g>
</svg>
