<?xml version="1.0" encoding="UTF-8" standalone="no"?>
<!DOCTYPE svg PUBLIC "-//W3C//DTD SVG 1.1//EN"
 "http://www.w3.org/Graphics/SVG/1.1/DTD/svg11.dtd">
<!-- Generated by graphviz version 2.43.0 (0)
 -->
<!-- Title: G Pages: 1 -->
<svg width="598pt" height="2980pt"
 viewBox="0.00 0.00 597.50 2980.00" xmlns="http://www.w3.org/2000/svg" xmlns:xlink="http://www.w3.org/1999/xlink">
<g id="graph0" class="graph" transform="scale(1 1) rotate(0) translate(4 2976)">
<title>G</title>
<polygon fill="white" stroke="transparent" points="-4,4 -4,-2976 593.5,-2976 593.5,4 -4,4"/>
<!-- 79a2c4c1&#45;874e&#45;4aa4&#45;b331&#45;8f743a9ff5e7 -->
<g id="node1" class="node">
<title>79a2c4c1&#45;874e&#45;4aa4&#45;b331&#45;8f743a9ff5e7</title>
<polygon fill="none" stroke="black" points="251,-2972 190,-2972 190,-2911 251,-2911 251,-2972"/>
<text text-anchor="middle" x="220.5" y="-2933" font-family="Arial Unicode MS" font-size="10.00">Program </text>
</g>
<!-- 9015a5d2&#45;5db8&#45;4ad8&#45;b9b6&#45;5e67252646e6 -->
<g id="node2" class="node">
<title>9015a5d2&#45;5db8&#45;4ad8&#45;b9b6&#45;5e67252646e6</title>
<polygon fill="none" stroke="black" points="226.5,-2875 112.5,-2875 112.5,-2761 226.5,-2761 226.5,-2875"/>
<text text-anchor="middle" x="169.5" y="-2809.5" font-family="Arial Unicode MS" font-size="10.00">ExecutableProgram </text>
</g>
<!-- 79a2c4c1&#45;874e&#45;4aa4&#45;b331&#45;8f743a9ff5e7&#45;&gt;9015a5d2&#45;5db8&#45;4ad8&#45;b9b6&#45;5e67252646e6 -->
<g id="edge1" class="edge">
<title>79a2c4c1&#45;874e&#45;4aa4&#45;b331&#45;8f743a9ff5e7&#45;&gt;9015a5d2&#45;5db8&#45;4ad8&#45;b9b6&#45;5e67252646e6</title>
<path fill="none" stroke="black" d="M208.02,-2910.78C204.7,-2902.85 200.97,-2893.96 197.17,-2884.92"/>
<polygon fill="black" stroke="black" points="200.3,-2883.34 193.21,-2875.48 193.85,-2886.05 200.3,-2883.34"/>
</g>
<!-- b43fbd0d&#45;cd61&#45;469c&#45;acbb&#45;2ca66974f2e7 -->
<g id="node55" class="node">
<title>b43fbd0d&#45;cd61&#45;469c&#45;acbb&#45;2ca66974f2e7</title>
<polygon fill="none" stroke="black" points="300.5,-2846 244.5,-2846 244.5,-2790 300.5,-2790 300.5,-2846"/>
<text text-anchor="middle" x="272.5" y="-2809.5" font-family="Arial Unicode MS" font-size="10.00">&lt;EOF&gt; </text>
</g>
<!-- 79a2c4c1&#45;874e&#45;4aa4&#45;b331&#45;8f743a9ff5e7&#45;&gt;b43fbd0d&#45;cd61&#45;469c&#45;acbb&#45;2ca66974f2e7 -->
<g id="edge54" class="edge">
<title>79a2c4c1&#45;874e&#45;4aa4&#45;b331&#45;8f743a9ff5e7&#45;&gt;b43fbd0d&#45;cd61&#45;469c&#45;acbb&#45;2ca66974f2e7</title>
<path fill="none" stroke="black" d="M233.22,-2910.78C240.32,-2894.18 249.24,-2873.36 256.77,-2855.75"/>
<polygon fill="black" stroke="black" points="260.08,-2856.91 260.8,-2846.34 253.65,-2854.15 260.08,-2856.91"/>
</g>
<!-- cdc252b9&#45;267f&#45;450f&#45;8b3e&#45;500d963b561b -->
<g id="node3" class="node">
<title>cdc252b9&#45;267f&#45;450f&#45;8b3e&#45;500d963b561b</title>
<polygon fill="none" stroke="black" points="210,-2725 129,-2725 129,-2644 210,-2644 210,-2725"/>
<text text-anchor="middle" x="169.5" y="-2676" font-family="Arial Unicode MS" font-size="10.00">ProgramUnit </text>
</g>
<!-- 9015a5d2&#45;5db8&#45;4ad8&#45;b9b6&#45;5e67252646e6&#45;&gt;cdc252b9&#45;267f&#45;450f&#45;8b3e&#45;500d963b561b -->
<g id="edge2" class="edge">
<title>9015a5d2&#45;5db8&#45;4ad8&#45;b9b6&#45;5e67252646e6&#45;&gt;cdc252b9&#45;267f&#45;450f&#45;8b3e&#45;500d963b561b</title>
<path fill="none" stroke="black" d="M169.5,-2760.85C169.5,-2752.31 169.5,-2743.56 169.5,-2735.17"/>
<polygon fill="black" stroke="black" points="173,-2735.17 169.5,-2725.17 166,-2735.17 173,-2735.17"/>
</g>
<!-- e65284b3&#45;4f74&#45;4559&#45;bad3&#45;8938f0264e96 -->
<g id="node4" class="node">
<title>e65284b3&#45;4f74&#45;4559&#45;bad3&#45;8938f0264e96</title>
<polygon fill="none" stroke="black" points="212,-2608 127,-2608 127,-2523 212,-2523 212,-2608"/>
<text text-anchor="middle" x="169.5" y="-2557" font-family="Arial Unicode MS" font-size="10.00">MainProgram </text>
</g>
<!-- cdc252b9&#45;267f&#45;450f&#45;8b3e&#45;500d963b561b&#45;&gt;e65284b3&#45;4f74&#45;4559&#45;bad3&#45;8938f0264e96 -->
<g id="edge3" class="edge">
<title>cdc252b9&#45;267f&#45;450f&#45;8b3e&#45;500d963b561b&#45;&gt;e65284b3&#45;4f74&#45;4559&#45;bad3&#45;8938f0264e96</title>
<path fill="none" stroke="black" d="M169.5,-2643.89C169.5,-2635.6 169.5,-2626.74 169.5,-2618.09"/>
<polygon fill="black" stroke="black" points="173,-2618.07 169.5,-2608.07 166,-2618.07 173,-2618.07"/>
</g>
<!-- 3f70c89c&#45;e45f&#45;4697&#45;837d&#45;907d9bc34680 -->
<g id="node5" class="node">
<title>3f70c89c&#45;e45f&#45;4697&#45;837d&#45;907d9bc34680</title>
<polygon fill="none" stroke="black" points="163.5,-2487 79.5,-2487 79.5,-2403 163.5,-2403 163.5,-2487"/>
<text text-anchor="middle" x="121.5" y="-2436.5" font-family="Arial Unicode MS" font-size="10.00">ProgramStmt </text>
</g>
<!-- e65284b3&#45;4f74&#45;4559&#45;bad3&#45;8938f0264e96&#45;&gt;3f70c89c&#45;e45f&#45;4697&#45;837d&#45;907d9bc34680 -->
<g id="edge4" class="edge">
<title>e65284b3&#45;4f74&#45;4559&#45;bad3&#45;8938f0264e96&#45;&gt;3f70c89c&#45;e45f&#45;4697&#45;837d&#45;907d9bc34680</title>
<path fill="none" stroke="black" d="M152.58,-2522.72C149.13,-2514.21 145.46,-2505.16 141.91,-2496.39"/>
<polygon fill="black" stroke="black" points="145.11,-2494.96 138.11,-2487 138.62,-2497.59 145.11,-2494.96"/>
</g>
<!-- 83dfdf94&#45;1120&#45;4799&#45;b756&#45;ae31a562f71d -->
<g id="node8" class="node">
<title>83dfdf94&#45;1120&#45;4799&#45;b756&#45;ae31a562f71d</title>
<polygon fill="none" stroke="black" points="255.5,-2482 181.5,-2482 181.5,-2408 255.5,-2408 255.5,-2482"/>
<text text-anchor="middle" x="218.5" y="-2436.5" font-family="Arial Unicode MS" font-size="10.00">MainRange </text>
</g>
<!-- e65284b3&#45;4f74&#45;4559&#45;bad3&#45;8938f0264e96&#45;&gt;83dfdf94&#45;1120&#45;4799&#45;b756&#45;ae31a562f71d -->
<g id="edge7" class="edge">
<title>e65284b3&#45;4f74&#45;4559&#45;bad3&#45;8938f0264e96&#45;&gt;83dfdf94&#45;1120&#45;4799&#45;b756&#45;ae31a562f71d</title>
<path fill="none" stroke="black" d="M186.78,-2522.72C190.91,-2512.72 195.35,-2502 199.55,-2491.83"/>
<polygon fill="black" stroke="black" points="202.91,-2492.87 203.5,-2482.29 196.44,-2490.19 202.91,-2492.87"/>
</g>
<!-- 23114d9f&#45;6a2f&#45;48bf&#45;948c&#45;4dc58646eb1f -->
<g id="node6" class="node">
<title>23114d9f&#45;6a2f&#45;48bf&#45;948c&#45;4dc58646eb1f</title>
<polygon fill="none" stroke="black" points="75,-2346.5 14,-2346.5 14,-2285.5 75,-2285.5 75,-2346.5"/>
<text text-anchor="middle" x="44.5" y="-2307.5" font-family="Arial Unicode MS" font-size="10.00">program </text>
</g>
<!-- 3f70c89c&#45;e45f&#45;4697&#45;837d&#45;907d9bc34680&#45;&gt;23114d9f&#45;6a2f&#45;48bf&#45;948c&#45;4dc58646eb1f -->
<g id="edge5" class="edge">
<title>3f70c89c&#45;e45f&#45;4697&#45;837d&#45;907d9bc34680&#45;&gt;23114d9f&#45;6a2f&#45;48bf&#45;948c&#45;4dc58646eb1f</title>
<path fill="none" stroke="black" d="M96.5,-2402.77C87.34,-2387.65 77,-2370.61 67.98,-2355.72"/>
<polygon fill="black" stroke="black" points="70.73,-2353.5 62.55,-2346.77 64.74,-2357.13 70.73,-2353.5"/>
</g>
<!-- 2ca46a6d&#45;125b&#45;4622&#45;9b65&#45;897d10b4c206 -->
<g id="node7" class="node">
<title>2ca46a6d&#45;125b&#45;4622&#45;9b65&#45;897d10b4c206</title>
<polygon fill="none" stroke="black" points="162,-2350.5 93,-2350.5 93,-2281.5 162,-2281.5 162,-2350.5"/>
<text text-anchor="middle" x="127.5" y="-2307.5" font-family="Arial Unicode MS" font-size="10.00">Calculator </text>
</g>
<!-- 3f70c89c&#45;e45f&#45;4697&#45;837d&#45;907d9bc34680&#45;&gt;2ca46a6d&#45;125b&#45;4622&#45;9b65&#45;897d10b4c206 -->
<g id="edge6" class="edge">
<title>3f70c89c&#45;e45f&#45;4697&#45;837d&#45;907d9bc34680&#45;&gt;2ca46a6d&#45;125b&#45;4622&#45;9b65&#45;897d10b4c206</title>
<path fill="none" stroke="black" d="M123.45,-2402.77C124.08,-2389.38 124.78,-2374.47 125.43,-2360.9"/>
<polygon fill="black" stroke="black" points="128.93,-2360.97 125.9,-2350.82 121.93,-2360.64 128.93,-2360.97"/>
</g>
<!-- e47de8e9&#45;0e28&#45;44b3&#45;bd68&#45;23d469d1c5b5 -->
<g id="node9" class="node">
<title>e47de8e9&#45;0e28&#45;44b3&#45;bd68&#45;23d469d1c5b5</title>
<polygon fill="none" stroke="black" points="235.5,-2338 191.5,-2338 191.5,-2294 235.5,-2294 235.5,-2338"/>
<text text-anchor="middle" x="213.5" y="-2307.5" font-family="Arial Unicode MS" font-size="10.00">Body </text>
</g>
<!-- 83dfdf94&#45;1120&#45;4799&#45;b756&#45;ae31a562f71d&#45;&gt;e47de8e9&#45;0e28&#45;44b3&#45;bd68&#45;23d469d1c5b5 -->
<g id="edge8" class="edge">
<title>83dfdf94&#45;1120&#45;4799&#45;b756&#45;ae31a562f71d&#45;&gt;e47de8e9&#45;0e28&#45;44b3&#45;bd68&#45;23d469d1c5b5</title>
<path fill="none" stroke="black" d="M217.08,-2407.95C216.34,-2389.07 215.44,-2366.18 214.72,-2348.08"/>
<polygon fill="black" stroke="black" points="218.22,-2347.91 214.33,-2338.05 211.23,-2348.18 218.22,-2347.91"/>
</g>
<!-- 77d98aeb&#45;aed1&#45;45ae&#45;8b9d&#45;9174b0fa2544 -->
<g id="node51" class="node">
<title>77d98aeb&#45;aed1&#45;45ae&#45;8b9d&#45;9174b0fa2544</title>
<polygon fill="none" stroke="black" points="385.5,-2367 283.5,-2367 283.5,-2265 385.5,-2265 385.5,-2367"/>
<text text-anchor="middle" x="334.5" y="-2307.5" font-family="Arial Unicode MS" font-size="10.00">EndProgramStmt </text>
</g>
<!-- 83dfdf94&#45;1120&#45;4799&#45;b756&#45;ae31a562f71d&#45;&gt;77d98aeb&#45;aed1&#45;45ae&#45;8b9d&#45;9174b0fa2544 -->
<g id="edge50" class="edge">
<title>83dfdf94&#45;1120&#45;4799&#45;b756&#45;ae31a562f71d&#45;&gt;77d98aeb&#45;aed1&#45;45ae&#45;8b9d&#45;9174b0fa2544</title>
<path fill="none" stroke="black" d="M251.43,-2407.95C260.79,-2397.7 271.23,-2386.27 281.46,-2375.07"/>
<polygon fill="black" stroke="black" points="284.34,-2377.11 288.5,-2367.36 279.17,-2372.39 284.34,-2377.11"/>
</g>
<!-- 57c69841&#45;e6d3&#45;4f85&#45;ac91&#45;a0dcf1c610dc -->
<g id="node10" class="node">
<title>57c69841&#45;e6d3&#45;4f85&#45;ac91&#45;a0dcf1c610dc</title>
<polygon fill="none" stroke="black" points="140,-2229 49,-2229 49,-2138 140,-2138 140,-2229"/>
<text text-anchor="middle" x="94.5" y="-2175" font-family="Arial Unicode MS" font-size="10.00">BodyConstruct </text>
</g>
<!-- e47de8e9&#45;0e28&#45;44b3&#45;bd68&#45;23d469d1c5b5&#45;&gt;57c69841&#45;e6d3&#45;4f85&#45;ac91&#45;a0dcf1c610dc -->
<g id="edge9" class="edge">
<title>e47de8e9&#45;0e28&#45;44b3&#45;bd68&#45;23d469d1c5b5&#45;&gt;57c69841&#45;e6d3&#45;4f85&#45;ac91&#45;a0dcf1c610dc</title>
<path fill="none" stroke="black" d="M195.72,-2293.89C188.06,-2284.9 178.93,-2274.36 170.5,-2265 162.17,-2255.76 153.2,-2246.05 144.44,-2236.7"/>
<polygon fill="black" stroke="black" points="146.88,-2234.18 137.48,-2229.29 141.78,-2238.97 146.88,-2234.18"/>
</g>
<!-- 073fc46b&#45;0a23&#45;401b&#45;9956&#45;933815745be0 -->
<g id="node15" class="node">
<title>073fc46b&#45;0a23&#45;401b&#45;9956&#45;933815745be0</title>
<polygon fill="none" stroke="black" points="259,-2229 168,-2229 168,-2138 259,-2138 259,-2229"/>
<text text-anchor="middle" x="213.5" y="-2175" font-family="Arial Unicode MS" font-size="10.00">BodyConstruct </text>
</g>
<!-- e47de8e9&#45;0e28&#45;44b3&#45;bd68&#45;23d469d1c5b5&#45;&gt;073fc46b&#45;0a23&#45;401b&#45;9956&#45;933815745be0 -->
<g id="edge14" class="edge">
<title>e47de8e9&#45;0e28&#45;44b3&#45;bd68&#45;23d469d1c5b5&#45;&gt;073fc46b&#45;0a23&#45;401b&#45;9956&#45;933815745be0</title>
<path fill="none" stroke="black" d="M213.5,-2293.74C213.5,-2278.93 213.5,-2258.45 213.5,-2239.22"/>
<polygon fill="black" stroke="black" points="217,-2239.02 213.5,-2229.02 210,-2239.02 217,-2239.02"/>
</g>
<!-- bf616b5c&#45;e8d4&#45;4019&#45;abea&#45;9352efffd69f -->
<g id="node11" class="node">
<title>bf616b5c&#45;e8d4&#45;4019&#45;abea&#45;9352efffd69f</title>
<polygon fill="none" stroke="black" points="147,-2102 0,-2102 0,-1955 147,-1955 147,-2102"/>
<text text-anchor="middle" x="73.5" y="-2020" font-family="Arial Unicode MS" font-size="10.00">SpecificationPartConstruct </text>
</g>
<!-- 57c69841&#45;e6d3&#45;4f85&#45;ac91&#45;a0dcf1c610dc&#45;&gt;bf616b5c&#45;e8d4&#45;4019&#45;abea&#45;9352efffd69f -->
<g id="edge10" class="edge">
<title>57c69841&#45;e6d3&#45;4f85&#45;ac91&#45;a0dcf1c610dc&#45;&gt;bf616b5c&#45;e8d4&#45;4019&#45;abea&#45;9352efffd69f</title>
<path fill="none" stroke="black" d="M88.37,-2137.83C87.25,-2129.7 86.05,-2120.97 84.84,-2112.14"/>
<polygon fill="black" stroke="black" points="88.3,-2111.57 83.47,-2102.14 81.36,-2112.53 88.3,-2111.57"/>
</g>
<!-- 9f5e0503&#45;b032&#45;4bf1&#45;8bd5&#45;f8328225f6a7 -->
<g id="node12" class="node">
<title>9f5e0503&#45;b032&#45;4bf1&#45;8bd5&#45;f8328225f6a7</title>
<polygon fill="none" stroke="black" points="113.5,-1919 33.5,-1919 33.5,-1839 113.5,-1839 113.5,-1919"/>
<text text-anchor="middle" x="73.5" y="-1870.5" font-family="Arial Unicode MS" font-size="10.00">ImplicitStmt </text>
</g>
<!-- bf616b5c&#45;e8d4&#45;4019&#45;abea&#45;9352efffd69f&#45;&gt;9f5e0503&#45;b032&#45;4bf1&#45;8bd5&#45;f8328225f6a7 -->
<g id="edge11" class="edge">
<title>bf616b5c&#45;e8d4&#45;4019&#45;abea&#45;9352efffd69f&#45;&gt;9f5e0503&#45;b032&#45;4bf1&#45;8bd5&#45;f8328225f6a7</title>
<path fill="none" stroke="black" d="M73.5,-1954.61C73.5,-1946.04 73.5,-1937.45 73.5,-1929.31"/>
<polygon fill="black" stroke="black" points="77,-1929.27 73.5,-1919.27 70,-1929.27 77,-1929.27"/>
</g>
<!-- 13e91eb3&#45;c69f&#45;481a&#45;85c7&#45;73b49be87b07 -->
<g id="node13" class="node">
<title>13e91eb3&#45;c69f&#45;481a&#45;85c7&#45;73b49be87b07</title>
<polygon fill="none" stroke="black" points="67.5,-1798.5 11.5,-1798.5 11.5,-1742.5 67.5,-1742.5 67.5,-1798.5"/>
<text text-anchor="middle" x="39.5" y="-1762" font-family="Arial Unicode MS" font-size="10.00">implicit </text>
</g>
<!-- 9f5e0503&#45;b032&#45;4bf1&#45;8bd5&#45;f8328225f6a7&#45;&gt;13e91eb3&#45;c69f&#45;481a&#45;85c7&#45;73b49be87b07 -->
<g id="edge12" class="edge">
<title>9f5e0503&#45;b032&#45;4bf1&#45;8bd5&#45;f8328225f6a7&#45;&gt;13e91eb3&#45;c69f&#45;481a&#45;85c7&#45;73b49be87b07</title>
<path fill="none" stroke="black" d="M61.03,-1838.95C57.82,-1828.89 54.37,-1818.09 51.2,-1808.16"/>
<polygon fill="black" stroke="black" points="54.52,-1807.03 48.14,-1798.57 47.85,-1809.16 54.52,-1807.03"/>
</g>
<!-- 47abec57&#45;67ce&#45;41c9&#45;9cd1&#45;76bcb3124be4 -->
<g id="node14" class="node">
<title>47abec57&#45;67ce&#45;41c9&#45;9cd1&#45;76bcb3124be4</title>
<polygon fill="none" stroke="black" points="129.5,-1792.5 85.5,-1792.5 85.5,-1748.5 129.5,-1748.5 129.5,-1792.5"/>
<text text-anchor="middle" x="107.5" y="-1762" font-family="Arial Unicode MS" font-size="10.00">none </text>
</g>
<!-- 9f5e0503&#45;b032&#45;4bf1&#45;8bd5&#45;f8328225f6a7&#45;&gt;47abec57&#45;67ce&#45;41c9&#45;9cd1&#45;76bcb3124be4 -->
<g id="edge13" class="edge">
<title>9f5e0503&#45;b032&#45;4bf1&#45;8bd5&#45;f8328225f6a7&#45;&gt;47abec57&#45;67ce&#45;41c9&#45;9cd1&#45;76bcb3124be4</title>
<path fill="none" stroke="black" d="M85.97,-1838.95C89.84,-1826.83 94.04,-1813.65 97.71,-1802.18"/>
<polygon fill="black" stroke="black" points="101.05,-1803.2 100.76,-1792.61 94.38,-1801.07 101.05,-1803.2"/>
</g>
<!-- 5b40f595&#45;bce3&#45;4393&#45;bbd9&#45;864162608c85 -->
<g id="node16" class="node">
<title>5b40f595&#45;bce3&#45;4393&#45;bbd9&#45;864162608c85</title>
<polygon fill="none" stroke="black" points="284,-2088 165,-2088 165,-1969 284,-1969 284,-2088"/>
<text text-anchor="middle" x="224.5" y="-2020" font-family="Arial Unicode MS" font-size="10.00">ExecutableConstruct </text>
</g>
<!-- 073fc46b&#45;0a23&#45;401b&#45;9956&#45;933815745be0&#45;&gt;5b40f595&#45;bce3&#45;4393&#45;bbd9&#45;864162608c85 -->
<g id="edge15" class="edge">
<title>073fc46b&#45;0a23&#45;401b&#45;9956&#45;933815745be0&#45;&gt;5b40f595&#45;bce3&#45;4393&#45;bbd9&#45;864162608c85</title>
<path fill="none" stroke="black" d="M216.71,-2137.83C217.6,-2125.46 218.59,-2111.74 219.55,-2098.34"/>
<polygon fill="black" stroke="black" points="223.06,-2098.4 220.28,-2088.18 216.07,-2097.9 223.06,-2098.4"/>
</g>
<!-- 1a9bb685&#45;5468&#45;4423&#45;bc29&#45;2db7db23b2ac -->
<g id="node17" class="node">
<title>1a9bb685&#45;5468&#45;4423&#45;bc29&#45;2db7db23b2ac</title>
<polygon fill="none" stroke="black" points="261.5,-1916 187.5,-1916 187.5,-1842 261.5,-1842 261.5,-1916"/>
<text text-anchor="middle" x="224.5" y="-1870.5" font-family="Arial Unicode MS" font-size="10.00">ActionStmt </text>
</g>
<!-- 5b40f595&#45;bce3&#45;4393&#45;bbd9&#45;864162608c85&#45;&gt;1a9bb685&#45;5468&#45;4423&#45;bc29&#45;2db7db23b2ac -->
<g id="edge16" class="edge">
<title>5b40f595&#45;bce3&#45;4393&#45;bbd9&#45;864162608c85&#45;&gt;1a9bb685&#45;5468&#45;4423&#45;bc29&#45;2db7db23b2ac</title>
<path fill="none" stroke="black" d="M224.5,-1968.78C224.5,-1954.57 224.5,-1939.58 224.5,-1926.04"/>
<polygon fill="black" stroke="black" points="228,-1926.02 224.5,-1916.02 221,-1926.02 228,-1926.02"/>
</g>
<!-- da49ca94&#45;25e7&#45;4ac8&#45;a411&#45;6da213c54479 -->
<g id="node18" class="node">
<title>da49ca94&#45;25e7&#45;4ac8&#45;a411&#45;6da213c54479</title>
<polygon fill="none" stroke="black" points="257,-1803 192,-1803 192,-1738 257,-1738 257,-1803"/>
<text text-anchor="middle" x="224.5" y="-1762" font-family="Arial Unicode MS" font-size="10.00">PrintStmt </text>
</g>
<!-- 1a9bb685&#45;5468&#45;4423&#45;bc29&#45;2db7db23b2ac&#45;&gt;da49ca94&#45;25e7&#45;4ac8&#45;a411&#45;6da213c54479 -->
<g id="edge17" class="edge">
<title>1a9bb685&#45;5468&#45;4423&#45;bc29&#45;2db7db23b2ac&#45;&gt;da49ca94&#45;25e7&#45;4ac8&#45;a411&#45;6da213c54479</title>
<path fill="none" stroke="black" d="M224.5,-1841.94C224.5,-1832.73 224.5,-1822.74 224.5,-1813.26"/>
<polygon fill="black" stroke="black" points="228,-1813.24 224.5,-1803.24 221,-1813.24 228,-1813.24"/>
</g>
<!-- 022730d9&#45;2912&#45;4992&#45;9d77&#45;cfaa02fb6dff -->
<g id="node19" class="node">
<title>022730d9&#45;2912&#45;4992&#45;9d77&#45;cfaa02fb6dff</title>
<polygon fill="none" stroke="black" points="115.5,-1674 73.5,-1674 73.5,-1632 115.5,-1632 115.5,-1674"/>
<text text-anchor="middle" x="94.5" y="-1644.5" font-family="Arial Unicode MS" font-size="10.00">print </text>
</g>
<!-- da49ca94&#45;25e7&#45;4ac8&#45;a411&#45;6da213c54479&#45;&gt;022730d9&#45;2912&#45;4992&#45;9d77&#45;cfaa02fb6dff -->
<g id="edge18" class="edge">
<title>da49ca94&#45;25e7&#45;4ac8&#45;a411&#45;6da213c54479&#45;&gt;022730d9&#45;2912&#45;4992&#45;9d77&#45;cfaa02fb6dff</title>
<path fill="none" stroke="black" d="M191.76,-1752.15C170.88,-1740 144.14,-1722.34 124.5,-1702 119.06,-1696.36 114.09,-1689.58 109.84,-1682.91"/>
<polygon fill="black" stroke="black" points="112.64,-1680.78 104.5,-1674.01 106.64,-1684.38 112.64,-1680.78"/>
</g>
<!-- 2c03f59f&#45;b9bf&#45;4359&#45;b2cf&#45;b911636a8d6e -->
<g id="node20" class="node">
<title>2c03f59f&#45;b9bf&#45;4359&#45;b2cf&#45;b911636a8d6e</title>
<polygon fill="none" stroke="black" points="231.5,-1702 133.5,-1702 133.5,-1604 231.5,-1604 231.5,-1702"/>
<text text-anchor="middle" x="182.5" y="-1644.5" font-family="Arial Unicode MS" font-size="10.00">FormatIdentifier </text>
</g>
<!-- da49ca94&#45;25e7&#45;4ac8&#45;a411&#45;6da213c54479&#45;&gt;2c03f59f&#45;b9bf&#45;4359&#45;b2cf&#45;b911636a8d6e -->
<g id="edge19" class="edge">
<title>da49ca94&#45;25e7&#45;4ac8&#45;a411&#45;6da213c54479&#45;&gt;2c03f59f&#45;b9bf&#45;4359&#45;b2cf&#45;b911636a8d6e</title>
<path fill="none" stroke="black" d="M213.02,-1737.94C210.1,-1729.89 206.86,-1720.99 203.62,-1712.08"/>
<polygon fill="black" stroke="black" points="206.82,-1710.64 200.11,-1702.44 200.24,-1713.03 206.82,-1710.64"/>
</g>
<!-- cb38c00b&#45;66e1&#45;4788&#45;821e&#45;63b0ced037e6 -->
<g id="node22" class="node">
<title>cb38c00b&#45;66e1&#45;4788&#45;821e&#45;63b0ced037e6</title>
<polygon fill="none" stroke="black" points="285.5,-1671 249.5,-1671 249.5,-1635 285.5,-1635 285.5,-1671"/>
<text text-anchor="middle" x="267.5" y="-1644.5" font-family="Arial Unicode MS" font-size="10.00">, </text>
</g>
<!-- da49ca94&#45;25e7&#45;4ac8&#45;a411&#45;6da213c54479&#45;&gt;cb38c00b&#45;66e1&#45;4788&#45;821e&#45;63b0ced037e6 -->
<g id="edge21" class="edge">
<title>da49ca94&#45;25e7&#45;4ac8&#45;a411&#45;6da213c54479&#45;&gt;cb38c00b&#45;66e1&#45;4788&#45;821e&#45;63b0ced037e6</title>
<path fill="none" stroke="black" d="M236.25,-1737.94C242.94,-1719.96 251.24,-1697.69 257.6,-1680.6"/>
<polygon fill="black" stroke="black" points="260.88,-1681.81 261.09,-1671.21 254.32,-1679.36 260.88,-1681.81"/>
</g>
<!-- d1f66422&#45;5c57&#45;4db8&#45;8be1&#45;1491ab464282 -->
<g id="node23" class="node">
<title>d1f66422&#45;5c57&#45;4db8&#45;8be1&#45;1491ab464282</title>
<polygon fill="none" stroke="black" points="395.5,-1699 303.5,-1699 303.5,-1607 395.5,-1607 395.5,-1699"/>
<text text-anchor="middle" x="349.5" y="-1644.5" font-family="Arial Unicode MS" font-size="10.00">OutputItemList </text>
</g>
<!-- da49ca94&#45;25e7&#45;4ac8&#45;a411&#45;6da213c54479&#45;&gt;d1f66422&#45;5c57&#45;4db8&#45;8be1&#45;1491ab464282 -->
<g id="edge22" class="edge">
<title>da49ca94&#45;25e7&#45;4ac8&#45;a411&#45;6da213c54479&#45;&gt;d1f66422&#45;5c57&#45;4db8&#45;8be1&#45;1491ab464282</title>
<path fill="none" stroke="black" d="M257.02,-1739.46C268.75,-1728.62 282.33,-1716.07 295.4,-1703.99"/>
<polygon fill="black" stroke="black" points="298.06,-1706.3 303.03,-1696.94 293.31,-1701.16 298.06,-1706.3"/>
</g>
<!-- a3ca3d78&#45;644d&#45;4558&#45;976e&#45;c87d135af160 -->
<g id="node21" class="node">
<title>a3ca3d78&#45;644d&#45;4558&#45;976e&#45;c87d135af160</title>
<polygon fill="none" stroke="black" points="200.5,-1549.5 164.5,-1549.5 164.5,-1513.5 200.5,-1513.5 200.5,-1549.5"/>
<text text-anchor="middle" x="182.5" y="-1523" font-family="Arial Unicode MS" font-size="10.00">* </text>
</g>
<!-- 2c03f59f&#45;b9bf&#45;4359&#45;b2cf&#45;b911636a8d6e&#45;&gt;a3ca3d78&#45;644d&#45;4558&#45;976e&#45;c87d135af160 -->
<g id="edge20" class="edge">
<title>2c03f59f&#45;b9bf&#45;4359&#45;b2cf&#45;b911636a8d6e&#45;&gt;a3ca3d78&#45;644d&#45;4558&#45;976e&#45;c87d135af160</title>
<path fill="none" stroke="black" d="M182.5,-1603.74C182.5,-1588.76 182.5,-1572.78 182.5,-1559.76"/>
<polygon fill="black" stroke="black" points="186,-1559.6 182.5,-1549.6 179,-1559.6 186,-1559.6"/>
</g>
<!-- 290c37ad&#45;5aea&#45;4868&#45;8cfd&#45;cb5ecf812827 -->
<g id="node24" class="node">
<title>290c37ad&#45;5aea&#45;4868&#45;8cfd&#45;cb5ecf812827</title>
<polygon fill="none" stroke="black" points="386,-1568 313,-1568 313,-1495 386,-1495 386,-1568"/>
<text text-anchor="middle" x="349.5" y="-1523" font-family="Arial Unicode MS" font-size="10.00">Expression </text>
</g>
<!-- d1f66422&#45;5c57&#45;4db8&#45;8be1&#45;1491ab464282&#45;&gt;290c37ad&#45;5aea&#45;4868&#45;8cfd&#45;cb5ecf812827 -->
<g id="edge23" class="edge">
<title>d1f66422&#45;5c57&#45;4db8&#45;8be1&#45;1491ab464282&#45;&gt;290c37ad&#45;5aea&#45;4868&#45;8cfd&#45;cb5ecf812827</title>
<path fill="none" stroke="black" d="M349.5,-1606.82C349.5,-1597.51 349.5,-1587.69 349.5,-1578.35"/>
<polygon fill="black" stroke="black" points="353,-1578.06 349.5,-1568.06 346,-1578.06 353,-1578.06"/>
</g>
<!-- 48737892&#45;85e5&#45;4683&#45;a885&#45;eb2bfb62a50e -->
<g id="node25" class="node">
<title>48737892&#45;85e5&#45;4683&#45;a885&#45;eb2bfb62a50e</title>
<polygon fill="none" stroke="black" points="386.5,-1459 312.5,-1459 312.5,-1385 386.5,-1385 386.5,-1459"/>
<text text-anchor="middle" x="349.5" y="-1413.5" font-family="Arial Unicode MS" font-size="10.00">Level5Expr </text>
</g>
<!-- 290c37ad&#45;5aea&#45;4868&#45;8cfd&#45;cb5ecf812827&#45;&gt;48737892&#45;85e5&#45;4683&#45;a885&#45;eb2bfb62a50e -->
<g id="edge24" class="edge">
<title>290c37ad&#45;5aea&#45;4868&#45;8cfd&#45;cb5ecf812827&#45;&gt;48737892&#45;85e5&#45;4683&#45;a885&#45;eb2bfb62a50e</title>
<path fill="none" stroke="black" d="M349.5,-1494.7C349.5,-1486.54 349.5,-1477.75 349.5,-1469.22"/>
<polygon fill="black" stroke="black" points="353,-1469.01 349.5,-1459.01 346,-1469.01 353,-1469.01"/>
</g>
<!-- 82446d6e&#45;09ad&#45;488f&#45;9e8f&#45;fba5220ffbb9 -->
<g id="node26" class="node">
<title>82446d6e&#45;09ad&#45;488f&#45;9e8f&#45;fba5220ffbb9</title>
<polygon fill="none" stroke="black" points="393.5,-1349 305.5,-1349 305.5,-1261 393.5,-1261 393.5,-1349"/>
<text text-anchor="middle" x="349.5" y="-1296.5" font-family="Arial Unicode MS" font-size="10.00">EquivOperand </text>
</g>
<!-- 48737892&#45;85e5&#45;4683&#45;a885&#45;eb2bfb62a50e&#45;&gt;82446d6e&#45;09ad&#45;488f&#45;9e8f&#45;fba5220ffbb9 -->
<g id="edge25" class="edge">
<title>48737892&#45;85e5&#45;4683&#45;a885&#45;eb2bfb62a50e&#45;&gt;82446d6e&#45;09ad&#45;488f&#45;9e8f&#45;fba5220ffbb9</title>
<path fill="none" stroke="black" d="M349.5,-1384.93C349.5,-1376.79 349.5,-1367.97 349.5,-1359.29"/>
<polygon fill="black" stroke="black" points="353,-1359.2 349.5,-1349.2 346,-1359.2 353,-1359.2"/>
</g>
<!-- 6d03ee37&#45;18f2&#45;40ee&#45;ab7c&#45;7ed5fa46ae9f -->
<g id="node27" class="node">
<title>6d03ee37&#45;18f2&#45;40ee&#45;ab7c&#45;7ed5fa46ae9f</title>
<polygon fill="none" stroke="black" points="385.5,-1225 313.5,-1225 313.5,-1153 385.5,-1153 385.5,-1225"/>
<text text-anchor="middle" x="349.5" y="-1180.5" font-family="Arial Unicode MS" font-size="10.00">OrOperand </text>
</g>
<!-- 82446d6e&#45;09ad&#45;488f&#45;9e8f&#45;fba5220ffbb9&#45;&gt;6d03ee37&#45;18f2&#45;40ee&#45;ab7c&#45;7ed5fa46ae9f -->
<g id="edge26" class="edge">
<title>82446d6e&#45;09ad&#45;488f&#45;9e8f&#45;fba5220ffbb9&#45;&gt;6d03ee37&#45;18f2&#45;40ee&#45;ab7c&#45;7ed5fa46ae9f</title>
<path fill="none" stroke="black" d="M349.5,-1260.9C349.5,-1252.47 349.5,-1243.62 349.5,-1235.12"/>
<polygon fill="black" stroke="black" points="353,-1235 349.5,-1225 346,-1235 353,-1235"/>
</g>
<!-- 26c3a1b3&#45;4cd0&#45;49c1&#45;b5f6&#45;bf2d966380a8 -->
<g id="node28" class="node">
<title>26c3a1b3&#45;4cd0&#45;49c1&#45;b5f6&#45;bf2d966380a8</title>
<polygon fill="none" stroke="black" points="389.5,-1117 309.5,-1117 309.5,-1037 389.5,-1037 389.5,-1117"/>
<text text-anchor="middle" x="349.5" y="-1068.5" font-family="Arial Unicode MS" font-size="10.00">AndOperand </text>
</g>
<!-- 6d03ee37&#45;18f2&#45;40ee&#45;ab7c&#45;7ed5fa46ae9f&#45;&gt;26c3a1b3&#45;4cd0&#45;49c1&#45;b5f6&#45;bf2d966380a8 -->
<g id="edge27" class="edge">
<title>6d03ee37&#45;18f2&#45;40ee&#45;ab7c&#45;7ed5fa46ae9f&#45;&gt;26c3a1b3&#45;4cd0&#45;49c1&#45;b5f6&#45;bf2d966380a8</title>
<path fill="none" stroke="black" d="M349.5,-1152.89C349.5,-1144.85 349.5,-1136.14 349.5,-1127.62"/>
<polygon fill="black" stroke="black" points="353,-1127.36 349.5,-1117.36 346,-1127.36 353,-1127.36"/>
</g>
<!-- 5d46a5da&#45;5fc3&#45;4914&#45;a532&#45;6062cfca9759 -->
<g id="node29" class="node">
<title>5d46a5da&#45;5fc3&#45;4914&#45;a532&#45;6062cfca9759</title>
<polygon fill="none" stroke="black" points="386.5,-1001 312.5,-1001 312.5,-927 386.5,-927 386.5,-1001"/>
<text text-anchor="middle" x="349.5" y="-955.5" font-family="Arial Unicode MS" font-size="10.00">Level4Expr </text>
</g>
<!-- 26c3a1b3&#45;4cd0&#45;49c1&#45;b5f6&#45;bf2d966380a8&#45;&gt;5d46a5da&#45;5fc3&#45;4914&#45;a532&#45;6062cfca9759 -->
<g id="edge28" class="edge">
<title>26c3a1b3&#45;4cd0&#45;49c1&#45;b5f6&#45;bf2d966380a8&#45;&gt;5d46a5da&#45;5fc3&#45;4914&#45;a532&#45;6062cfca9759</title>
<path fill="none" stroke="black" d="M349.5,-1036.87C349.5,-1028.61 349.5,-1019.83 349.5,-1011.34"/>
<polygon fill="black" stroke="black" points="353,-1011.18 349.5,-1001.18 346,-1011.18 353,-1011.18"/>
</g>
<!-- 68120e3b&#45;3957&#45;426f&#45;a31d&#45;1c1a5fd4f269 -->
<g id="node30" class="node">
<title>68120e3b&#45;3957&#45;426f&#45;a31d&#45;1c1a5fd4f269</title>
<polygon fill="none" stroke="black" points="386.5,-891 312.5,-891 312.5,-817 386.5,-817 386.5,-891"/>
<text text-anchor="middle" x="349.5" y="-845.5" font-family="Arial Unicode MS" font-size="10.00">Level3Expr </text>
</g>
<!-- 5d46a5da&#45;5fc3&#45;4914&#45;a532&#45;6062cfca9759&#45;&gt;68120e3b&#45;3957&#45;426f&#45;a31d&#45;1c1a5fd4f269 -->
<g id="edge29" class="edge">
<title>5d46a5da&#45;5fc3&#45;4914&#45;a532&#45;6062cfca9759&#45;&gt;68120e3b&#45;3957&#45;426f&#45;a31d&#45;1c1a5fd4f269</title>
<path fill="none" stroke="black" d="M349.5,-926.74C349.5,-918.63 349.5,-909.93 349.5,-901.48"/>
<polygon fill="black" stroke="black" points="353,-901.35 349.5,-891.35 346,-901.35 353,-901.35"/>
</g>
<!-- a8cdc418&#45;fde8&#45;4f10&#45;a1fb&#45;e628e55bf624 -->
<g id="node31" class="node">
<title>a8cdc418&#45;fde8&#45;4f10&#45;a1fb&#45;e628e55bf624</title>
<polygon fill="none" stroke="black" points="386.5,-781 312.5,-781 312.5,-707 386.5,-707 386.5,-781"/>
<text text-anchor="middle" x="349.5" y="-735.5" font-family="Arial Unicode MS" font-size="10.00">Level2Expr </text>
</g>
<!-- 68120e3b&#45;3957&#45;426f&#45;a31d&#45;1c1a5fd4f269&#45;&gt;a8cdc418&#45;fde8&#45;4f10&#45;a1fb&#45;e628e55bf624 -->
<g id="edge30" class="edge">
<title>68120e3b&#45;3957&#45;426f&#45;a31d&#45;1c1a5fd4f269&#45;&gt;a8cdc418&#45;fde8&#45;4f10&#45;a1fb&#45;e628e55bf624</title>
<path fill="none" stroke="black" d="M349.5,-816.74C349.5,-808.63 349.5,-799.93 349.5,-791.48"/>
<polygon fill="black" stroke="black" points="353,-791.35 349.5,-781.35 346,-791.35 353,-791.35"/>
</g>
<!-- dfabac69&#45;a906&#45;427f&#45;b315&#45;34c1d981f2d3 -->
<g id="node32" class="node">
<title>dfabac69&#45;a906&#45;427f&#45;b315&#45;34c1d981f2d3</title>
<polygon fill="none" stroke="black" points="306.5,-671 226.5,-671 226.5,-591 306.5,-591 306.5,-671"/>
<text text-anchor="middle" x="266.5" y="-622.5" font-family="Arial Unicode MS" font-size="10.00">AddOperand </text>
</g>
<!-- a8cdc418&#45;fde8&#45;4f10&#45;a1fb&#45;e628e55bf624&#45;&gt;dfabac69&#45;a906&#45;427f&#45;b315&#45;34c1d981f2d3 -->
<g id="edge31" class="edge">
<title>a8cdc418&#45;fde8&#45;4f10&#45;a1fb&#45;e628e55bf624&#45;&gt;dfabac69&#45;a906&#45;427f&#45;b315&#45;34c1d981f2d3</title>
<path fill="none" stroke="black" d="M322.55,-706.96C315.96,-698.15 308.81,-688.59 301.89,-679.33"/>
<polygon fill="black" stroke="black" points="304.68,-677.22 295.89,-671.31 299.08,-681.41 304.68,-677.22"/>
</g>
<!-- ceaec43c&#45;2da2&#45;4f0e&#45;8f6f&#45;f7ea1bac87fb -->
<g id="node44" class="node">
<title>ceaec43c&#45;2da2&#45;4f0e&#45;8f6f&#45;f7ea1bac87fb</title>
<polygon fill="none" stroke="black" points="367.5,-649 331.5,-649 331.5,-613 367.5,-613 367.5,-649"/>
<text text-anchor="middle" x="349.5" y="-622.5" font-family="Arial Unicode MS" font-size="10.00">+ </text>
</g>
<!-- a8cdc418&#45;fde8&#45;4f10&#45;a1fb&#45;e628e55bf624&#45;&gt;ceaec43c&#45;2da2&#45;4f0e&#45;8f6f&#45;f7ea1bac87fb -->
<g id="edge43" class="edge">
<title>a8cdc418&#45;fde8&#45;4f10&#45;a1fb&#45;e628e55bf624&#45;&gt;ceaec43c&#45;2da2&#45;4f0e&#45;8f6f&#45;f7ea1bac87fb</title>
<path fill="none" stroke="black" d="M349.5,-706.96C349.5,-691.53 349.5,-673.79 349.5,-659.45"/>
<polygon fill="black" stroke="black" points="353,-659.23 349.5,-649.23 346,-659.23 353,-659.23"/>
</g>
<!-- 495a47ab&#45;e1a6&#45;4ac3&#45;8b4e&#45;4767f78ba95a -->
<g id="node45" class="node">
<title>495a47ab&#45;e1a6&#45;4ac3&#45;8b4e&#45;4767f78ba95a</title>
<polygon fill="none" stroke="black" points="468.5,-671 388.5,-671 388.5,-591 468.5,-591 468.5,-671"/>
<text text-anchor="middle" x="428.5" y="-622.5" font-family="Arial Unicode MS" font-size="10.00">AddOperand </text>
</g>
<!-- a8cdc418&#45;fde8&#45;4f10&#45;a1fb&#45;e628e55bf624&#45;&gt;495a47ab&#45;e1a6&#45;4ac3&#45;8b4e&#45;4767f78ba95a -->
<g id="edge44" class="edge">
<title>a8cdc418&#45;fde8&#45;4f10&#45;a1fb&#45;e628e55bf624&#45;&gt;495a47ab&#45;e1a6&#45;4ac3&#45;8b4e&#45;4767f78ba95a</title>
<path fill="none" stroke="black" d="M375.15,-706.96C381.36,-698.24 388.09,-688.78 394.61,-679.61"/>
<polygon fill="black" stroke="black" points="397.58,-681.48 400.52,-671.31 391.87,-677.43 397.58,-681.48"/>
</g>
<!-- 7cddfa70&#45;6078&#45;4e31&#45;af74&#45;67d94fb14981 -->
<g id="node33" class="node">
<title>7cddfa70&#45;6078&#45;4e31&#45;af74&#45;67d94fb14981</title>
<polygon fill="none" stroke="black" points="214,-555 131,-555 131,-472 214,-472 214,-555"/>
<text text-anchor="middle" x="172.5" y="-505" font-family="Arial Unicode MS" font-size="10.00">MultOperand </text>
</g>
<!-- dfabac69&#45;a906&#45;427f&#45;b315&#45;34c1d981f2d3&#45;&gt;7cddfa70&#45;6078&#45;4e31&#45;af74&#45;67d94fb14981 -->
<g id="edge32" class="edge">
<title>dfabac69&#45;a906&#45;427f&#45;b315&#45;34c1d981f2d3&#45;&gt;7cddfa70&#45;6078&#45;4e31&#45;af74&#45;67d94fb14981</title>
<path fill="none" stroke="black" d="M234.68,-590.9C227.43,-581.99 219.64,-572.42 212.11,-563.16"/>
<polygon fill="black" stroke="black" points="214.6,-560.69 205.57,-555.14 209.17,-565.11 214.6,-560.69"/>
</g>
<!-- c92d427e&#45;6544&#45;4bed&#45;9e3e&#45;27bf529352fb -->
<g id="node38" class="node">
<title>c92d427e&#45;6544&#45;4bed&#45;9e3e&#45;27bf529352fb</title>
<polygon fill="none" stroke="black" points="271.5,-531.5 235.5,-531.5 235.5,-495.5 271.5,-495.5 271.5,-531.5"/>
<text text-anchor="middle" x="253.5" y="-505" font-family="Arial Unicode MS" font-size="10.00">* </text>
</g>
<!-- dfabac69&#45;a906&#45;427f&#45;b315&#45;34c1d981f2d3&#45;&gt;c92d427e&#45;6544&#45;4bed&#45;9e3e&#45;27bf529352fb -->
<g id="edge37" class="edge">
<title>dfabac69&#45;a906&#45;427f&#45;b315&#45;34c1d981f2d3&#45;&gt;c92d427e&#45;6544&#45;4bed&#45;9e3e&#45;27bf529352fb</title>
<path fill="none" stroke="black" d="M262.1,-590.9C260.27,-574.68 258.2,-556.26 256.55,-541.57"/>
<polygon fill="black" stroke="black" points="260.02,-541.17 255.43,-531.62 253.07,-541.95 260.02,-541.17"/>
</g>
<!-- ecfdbfdd&#45;5856&#45;4999&#45;85fa&#45;0512c10424ac -->
<g id="node39" class="node">
<title>ecfdbfdd&#45;5856&#45;4999&#45;85fa&#45;0512c10424ac</title>
<polygon fill="none" stroke="black" points="373,-555 290,-555 290,-472 373,-472 373,-555"/>
<text text-anchor="middle" x="331.5" y="-505" font-family="Arial Unicode MS" font-size="10.00">MultOperand </text>
</g>
<!-- dfabac69&#45;a906&#45;427f&#45;b315&#45;34c1d981f2d3&#45;&gt;ecfdbfdd&#45;5856&#45;4999&#45;85fa&#45;0512c10424ac -->
<g id="edge38" class="edge">
<title>dfabac69&#45;a906&#45;427f&#45;b315&#45;34c1d981f2d3&#45;&gt;ecfdbfdd&#45;5856&#45;4999&#45;85fa&#45;0512c10424ac</title>
<path fill="none" stroke="black" d="M288.51,-590.9C293.37,-582.26 298.58,-573 303.64,-564.01"/>
<polygon fill="black" stroke="black" points="306.77,-565.57 308.63,-555.14 300.67,-562.14 306.77,-565.57"/>
</g>
<!-- 6ad2acc9&#45;21fb&#45;437b&#45;9e0f&#45;8d571acec78c -->
<g id="node34" class="node">
<title>6ad2acc9&#45;21fb&#45;437b&#45;9e0f&#45;8d571acec78c</title>
<polygon fill="none" stroke="black" points="204.5,-436 130.5,-436 130.5,-362 204.5,-362 204.5,-436"/>
<text text-anchor="middle" x="167.5" y="-390.5" font-family="Arial Unicode MS" font-size="10.00">Level1Expr </text>
</g>
<!-- 7cddfa70&#45;6078&#45;4e31&#45;af74&#45;67d94fb14981&#45;&gt;6ad2acc9&#45;21fb&#45;437b&#45;9e0f&#45;8d571acec78c -->
<g id="edge33" class="edge">
<title>7cddfa70&#45;6078&#45;4e31&#45;af74&#45;67d94fb14981&#45;&gt;6ad2acc9&#45;21fb&#45;437b&#45;9e0f&#45;8d571acec78c</title>
<path fill="none" stroke="black" d="M170.69,-471.88C170.32,-463.56 169.93,-454.74 169.56,-446.24"/>
<polygon fill="black" stroke="black" points="173.04,-445.91 169.1,-436.08 166.05,-446.22 173.04,-445.91"/>
</g>
<!-- 12711b63&#45;fd48&#45;40d3&#45;bcb3&#45;2aa453b7cdb2 -->
<g id="node35" class="node">
<title>12711b63&#45;fd48&#45;40d3&#45;bcb3&#45;2aa453b7cdb2</title>
<polygon fill="none" stroke="black" points="185.5,-326 127.5,-326 127.5,-268 185.5,-268 185.5,-326"/>
<text text-anchor="middle" x="156.5" y="-288.5" font-family="Arial Unicode MS" font-size="10.00">Primary </text>
</g>
<!-- 6ad2acc9&#45;21fb&#45;437b&#45;9e0f&#45;8d571acec78c&#45;&gt;12711b63&#45;fd48&#45;40d3&#45;bcb3&#45;2aa453b7cdb2 -->
<g id="edge34" class="edge">
<title>6ad2acc9&#45;21fb&#45;437b&#45;9e0f&#45;8d571acec78c&#45;&gt;12711b63&#45;fd48&#45;40d3&#45;bcb3&#45;2aa453b7cdb2</title>
<path fill="none" stroke="black" d="M163.53,-361.9C162.61,-353.55 161.63,-344.63 160.7,-336.19"/>
<polygon fill="black" stroke="black" points="164.18,-335.76 159.6,-326.2 157.22,-336.53 164.18,-335.76"/>
</g>
<!-- fdb422cf&#45;92be&#45;4004&#45;9cc5&#45;762a2fe65da9 -->
<g id="node36" class="node">
<title>fdb422cf&#45;92be&#45;4004&#45;9cc5&#45;762a2fe65da9</title>
<polygon fill="none" stroke="black" points="233.5,-232 73.5,-232 73.5,-72 233.5,-72 233.5,-232"/>
<text text-anchor="middle" x="153.5" y="-143.5" font-family="Arial Unicode MS" font-size="10.00">UnsignedArithmeticConstant </text>
</g>
<!-- 12711b63&#45;fd48&#45;40d3&#45;bcb3&#45;2aa453b7cdb2&#45;&gt;fdb422cf&#45;92be&#45;4004&#45;9cc5&#45;762a2fe65da9 -->
<g id="edge35" class="edge">
<title>12711b63&#45;fd48&#45;40d3&#45;bcb3&#45;2aa453b7cdb2&#45;&gt;fdb422cf&#45;92be&#45;4004&#45;9cc5&#45;762a2fe65da9</title>
<path fill="none" stroke="black" d="M155.91,-267.75C155.75,-260.1 155.56,-251.39 155.37,-242.27"/>
<polygon fill="black" stroke="black" points="158.87,-242.16 155.16,-232.24 151.87,-242.31 158.87,-242.16"/>
</g>
<!-- 47cc6dd5&#45;aaea&#45;42af&#45;a0b3&#45;f35017edadb4 -->
<g id="node37" class="node">
<title>47cc6dd5&#45;aaea&#45;42af&#45;a0b3&#45;f35017edadb4</title>
<polygon fill="none" stroke="black" points="171.5,-36 135.5,-36 135.5,0 171.5,0 171.5,-36"/>
<text text-anchor="middle" x="153.5" y="-9.5" font-family="Arial Unicode MS" font-size="10.00">2 </text>
</g>
<!-- fdb422cf&#45;92be&#45;4004&#45;9cc5&#45;762a2fe65da9&#45;&gt;47cc6dd5&#45;aaea&#45;42af&#45;a0b3&#45;f35017edadb4 -->
<g id="edge36" class="edge">
<title>fdb422cf&#45;92be&#45;4004&#45;9cc5&#45;762a2fe65da9&#45;&gt;47cc6dd5&#45;aaea&#45;42af&#45;a0b3&#45;f35017edadb4</title>
<path fill="none" stroke="black" d="M153.5,-71.93C153.5,-62.82 153.5,-54.06 153.5,-46.38"/>
<polygon fill="black" stroke="black" points="157,-46.31 153.5,-36.31 150,-46.31 157,-46.31"/>
</g>
<!-- 1f808c5f&#45;acc4&#45;415d&#45;87a7&#45;ff653d6caa32 -->
<g id="node40" class="node">
<title>1f808c5f&#45;acc4&#45;415d&#45;87a7&#45;ff653d6caa32</title>
<polygon fill="none" stroke="black" points="368.5,-436 294.5,-436 294.5,-362 368.5,-362 368.5,-436"/>
<text text-anchor="middle" x="331.5" y="-390.5" font-family="Arial Unicode MS" font-size="10.00">Level1Expr </text>
</g>
<!-- ecfdbfdd&#45;5856&#45;4999&#45;85fa&#45;0512c10424ac&#45;&gt;1f808c5f&#45;acc4&#45;415d&#45;87a7&#45;ff653d6caa32 -->
<g id="edge39" class="edge">
<title>ecfdbfdd&#45;5856&#45;4999&#45;85fa&#45;0512c10424ac&#45;&gt;1f808c5f&#45;acc4&#45;415d&#45;87a7&#45;ff653d6caa32</title>
<path fill="none" stroke="black" d="M331.5,-471.88C331.5,-463.56 331.5,-454.74 331.5,-446.24"/>
<polygon fill="black" stroke="black" points="335,-446.08 331.5,-436.08 328,-446.08 335,-446.08"/>
</g>
<!-- 5613b8b6&#45;c760&#45;43a4&#45;85f2&#45;b4bcc756ac93 -->
<g id="node41" class="node">
<title>5613b8b6&#45;c760&#45;43a4&#45;85f2&#45;b4bcc756ac93</title>
<polygon fill="none" stroke="black" points="360.5,-326 302.5,-326 302.5,-268 360.5,-268 360.5,-326"/>
<text text-anchor="middle" x="331.5" y="-288.5" font-family="Arial Unicode MS" font-size="10.00">Primary </text>
</g>
<!-- 1f808c5f&#45;acc4&#45;415d&#45;87a7&#45;ff653d6caa32&#45;&gt;5613b8b6&#45;c760&#45;43a4&#45;85f2&#45;b4bcc756ac93 -->
<g id="edge40" class="edge">
<title>1f808c5f&#45;acc4&#45;415d&#45;87a7&#45;ff653d6caa32&#45;&gt;5613b8b6&#45;c760&#45;43a4&#45;85f2&#45;b4bcc756ac93</title>
<path fill="none" stroke="black" d="M331.5,-361.9C331.5,-353.64 331.5,-344.83 331.5,-336.47"/>
<polygon fill="black" stroke="black" points="335,-336.2 331.5,-326.2 328,-336.21 335,-336.2"/>
</g>
<!-- 4e3ce9c8&#45;cf04&#45;4164&#45;b1ed&#45;72fb4ce50891 -->
<g id="node42" class="node">
<title>4e3ce9c8&#45;cf04&#45;4164&#45;b1ed&#45;72fb4ce50891</title>
<polygon fill="none" stroke="black" points="411.5,-232 251.5,-232 251.5,-72 411.5,-72 411.5,-232"/>
<text text-anchor="middle" x="331.5" y="-143.5" font-family="Arial Unicode MS" font-size="10.00">UnsignedArithmeticConstant </text>
</g>
<!-- 5613b8b6&#45;c760&#45;43a4&#45;85f2&#45;b4bcc756ac93&#45;&gt;4e3ce9c8&#45;cf04&#45;4164&#45;b1ed&#45;72fb4ce50891 -->
<g id="edge41" class="edge">
<title>5613b8b6&#45;c760&#45;43a4&#45;85f2&#45;b4bcc756ac93&#45;&gt;4e3ce9c8&#45;cf04&#45;4164&#45;b1ed&#45;72fb4ce50891</title>
<path fill="none" stroke="black" d="M331.5,-267.75C331.5,-260.1 331.5,-251.39 331.5,-242.27"/>
<polygon fill="black" stroke="black" points="335,-242.24 331.5,-232.24 328,-242.24 335,-242.24"/>
</g>
<!-- 8ba66e68&#45;e4be&#45;4f80&#45;8528&#45;37fbbc81897f -->
<g id="node43" class="node">
<title>8ba66e68&#45;e4be&#45;4f80&#45;8528&#45;37fbbc81897f</title>
<polygon fill="none" stroke="black" points="349.5,-36 313.5,-36 313.5,0 349.5,0 349.5,-36"/>
<text text-anchor="middle" x="331.5" y="-9.5" font-family="Arial Unicode MS" font-size="10.00">7 </text>
</g>
<!-- 4e3ce9c8&#45;cf04&#45;4164&#45;b1ed&#45;72fb4ce50891&#45;&gt;8ba66e68&#45;e4be&#45;4f80&#45;8528&#45;37fbbc81897f -->
<g id="edge42" class="edge">
<title>4e3ce9c8&#45;cf04&#45;4164&#45;b1ed&#45;72fb4ce50891&#45;&gt;8ba66e68&#45;e4be&#45;4f80&#45;8528&#45;37fbbc81897f</title>
<path fill="none" stroke="black" d="M331.5,-71.93C331.5,-62.82 331.5,-54.06 331.5,-46.38"/>
<polygon fill="black" stroke="black" points="335,-46.31 331.5,-36.31 328,-46.31 335,-46.31"/>
</g>
<!-- c57fae61&#45;6871&#45;46db&#45;9468&#45;aa9b2dd8ddfa -->
<g id="node46" class="node">
<title>c57fae61&#45;6871&#45;46db&#45;9468&#45;aa9b2dd8ddfa</title>
<polygon fill="none" stroke="black" points="512,-555 429,-555 429,-472 512,-472 512,-555"/>
<text text-anchor="middle" x="470.5" y="-505" font-family="Arial Unicode MS" font-size="10.00">MultOperand </text>
</g>
<!-- 495a47ab&#45;e1a6&#45;4ac3&#45;8b4e&#45;4767f78ba95a&#45;&gt;c57fae61&#45;6871&#45;46db&#45;9468&#45;aa9b2dd8ddfa -->
<g id="edge45" class="edge">
<title>495a47ab&#45;e1a6&#45;4ac3&#45;8b4e&#45;4767f78ba95a&#45;&gt;c57fae61&#45;6871&#45;46db&#45;9468&#45;aa9b2dd8ddfa</title>
<path fill="none" stroke="black" d="M442.72,-590.9C445.8,-582.44 449.09,-573.38 452.29,-564.57"/>
<polygon fill="black" stroke="black" points="455.59,-565.73 455.72,-555.14 449.02,-563.34 455.59,-565.73"/>
</g>
<!-- 04ed58e0&#45;1391&#45;4775&#45;9dc9&#45;8b63f82fdc33 -->
<g id="node47" class="node">
<title>04ed58e0&#45;1391&#45;4775&#45;9dc9&#45;8b63f82fdc33</title>
<polygon fill="none" stroke="black" points="526.5,-436 452.5,-436 452.5,-362 526.5,-362 526.5,-436"/>
<text text-anchor="middle" x="489.5" y="-390.5" font-family="Arial Unicode MS" font-size="10.00">Level1Expr </text>
</g>
<!-- c57fae61&#45;6871&#45;46db&#45;9468&#45;aa9b2dd8ddfa&#45;&gt;04ed58e0&#45;1391&#45;4775&#45;9dc9&#45;8b63f82fdc33 -->
<g id="edge46" class="edge">
<title>c57fae61&#45;6871&#45;46db&#45;9468&#45;aa9b2dd8ddfa&#45;&gt;04ed58e0&#45;1391&#45;4775&#45;9dc9&#45;8b63f82fdc33</title>
<path fill="none" stroke="black" d="M477.36,-471.88C478.78,-463.47 480.29,-454.55 481.74,-445.96"/>
<polygon fill="black" stroke="black" points="485.19,-446.52 483.41,-436.08 478.29,-445.36 485.19,-446.52"/>
</g>
<!-- 1d4b846c&#45;76ad&#45;4960&#45;be0c&#45;e1016abada23 -->
<g id="node48" class="node">
<title>1d4b846c&#45;76ad&#45;4960&#45;be0c&#45;e1016abada23</title>
<polygon fill="none" stroke="black" points="528.5,-326 470.5,-326 470.5,-268 528.5,-268 528.5,-326"/>
<text text-anchor="middle" x="499.5" y="-288.5" font-family="Arial Unicode MS" font-size="10.00">Primary </text>
</g>
<!-- 04ed58e0&#45;1391&#45;4775&#45;9dc9&#45;8b63f82fdc33&#45;&gt;1d4b846c&#45;76ad&#45;4960&#45;be0c&#45;e1016abada23 -->
<g id="edge47" class="edge">
<title>04ed58e0&#45;1391&#45;4775&#45;9dc9&#45;8b63f82fdc33&#45;&gt;1d4b846c&#45;76ad&#45;4960&#45;be0c&#45;e1016abada23</title>
<path fill="none" stroke="black" d="M493.11,-361.9C493.95,-353.55 494.84,-344.63 495.68,-336.19"/>
<polygon fill="black" stroke="black" points="499.17,-336.5 496.68,-326.2 492.2,-335.81 499.17,-336.5"/>
</g>
<!-- 44ee1252&#45;35d0&#45;4890&#45;bef6&#45;a57cb637af1f -->
<g id="node49" class="node">
<title>44ee1252&#45;35d0&#45;4890&#45;bef6&#45;a57cb637af1f</title>
<polygon fill="none" stroke="black" points="589.5,-232 429.5,-232 429.5,-72 589.5,-72 589.5,-232"/>
<text text-anchor="middle" x="509.5" y="-143.5" font-family="Arial Unicode MS" font-size="10.00">UnsignedArithmeticConstant </text>
</g>
<!-- 1d4b846c&#45;76ad&#45;4960&#45;be0c&#45;e1016abada23&#45;&gt;44ee1252&#45;35d0&#45;4890&#45;bef6&#45;a57cb637af1f -->
<g id="edge48" class="edge">
<title>1d4b846c&#45;76ad&#45;4960&#45;be0c&#45;e1016abada23&#45;&gt;44ee1252&#45;35d0&#45;4890&#45;bef6&#45;a57cb637af1f</title>
<path fill="none" stroke="black" d="M501.48,-267.75C502.01,-260.1 502.62,-251.39 503.26,-242.27"/>
<polygon fill="black" stroke="black" points="506.75,-242.46 503.96,-232.24 499.77,-241.97 506.75,-242.46"/>
</g>
<!-- c74b83a0&#45;15dd&#45;44a9&#45;b686&#45;61867c34bdb2 -->
<g id="node50" class="node">
<title>c74b83a0&#45;15dd&#45;44a9&#45;b686&#45;61867c34bdb2</title>
<polygon fill="none" stroke="black" points="527.5,-36 491.5,-36 491.5,0 527.5,0 527.5,-36"/>
<text text-anchor="middle" x="509.5" y="-9.5" font-family="Arial Unicode MS" font-size="10.00">4 </text>
</g>
<!-- 44ee1252&#45;35d0&#45;4890&#45;bef6&#45;a57cb637af1f&#45;&gt;c74b83a0&#45;15dd&#45;44a9&#45;b686&#45;61867c34bdb2 -->
<g id="edge49" class="edge">
<title>44ee1252&#45;35d0&#45;4890&#45;bef6&#45;a57cb637af1f&#45;&gt;c74b83a0&#45;15dd&#45;44a9&#45;b686&#45;61867c34bdb2</title>
<path fill="none" stroke="black" d="M509.5,-71.93C509.5,-62.82 509.5,-54.06 509.5,-46.38"/>
<polygon fill="black" stroke="black" points="513,-46.31 509.5,-36.31 506,-46.31 513,-46.31"/>
</g>
<!-- feef57c4&#45;3472&#45;4c99&#45;8988&#45;e1851aceeeb2 -->
<g id="node52" class="node">
<title>feef57c4&#45;3472&#45;4c99&#45;8988&#45;e1851aceeeb2</title>
<polygon fill="none" stroke="black" points="315.5,-2202.5 277.5,-2202.5 277.5,-2164.5 315.5,-2164.5 315.5,-2202.5"/>
<text text-anchor="middle" x="296.5" y="-2175" font-family="Arial Unicode MS" font-size="10.00">end </text>
</g>
<!-- 77d98aeb&#45;aed1&#45;45ae&#45;8b9d&#45;9174b0fa2544&#45;&gt;feef57c4&#45;3472&#45;4c99&#45;8988&#45;e1851aceeeb2 -->
<g id="edge51" class="edge">
<title>77d98aeb&#45;aed1&#45;45ae&#45;8b9d&#45;9174b0fa2544&#45;&gt;feef57c4&#45;3472&#45;4c99&#45;8988&#45;e1851aceeeb2</title>
<path fill="none" stroke="black" d="M319.92,-2264.92C314.75,-2247.16 309.12,-2227.82 304.67,-2212.56"/>
<polygon fill="black" stroke="black" points="307.96,-2211.34 301.8,-2202.71 301.24,-2213.29 307.96,-2211.34"/>
</g>
<!-- c237d130&#45;b9e0&#45;44c8&#45;a0d1&#45;504753ecdc3f -->
<g id="node53" class="node">
<title>c237d130&#45;b9e0&#45;44c8&#45;a0d1&#45;504753ecdc3f</title>
<polygon fill="none" stroke="black" points="395,-2214 334,-2214 334,-2153 395,-2153 395,-2214"/>
<text text-anchor="middle" x="364.5" y="-2175" font-family="Arial Unicode MS" font-size="10.00">program </text>
</g>
<!-- 77d98aeb&#45;aed1&#45;45ae&#45;8b9d&#45;9174b0fa2544&#45;&gt;c237d130&#45;b9e0&#45;44c8&#45;a0d1&#45;504753ecdc3f -->
<g id="edge52" class="edge">
<title>77d98aeb&#45;aed1&#45;45ae&#45;8b9d&#45;9174b0fa2544&#45;&gt;c237d130&#45;b9e0&#45;44c8&#45;a0d1&#45;504753ecdc3f</title>
<path fill="none" stroke="black" d="M346.01,-2264.92C349.12,-2251.42 352.43,-2237 355.38,-2224.16"/>
<polygon fill="black" stroke="black" points="358.83,-2224.78 357.66,-2214.25 352.01,-2223.21 358.83,-2224.78"/>
</g>
<!-- b8833460&#45;6b7a&#45;47d1&#45;879c&#45;d6162632ef03 -->
<g id="node54" class="node">
<title>b8833460&#45;6b7a&#45;47d1&#45;879c&#45;d6162632ef03</title>
<polygon fill="none" stroke="black" points="482,-2218 413,-2218 413,-2149 482,-2149 482,-2218"/>
<text text-anchor="middle" x="447.5" y="-2175" font-family="Arial Unicode MS" font-size="10.00">Calculator </text>
</g>
<!-- 77d98aeb&#45;aed1&#45;45ae&#45;8b9d&#45;9174b0fa2544&#45;&gt;b8833460&#45;6b7a&#45;47d1&#45;879c&#45;d6162632ef03 -->
<g id="edge53" class="edge">
<title>77d98aeb&#45;aed1&#45;45ae&#45;8b9d&#45;9174b0fa2544&#45;&gt;b8833460&#45;6b7a&#45;47d1&#45;879c&#45;d6162632ef03</title>
<path fill="none" stroke="black" d="M377.87,-2264.92C389.1,-2251.94 401.07,-2238.12 411.86,-2225.66"/>
<polygon fill="black" stroke="black" points="414.51,-2227.95 418.41,-2218.1 409.22,-2223.37 414.51,-2227.95"/>
</g>
</g>
</svg>
