<?xml version="1.0" encoding="UTF-8" standalone="no"?>
<!DOCTYPE svg PUBLIC "-//W3C//DTD SVG 1.1//EN"
 "http://www.w3.org/Graphics/SVG/1.1/DTD/svg11.dtd">
<!-- Generated by graphviz version 2.43.0 (0)
 -->
<!-- Title: G Pages: 1 -->
<svg width="450pt" height="2770pt"
 viewBox="0.00 0.00 449.50 2770.00" xmlns="http://www.w3.org/2000/svg" xmlns:xlink="http://www.w3.org/1999/xlink">
<g id="graph0" class="graph" transform="scale(1 1) rotate(0) translate(4 2766)">
<title>G</title>
<polygon fill="white" stroke="transparent" points="-4,4 -4,-2766 445.5,-2766 445.5,4 -4,4"/>
<!-- 652c4b05&#45;fcde&#45;438c&#45;b7bb&#45;502107b877d7 -->
<g id="node1" class="node">
<title>652c4b05&#45;fcde&#45;438c&#45;b7bb&#45;502107b877d7</title>
<polygon fill="none" stroke="black" points="233,-2762 172,-2762 172,-2701 233,-2701 233,-2762"/>
<text text-anchor="middle" x="202.5" y="-2723" font-family="Arial Unicode MS" font-size="10.00">Program </text>
</g>
<!-- 5e27c42d&#45;270c&#45;4d1b&#45;b510&#45;9b88a5999756 -->
<g id="node2" class="node">
<title>5e27c42d&#45;270c&#45;4d1b&#45;b510&#45;9b88a5999756</title>
<polygon fill="none" stroke="black" points="208.5,-2665 94.5,-2665 94.5,-2551 208.5,-2551 208.5,-2665"/>
<text text-anchor="middle" x="151.5" y="-2599.5" font-family="Arial Unicode MS" font-size="10.00">ExecutableProgram </text>
</g>
<!-- 652c4b05&#45;fcde&#45;438c&#45;b7bb&#45;502107b877d7&#45;&gt;5e27c42d&#45;270c&#45;4d1b&#45;b510&#45;9b88a5999756 -->
<g id="edge1" class="edge">
<title>652c4b05&#45;fcde&#45;438c&#45;b7bb&#45;502107b877d7&#45;&gt;5e27c42d&#45;270c&#45;4d1b&#45;b510&#45;9b88a5999756</title>
<path fill="none" stroke="black" d="M190.02,-2700.78C186.7,-2692.85 182.97,-2683.96 179.17,-2674.92"/>
<polygon fill="black" stroke="black" points="182.3,-2673.34 175.21,-2665.48 175.85,-2676.05 182.3,-2673.34"/>
</g>
<!-- 95ab8158&#45;106b&#45;4922&#45;9fa8&#45;d25f4ba87acc -->
<g id="node36" class="node">
<title>95ab8158&#45;106b&#45;4922&#45;9fa8&#45;d25f4ba87acc</title>
<polygon fill="none" stroke="black" points="282.5,-2636 226.5,-2636 226.5,-2580 282.5,-2580 282.5,-2636"/>
<text text-anchor="middle" x="254.5" y="-2599.5" font-family="Arial Unicode MS" font-size="10.00">&lt;EOF&gt; </text>
</g>
<!-- 652c4b05&#45;fcde&#45;438c&#45;b7bb&#45;502107b877d7&#45;&gt;95ab8158&#45;106b&#45;4922&#45;9fa8&#45;d25f4ba87acc -->
<g id="edge35" class="edge">
<title>652c4b05&#45;fcde&#45;438c&#45;b7bb&#45;502107b877d7&#45;&gt;95ab8158&#45;106b&#45;4922&#45;9fa8&#45;d25f4ba87acc</title>
<path fill="none" stroke="black" d="M215.22,-2700.78C222.32,-2684.18 231.24,-2663.36 238.77,-2645.75"/>
<polygon fill="black" stroke="black" points="242.08,-2646.91 242.8,-2636.34 235.65,-2644.15 242.08,-2646.91"/>
</g>
<!-- cc4c6bcb&#45;84a8&#45;45f0&#45;a2c9&#45;278bfca9df4e -->
<g id="node3" class="node">
<title>cc4c6bcb&#45;84a8&#45;45f0&#45;a2c9&#45;278bfca9df4e</title>
<polygon fill="none" stroke="black" points="192,-2515 111,-2515 111,-2434 192,-2434 192,-2515"/>
<text text-anchor="middle" x="151.5" y="-2466" font-family="Arial Unicode MS" font-size="10.00">ProgramUnit </text>
</g>
<!-- 5e27c42d&#45;270c&#45;4d1b&#45;b510&#45;9b88a5999756&#45;&gt;cc4c6bcb&#45;84a8&#45;45f0&#45;a2c9&#45;278bfca9df4e -->
<g id="edge2" class="edge">
<title>5e27c42d&#45;270c&#45;4d1b&#45;b510&#45;9b88a5999756&#45;&gt;cc4c6bcb&#45;84a8&#45;45f0&#45;a2c9&#45;278bfca9df4e</title>
<path fill="none" stroke="black" d="M151.5,-2550.85C151.5,-2542.31 151.5,-2533.56 151.5,-2525.17"/>
<polygon fill="black" stroke="black" points="155,-2525.17 151.5,-2515.17 148,-2525.17 155,-2525.17"/>
</g>
<!-- 71500012&#45;e48e&#45;4ef2&#45;b3ca&#45;9a3297801824 -->
<g id="node4" class="node">
<title>71500012&#45;e48e&#45;4ef2&#45;b3ca&#45;9a3297801824</title>
<polygon fill="none" stroke="black" points="194,-2398 109,-2398 109,-2313 194,-2313 194,-2398"/>
<text text-anchor="middle" x="151.5" y="-2347" font-family="Arial Unicode MS" font-size="10.00">MainProgram </text>
</g>
<!-- cc4c6bcb&#45;84a8&#45;45f0&#45;a2c9&#45;278bfca9df4e&#45;&gt;71500012&#45;e48e&#45;4ef2&#45;b3ca&#45;9a3297801824 -->
<g id="edge3" class="edge">
<title>cc4c6bcb&#45;84a8&#45;45f0&#45;a2c9&#45;278bfca9df4e&#45;&gt;71500012&#45;e48e&#45;4ef2&#45;b3ca&#45;9a3297801824</title>
<path fill="none" stroke="black" d="M151.5,-2433.89C151.5,-2425.6 151.5,-2416.74 151.5,-2408.09"/>
<polygon fill="black" stroke="black" points="155,-2408.07 151.5,-2398.07 148,-2408.07 155,-2408.07"/>
</g>
<!-- e6df988d&#45;8932&#45;4b0e&#45;893f&#45;9eba8f5acc69 -->
<g id="node5" class="node">
<title>e6df988d&#45;8932&#45;4b0e&#45;893f&#45;9eba8f5acc69</title>
<polygon fill="none" stroke="black" points="145.5,-2277 61.5,-2277 61.5,-2193 145.5,-2193 145.5,-2277"/>
<text text-anchor="middle" x="103.5" y="-2226.5" font-family="Arial Unicode MS" font-size="10.00">ProgramStmt </text>
</g>
<!-- 71500012&#45;e48e&#45;4ef2&#45;b3ca&#45;9a3297801824&#45;&gt;e6df988d&#45;8932&#45;4b0e&#45;893f&#45;9eba8f5acc69 -->
<g id="edge4" class="edge">
<title>71500012&#45;e48e&#45;4ef2&#45;b3ca&#45;9a3297801824&#45;&gt;e6df988d&#45;8932&#45;4b0e&#45;893f&#45;9eba8f5acc69</title>
<path fill="none" stroke="black" d="M134.58,-2312.72C131.13,-2304.21 127.46,-2295.16 123.91,-2286.39"/>
<polygon fill="black" stroke="black" points="127.11,-2284.96 120.11,-2277 120.62,-2287.59 127.11,-2284.96"/>
</g>
<!-- 8c18257a&#45;3a5c&#45;403e&#45;88b9&#45;0f9f27d3007b -->
<g id="node8" class="node">
<title>8c18257a&#45;3a5c&#45;403e&#45;88b9&#45;0f9f27d3007b</title>
<polygon fill="none" stroke="black" points="237.5,-2272 163.5,-2272 163.5,-2198 237.5,-2198 237.5,-2272"/>
<text text-anchor="middle" x="200.5" y="-2226.5" font-family="Arial Unicode MS" font-size="10.00">MainRange </text>
</g>
<!-- 71500012&#45;e48e&#45;4ef2&#45;b3ca&#45;9a3297801824&#45;&gt;8c18257a&#45;3a5c&#45;403e&#45;88b9&#45;0f9f27d3007b -->
<g id="edge7" class="edge">
<title>71500012&#45;e48e&#45;4ef2&#45;b3ca&#45;9a3297801824&#45;&gt;8c18257a&#45;3a5c&#45;403e&#45;88b9&#45;0f9f27d3007b</title>
<path fill="none" stroke="black" d="M168.78,-2312.72C172.91,-2302.72 177.35,-2292 181.55,-2281.83"/>
<polygon fill="black" stroke="black" points="184.91,-2282.87 185.5,-2272.29 178.44,-2280.19 184.91,-2282.87"/>
</g>
<!-- ec2e9534&#45;ada8&#45;4285&#45;a5e9&#45;d99dc61a5ddb -->
<g id="node6" class="node">
<title>ec2e9534&#45;ada8&#45;4285&#45;a5e9&#45;d99dc61a5ddb</title>
<polygon fill="none" stroke="black" points="61,-2136.5 0,-2136.5 0,-2075.5 61,-2075.5 61,-2136.5"/>
<text text-anchor="middle" x="30.5" y="-2097.5" font-family="Arial Unicode MS" font-size="10.00">program </text>
</g>
<!-- e6df988d&#45;8932&#45;4b0e&#45;893f&#45;9eba8f5acc69&#45;&gt;ec2e9534&#45;ada8&#45;4285&#45;a5e9&#45;d99dc61a5ddb -->
<g id="edge5" class="edge">
<title>e6df988d&#45;8932&#45;4b0e&#45;893f&#45;9eba8f5acc69&#45;&gt;ec2e9534&#45;ada8&#45;4285&#45;a5e9&#45;d99dc61a5ddb</title>
<path fill="none" stroke="black" d="M79.8,-2192.77C71.11,-2177.65 61.32,-2160.61 52.76,-2145.72"/>
<polygon fill="black" stroke="black" points="55.63,-2143.69 47.61,-2136.77 49.56,-2147.18 55.63,-2143.69"/>
</g>
<!-- 4a82bb3c&#45;be67&#45;4b70&#45;9aec&#45;d74c09921855 -->
<g id="node7" class="node">
<title>4a82bb3c&#45;be67&#45;4b70&#45;9aec&#45;d74c09921855</title>
<polygon fill="none" stroke="black" points="141.5,-2137 79.5,-2137 79.5,-2075 141.5,-2075 141.5,-2137"/>
<text text-anchor="middle" x="110.5" y="-2097.5" font-family="Arial Unicode MS" font-size="10.00">goodbye </text>
</g>
<!-- e6df988d&#45;8932&#45;4b0e&#45;893f&#45;9eba8f5acc69&#45;&gt;4a82bb3c&#45;be67&#45;4b70&#45;9aec&#45;d74c09921855 -->
<g id="edge6" class="edge">
<title>e6df988d&#45;8932&#45;4b0e&#45;893f&#45;9eba8f5acc69&#45;&gt;4a82bb3c&#45;be67&#45;4b70&#45;9aec&#45;d74c09921855</title>
<path fill="none" stroke="black" d="M105.77,-2192.77C106.58,-2178.2 107.48,-2161.83 108.28,-2147.34"/>
<polygon fill="black" stroke="black" points="111.78,-2147.34 108.84,-2137.17 104.79,-2146.96 111.78,-2147.34"/>
</g>
<!-- 4a860164&#45;b5ee&#45;4f81&#45;9616&#45;a583b92a2776 -->
<g id="node9" class="node">
<title>4a860164&#45;b5ee&#45;4f81&#45;9616&#45;a583b92a2776</title>
<polygon fill="none" stroke="black" points="216.5,-2128 172.5,-2128 172.5,-2084 216.5,-2084 216.5,-2128"/>
<text text-anchor="middle" x="194.5" y="-2097.5" font-family="Arial Unicode MS" font-size="10.00">Body </text>
</g>
<!-- 8c18257a&#45;3a5c&#45;403e&#45;88b9&#45;0f9f27d3007b&#45;&gt;4a860164&#45;b5ee&#45;4f81&#45;9616&#45;a583b92a2776 -->
<g id="edge8" class="edge">
<title>8c18257a&#45;3a5c&#45;403e&#45;88b9&#45;0f9f27d3007b&#45;&gt;4a860164&#45;b5ee&#45;4f81&#45;9616&#45;a583b92a2776</title>
<path fill="none" stroke="black" d="M198.8,-2197.95C197.9,-2179.07 196.82,-2156.18 195.97,-2138.08"/>
<polygon fill="black" stroke="black" points="199.46,-2137.88 195.49,-2128.05 192.47,-2138.21 199.46,-2137.88"/>
</g>
<!-- 34934c5f&#45;dc7d&#45;4c0b&#45;a36c&#45;631862b7cd0f -->
<g id="node32" class="node">
<title>34934c5f&#45;dc7d&#45;4c0b&#45;a36c&#45;631862b7cd0f</title>
<polygon fill="none" stroke="black" points="366.5,-2157 264.5,-2157 264.5,-2055 366.5,-2055 366.5,-2157"/>
<text text-anchor="middle" x="315.5" y="-2097.5" font-family="Arial Unicode MS" font-size="10.00">EndProgramStmt </text>
</g>
<!-- 8c18257a&#45;3a5c&#45;403e&#45;88b9&#45;0f9f27d3007b&#45;&gt;34934c5f&#45;dc7d&#45;4c0b&#45;a36c&#45;631862b7cd0f -->
<g id="edge31" class="edge">
<title>8c18257a&#45;3a5c&#45;403e&#45;88b9&#45;0f9f27d3007b&#45;&gt;34934c5f&#45;dc7d&#45;4c0b&#45;a36c&#45;631862b7cd0f</title>
<path fill="none" stroke="black" d="M233.15,-2197.95C242.43,-2187.7 252.78,-2176.27 262.92,-2165.07"/>
<polygon fill="black" stroke="black" points="265.78,-2167.13 269.89,-2157.36 260.59,-2162.43 265.78,-2167.13"/>
</g>
<!-- 57acd3ec&#45;ce4f&#45;47bc&#45;8da7&#45;9767a256afa7 -->
<g id="node10" class="node">
<title>57acd3ec&#45;ce4f&#45;47bc&#45;8da7&#45;9767a256afa7</title>
<polygon fill="none" stroke="black" points="225,-2019 134,-2019 134,-1928 225,-1928 225,-2019"/>
<text text-anchor="middle" x="179.5" y="-1965" font-family="Arial Unicode MS" font-size="10.00">BodyConstruct </text>
</g>
<!-- 4a860164&#45;b5ee&#45;4f81&#45;9616&#45;a583b92a2776&#45;&gt;57acd3ec&#45;ce4f&#45;47bc&#45;8da7&#45;9767a256afa7 -->
<g id="edge9" class="edge">
<title>4a860164&#45;b5ee&#45;4f81&#45;9616&#45;a583b92a2776&#45;&gt;57acd3ec&#45;ce4f&#45;47bc&#45;8da7&#45;9767a256afa7</title>
<path fill="none" stroke="black" d="M192.06,-2083.74C190.35,-2068.86 187.98,-2048.26 185.76,-2028.95"/>
<polygon fill="black" stroke="black" points="189.24,-2028.55 184.62,-2019.02 182.28,-2029.35 189.24,-2028.55"/>
</g>
<!-- 6cc91203&#45;d355&#45;4808&#45;b76e&#45;ba5f27eb798a -->
<g id="node11" class="node">
<title>6cc91203&#45;d355&#45;4808&#45;b76e&#45;ba5f27eb798a</title>
<polygon fill="none" stroke="black" points="239,-1892 120,-1892 120,-1773 239,-1773 239,-1892"/>
<text text-anchor="middle" x="179.5" y="-1824" font-family="Arial Unicode MS" font-size="10.00">ExecutableConstruct </text>
</g>
<!-- 57acd3ec&#45;ce4f&#45;47bc&#45;8da7&#45;9767a256afa7&#45;&gt;6cc91203&#45;d355&#45;4808&#45;b76e&#45;ba5f27eb798a -->
<g id="edge10" class="edge">
<title>57acd3ec&#45;ce4f&#45;47bc&#45;8da7&#45;9767a256afa7&#45;&gt;6cc91203&#45;d355&#45;4808&#45;b76e&#45;ba5f27eb798a</title>
<path fill="none" stroke="black" d="M179.5,-1927.75C179.5,-1919.6 179.5,-1910.92 179.5,-1902.25"/>
<polygon fill="black" stroke="black" points="183,-1902.12 179.5,-1892.12 176,-1902.12 183,-1902.12"/>
</g>
<!-- 2c4a1a08&#45;abeb&#45;492a&#45;8dd8&#45;273806eaf1f2 -->
<g id="node12" class="node">
<title>2c4a1a08&#45;abeb&#45;492a&#45;8dd8&#45;273806eaf1f2</title>
<polygon fill="none" stroke="black" points="216.5,-1737 142.5,-1737 142.5,-1663 216.5,-1663 216.5,-1737"/>
<text text-anchor="middle" x="179.5" y="-1691.5" font-family="Arial Unicode MS" font-size="10.00">ActionStmt </text>
</g>
<!-- 6cc91203&#45;d355&#45;4808&#45;b76e&#45;ba5f27eb798a&#45;&gt;2c4a1a08&#45;abeb&#45;492a&#45;8dd8&#45;273806eaf1f2 -->
<g id="edge11" class="edge">
<title>6cc91203&#45;d355&#45;4808&#45;b76e&#45;ba5f27eb798a&#45;&gt;2c4a1a08&#45;abeb&#45;492a&#45;8dd8&#45;273806eaf1f2</title>
<path fill="none" stroke="black" d="M179.5,-1772.74C179.5,-1764.18 179.5,-1755.46 179.5,-1747.2"/>
<polygon fill="black" stroke="black" points="183,-1747.01 179.5,-1737.01 176,-1747.01 183,-1747.01"/>
</g>
<!-- e11abb07&#45;1cb9&#45;45d1&#45;a72d&#45;5bc2da4c5c95 -->
<g id="node13" class="node">
<title>e11abb07&#45;1cb9&#45;45d1&#45;a72d&#45;5bc2da4c5c95</title>
<polygon fill="none" stroke="black" points="212,-1627 147,-1627 147,-1562 212,-1562 212,-1627"/>
<text text-anchor="middle" x="179.5" y="-1586" font-family="Arial Unicode MS" font-size="10.00">PrintStmt </text>
</g>
<!-- 2c4a1a08&#45;abeb&#45;492a&#45;8dd8&#45;273806eaf1f2&#45;&gt;e11abb07&#45;1cb9&#45;45d1&#45;a72d&#45;5bc2da4c5c95 -->
<g id="edge12" class="edge">
<title>2c4a1a08&#45;abeb&#45;492a&#45;8dd8&#45;273806eaf1f2&#45;&gt;e11abb07&#45;1cb9&#45;45d1&#45;a72d&#45;5bc2da4c5c95</title>
<path fill="none" stroke="black" d="M179.5,-1662.8C179.5,-1654.51 179.5,-1645.64 179.5,-1637.14"/>
<polygon fill="black" stroke="black" points="183,-1637.03 179.5,-1627.03 176,-1637.03 183,-1637.03"/>
</g>
<!-- eee68932&#45;d747&#45;4a09&#45;b70e&#45;e7ce25fb354e -->
<g id="node14" class="node">
<title>eee68932&#45;d747&#45;4a09&#45;b70e&#45;e7ce25fb354e</title>
<polygon fill="none" stroke="black" points="70.5,-1498 28.5,-1498 28.5,-1456 70.5,-1456 70.5,-1498"/>
<text text-anchor="middle" x="49.5" y="-1468.5" font-family="Arial Unicode MS" font-size="10.00">print </text>
</g>
<!-- e11abb07&#45;1cb9&#45;45d1&#45;a72d&#45;5bc2da4c5c95&#45;&gt;eee68932&#45;d747&#45;4a09&#45;b70e&#45;e7ce25fb354e -->
<g id="edge13" class="edge">
<title>e11abb07&#45;1cb9&#45;45d1&#45;a72d&#45;5bc2da4c5c95&#45;&gt;eee68932&#45;d747&#45;4a09&#45;b70e&#45;e7ce25fb354e</title>
<path fill="none" stroke="black" d="M146.76,-1576.15C125.88,-1564 99.14,-1546.34 79.5,-1526 74.06,-1520.36 69.09,-1513.58 64.84,-1506.91"/>
<polygon fill="black" stroke="black" points="67.64,-1504.78 59.5,-1498.01 61.64,-1508.38 67.64,-1504.78"/>
</g>
<!-- f623711d&#45;449e&#45;4fba&#45;9e32&#45;8b76a225e943 -->
<g id="node15" class="node">
<title>f623711d&#45;449e&#45;4fba&#45;9e32&#45;8b76a225e943</title>
<polygon fill="none" stroke="black" points="186.5,-1526 88.5,-1526 88.5,-1428 186.5,-1428 186.5,-1526"/>
<text text-anchor="middle" x="137.5" y="-1468.5" font-family="Arial Unicode MS" font-size="10.00">FormatIdentifier </text>
</g>
<!-- e11abb07&#45;1cb9&#45;45d1&#45;a72d&#45;5bc2da4c5c95&#45;&gt;f623711d&#45;449e&#45;4fba&#45;9e32&#45;8b76a225e943 -->
<g id="edge14" class="edge">
<title>e11abb07&#45;1cb9&#45;45d1&#45;a72d&#45;5bc2da4c5c95&#45;&gt;f623711d&#45;449e&#45;4fba&#45;9e32&#45;8b76a225e943</title>
<path fill="none" stroke="black" d="M168.02,-1561.94C165.1,-1553.89 161.86,-1544.99 158.62,-1536.08"/>
<polygon fill="black" stroke="black" points="161.82,-1534.64 155.11,-1526.44 155.24,-1537.03 161.82,-1534.64"/>
</g>
<!-- 727439b9&#45;f70c&#45;4ea5&#45;bbf5&#45;997afc2d70e3 -->
<g id="node17" class="node">
<title>727439b9&#45;f70c&#45;4ea5&#45;bbf5&#45;997afc2d70e3</title>
<polygon fill="none" stroke="black" points="240.5,-1495 204.5,-1495 204.5,-1459 240.5,-1459 240.5,-1495"/>
<text text-anchor="middle" x="222.5" y="-1468.5" font-family="Arial Unicode MS" font-size="10.00">, </text>
</g>
<!-- e11abb07&#45;1cb9&#45;45d1&#45;a72d&#45;5bc2da4c5c95&#45;&gt;727439b9&#45;f70c&#45;4ea5&#45;bbf5&#45;997afc2d70e3 -->
<g id="edge16" class="edge">
<title>e11abb07&#45;1cb9&#45;45d1&#45;a72d&#45;5bc2da4c5c95&#45;&gt;727439b9&#45;f70c&#45;4ea5&#45;bbf5&#45;997afc2d70e3</title>
<path fill="none" stroke="black" d="M191.25,-1561.94C197.94,-1543.96 206.24,-1521.69 212.6,-1504.6"/>
<polygon fill="black" stroke="black" points="215.88,-1505.81 216.09,-1495.21 209.32,-1503.36 215.88,-1505.81"/>
</g>
<!-- 6494e515&#45;3587&#45;40f1&#45;8c2b&#45;98a16e22922e -->
<g id="node18" class="node">
<title>6494e515&#45;3587&#45;40f1&#45;8c2b&#45;98a16e22922e</title>
<polygon fill="none" stroke="black" points="350.5,-1523 258.5,-1523 258.5,-1431 350.5,-1431 350.5,-1523"/>
<text text-anchor="middle" x="304.5" y="-1468.5" font-family="Arial Unicode MS" font-size="10.00">OutputItemList </text>
</g>
<!-- e11abb07&#45;1cb9&#45;45d1&#45;a72d&#45;5bc2da4c5c95&#45;&gt;6494e515&#45;3587&#45;40f1&#45;8c2b&#45;98a16e22922e -->
<g id="edge17" class="edge">
<title>e11abb07&#45;1cb9&#45;45d1&#45;a72d&#45;5bc2da4c5c95&#45;&gt;6494e515&#45;3587&#45;40f1&#45;8c2b&#45;98a16e22922e</title>
<path fill="none" stroke="black" d="M212.02,-1563.46C223.75,-1552.62 237.33,-1540.07 250.4,-1527.99"/>
<polygon fill="black" stroke="black" points="253.06,-1530.3 258.03,-1520.94 248.31,-1525.16 253.06,-1530.3"/>
</g>
<!-- 2a94f92c&#45;0fc7&#45;4527&#45;b794&#45;c25cffc118c1 -->
<g id="node16" class="node">
<title>2a94f92c&#45;0fc7&#45;4527&#45;b794&#45;c25cffc118c1</title>
<polygon fill="none" stroke="black" points="155.5,-1373.5 119.5,-1373.5 119.5,-1337.5 155.5,-1337.5 155.5,-1373.5"/>
<text text-anchor="middle" x="137.5" y="-1347" font-family="Arial Unicode MS" font-size="10.00">* </text>
</g>
<!-- f623711d&#45;449e&#45;4fba&#45;9e32&#45;8b76a225e943&#45;&gt;2a94f92c&#45;0fc7&#45;4527&#45;b794&#45;c25cffc118c1 -->
<g id="edge15" class="edge">
<title>f623711d&#45;449e&#45;4fba&#45;9e32&#45;8b76a225e943&#45;&gt;2a94f92c&#45;0fc7&#45;4527&#45;b794&#45;c25cffc118c1</title>
<path fill="none" stroke="black" d="M137.5,-1427.74C137.5,-1412.76 137.5,-1396.78 137.5,-1383.76"/>
<polygon fill="black" stroke="black" points="141,-1383.6 137.5,-1373.6 134,-1383.6 141,-1383.6"/>
</g>
<!-- 2247a53c&#45;b677&#45;411b&#45;a8a7&#45;a1d26a822145 -->
<g id="node19" class="node">
<title>2247a53c&#45;b677&#45;411b&#45;a8a7&#45;a1d26a822145</title>
<polygon fill="none" stroke="black" points="341,-1392 268,-1392 268,-1319 341,-1319 341,-1392"/>
<text text-anchor="middle" x="304.5" y="-1347" font-family="Arial Unicode MS" font-size="10.00">Expression </text>
</g>
<!-- 6494e515&#45;3587&#45;40f1&#45;8c2b&#45;98a16e22922e&#45;&gt;2247a53c&#45;b677&#45;411b&#45;a8a7&#45;a1d26a822145 -->
<g id="edge18" class="edge">
<title>6494e515&#45;3587&#45;40f1&#45;8c2b&#45;98a16e22922e&#45;&gt;2247a53c&#45;b677&#45;411b&#45;a8a7&#45;a1d26a822145</title>
<path fill="none" stroke="black" d="M304.5,-1430.82C304.5,-1421.51 304.5,-1411.69 304.5,-1402.35"/>
<polygon fill="black" stroke="black" points="308,-1402.06 304.5,-1392.06 301,-1402.06 308,-1402.06"/>
</g>
<!-- ab56c69e&#45;c4b4&#45;4fe5&#45;8b0c&#45;e5575635fb03 -->
<g id="node20" class="node">
<title>ab56c69e&#45;c4b4&#45;4fe5&#45;8b0c&#45;e5575635fb03</title>
<polygon fill="none" stroke="black" points="341.5,-1283 267.5,-1283 267.5,-1209 341.5,-1209 341.5,-1283"/>
<text text-anchor="middle" x="304.5" y="-1237.5" font-family="Arial Unicode MS" font-size="10.00">Level5Expr </text>
</g>
<!-- 2247a53c&#45;b677&#45;411b&#45;a8a7&#45;a1d26a822145&#45;&gt;ab56c69e&#45;c4b4&#45;4fe5&#45;8b0c&#45;e5575635fb03 -->
<g id="edge19" class="edge">
<title>2247a53c&#45;b677&#45;411b&#45;a8a7&#45;a1d26a822145&#45;&gt;ab56c69e&#45;c4b4&#45;4fe5&#45;8b0c&#45;e5575635fb03</title>
<path fill="none" stroke="black" d="M304.5,-1318.7C304.5,-1310.54 304.5,-1301.75 304.5,-1293.22"/>
<polygon fill="black" stroke="black" points="308,-1293.01 304.5,-1283.01 301,-1293.01 308,-1293.01"/>
</g>
<!-- 8691e0cb&#45;ff9c&#45;4433&#45;ab0f&#45;437442ff0d2f -->
<g id="node21" class="node">
<title>8691e0cb&#45;ff9c&#45;4433&#45;ab0f&#45;437442ff0d2f</title>
<polygon fill="none" stroke="black" points="348.5,-1173 260.5,-1173 260.5,-1085 348.5,-1085 348.5,-1173"/>
<text text-anchor="middle" x="304.5" y="-1120.5" font-family="Arial Unicode MS" font-size="10.00">EquivOperand </text>
</g>
<!-- ab56c69e&#45;c4b4&#45;4fe5&#45;8b0c&#45;e5575635fb03&#45;&gt;8691e0cb&#45;ff9c&#45;4433&#45;ab0f&#45;437442ff0d2f -->
<g id="edge20" class="edge">
<title>ab56c69e&#45;c4b4&#45;4fe5&#45;8b0c&#45;e5575635fb03&#45;&gt;8691e0cb&#45;ff9c&#45;4433&#45;ab0f&#45;437442ff0d2f</title>
<path fill="none" stroke="black" d="M304.5,-1208.93C304.5,-1200.79 304.5,-1191.97 304.5,-1183.29"/>
<polygon fill="black" stroke="black" points="308,-1183.2 304.5,-1173.2 301,-1183.2 308,-1183.2"/>
</g>
<!-- 79d6fba2&#45;7eae&#45;4342&#45;a95b&#45;ffdeadef986d -->
<g id="node22" class="node">
<title>79d6fba2&#45;7eae&#45;4342&#45;a95b&#45;ffdeadef986d</title>
<polygon fill="none" stroke="black" points="340.5,-1049 268.5,-1049 268.5,-977 340.5,-977 340.5,-1049"/>
<text text-anchor="middle" x="304.5" y="-1004.5" font-family="Arial Unicode MS" font-size="10.00">OrOperand </text>
</g>
<!-- 8691e0cb&#45;ff9c&#45;4433&#45;ab0f&#45;437442ff0d2f&#45;&gt;79d6fba2&#45;7eae&#45;4342&#45;a95b&#45;ffdeadef986d -->
<g id="edge21" class="edge">
<title>8691e0cb&#45;ff9c&#45;4433&#45;ab0f&#45;437442ff0d2f&#45;&gt;79d6fba2&#45;7eae&#45;4342&#45;a95b&#45;ffdeadef986d</title>
<path fill="none" stroke="black" d="M304.5,-1084.9C304.5,-1076.47 304.5,-1067.62 304.5,-1059.12"/>
<polygon fill="black" stroke="black" points="308,-1059 304.5,-1049 301,-1059 308,-1059"/>
</g>
<!-- 6f596465&#45;9dd2&#45;4baf&#45;be96&#45;9e236eb36478 -->
<g id="node23" class="node">
<title>6f596465&#45;9dd2&#45;4baf&#45;be96&#45;9e236eb36478</title>
<polygon fill="none" stroke="black" points="344.5,-941 264.5,-941 264.5,-861 344.5,-861 344.5,-941"/>
<text text-anchor="middle" x="304.5" y="-892.5" font-family="Arial Unicode MS" font-size="10.00">AndOperand </text>
</g>
<!-- 79d6fba2&#45;7eae&#45;4342&#45;a95b&#45;ffdeadef986d&#45;&gt;6f596465&#45;9dd2&#45;4baf&#45;be96&#45;9e236eb36478 -->
<g id="edge22" class="edge">
<title>79d6fba2&#45;7eae&#45;4342&#45;a95b&#45;ffdeadef986d&#45;&gt;6f596465&#45;9dd2&#45;4baf&#45;be96&#45;9e236eb36478</title>
<path fill="none" stroke="black" d="M304.5,-976.89C304.5,-968.85 304.5,-960.14 304.5,-951.62"/>
<polygon fill="black" stroke="black" points="308,-951.36 304.5,-941.36 301,-951.36 308,-951.36"/>
</g>
<!-- a8145401&#45;64f5&#45;4cfb&#45;bd2c&#45;446f32c19dcc -->
<g id="node24" class="node">
<title>a8145401&#45;64f5&#45;4cfb&#45;bd2c&#45;446f32c19dcc</title>
<polygon fill="none" stroke="black" points="341.5,-825 267.5,-825 267.5,-751 341.5,-751 341.5,-825"/>
<text text-anchor="middle" x="304.5" y="-779.5" font-family="Arial Unicode MS" font-size="10.00">Level4Expr </text>
</g>
<!-- 6f596465&#45;9dd2&#45;4baf&#45;be96&#45;9e236eb36478&#45;&gt;a8145401&#45;64f5&#45;4cfb&#45;bd2c&#45;446f32c19dcc -->
<g id="edge23" class="edge">
<title>6f596465&#45;9dd2&#45;4baf&#45;be96&#45;9e236eb36478&#45;&gt;a8145401&#45;64f5&#45;4cfb&#45;bd2c&#45;446f32c19dcc</title>
<path fill="none" stroke="black" d="M304.5,-860.87C304.5,-852.61 304.5,-843.83 304.5,-835.34"/>
<polygon fill="black" stroke="black" points="308,-835.18 304.5,-825.18 301,-835.18 308,-835.18"/>
</g>
<!-- e5717c93&#45;09ad&#45;44b6&#45;844a&#45;04aff9b76292 -->
<g id="node25" class="node">
<title>e5717c93&#45;09ad&#45;44b6&#45;844a&#45;04aff9b76292</title>
<polygon fill="none" stroke="black" points="341.5,-715 267.5,-715 267.5,-641 341.5,-641 341.5,-715"/>
<text text-anchor="middle" x="304.5" y="-669.5" font-family="Arial Unicode MS" font-size="10.00">Level3Expr </text>
</g>
<!-- a8145401&#45;64f5&#45;4cfb&#45;bd2c&#45;446f32c19dcc&#45;&gt;e5717c93&#45;09ad&#45;44b6&#45;844a&#45;04aff9b76292 -->
<g id="edge24" class="edge">
<title>a8145401&#45;64f5&#45;4cfb&#45;bd2c&#45;446f32c19dcc&#45;&gt;e5717c93&#45;09ad&#45;44b6&#45;844a&#45;04aff9b76292</title>
<path fill="none" stroke="black" d="M304.5,-750.74C304.5,-742.63 304.5,-733.93 304.5,-725.48"/>
<polygon fill="black" stroke="black" points="308,-725.35 304.5,-715.35 301,-725.35 308,-725.35"/>
</g>
<!-- 32731b16&#45;a603&#45;4f1b&#45;bfdf&#45;03e9d9350b72 -->
<g id="node26" class="node">
<title>32731b16&#45;a603&#45;4f1b&#45;bfdf&#45;03e9d9350b72</title>
<polygon fill="none" stroke="black" points="341.5,-605 267.5,-605 267.5,-531 341.5,-531 341.5,-605"/>
<text text-anchor="middle" x="304.5" y="-559.5" font-family="Arial Unicode MS" font-size="10.00">Level2Expr </text>
</g>
<!-- e5717c93&#45;09ad&#45;44b6&#45;844a&#45;04aff9b76292&#45;&gt;32731b16&#45;a603&#45;4f1b&#45;bfdf&#45;03e9d9350b72 -->
<g id="edge25" class="edge">
<title>e5717c93&#45;09ad&#45;44b6&#45;844a&#45;04aff9b76292&#45;&gt;32731b16&#45;a603&#45;4f1b&#45;bfdf&#45;03e9d9350b72</title>
<path fill="none" stroke="black" d="M304.5,-640.74C304.5,-632.63 304.5,-623.93 304.5,-615.48"/>
<polygon fill="black" stroke="black" points="308,-615.35 304.5,-605.35 301,-615.35 308,-615.35"/>
</g>
<!-- b8e57617&#45;8110&#45;43f9&#45;8ab5&#45;7effac2f2016 -->
<g id="node27" class="node">
<title>b8e57617&#45;8110&#45;43f9&#45;8ab5&#45;7effac2f2016</title>
<polygon fill="none" stroke="black" points="344.5,-495 264.5,-495 264.5,-415 344.5,-415 344.5,-495"/>
<text text-anchor="middle" x="304.5" y="-446.5" font-family="Arial Unicode MS" font-size="10.00">AddOperand </text>
</g>
<!-- 32731b16&#45;a603&#45;4f1b&#45;bfdf&#45;03e9d9350b72&#45;&gt;b8e57617&#45;8110&#45;43f9&#45;8ab5&#45;7effac2f2016 -->
<g id="edge26" class="edge">
<title>32731b16&#45;a603&#45;4f1b&#45;bfdf&#45;03e9d9350b72&#45;&gt;b8e57617&#45;8110&#45;43f9&#45;8ab5&#45;7effac2f2016</title>
<path fill="none" stroke="black" d="M304.5,-530.96C304.5,-522.86 304.5,-514.13 304.5,-505.58"/>
<polygon fill="black" stroke="black" points="308,-505.31 304.5,-495.31 301,-505.31 308,-505.31"/>
</g>
<!-- 042a2cff&#45;8362&#45;486a&#45;89db&#45;db711ecab83b -->
<g id="node28" class="node">
<title>042a2cff&#45;8362&#45;486a&#45;89db&#45;db711ecab83b</title>
<polygon fill="none" stroke="black" points="346,-379 263,-379 263,-296 346,-296 346,-379"/>
<text text-anchor="middle" x="304.5" y="-329" font-family="Arial Unicode MS" font-size="10.00">MultOperand </text>
</g>
<!-- b8e57617&#45;8110&#45;43f9&#45;8ab5&#45;7effac2f2016&#45;&gt;042a2cff&#45;8362&#45;486a&#45;89db&#45;db711ecab83b -->
<g id="edge27" class="edge">
<title>b8e57617&#45;8110&#45;43f9&#45;8ab5&#45;7effac2f2016&#45;&gt;042a2cff&#45;8362&#45;486a&#45;89db&#45;db711ecab83b</title>
<path fill="none" stroke="black" d="M304.5,-414.9C304.5,-406.71 304.5,-397.96 304.5,-389.41"/>
<polygon fill="black" stroke="black" points="308,-389.14 304.5,-379.14 301,-389.14 308,-389.14"/>
</g>
<!-- 83aa3831&#45;96e4&#45;4cb7&#45;899a&#45;5af183fb8779 -->
<g id="node29" class="node">
<title>83aa3831&#45;96e4&#45;4cb7&#45;899a&#45;5af183fb8779</title>
<polygon fill="none" stroke="black" points="341.5,-260 267.5,-260 267.5,-186 341.5,-186 341.5,-260"/>
<text text-anchor="middle" x="304.5" y="-214.5" font-family="Arial Unicode MS" font-size="10.00">Level1Expr </text>
</g>
<!-- 042a2cff&#45;8362&#45;486a&#45;89db&#45;db711ecab83b&#45;&gt;83aa3831&#45;96e4&#45;4cb7&#45;899a&#45;5af183fb8779 -->
<g id="edge28" class="edge">
<title>042a2cff&#45;8362&#45;486a&#45;89db&#45;db711ecab83b&#45;&gt;83aa3831&#45;96e4&#45;4cb7&#45;899a&#45;5af183fb8779</title>
<path fill="none" stroke="black" d="M304.5,-295.88C304.5,-287.56 304.5,-278.74 304.5,-270.24"/>
<polygon fill="black" stroke="black" points="308,-270.08 304.5,-260.08 301,-270.08 308,-270.08"/>
</g>
<!-- 0271c24f&#45;42ee&#45;42a5&#45;b789&#45;2afa5d89cc93 -->
<g id="node30" class="node">
<title>0271c24f&#45;42ee&#45;42a5&#45;b789&#45;2afa5d89cc93</title>
<polygon fill="none" stroke="black" points="333.5,-150 275.5,-150 275.5,-92 333.5,-92 333.5,-150"/>
<text text-anchor="middle" x="304.5" y="-112.5" font-family="Arial Unicode MS" font-size="10.00">Primary </text>
</g>
<!-- 83aa3831&#45;96e4&#45;4cb7&#45;899a&#45;5af183fb8779&#45;&gt;0271c24f&#45;42ee&#45;42a5&#45;b789&#45;2afa5d89cc93 -->
<g id="edge29" class="edge">
<title>83aa3831&#45;96e4&#45;4cb7&#45;899a&#45;5af183fb8779&#45;&gt;0271c24f&#45;42ee&#45;42a5&#45;b789&#45;2afa5d89cc93</title>
<path fill="none" stroke="black" d="M304.5,-185.9C304.5,-177.64 304.5,-168.83 304.5,-160.47"/>
<polygon fill="black" stroke="black" points="308,-160.2 304.5,-150.2 301,-160.21 308,-160.2"/>
</g>
<!-- dbdc9005&#45;7397&#45;464c&#45;82b8&#45;9d622f2d58ea -->
<g id="node31" class="node">
<title>dbdc9005&#45;7397&#45;464c&#45;82b8&#45;9d622f2d58ea</title>
<polygon fill="none" stroke="black" points="332.5,-56 276.5,-56 276.5,0 332.5,0 332.5,-56"/>
<text text-anchor="middle" x="304.5" y="-19.5" font-family="Arial Unicode MS" font-size="10.00">STRING </text>
</g>
<!-- 0271c24f&#45;42ee&#45;42a5&#45;b789&#45;2afa5d89cc93&#45;&gt;dbdc9005&#45;7397&#45;464c&#45;82b8&#45;9d622f2d58ea -->
<g id="edge30" class="edge">
<title>0271c24f&#45;42ee&#45;42a5&#45;b789&#45;2afa5d89cc93&#45;&gt;dbdc9005&#45;7397&#45;464c&#45;82b8&#45;9d622f2d58ea</title>
<path fill="none" stroke="black" d="M304.5,-91.71C304.5,-83.62 304.5,-74.68 304.5,-66.15"/>
<polygon fill="black" stroke="black" points="308,-66.03 304.5,-56.03 301,-66.03 308,-66.03"/>
</g>
<!-- a2fb285f&#45;1bbe&#45;467c&#45;9f93&#45;13866136453f -->
<g id="node33" class="node">
<title>a2fb285f&#45;1bbe&#45;467c&#45;9f93&#45;13866136453f</title>
<polygon fill="none" stroke="black" points="281.5,-1992.5 243.5,-1992.5 243.5,-1954.5 281.5,-1954.5 281.5,-1992.5"/>
<text text-anchor="middle" x="262.5" y="-1965" font-family="Arial Unicode MS" font-size="10.00">end </text>
</g>
<!-- 34934c5f&#45;dc7d&#45;4c0b&#45;a36c&#45;631862b7cd0f&#45;&gt;a2fb285f&#45;1bbe&#45;467c&#45;9f93&#45;13866136453f -->
<g id="edge32" class="edge">
<title>34934c5f&#45;dc7d&#45;4c0b&#45;a36c&#45;631862b7cd0f&#45;&gt;a2fb285f&#45;1bbe&#45;467c&#45;9f93&#45;13866136453f</title>
<path fill="none" stroke="black" d="M295.16,-2054.92C287.88,-2036.99 279.94,-2017.45 273.72,-2002.12"/>
<polygon fill="black" stroke="black" points="276.9,-2000.66 269.9,-1992.71 270.42,-2003.3 276.9,-2000.66"/>
</g>
<!-- cea4c67c&#45;7572&#45;4f49&#45;9d56&#45;cf8243269370 -->
<g id="node34" class="node">
<title>cea4c67c&#45;7572&#45;4f49&#45;9d56&#45;cf8243269370</title>
<polygon fill="none" stroke="black" points="361,-2004 300,-2004 300,-1943 361,-1943 361,-2004"/>
<text text-anchor="middle" x="330.5" y="-1965" font-family="Arial Unicode MS" font-size="10.00">program </text>
</g>
<!-- 34934c5f&#45;dc7d&#45;4c0b&#45;a36c&#45;631862b7cd0f&#45;&gt;cea4c67c&#45;7572&#45;4f49&#45;9d56&#45;cf8243269370 -->
<g id="edge33" class="edge">
<title>34934c5f&#45;dc7d&#45;4c0b&#45;a36c&#45;631862b7cd0f&#45;&gt;cea4c67c&#45;7572&#45;4f49&#45;9d56&#45;cf8243269370</title>
<path fill="none" stroke="black" d="M321.26,-2054.92C322.79,-2041.55 324.43,-2027.29 325.9,-2014.54"/>
<polygon fill="black" stroke="black" points="329.42,-2014.58 327.08,-2004.25 322.46,-2013.78 329.42,-2014.58"/>
</g>
<!-- 7da06883&#45;40af&#45;43d9&#45;afb9&#45;a4c8550d9c98 -->
<g id="node35" class="node">
<title>7da06883&#45;40af&#45;43d9&#45;afb9&#45;a4c8550d9c98</title>
<polygon fill="none" stroke="black" points="441.5,-2004.5 379.5,-2004.5 379.5,-1942.5 441.5,-1942.5 441.5,-2004.5"/>
<text text-anchor="middle" x="410.5" y="-1965" font-family="Arial Unicode MS" font-size="10.00">goodbye </text>
</g>
<!-- 34934c5f&#45;dc7d&#45;4c0b&#45;a36c&#45;631862b7cd0f&#45;&gt;7da06883&#45;40af&#45;43d9&#45;afb9&#45;a4c8550d9c98 -->
<g id="edge34" class="edge">
<title>34934c5f&#45;dc7d&#45;4c0b&#45;a36c&#45;631862b7cd0f&#45;&gt;7da06883&#45;40af&#45;43d9&#45;afb9&#45;a4c8550d9c98</title>
<path fill="none" stroke="black" d="M351.96,-2054.92C362.09,-2041 372.93,-2026.11 382.49,-2012.98"/>
<polygon fill="black" stroke="black" points="385.52,-2014.77 388.57,-2004.62 379.86,-2010.65 385.52,-2014.77"/>
</g>
</g>
</svg>
