<?xml version="1.0" encoding="UTF-8" standalone="no"?>
<!DOCTYPE svg PUBLIC "-//W3C//DTD SVG 1.1//EN"
 "http://www.w3.org/Graphics/SVG/1.1/DTD/svg11.dtd">
<!-- Generated by graphviz version 2.43.0 (0)
 -->
<!-- Title: G Pages: 1 -->
<svg width="448pt" height="575pt"
 viewBox="0.00 0.00 448.00 575.00" xmlns="http://www.w3.org/2000/svg" xmlns:xlink="http://www.w3.org/1999/xlink">
<g id="graph0" class="graph" transform="scale(1 1) rotate(0) translate(4 571)">
<title>G</title>
<polygon fill="white" stroke="transparent" points="-4,4 -4,-571 444,-571 444,4 -4,4"/>
<!-- 652c4b05&#45;fcde&#45;438c&#45;b7bb&#45;502107b877d7 -->
<g id="node1" class="node">
<title>652c4b05&#45;fcde&#45;438c&#45;b7bb&#45;502107b877d7</title>
<polygon fill="none" stroke="black" points="177.5,-567 116.5,-567 116.5,-506 177.5,-506 177.5,-567"/>
<text text-anchor="middle" x="147" y="-528" font-family="Arial Unicode MS" font-size="10.00">Program </text>
</g>
<!-- 5e27c42d&#45;270c&#45;4d1b&#45;b510&#45;9b88a5999756 -->
<g id="node2" class="node">
<title>5e27c42d&#45;270c&#45;4d1b&#45;b510&#45;9b88a5999756</title>
<polygon fill="none" stroke="black" points="153,-470 39,-470 39,-356 153,-356 153,-470"/>
<text text-anchor="middle" x="96" y="-404.5" font-family="Arial Unicode MS" font-size="10.00">ExecutableProgram </text>
</g>
<!-- 652c4b05&#45;fcde&#45;438c&#45;b7bb&#45;502107b877d7&#45;&gt;5e27c42d&#45;270c&#45;4d1b&#45;b510&#45;9b88a5999756 -->
<g id="edge1" class="edge">
<title>652c4b05&#45;fcde&#45;438c&#45;b7bb&#45;502107b877d7&#45;&gt;5e27c42d&#45;270c&#45;4d1b&#45;b510&#45;9b88a5999756</title>
<path fill="none" stroke="black" d="M134.52,-505.78C131.2,-497.85 127.47,-488.96 123.67,-479.92"/>
<polygon fill="black" stroke="black" points="126.8,-478.34 119.71,-470.48 120.35,-481.05 126.8,-478.34"/>
</g>
<!-- 95ab8158&#45;106b&#45;4922&#45;9fa8&#45;d25f4ba87acc -->
<g id="node15" class="node">
<title>95ab8158&#45;106b&#45;4922&#45;9fa8&#45;d25f4ba87acc</title>
<polygon fill="none" stroke="black" points="227,-441 171,-441 171,-385 227,-385 227,-441"/>
<text text-anchor="middle" x="199" y="-404.5" font-family="Arial Unicode MS" font-size="10.00">&lt;EOF&gt; </text>
</g>
<!-- 652c4b05&#45;fcde&#45;438c&#45;b7bb&#45;502107b877d7&#45;&gt;95ab8158&#45;106b&#45;4922&#45;9fa8&#45;d25f4ba87acc -->
<g id="edge14" class="edge">
<title>652c4b05&#45;fcde&#45;438c&#45;b7bb&#45;502107b877d7&#45;&gt;95ab8158&#45;106b&#45;4922&#45;9fa8&#45;d25f4ba87acc</title>
<path fill="none" stroke="black" d="M159.72,-505.78C166.82,-489.18 175.74,-468.36 183.27,-450.75"/>
<polygon fill="black" stroke="black" points="186.58,-451.91 187.3,-441.34 180.15,-449.15 186.58,-451.91"/>
</g>
<!-- e6df988d&#45;8932&#45;4b0e&#45;893f&#45;9eba8f5acc69 -->
<g id="node3" class="node">
<title>e6df988d&#45;8932&#45;4b0e&#45;893f&#45;9eba8f5acc69</title>
<polygon fill="none" stroke="black" points="90,-320 6,-320 6,-236 90,-236 90,-320"/>
<text text-anchor="middle" x="48" y="-269.5" font-family="Arial Unicode MS" font-size="10.00">ProgramStmt </text>
</g>
<!-- 5e27c42d&#45;270c&#45;4d1b&#45;b510&#45;9b88a5999756&#45;&gt;e6df988d&#45;8932&#45;4b0e&#45;893f&#45;9eba8f5acc69 -->
<g id="edge2" class="edge">
<title>5e27c42d&#45;270c&#45;4d1b&#45;b510&#45;9b88a5999756&#45;&gt;e6df988d&#45;8932&#45;4b0e&#45;893f&#45;9eba8f5acc69</title>
<path fill="none" stroke="black" d="M75.78,-355.98C72.62,-347.21 69.36,-338.19 66.25,-329.56"/>
<polygon fill="black" stroke="black" points="69.48,-328.22 62.8,-320 62.9,-330.6 69.48,-328.22"/>
</g>
<!-- 8c18257a&#45;3a5c&#45;403e&#45;88b9&#45;0f9f27d3007b -->
<g id="node5" class="node">
<title>8c18257a&#45;3a5c&#45;403e&#45;88b9&#45;0f9f27d3007b</title>
<polygon fill="none" stroke="black" points="182,-315 108,-315 108,-241 182,-241 182,-315"/>
<text text-anchor="middle" x="145" y="-269.5" font-family="Arial Unicode MS" font-size="10.00">MainRange </text>
</g>
<!-- 5e27c42d&#45;270c&#45;4d1b&#45;b510&#45;9b88a5999756&#45;&gt;8c18257a&#45;3a5c&#45;403e&#45;88b9&#45;0f9f27d3007b -->
<g id="edge4" class="edge">
<title>5e27c42d&#45;270c&#45;4d1b&#45;b510&#45;9b88a5999756&#45;&gt;8c18257a&#45;3a5c&#45;403e&#45;88b9&#45;0f9f27d3007b</title>
<path fill="none" stroke="black" d="M116.64,-355.98C120.48,-345.54 124.46,-334.75 128.17,-324.67"/>
<polygon fill="black" stroke="black" points="131.47,-325.86 131.64,-315.26 124.9,-323.44 131.47,-325.86"/>
</g>
<!-- 4a82bb3c&#45;be67&#45;4b70&#45;9aec&#45;d74c09921855 -->
<g id="node4" class="node">
<title>4a82bb3c&#45;be67&#45;4b70&#45;9aec&#45;d74c09921855</title>
<polygon fill="none" stroke="black" points="79,-180 17,-180 17,-118 79,-118 79,-180"/>
<text text-anchor="middle" x="48" y="-140.5" font-family="Arial Unicode MS" font-size="10.00">goodbye </text>
</g>
<!-- e6df988d&#45;8932&#45;4b0e&#45;893f&#45;9eba8f5acc69&#45;&gt;4a82bb3c&#45;be67&#45;4b70&#45;9aec&#45;d74c09921855 -->
<g id="edge3" class="edge">
<title>e6df988d&#45;8932&#45;4b0e&#45;893f&#45;9eba8f5acc69&#45;&gt;4a82bb3c&#45;be67&#45;4b70&#45;9aec&#45;d74c09921855</title>
<path fill="none" stroke="black" d="M48,-235.77C48,-221.2 48,-204.83 48,-190.34"/>
<polygon fill="black" stroke="black" points="51.5,-190.17 48,-180.17 44.5,-190.17 51.5,-190.17"/>
</g>
<!-- 4a860164&#45;b5ee&#45;4f81&#45;9616&#45;a583b92a2776 -->
<g id="node6" class="node">
<title>4a860164&#45;b5ee&#45;4f81&#45;9616&#45;a583b92a2776</title>
<polygon fill="none" stroke="black" points="154,-171 110,-171 110,-127 154,-127 154,-171"/>
<text text-anchor="middle" x="132" y="-140.5" font-family="Arial Unicode MS" font-size="10.00">Body </text>
</g>
<!-- 8c18257a&#45;3a5c&#45;403e&#45;88b9&#45;0f9f27d3007b&#45;&gt;4a860164&#45;b5ee&#45;4f81&#45;9616&#45;a583b92a2776 -->
<g id="edge5" class="edge">
<title>8c18257a&#45;3a5c&#45;403e&#45;88b9&#45;0f9f27d3007b&#45;&gt;4a860164&#45;b5ee&#45;4f81&#45;9616&#45;a583b92a2776</title>
<path fill="none" stroke="black" d="M141.31,-240.95C139.38,-222.07 137.03,-199.18 135.18,-181.08"/>
<polygon fill="black" stroke="black" points="138.66,-180.64 134.15,-171.05 131.69,-181.36 138.66,-180.64"/>
</g>
<!-- 34934c5f&#45;dc7d&#45;4c0b&#45;a36c&#45;631862b7cd0f -->
<g id="node11" class="node">
<title>34934c5f&#45;dc7d&#45;4c0b&#45;a36c&#45;631862b7cd0f</title>
<polygon fill="none" stroke="black" points="346,-200 244,-200 244,-98 346,-98 346,-200"/>
<text text-anchor="middle" x="295" y="-140.5" font-family="Arial Unicode MS" font-size="10.00">EndProgramStmt </text>
</g>
<!-- 8c18257a&#45;3a5c&#45;403e&#45;88b9&#45;0f9f27d3007b&#45;&gt;34934c5f&#45;dc7d&#45;4c0b&#45;a36c&#45;631862b7cd0f -->
<g id="edge10" class="edge">
<title>8c18257a&#45;3a5c&#45;403e&#45;88b9&#45;0f9f27d3007b&#45;&gt;34934c5f&#45;dc7d&#45;4c0b&#45;a36c&#45;631862b7cd0f</title>
<path fill="none" stroke="black" d="M182.08,-245.61C198.4,-231.79 217.97,-215.22 236.2,-199.78"/>
<polygon fill="black" stroke="black" points="238.55,-202.38 243.92,-193.25 234.03,-197.04 238.55,-202.38"/>
</g>
<!-- eee68932&#45;d747&#45;4a09&#45;b70e&#45;e7ce25fb354e -->
<g id="node7" class="node">
<title>eee68932&#45;d747&#45;4a09&#45;b70e&#45;e7ce25fb354e</title>
<polygon fill="none" stroke="black" points="42,-52 0,-52 0,-10 42,-10 42,-52"/>
<text text-anchor="middle" x="21" y="-22.5" font-family="Arial Unicode MS" font-size="10.00">print </text>
</g>
<!-- 4a860164&#45;b5ee&#45;4f81&#45;9616&#45;a583b92a2776&#45;&gt;eee68932&#45;d747&#45;4a09&#45;b70e&#45;e7ce25fb354e -->
<g id="edge6" class="edge">
<title>4a860164&#45;b5ee&#45;4f81&#45;9616&#45;a583b92a2776&#45;&gt;eee68932&#45;d747&#45;4a09&#45;b70e&#45;e7ce25fb354e</title>
<path fill="none" stroke="black" d="M113.94,-126.75C106.12,-117.74 96.77,-107.22 88,-98 72.19,-81.38 67.33,-78.11 51,-62 50.09,-61.1 49.16,-60.18 48.22,-59.25"/>
<polygon fill="black" stroke="black" points="50.53,-56.62 40.97,-52.05 45.6,-61.58 50.53,-56.62"/>
</g>
<!-- f623711d&#45;449e&#45;4fba&#45;9e32&#45;8b76a225e943 -->
<g id="node8" class="node">
<title>f623711d&#45;449e&#45;4fba&#45;9e32&#45;8b76a225e943</title>
<polygon fill="none" stroke="black" points="96,-49 60,-49 60,-13 96,-13 96,-49"/>
<text text-anchor="middle" x="78" y="-22.5" font-family="Arial Unicode MS" font-size="10.00">* </text>
</g>
<!-- 4a860164&#45;b5ee&#45;4f81&#45;9616&#45;a583b92a2776&#45;&gt;f623711d&#45;449e&#45;4fba&#45;9e32&#45;8b76a225e943 -->
<g id="edge7" class="edge">
<title>4a860164&#45;b5ee&#45;4f81&#45;9616&#45;a583b92a2776&#45;&gt;f623711d&#45;449e&#45;4fba&#45;9e32&#45;8b76a225e943</title>
<path fill="none" stroke="black" d="M122.22,-126.99C113.25,-107.72 99.92,-79.08 90.24,-58.3"/>
<polygon fill="black" stroke="black" points="93.34,-56.67 85.95,-49.08 87,-59.62 93.34,-56.67"/>
</g>
<!-- 727439b9&#45;f70c&#45;4ea5&#45;bbf5&#45;997afc2d70e3 -->
<g id="node9" class="node">
<title>727439b9&#45;f70c&#45;4ea5&#45;bbf5&#45;997afc2d70e3</title>
<polygon fill="none" stroke="black" points="150,-49 114,-49 114,-13 150,-13 150,-49"/>
<text text-anchor="middle" x="132" y="-22.5" font-family="Arial Unicode MS" font-size="10.00">, </text>
</g>
<!-- 4a860164&#45;b5ee&#45;4f81&#45;9616&#45;a583b92a2776&#45;&gt;727439b9&#45;f70c&#45;4ea5&#45;bbf5&#45;997afc2d70e3 -->
<g id="edge8" class="edge">
<title>4a860164&#45;b5ee&#45;4f81&#45;9616&#45;a583b92a2776&#45;&gt;727439b9&#45;f70c&#45;4ea5&#45;bbf5&#45;997afc2d70e3</title>
<path fill="none" stroke="black" d="M132,-126.99C132,-107.98 132,-79.86 132,-59.15"/>
<polygon fill="black" stroke="black" points="135.5,-59.08 132,-49.08 128.5,-59.08 135.5,-59.08"/>
</g>
<!-- 6494e515&#45;3587&#45;40f1&#45;8c2b&#45;98a16e22922e -->
<g id="node10" class="node">
<title>6494e515&#45;3587&#45;40f1&#45;8c2b&#45;98a16e22922e</title>
<polygon fill="none" stroke="black" points="224,-59 168,-59 168,-3 224,-3 224,-59"/>
<text text-anchor="middle" x="196" y="-22.5" font-family="Arial Unicode MS" font-size="10.00">STRING </text>
</g>
<!-- 4a860164&#45;b5ee&#45;4f81&#45;9616&#45;a583b92a2776&#45;&gt;6494e515&#45;3587&#45;40f1&#45;8c2b&#45;98a16e22922e -->
<g id="edge9" class="edge">
<title>4a860164&#45;b5ee&#45;4f81&#45;9616&#45;a583b92a2776&#45;&gt;6494e515&#45;3587&#45;40f1&#45;8c2b&#45;98a16e22922e</title>
<path fill="none" stroke="black" d="M143.59,-126.99C152.61,-110.65 165.34,-87.58 175.99,-68.26"/>
<polygon fill="black" stroke="black" points="179.11,-69.86 180.88,-59.41 172.98,-66.48 179.11,-69.86"/>
</g>
<!-- a2fb285f&#45;1bbe&#45;467c&#45;9f93&#45;13866136453f -->
<g id="node12" class="node">
<title>a2fb285f&#45;1bbe&#45;467c&#45;9f93&#45;13866136453f</title>
<polygon fill="none" stroke="black" points="280,-50 242,-50 242,-12 280,-12 280,-50"/>
<text text-anchor="middle" x="261" y="-22.5" font-family="Arial Unicode MS" font-size="10.00">end </text>
</g>
<!-- 34934c5f&#45;dc7d&#45;4c0b&#45;a36c&#45;631862b7cd0f&#45;&gt;a2fb285f&#45;1bbe&#45;467c&#45;9f93&#45;13866136453f -->
<g id="edge11" class="edge">
<title>34934c5f&#45;dc7d&#45;4c0b&#45;a36c&#45;631862b7cd0f&#45;&gt;a2fb285f&#45;1bbe&#45;467c&#45;9f93&#45;13866136453f</title>
<path fill="none" stroke="black" d="M280.28,-97.8C276.46,-84.76 272.49,-71.2 269.15,-59.79"/>
<polygon fill="black" stroke="black" points="272.45,-58.61 266.28,-50 265.73,-60.58 272.45,-58.61"/>
</g>
<!-- cea4c67c&#45;7572&#45;4f49&#45;9d56&#45;cf8243269370 -->
<g id="node13" class="node">
<title>cea4c67c&#45;7572&#45;4f49&#45;9d56&#45;cf8243269370</title>
<polygon fill="none" stroke="black" points="359.5,-61.5 298.5,-61.5 298.5,-0.5 359.5,-0.5 359.5,-61.5"/>
<text text-anchor="middle" x="329" y="-22.5" font-family="Arial Unicode MS" font-size="10.00">program </text>
</g>
<!-- 34934c5f&#45;dc7d&#45;4c0b&#45;a36c&#45;631862b7cd0f&#45;&gt;cea4c67c&#45;7572&#45;4f49&#45;9d56&#45;cf8243269370 -->
<g id="edge12" class="edge">
<title>34934c5f&#45;dc7d&#45;4c0b&#45;a36c&#45;631862b7cd0f&#45;&gt;cea4c67c&#45;7572&#45;4f49&#45;9d56&#45;cf8243269370</title>
<path fill="none" stroke="black" d="M309.72,-97.8C312.32,-88.91 315,-79.77 317.5,-71.23"/>
<polygon fill="black" stroke="black" points="320.88,-72.13 320.34,-61.55 314.17,-70.16 320.88,-72.13"/>
</g>
<!-- 7da06883&#45;40af&#45;43d9&#45;afb9&#45;a4c8550d9c98 -->
<g id="node14" class="node">
<title>7da06883&#45;40af&#45;43d9&#45;afb9&#45;a4c8550d9c98</title>
<polygon fill="none" stroke="black" points="440,-62 378,-62 378,0 440,0 440,-62"/>
<text text-anchor="middle" x="409" y="-22.5" font-family="Arial Unicode MS" font-size="10.00">goodbye </text>
</g>
<!-- 34934c5f&#45;dc7d&#45;4c0b&#45;a36c&#45;631862b7cd0f&#45;&gt;7da06883&#45;40af&#45;43d9&#45;afb9&#45;a4c8550d9c98 -->
<g id="edge13" class="edge">
<title>34934c5f&#45;dc7d&#45;4c0b&#45;a36c&#45;631862b7cd0f&#45;&gt;7da06883&#45;40af&#45;43d9&#45;afb9&#45;a4c8550d9c98</title>
<path fill="none" stroke="black" d="M344.34,-97.8C353.65,-88.32 363.23,-78.57 372.08,-69.57"/>
<polygon fill="black" stroke="black" points="374.8,-71.79 379.31,-62.21 369.81,-66.89 374.8,-71.79"/>
</g>
</g>
</svg>
