<?xml version="1.0" encoding="UTF-8" standalone="no"?>
<!DOCTYPE svg PUBLIC "-//W3C//DTD SVG 1.1//EN"
 "http://www.w3.org/Graphics/SVG/1.1/DTD/svg11.dtd">
<!-- Generated by graphviz version 2.43.0 (0)
 -->
<!-- Title: G Pages: 1 -->
<svg width="430pt" height="574pt"
 viewBox="0.00 0.00 430.00 574.00" xmlns="http://www.w3.org/2000/svg" xmlns:xlink="http://www.w3.org/1999/xlink">
<g id="graph0" class="graph" transform="scale(1 1) rotate(0) translate(4 570)">
<title>G</title>
<polygon fill="white" stroke="transparent" points="-4,4 -4,-570 426,-570 426,4 -4,4"/>
<!-- 7ce97d4d&#45;825b&#45;4f2e&#45;870a&#45;c8b95292cc14 -->
<g id="node1" class="node">
<title>7ce97d4d&#45;825b&#45;4f2e&#45;870a&#45;c8b95292cc14</title>
<polygon fill="none" stroke="black" points="182.5,-566 121.5,-566 121.5,-505 182.5,-505 182.5,-566"/>
<text text-anchor="middle" x="152" y="-527" font-family="Arial Unicode MS" font-size="10.00">Program </text>
</g>
<!-- 808de764&#45;4011&#45;4b71&#45;abc5&#45;4603def51030 -->
<g id="node2" class="node">
<title>808de764&#45;4011&#45;4b71&#45;abc5&#45;4603def51030</title>
<polygon fill="none" stroke="black" points="158,-469 44,-469 44,-355 158,-355 158,-469"/>
<text text-anchor="middle" x="101" y="-403.5" font-family="Arial Unicode MS" font-size="10.00">ExecutableProgram </text>
</g>
<!-- 7ce97d4d&#45;825b&#45;4f2e&#45;870a&#45;c8b95292cc14&#45;&gt;808de764&#45;4011&#45;4b71&#45;abc5&#45;4603def51030 -->
<g id="edge1" class="edge">
<title>7ce97d4d&#45;825b&#45;4f2e&#45;870a&#45;c8b95292cc14&#45;&gt;808de764&#45;4011&#45;4b71&#45;abc5&#45;4603def51030</title>
<path fill="none" stroke="black" d="M139.52,-504.78C136.2,-496.85 132.47,-487.96 128.67,-478.92"/>
<polygon fill="black" stroke="black" points="131.8,-477.34 124.71,-469.48 125.35,-480.05 131.8,-477.34"/>
</g>
<!-- 3da24957&#45;f38e&#45;4b52&#45;ba87&#45;14013fff8c83 -->
<g id="node15" class="node">
<title>3da24957&#45;f38e&#45;4b52&#45;ba87&#45;14013fff8c83</title>
<polygon fill="none" stroke="black" points="232,-440 176,-440 176,-384 232,-384 232,-440"/>
<text text-anchor="middle" x="204" y="-403.5" font-family="Arial Unicode MS" font-size="10.00">&lt;EOF&gt; </text>
</g>
<!-- 7ce97d4d&#45;825b&#45;4f2e&#45;870a&#45;c8b95292cc14&#45;&gt;3da24957&#45;f38e&#45;4b52&#45;ba87&#45;14013fff8c83 -->
<g id="edge14" class="edge">
<title>7ce97d4d&#45;825b&#45;4f2e&#45;870a&#45;c8b95292cc14&#45;&gt;3da24957&#45;f38e&#45;4b52&#45;ba87&#45;14013fff8c83</title>
<path fill="none" stroke="black" d="M164.72,-504.78C171.82,-488.18 180.74,-467.36 188.27,-449.75"/>
<polygon fill="black" stroke="black" points="191.58,-450.91 192.3,-440.34 185.15,-448.15 191.58,-450.91"/>
</g>
<!-- dcb01cd8&#45;76e3&#45;45c1&#45;a750&#45;710f20f49edf -->
<g id="node3" class="node">
<title>dcb01cd8&#45;76e3&#45;45c1&#45;a750&#45;710f20f49edf</title>
<polygon fill="none" stroke="black" points="95,-319 11,-319 11,-235 95,-235 95,-319"/>
<text text-anchor="middle" x="53" y="-268.5" font-family="Arial Unicode MS" font-size="10.00">ProgramStmt </text>
</g>
<!-- 808de764&#45;4011&#45;4b71&#45;abc5&#45;4603def51030&#45;&gt;dcb01cd8&#45;76e3&#45;45c1&#45;a750&#45;710f20f49edf -->
<g id="edge2" class="edge">
<title>808de764&#45;4011&#45;4b71&#45;abc5&#45;4603def51030&#45;&gt;dcb01cd8&#45;76e3&#45;45c1&#45;a750&#45;710f20f49edf</title>
<path fill="none" stroke="black" d="M80.78,-354.98C77.62,-346.21 74.36,-337.19 71.25,-328.56"/>
<polygon fill="black" stroke="black" points="74.48,-327.22 67.8,-319 67.9,-329.6 74.48,-327.22"/>
</g>
<!-- f3465261&#45;d8aa&#45;4636&#45;b285&#45;ad2036915348 -->
<g id="node5" class="node">
<title>f3465261&#45;d8aa&#45;4636&#45;b285&#45;ad2036915348</title>
<polygon fill="none" stroke="black" points="187,-314 113,-314 113,-240 187,-240 187,-314"/>
<text text-anchor="middle" x="150" y="-268.5" font-family="Arial Unicode MS" font-size="10.00">MainRange </text>
</g>
<!-- 808de764&#45;4011&#45;4b71&#45;abc5&#45;4603def51030&#45;&gt;f3465261&#45;d8aa&#45;4636&#45;b285&#45;ad2036915348 -->
<g id="edge4" class="edge">
<title>808de764&#45;4011&#45;4b71&#45;abc5&#45;4603def51030&#45;&gt;f3465261&#45;d8aa&#45;4636&#45;b285&#45;ad2036915348</title>
<path fill="none" stroke="black" d="M121.64,-354.98C125.48,-344.54 129.46,-333.75 133.17,-323.67"/>
<polygon fill="black" stroke="black" points="136.47,-324.86 136.64,-314.26 129.9,-322.44 136.47,-324.86"/>
</g>
<!-- 011a87cf&#45;caca&#45;4384&#45;b53c&#45;b3892aef376f -->
<g id="node4" class="node">
<title>011a87cf&#45;caca&#45;4384&#45;b53c&#45;b3892aef376f</title>
<polygon fill="none" stroke="black" points="75,-170 31,-170 31,-126 75,-126 75,-170"/>
<text text-anchor="middle" x="53" y="-139.5" font-family="Arial Unicode MS" font-size="10.00">hello </text>
</g>
<!-- dcb01cd8&#45;76e3&#45;45c1&#45;a750&#45;710f20f49edf&#45;&gt;011a87cf&#45;caca&#45;4384&#45;b53c&#45;b3892aef376f -->
<g id="edge3" class="edge">
<title>dcb01cd8&#45;76e3&#45;45c1&#45;a750&#45;710f20f49edf&#45;&gt;011a87cf&#45;caca&#45;4384&#45;b53c&#45;b3892aef376f</title>
<path fill="none" stroke="black" d="M53,-234.77C53,-217.06 53,-196.71 53,-180.28"/>
<polygon fill="black" stroke="black" points="56.5,-180.11 53,-170.11 49.5,-180.11 56.5,-180.11"/>
</g>
<!-- a98a18c6&#45;95e7&#45;47c1&#45;8680&#45;6b8a1c5d2126 -->
<g id="node6" class="node">
<title>a98a18c6&#45;95e7&#45;47c1&#45;8680&#45;6b8a1c5d2126</title>
<polygon fill="none" stroke="black" points="154,-170 110,-170 110,-126 154,-126 154,-170"/>
<text text-anchor="middle" x="132" y="-139.5" font-family="Arial Unicode MS" font-size="10.00">Body </text>
</g>
<!-- f3465261&#45;d8aa&#45;4636&#45;b285&#45;ad2036915348&#45;&gt;a98a18c6&#45;95e7&#45;47c1&#45;8680&#45;6b8a1c5d2126 -->
<g id="edge5" class="edge">
<title>f3465261&#45;d8aa&#45;4636&#45;b285&#45;ad2036915348&#45;&gt;a98a18c6&#45;95e7&#45;47c1&#45;8680&#45;6b8a1c5d2126</title>
<path fill="none" stroke="black" d="M144.89,-239.95C142.21,-221.07 138.97,-198.18 136.41,-180.08"/>
<polygon fill="black" stroke="black" points="139.85,-179.46 134.98,-170.05 132.92,-180.44 139.85,-179.46"/>
</g>
<!-- 110c51d3&#45;68f2&#45;4b07&#45;8d21&#45;d49306ddea64 -->
<g id="node11" class="node">
<title>110c51d3&#45;68f2&#45;4b07&#45;8d21&#45;d49306ddea64</title>
<polygon fill="none" stroke="black" points="346,-199 244,-199 244,-97 346,-97 346,-199"/>
<text text-anchor="middle" x="295" y="-139.5" font-family="Arial Unicode MS" font-size="10.00">EndProgramStmt </text>
</g>
<!-- f3465261&#45;d8aa&#45;4636&#45;b285&#45;ad2036915348&#45;&gt;110c51d3&#45;68f2&#45;4b07&#45;8d21&#45;d49306ddea64 -->
<g id="edge10" class="edge">
<title>f3465261&#45;d8aa&#45;4636&#45;b285&#45;ad2036915348&#45;&gt;110c51d3&#45;68f2&#45;4b07&#45;8d21&#45;d49306ddea64</title>
<path fill="none" stroke="black" d="M187.34,-243.29C202.12,-230.35 219.48,-215.15 235.89,-200.77"/>
<polygon fill="black" stroke="black" points="238.63,-203.02 243.85,-193.8 234.02,-197.76 238.63,-203.02"/>
</g>
<!-- 9f48c3a9&#45;7494&#45;485f&#45;9261&#45;0ac58e89759c -->
<g id="node7" class="node">
<title>9f48c3a9&#45;7494&#45;485f&#45;9261&#45;0ac58e89759c</title>
<polygon fill="none" stroke="black" points="42,-51.5 0,-51.5 0,-9.5 42,-9.5 42,-51.5"/>
<text text-anchor="middle" x="21" y="-22" font-family="Arial Unicode MS" font-size="10.00">print </text>
</g>
<!-- a98a18c6&#45;95e7&#45;47c1&#45;8680&#45;6b8a1c5d2126&#45;&gt;9f48c3a9&#45;7494&#45;485f&#45;9261&#45;0ac58e89759c -->
<g id="edge6" class="edge">
<title>a98a18c6&#45;95e7&#45;47c1&#45;8680&#45;6b8a1c5d2126&#45;&gt;9f48c3a9&#45;7494&#45;485f&#45;9261&#45;0ac58e89759c</title>
<path fill="none" stroke="black" d="M111.45,-125.58C102.95,-116.73 93,-106.37 84,-97 71.98,-84.49 58.67,-70.65 47.39,-58.93"/>
<polygon fill="black" stroke="black" points="49.76,-56.34 40.31,-51.56 44.72,-61.2 49.76,-56.34"/>
</g>
<!-- b4a700e8&#45;ec60&#45;4d93&#45;90a2&#45;32da1d11a672 -->
<g id="node8" class="node">
<title>b4a700e8&#45;ec60&#45;4d93&#45;90a2&#45;32da1d11a672</title>
<polygon fill="none" stroke="black" points="96,-48.5 60,-48.5 60,-12.5 96,-12.5 96,-48.5"/>
<text text-anchor="middle" x="78" y="-22" font-family="Arial Unicode MS" font-size="10.00">* </text>
</g>
<!-- a98a18c6&#45;95e7&#45;47c1&#45;8680&#45;6b8a1c5d2126&#45;&gt;b4a700e8&#45;ec60&#45;4d93&#45;90a2&#45;32da1d11a672 -->
<g id="edge7" class="edge">
<title>a98a18c6&#45;95e7&#45;47c1&#45;8680&#45;6b8a1c5d2126&#45;&gt;b4a700e8&#45;ec60&#45;4d93&#45;90a2&#45;32da1d11a672</title>
<path fill="none" stroke="black" d="M122.1,-125.82C113.16,-106.7 99.98,-78.51 90.35,-57.92"/>
<polygon fill="black" stroke="black" points="93.49,-56.36 86.08,-48.78 87.15,-59.32 93.49,-56.36"/>
</g>
<!-- e08bde0e&#45;1267&#45;4e13&#45;966d&#45;a9f10614bca6 -->
<g id="node9" class="node">
<title>e08bde0e&#45;1267&#45;4e13&#45;966d&#45;a9f10614bca6</title>
<polygon fill="none" stroke="black" points="150,-48.5 114,-48.5 114,-12.5 150,-12.5 150,-48.5"/>
<text text-anchor="middle" x="132" y="-22" font-family="Arial Unicode MS" font-size="10.00">, </text>
</g>
<!-- a98a18c6&#45;95e7&#45;47c1&#45;8680&#45;6b8a1c5d2126&#45;&gt;e08bde0e&#45;1267&#45;4e13&#45;966d&#45;a9f10614bca6 -->
<g id="edge8" class="edge">
<title>a98a18c6&#45;95e7&#45;47c1&#45;8680&#45;6b8a1c5d2126&#45;&gt;e08bde0e&#45;1267&#45;4e13&#45;966d&#45;a9f10614bca6</title>
<path fill="none" stroke="black" d="M132,-125.82C132,-107.05 132,-79.52 132,-59.05"/>
<polygon fill="black" stroke="black" points="135.5,-58.78 132,-48.78 128.5,-58.78 135.5,-58.78"/>
</g>
<!-- 2afa5a10&#45;1103&#45;40af&#45;a614&#45;f2074aec67ad -->
<g id="node10" class="node">
<title>2afa5a10&#45;1103&#45;40af&#45;a614&#45;f2074aec67ad</title>
<polygon fill="none" stroke="black" points="224,-58.5 168,-58.5 168,-2.5 224,-2.5 224,-58.5"/>
<text text-anchor="middle" x="196" y="-22" font-family="Arial Unicode MS" font-size="10.00">STRING </text>
</g>
<!-- a98a18c6&#45;95e7&#45;47c1&#45;8680&#45;6b8a1c5d2126&#45;&gt;2afa5a10&#45;1103&#45;40af&#45;a614&#45;f2074aec67ad -->
<g id="edge9" class="edge">
<title>a98a18c6&#45;95e7&#45;47c1&#45;8680&#45;6b8a1c5d2126&#45;&gt;2afa5a10&#45;1103&#45;40af&#45;a614&#45;f2074aec67ad</title>
<path fill="none" stroke="black" d="M143.74,-125.82C152.77,-109.51 165.47,-86.6 176.08,-67.44"/>
<polygon fill="black" stroke="black" points="179.16,-69.11 180.95,-58.67 173.04,-65.72 179.16,-69.11"/>
</g>
<!-- 5f81211d&#45;3362&#45;46ca&#45;97ed&#45;0a64f3de8bda -->
<g id="node12" class="node">
<title>5f81211d&#45;3362&#45;46ca&#45;97ed&#45;0a64f3de8bda</title>
<polygon fill="none" stroke="black" points="280,-49.5 242,-49.5 242,-11.5 280,-11.5 280,-49.5"/>
<text text-anchor="middle" x="261" y="-22" font-family="Arial Unicode MS" font-size="10.00">end </text>
</g>
<!-- 110c51d3&#45;68f2&#45;4b07&#45;8d21&#45;d49306ddea64&#45;&gt;5f81211d&#45;3362&#45;46ca&#45;97ed&#45;0a64f3de8bda -->
<g id="edge11" class="edge">
<title>110c51d3&#45;68f2&#45;4b07&#45;8d21&#45;d49306ddea64&#45;&gt;5f81211d&#45;3362&#45;46ca&#45;97ed&#45;0a64f3de8bda</title>
<path fill="none" stroke="black" d="M280.19,-96.68C276.4,-83.83 272.48,-70.49 269.17,-59.24"/>
<polygon fill="black" stroke="black" points="272.5,-58.19 266.32,-49.58 265.79,-60.16 272.5,-58.19"/>
</g>
<!-- da098a3e&#45;337c&#45;401e&#45;8297&#45;8667758f4010 -->
<g id="node13" class="node">
<title>da098a3e&#45;337c&#45;401e&#45;8297&#45;8667758f4010</title>
<polygon fill="none" stroke="black" points="359.5,-61 298.5,-61 298.5,0 359.5,0 359.5,-61"/>
<text text-anchor="middle" x="329" y="-22" font-family="Arial Unicode MS" font-size="10.00">program </text>
</g>
<!-- 110c51d3&#45;68f2&#45;4b07&#45;8d21&#45;d49306ddea64&#45;&gt;da098a3e&#45;337c&#45;401e&#45;8297&#45;8667758f4010 -->
<g id="edge12" class="edge">
<title>110c51d3&#45;68f2&#45;4b07&#45;8d21&#45;d49306ddea64&#45;&gt;da098a3e&#45;337c&#45;401e&#45;8297&#45;8667758f4010</title>
<path fill="none" stroke="black" d="M309.81,-96.68C312.36,-88.03 314.97,-79.16 317.41,-70.86"/>
<polygon fill="black" stroke="black" points="320.83,-71.65 320.3,-61.07 314.12,-69.67 320.83,-71.65"/>
</g>
<!-- 55b22fbe&#45;8469&#45;4021&#45;9234&#45;d7a248f701f8 -->
<g id="node14" class="node">
<title>55b22fbe&#45;8469&#45;4021&#45;9234&#45;d7a248f701f8</title>
<polygon fill="none" stroke="black" points="422,-52.5 378,-52.5 378,-8.5 422,-8.5 422,-52.5"/>
<text text-anchor="middle" x="400" y="-22" font-family="Arial Unicode MS" font-size="10.00">hello </text>
</g>
<!-- 110c51d3&#45;68f2&#45;4b07&#45;8d21&#45;d49306ddea64&#45;&gt;55b22fbe&#45;8469&#45;4021&#45;9234&#45;d7a248f701f8 -->
<g id="edge13" class="edge">
<title>110c51d3&#45;68f2&#45;4b07&#45;8d21&#45;d49306ddea64&#45;&gt;55b22fbe&#45;8469&#45;4021&#45;9234&#45;d7a248f701f8</title>
<path fill="none" stroke="black" d="M340.75,-96.68C352.04,-84.25 363.76,-71.36 373.77,-60.35"/>
<polygon fill="black" stroke="black" points="376.58,-62.46 380.72,-52.71 371.4,-57.75 376.58,-62.46"/>
</g>
</g>
</svg>
