<?xml version="1.0" encoding="UTF-8" standalone="no"?>
<!DOCTYPE svg PUBLIC "-//W3C//DTD SVG 1.1//EN"
 "http://www.w3.org/Graphics/SVG/1.1/DTD/svg11.dtd">
<!-- Generated by graphviz version 2.43.0 (0)
 -->
<!-- Title: G Pages: 1 -->
<svg width="418pt" height="2770pt"
 viewBox="0.00 0.00 417.50 2770.00" xmlns="http://www.w3.org/2000/svg" xmlns:xlink="http://www.w3.org/1999/xlink">
<g id="graph0" class="graph" transform="scale(1 1) rotate(0) translate(4 2766)">
<title>G</title>
<polygon fill="white" stroke="transparent" points="-4,4 -4,-2766 413.5,-2766 413.5,4 -4,4"/>
<!-- 7ce97d4d&#45;825b&#45;4f2e&#45;870a&#45;c8b95292cc14 -->
<g id="node1" class="node">
<title>7ce97d4d&#45;825b&#45;4f2e&#45;870a&#45;c8b95292cc14</title>
<polygon fill="none" stroke="black" points="222,-2762 161,-2762 161,-2701 222,-2701 222,-2762"/>
<text text-anchor="middle" x="191.5" y="-2723" font-family="Arial Unicode MS" font-size="10.00">Program </text>
</g>
<!-- 808de764&#45;4011&#45;4b71&#45;abc5&#45;4603def51030 -->
<g id="node2" class="node">
<title>808de764&#45;4011&#45;4b71&#45;abc5&#45;4603def51030</title>
<polygon fill="none" stroke="black" points="197.5,-2665 83.5,-2665 83.5,-2551 197.5,-2551 197.5,-2665"/>
<text text-anchor="middle" x="140.5" y="-2599.5" font-family="Arial Unicode MS" font-size="10.00">ExecutableProgram </text>
</g>
<!-- 7ce97d4d&#45;825b&#45;4f2e&#45;870a&#45;c8b95292cc14&#45;&gt;808de764&#45;4011&#45;4b71&#45;abc5&#45;4603def51030 -->
<g id="edge1" class="edge">
<title>7ce97d4d&#45;825b&#45;4f2e&#45;870a&#45;c8b95292cc14&#45;&gt;808de764&#45;4011&#45;4b71&#45;abc5&#45;4603def51030</title>
<path fill="none" stroke="black" d="M179.02,-2700.78C175.7,-2692.85 171.97,-2683.96 168.17,-2674.92"/>
<polygon fill="black" stroke="black" points="171.3,-2673.34 164.21,-2665.48 164.85,-2676.05 171.3,-2673.34"/>
</g>
<!-- 3da24957&#45;f38e&#45;4b52&#45;ba87&#45;14013fff8c83 -->
<g id="node36" class="node">
<title>3da24957&#45;f38e&#45;4b52&#45;ba87&#45;14013fff8c83</title>
<polygon fill="none" stroke="black" points="271.5,-2636 215.5,-2636 215.5,-2580 271.5,-2580 271.5,-2636"/>
<text text-anchor="middle" x="243.5" y="-2599.5" font-family="Arial Unicode MS" font-size="10.00">&lt;EOF&gt; </text>
</g>
<!-- 7ce97d4d&#45;825b&#45;4f2e&#45;870a&#45;c8b95292cc14&#45;&gt;3da24957&#45;f38e&#45;4b52&#45;ba87&#45;14013fff8c83 -->
<g id="edge35" class="edge">
<title>7ce97d4d&#45;825b&#45;4f2e&#45;870a&#45;c8b95292cc14&#45;&gt;3da24957&#45;f38e&#45;4b52&#45;ba87&#45;14013fff8c83</title>
<path fill="none" stroke="black" d="M204.22,-2700.78C211.32,-2684.18 220.24,-2663.36 227.77,-2645.75"/>
<polygon fill="black" stroke="black" points="231.08,-2646.91 231.8,-2636.34 224.65,-2644.15 231.08,-2646.91"/>
</g>
<!-- 0600e5c2&#45;8539&#45;422e&#45;8925&#45;0821f569719d -->
<g id="node3" class="node">
<title>0600e5c2&#45;8539&#45;422e&#45;8925&#45;0821f569719d</title>
<polygon fill="none" stroke="black" points="181,-2515 100,-2515 100,-2434 181,-2434 181,-2515"/>
<text text-anchor="middle" x="140.5" y="-2466" font-family="Arial Unicode MS" font-size="10.00">ProgramUnit </text>
</g>
<!-- 808de764&#45;4011&#45;4b71&#45;abc5&#45;4603def51030&#45;&gt;0600e5c2&#45;8539&#45;422e&#45;8925&#45;0821f569719d -->
<g id="edge2" class="edge">
<title>808de764&#45;4011&#45;4b71&#45;abc5&#45;4603def51030&#45;&gt;0600e5c2&#45;8539&#45;422e&#45;8925&#45;0821f569719d</title>
<path fill="none" stroke="black" d="M140.5,-2550.85C140.5,-2542.31 140.5,-2533.56 140.5,-2525.17"/>
<polygon fill="black" stroke="black" points="144,-2525.17 140.5,-2515.17 137,-2525.17 144,-2525.17"/>
</g>
<!-- b6138d77&#45;d6e9&#45;47b0&#45;a2bc&#45;ad5ae8a08d4b -->
<g id="node4" class="node">
<title>b6138d77&#45;d6e9&#45;47b0&#45;a2bc&#45;ad5ae8a08d4b</title>
<polygon fill="none" stroke="black" points="183,-2398 98,-2398 98,-2313 183,-2313 183,-2398"/>
<text text-anchor="middle" x="140.5" y="-2347" font-family="Arial Unicode MS" font-size="10.00">MainProgram </text>
</g>
<!-- 0600e5c2&#45;8539&#45;422e&#45;8925&#45;0821f569719d&#45;&gt;b6138d77&#45;d6e9&#45;47b0&#45;a2bc&#45;ad5ae8a08d4b -->
<g id="edge3" class="edge">
<title>0600e5c2&#45;8539&#45;422e&#45;8925&#45;0821f569719d&#45;&gt;b6138d77&#45;d6e9&#45;47b0&#45;a2bc&#45;ad5ae8a08d4b</title>
<path fill="none" stroke="black" d="M140.5,-2433.89C140.5,-2425.6 140.5,-2416.74 140.5,-2408.09"/>
<polygon fill="black" stroke="black" points="144,-2408.07 140.5,-2398.07 137,-2408.07 144,-2408.07"/>
</g>
<!-- dcb01cd8&#45;76e3&#45;45c1&#45;a750&#45;710f20f49edf -->
<g id="node5" class="node">
<title>dcb01cd8&#45;76e3&#45;45c1&#45;a750&#45;710f20f49edf</title>
<polygon fill="none" stroke="black" points="134.5,-2277 50.5,-2277 50.5,-2193 134.5,-2193 134.5,-2277"/>
<text text-anchor="middle" x="92.5" y="-2226.5" font-family="Arial Unicode MS" font-size="10.00">ProgramStmt </text>
</g>
<!-- b6138d77&#45;d6e9&#45;47b0&#45;a2bc&#45;ad5ae8a08d4b&#45;&gt;dcb01cd8&#45;76e3&#45;45c1&#45;a750&#45;710f20f49edf -->
<g id="edge4" class="edge">
<title>b6138d77&#45;d6e9&#45;47b0&#45;a2bc&#45;ad5ae8a08d4b&#45;&gt;dcb01cd8&#45;76e3&#45;45c1&#45;a750&#45;710f20f49edf</title>
<path fill="none" stroke="black" d="M123.58,-2312.72C120.13,-2304.21 116.46,-2295.16 112.91,-2286.39"/>
<polygon fill="black" stroke="black" points="116.11,-2284.96 109.11,-2277 109.62,-2287.59 116.11,-2284.96"/>
</g>
<!-- f3465261&#45;d8aa&#45;4636&#45;b285&#45;ad2036915348 -->
<g id="node8" class="node">
<title>f3465261&#45;d8aa&#45;4636&#45;b285&#45;ad2036915348</title>
<polygon fill="none" stroke="black" points="226.5,-2272 152.5,-2272 152.5,-2198 226.5,-2198 226.5,-2272"/>
<text text-anchor="middle" x="189.5" y="-2226.5" font-family="Arial Unicode MS" font-size="10.00">MainRange </text>
</g>
<!-- b6138d77&#45;d6e9&#45;47b0&#45;a2bc&#45;ad5ae8a08d4b&#45;&gt;f3465261&#45;d8aa&#45;4636&#45;b285&#45;ad2036915348 -->
<g id="edge7" class="edge">
<title>b6138d77&#45;d6e9&#45;47b0&#45;a2bc&#45;ad5ae8a08d4b&#45;&gt;f3465261&#45;d8aa&#45;4636&#45;b285&#45;ad2036915348</title>
<path fill="none" stroke="black" d="M157.78,-2312.72C161.91,-2302.72 166.35,-2292 170.55,-2281.83"/>
<polygon fill="black" stroke="black" points="173.91,-2282.87 174.5,-2272.29 167.44,-2280.19 173.91,-2282.87"/>
</g>
<!-- 088e5709&#45;9af1&#45;429f&#45;868e&#45;74f54aa88c9e -->
<g id="node6" class="node">
<title>088e5709&#45;9af1&#45;429f&#45;868e&#45;74f54aa88c9e</title>
<polygon fill="none" stroke="black" points="61,-2136.5 0,-2136.5 0,-2075.5 61,-2075.5 61,-2136.5"/>
<text text-anchor="middle" x="30.5" y="-2097.5" font-family="Arial Unicode MS" font-size="10.00">program </text>
</g>
<!-- dcb01cd8&#45;76e3&#45;45c1&#45;a750&#45;710f20f49edf&#45;&gt;088e5709&#45;9af1&#45;429f&#45;868e&#45;74f54aa88c9e -->
<g id="edge5" class="edge">
<title>dcb01cd8&#45;76e3&#45;45c1&#45;a750&#45;710f20f49edf&#45;&gt;088e5709&#45;9af1&#45;429f&#45;868e&#45;74f54aa88c9e</title>
<path fill="none" stroke="black" d="M72.37,-2192.77C65.06,-2177.79 56.83,-2160.93 49.61,-2146.14"/>
<polygon fill="black" stroke="black" points="52.56,-2144.22 45.03,-2136.77 46.27,-2147.29 52.56,-2144.22"/>
</g>
<!-- 011a87cf&#45;caca&#45;4384&#45;b53c&#45;b3892aef376f -->
<g id="node7" class="node">
<title>011a87cf&#45;caca&#45;4384&#45;b53c&#45;b3892aef376f</title>
<polygon fill="none" stroke="black" points="123.5,-2128 79.5,-2128 79.5,-2084 123.5,-2084 123.5,-2128"/>
<text text-anchor="middle" x="101.5" y="-2097.5" font-family="Arial Unicode MS" font-size="10.00">hello </text>
</g>
<!-- dcb01cd8&#45;76e3&#45;45c1&#45;a750&#45;710f20f49edf&#45;&gt;011a87cf&#45;caca&#45;4384&#45;b53c&#45;b3892aef376f -->
<g id="edge6" class="edge">
<title>dcb01cd8&#45;76e3&#45;45c1&#45;a750&#45;710f20f49edf&#45;&gt;011a87cf&#45;caca&#45;4384&#45;b53c&#45;b3892aef376f</title>
<path fill="none" stroke="black" d="M95.42,-2192.77C96.68,-2175.06 98.12,-2154.71 99.28,-2138.28"/>
<polygon fill="black" stroke="black" points="102.79,-2138.34 100,-2128.11 95.81,-2137.84 102.79,-2138.34"/>
</g>
<!-- a98a18c6&#45;95e7&#45;47c1&#45;8680&#45;6b8a1c5d2126 -->
<g id="node9" class="node">
<title>a98a18c6&#45;95e7&#45;47c1&#45;8680&#45;6b8a1c5d2126</title>
<polygon fill="none" stroke="black" points="202.5,-2128 158.5,-2128 158.5,-2084 202.5,-2084 202.5,-2128"/>
<text text-anchor="middle" x="180.5" y="-2097.5" font-family="Arial Unicode MS" font-size="10.00">Body </text>
</g>
<!-- f3465261&#45;d8aa&#45;4636&#45;b285&#45;ad2036915348&#45;&gt;a98a18c6&#45;95e7&#45;47c1&#45;8680&#45;6b8a1c5d2126 -->
<g id="edge8" class="edge">
<title>f3465261&#45;d8aa&#45;4636&#45;b285&#45;ad2036915348&#45;&gt;a98a18c6&#45;95e7&#45;47c1&#45;8680&#45;6b8a1c5d2126</title>
<path fill="none" stroke="black" d="M186.95,-2197.95C185.61,-2179.07 183.98,-2156.18 182.7,-2138.08"/>
<polygon fill="black" stroke="black" points="186.19,-2137.78 181.99,-2128.05 179.21,-2138.27 186.19,-2137.78"/>
</g>
<!-- 110c51d3&#45;68f2&#45;4b07&#45;8d21&#45;d49306ddea64 -->
<g id="node32" class="node">
<title>110c51d3&#45;68f2&#45;4b07&#45;8d21&#45;d49306ddea64</title>
<polygon fill="none" stroke="black" points="352.5,-2157 250.5,-2157 250.5,-2055 352.5,-2055 352.5,-2157"/>
<text text-anchor="middle" x="301.5" y="-2097.5" font-family="Arial Unicode MS" font-size="10.00">EndProgramStmt </text>
</g>
<!-- f3465261&#45;d8aa&#45;4636&#45;b285&#45;ad2036915348&#45;&gt;110c51d3&#45;68f2&#45;4b07&#45;8d21&#45;d49306ddea64 -->
<g id="edge31" class="edge">
<title>f3465261&#45;d8aa&#45;4636&#45;b285&#45;ad2036915348&#45;&gt;110c51d3&#45;68f2&#45;4b07&#45;8d21&#45;d49306ddea64</title>
<path fill="none" stroke="black" d="M221.3,-2197.95C230.33,-2187.7 240.41,-2176.27 250.29,-2165.07"/>
<polygon fill="black" stroke="black" points="253.09,-2167.18 257.08,-2157.36 247.84,-2162.55 253.09,-2167.18"/>
</g>
<!-- 1b568c01&#45;5e0a&#45;46ce&#45;ab59&#45;5ce1d8188c47 -->
<g id="node10" class="node">
<title>1b568c01&#45;5e0a&#45;46ce&#45;ab59&#45;5ce1d8188c47</title>
<polygon fill="none" stroke="black" points="211,-2019 120,-2019 120,-1928 211,-1928 211,-2019"/>
<text text-anchor="middle" x="165.5" y="-1965" font-family="Arial Unicode MS" font-size="10.00">BodyConstruct </text>
</g>
<!-- a98a18c6&#45;95e7&#45;47c1&#45;8680&#45;6b8a1c5d2126&#45;&gt;1b568c01&#45;5e0a&#45;46ce&#45;ab59&#45;5ce1d8188c47 -->
<g id="edge9" class="edge">
<title>a98a18c6&#45;95e7&#45;47c1&#45;8680&#45;6b8a1c5d2126&#45;&gt;1b568c01&#45;5e0a&#45;46ce&#45;ab59&#45;5ce1d8188c47</title>
<path fill="none" stroke="black" d="M178.06,-2083.74C176.35,-2068.86 173.98,-2048.26 171.76,-2028.95"/>
<polygon fill="black" stroke="black" points="175.24,-2028.55 170.62,-2019.02 168.28,-2029.35 175.24,-2028.55"/>
</g>
<!-- 30654b67&#45;a1cc&#45;4ac6&#45;b4b7&#45;c935b828f35c -->
<g id="node11" class="node">
<title>30654b67&#45;a1cc&#45;4ac6&#45;b4b7&#45;c935b828f35c</title>
<polygon fill="none" stroke="black" points="225,-1892 106,-1892 106,-1773 225,-1773 225,-1892"/>
<text text-anchor="middle" x="165.5" y="-1824" font-family="Arial Unicode MS" font-size="10.00">ExecutableConstruct </text>
</g>
<!-- 1b568c01&#45;5e0a&#45;46ce&#45;ab59&#45;5ce1d8188c47&#45;&gt;30654b67&#45;a1cc&#45;4ac6&#45;b4b7&#45;c935b828f35c -->
<g id="edge10" class="edge">
<title>1b568c01&#45;5e0a&#45;46ce&#45;ab59&#45;5ce1d8188c47&#45;&gt;30654b67&#45;a1cc&#45;4ac6&#45;b4b7&#45;c935b828f35c</title>
<path fill="none" stroke="black" d="M165.5,-1927.75C165.5,-1919.6 165.5,-1910.92 165.5,-1902.25"/>
<polygon fill="black" stroke="black" points="169,-1902.12 165.5,-1892.12 162,-1902.12 169,-1902.12"/>
</g>
<!-- bf80e546&#45;6ea0&#45;4f4f&#45;ac1a&#45;b7954fe35646 -->
<g id="node12" class="node">
<title>bf80e546&#45;6ea0&#45;4f4f&#45;ac1a&#45;b7954fe35646</title>
<polygon fill="none" stroke="black" points="202.5,-1737 128.5,-1737 128.5,-1663 202.5,-1663 202.5,-1737"/>
<text text-anchor="middle" x="165.5" y="-1691.5" font-family="Arial Unicode MS" font-size="10.00">ActionStmt </text>
</g>
<!-- 30654b67&#45;a1cc&#45;4ac6&#45;b4b7&#45;c935b828f35c&#45;&gt;bf80e546&#45;6ea0&#45;4f4f&#45;ac1a&#45;b7954fe35646 -->
<g id="edge11" class="edge">
<title>30654b67&#45;a1cc&#45;4ac6&#45;b4b7&#45;c935b828f35c&#45;&gt;bf80e546&#45;6ea0&#45;4f4f&#45;ac1a&#45;b7954fe35646</title>
<path fill="none" stroke="black" d="M165.5,-1772.74C165.5,-1764.18 165.5,-1755.46 165.5,-1747.2"/>
<polygon fill="black" stroke="black" points="169,-1747.01 165.5,-1737.01 162,-1747.01 169,-1747.01"/>
</g>
<!-- 3be88481&#45;d623&#45;429f&#45;b557&#45;ea25f636623d -->
<g id="node13" class="node">
<title>3be88481&#45;d623&#45;429f&#45;b557&#45;ea25f636623d</title>
<polygon fill="none" stroke="black" points="198,-1627 133,-1627 133,-1562 198,-1562 198,-1627"/>
<text text-anchor="middle" x="165.5" y="-1586" font-family="Arial Unicode MS" font-size="10.00">PrintStmt </text>
</g>
<!-- bf80e546&#45;6ea0&#45;4f4f&#45;ac1a&#45;b7954fe35646&#45;&gt;3be88481&#45;d623&#45;429f&#45;b557&#45;ea25f636623d -->
<g id="edge12" class="edge">
<title>bf80e546&#45;6ea0&#45;4f4f&#45;ac1a&#45;b7954fe35646&#45;&gt;3be88481&#45;d623&#45;429f&#45;b557&#45;ea25f636623d</title>
<path fill="none" stroke="black" d="M165.5,-1662.8C165.5,-1654.51 165.5,-1645.64 165.5,-1637.14"/>
<polygon fill="black" stroke="black" points="169,-1637.03 165.5,-1627.03 162,-1637.03 169,-1637.03"/>
</g>
<!-- 9f48c3a9&#45;7494&#45;485f&#45;9261&#45;0ac58e89759c -->
<g id="node14" class="node">
<title>9f48c3a9&#45;7494&#45;485f&#45;9261&#45;0ac58e89759c</title>
<polygon fill="none" stroke="black" points="56.5,-1498 14.5,-1498 14.5,-1456 56.5,-1456 56.5,-1498"/>
<text text-anchor="middle" x="35.5" y="-1468.5" font-family="Arial Unicode MS" font-size="10.00">print </text>
</g>
<!-- 3be88481&#45;d623&#45;429f&#45;b557&#45;ea25f636623d&#45;&gt;9f48c3a9&#45;7494&#45;485f&#45;9261&#45;0ac58e89759c -->
<g id="edge13" class="edge">
<title>3be88481&#45;d623&#45;429f&#45;b557&#45;ea25f636623d&#45;&gt;9f48c3a9&#45;7494&#45;485f&#45;9261&#45;0ac58e89759c</title>
<path fill="none" stroke="black" d="M132.76,-1576.15C111.88,-1564 85.14,-1546.34 65.5,-1526 60.06,-1520.36 55.09,-1513.58 50.84,-1506.91"/>
<polygon fill="black" stroke="black" points="53.64,-1504.78 45.5,-1498.01 47.64,-1508.38 53.64,-1504.78"/>
</g>
<!-- b4a700e8&#45;ec60&#45;4d93&#45;90a2&#45;32da1d11a672 -->
<g id="node15" class="node">
<title>b4a700e8&#45;ec60&#45;4d93&#45;90a2&#45;32da1d11a672</title>
<polygon fill="none" stroke="black" points="172.5,-1526 74.5,-1526 74.5,-1428 172.5,-1428 172.5,-1526"/>
<text text-anchor="middle" x="123.5" y="-1468.5" font-family="Arial Unicode MS" font-size="10.00">FormatIdentifier </text>
</g>
<!-- 3be88481&#45;d623&#45;429f&#45;b557&#45;ea25f636623d&#45;&gt;b4a700e8&#45;ec60&#45;4d93&#45;90a2&#45;32da1d11a672 -->
<g id="edge14" class="edge">
<title>3be88481&#45;d623&#45;429f&#45;b557&#45;ea25f636623d&#45;&gt;b4a700e8&#45;ec60&#45;4d93&#45;90a2&#45;32da1d11a672</title>
<path fill="none" stroke="black" d="M154.02,-1561.94C151.1,-1553.89 147.86,-1544.99 144.62,-1536.08"/>
<polygon fill="black" stroke="black" points="147.82,-1534.64 141.11,-1526.44 141.24,-1537.03 147.82,-1534.64"/>
</g>
<!-- e08bde0e&#45;1267&#45;4e13&#45;966d&#45;a9f10614bca6 -->
<g id="node17" class="node">
<title>e08bde0e&#45;1267&#45;4e13&#45;966d&#45;a9f10614bca6</title>
<polygon fill="none" stroke="black" points="226.5,-1495 190.5,-1495 190.5,-1459 226.5,-1459 226.5,-1495"/>
<text text-anchor="middle" x="208.5" y="-1468.5" font-family="Arial Unicode MS" font-size="10.00">, </text>
</g>
<!-- 3be88481&#45;d623&#45;429f&#45;b557&#45;ea25f636623d&#45;&gt;e08bde0e&#45;1267&#45;4e13&#45;966d&#45;a9f10614bca6 -->
<g id="edge16" class="edge">
<title>3be88481&#45;d623&#45;429f&#45;b557&#45;ea25f636623d&#45;&gt;e08bde0e&#45;1267&#45;4e13&#45;966d&#45;a9f10614bca6</title>
<path fill="none" stroke="black" d="M177.25,-1561.94C183.94,-1543.96 192.24,-1521.69 198.6,-1504.6"/>
<polygon fill="black" stroke="black" points="201.88,-1505.81 202.09,-1495.21 195.32,-1503.36 201.88,-1505.81"/>
</g>
<!-- 2afa5a10&#45;1103&#45;40af&#45;a614&#45;f2074aec67ad -->
<g id="node18" class="node">
<title>2afa5a10&#45;1103&#45;40af&#45;a614&#45;f2074aec67ad</title>
<polygon fill="none" stroke="black" points="336.5,-1523 244.5,-1523 244.5,-1431 336.5,-1431 336.5,-1523"/>
<text text-anchor="middle" x="290.5" y="-1468.5" font-family="Arial Unicode MS" font-size="10.00">OutputItemList </text>
</g>
<!-- 3be88481&#45;d623&#45;429f&#45;b557&#45;ea25f636623d&#45;&gt;2afa5a10&#45;1103&#45;40af&#45;a614&#45;f2074aec67ad -->
<g id="edge17" class="edge">
<title>3be88481&#45;d623&#45;429f&#45;b557&#45;ea25f636623d&#45;&gt;2afa5a10&#45;1103&#45;40af&#45;a614&#45;f2074aec67ad</title>
<path fill="none" stroke="black" d="M198.02,-1563.46C209.75,-1552.62 223.33,-1540.07 236.4,-1527.99"/>
<polygon fill="black" stroke="black" points="239.06,-1530.3 244.03,-1520.94 234.31,-1525.16 239.06,-1530.3"/>
</g>
<!-- ed9f9eac&#45;1c76&#45;402c&#45;93b6&#45;1c6490187493 -->
<g id="node16" class="node">
<title>ed9f9eac&#45;1c76&#45;402c&#45;93b6&#45;1c6490187493</title>
<polygon fill="none" stroke="black" points="141.5,-1373.5 105.5,-1373.5 105.5,-1337.5 141.5,-1337.5 141.5,-1373.5"/>
<text text-anchor="middle" x="123.5" y="-1347" font-family="Arial Unicode MS" font-size="10.00">* </text>
</g>
<!-- b4a700e8&#45;ec60&#45;4d93&#45;90a2&#45;32da1d11a672&#45;&gt;ed9f9eac&#45;1c76&#45;402c&#45;93b6&#45;1c6490187493 -->
<g id="edge15" class="edge">
<title>b4a700e8&#45;ec60&#45;4d93&#45;90a2&#45;32da1d11a672&#45;&gt;ed9f9eac&#45;1c76&#45;402c&#45;93b6&#45;1c6490187493</title>
<path fill="none" stroke="black" d="M123.5,-1427.74C123.5,-1412.76 123.5,-1396.78 123.5,-1383.76"/>
<polygon fill="black" stroke="black" points="127,-1383.6 123.5,-1373.6 120,-1383.6 127,-1383.6"/>
</g>
<!-- c11ccdf2&#45;9372&#45;4da2&#45;bf9f&#45;68ae906ddd37 -->
<g id="node19" class="node">
<title>c11ccdf2&#45;9372&#45;4da2&#45;bf9f&#45;68ae906ddd37</title>
<polygon fill="none" stroke="black" points="327,-1392 254,-1392 254,-1319 327,-1319 327,-1392"/>
<text text-anchor="middle" x="290.5" y="-1347" font-family="Arial Unicode MS" font-size="10.00">Expression </text>
</g>
<!-- 2afa5a10&#45;1103&#45;40af&#45;a614&#45;f2074aec67ad&#45;&gt;c11ccdf2&#45;9372&#45;4da2&#45;bf9f&#45;68ae906ddd37 -->
<g id="edge18" class="edge">
<title>2afa5a10&#45;1103&#45;40af&#45;a614&#45;f2074aec67ad&#45;&gt;c11ccdf2&#45;9372&#45;4da2&#45;bf9f&#45;68ae906ddd37</title>
<path fill="none" stroke="black" d="M290.5,-1430.82C290.5,-1421.51 290.5,-1411.69 290.5,-1402.35"/>
<polygon fill="black" stroke="black" points="294,-1402.06 290.5,-1392.06 287,-1402.06 294,-1402.06"/>
</g>
<!-- d5810750&#45;e4d5&#45;4054&#45;a821&#45;2ce7628207ad -->
<g id="node20" class="node">
<title>d5810750&#45;e4d5&#45;4054&#45;a821&#45;2ce7628207ad</title>
<polygon fill="none" stroke="black" points="327.5,-1283 253.5,-1283 253.5,-1209 327.5,-1209 327.5,-1283"/>
<text text-anchor="middle" x="290.5" y="-1237.5" font-family="Arial Unicode MS" font-size="10.00">Level5Expr </text>
</g>
<!-- c11ccdf2&#45;9372&#45;4da2&#45;bf9f&#45;68ae906ddd37&#45;&gt;d5810750&#45;e4d5&#45;4054&#45;a821&#45;2ce7628207ad -->
<g id="edge19" class="edge">
<title>c11ccdf2&#45;9372&#45;4da2&#45;bf9f&#45;68ae906ddd37&#45;&gt;d5810750&#45;e4d5&#45;4054&#45;a821&#45;2ce7628207ad</title>
<path fill="none" stroke="black" d="M290.5,-1318.7C290.5,-1310.54 290.5,-1301.75 290.5,-1293.22"/>
<polygon fill="black" stroke="black" points="294,-1293.01 290.5,-1283.01 287,-1293.01 294,-1293.01"/>
</g>
<!-- 46fe20ca&#45;974d&#45;47ba&#45;b4be&#45;e63b31440d27 -->
<g id="node21" class="node">
<title>46fe20ca&#45;974d&#45;47ba&#45;b4be&#45;e63b31440d27</title>
<polygon fill="none" stroke="black" points="334.5,-1173 246.5,-1173 246.5,-1085 334.5,-1085 334.5,-1173"/>
<text text-anchor="middle" x="290.5" y="-1120.5" font-family="Arial Unicode MS" font-size="10.00">EquivOperand </text>
</g>
<!-- d5810750&#45;e4d5&#45;4054&#45;a821&#45;2ce7628207ad&#45;&gt;46fe20ca&#45;974d&#45;47ba&#45;b4be&#45;e63b31440d27 -->
<g id="edge20" class="edge">
<title>d5810750&#45;e4d5&#45;4054&#45;a821&#45;2ce7628207ad&#45;&gt;46fe20ca&#45;974d&#45;47ba&#45;b4be&#45;e63b31440d27</title>
<path fill="none" stroke="black" d="M290.5,-1208.93C290.5,-1200.79 290.5,-1191.97 290.5,-1183.29"/>
<polygon fill="black" stroke="black" points="294,-1183.2 290.5,-1173.2 287,-1183.2 294,-1183.2"/>
</g>
<!-- bfb6545a&#45;20b9&#45;4533&#45;b3ae&#45;8bed08f6218f -->
<g id="node22" class="node">
<title>bfb6545a&#45;20b9&#45;4533&#45;b3ae&#45;8bed08f6218f</title>
<polygon fill="none" stroke="black" points="326.5,-1049 254.5,-1049 254.5,-977 326.5,-977 326.5,-1049"/>
<text text-anchor="middle" x="290.5" y="-1004.5" font-family="Arial Unicode MS" font-size="10.00">OrOperand </text>
</g>
<!-- 46fe20ca&#45;974d&#45;47ba&#45;b4be&#45;e63b31440d27&#45;&gt;bfb6545a&#45;20b9&#45;4533&#45;b3ae&#45;8bed08f6218f -->
<g id="edge21" class="edge">
<title>46fe20ca&#45;974d&#45;47ba&#45;b4be&#45;e63b31440d27&#45;&gt;bfb6545a&#45;20b9&#45;4533&#45;b3ae&#45;8bed08f6218f</title>
<path fill="none" stroke="black" d="M290.5,-1084.9C290.5,-1076.47 290.5,-1067.62 290.5,-1059.12"/>
<polygon fill="black" stroke="black" points="294,-1059 290.5,-1049 287,-1059 294,-1059"/>
</g>
<!-- 953aa8de&#45;eaba&#45;4357&#45;b82e&#45;5f76a80e6b6f -->
<g id="node23" class="node">
<title>953aa8de&#45;eaba&#45;4357&#45;b82e&#45;5f76a80e6b6f</title>
<polygon fill="none" stroke="black" points="330.5,-941 250.5,-941 250.5,-861 330.5,-861 330.5,-941"/>
<text text-anchor="middle" x="290.5" y="-892.5" font-family="Arial Unicode MS" font-size="10.00">AndOperand </text>
</g>
<!-- bfb6545a&#45;20b9&#45;4533&#45;b3ae&#45;8bed08f6218f&#45;&gt;953aa8de&#45;eaba&#45;4357&#45;b82e&#45;5f76a80e6b6f -->
<g id="edge22" class="edge">
<title>bfb6545a&#45;20b9&#45;4533&#45;b3ae&#45;8bed08f6218f&#45;&gt;953aa8de&#45;eaba&#45;4357&#45;b82e&#45;5f76a80e6b6f</title>
<path fill="none" stroke="black" d="M290.5,-976.89C290.5,-968.85 290.5,-960.14 290.5,-951.62"/>
<polygon fill="black" stroke="black" points="294,-951.36 290.5,-941.36 287,-951.36 294,-951.36"/>
</g>
<!-- c776eb59&#45;4a66&#45;442d&#45;9663&#45;9ecd02c9df0d -->
<g id="node24" class="node">
<title>c776eb59&#45;4a66&#45;442d&#45;9663&#45;9ecd02c9df0d</title>
<polygon fill="none" stroke="black" points="327.5,-825 253.5,-825 253.5,-751 327.5,-751 327.5,-825"/>
<text text-anchor="middle" x="290.5" y="-779.5" font-family="Arial Unicode MS" font-size="10.00">Level4Expr </text>
</g>
<!-- 953aa8de&#45;eaba&#45;4357&#45;b82e&#45;5f76a80e6b6f&#45;&gt;c776eb59&#45;4a66&#45;442d&#45;9663&#45;9ecd02c9df0d -->
<g id="edge23" class="edge">
<title>953aa8de&#45;eaba&#45;4357&#45;b82e&#45;5f76a80e6b6f&#45;&gt;c776eb59&#45;4a66&#45;442d&#45;9663&#45;9ecd02c9df0d</title>
<path fill="none" stroke="black" d="M290.5,-860.87C290.5,-852.61 290.5,-843.83 290.5,-835.34"/>
<polygon fill="black" stroke="black" points="294,-835.18 290.5,-825.18 287,-835.18 294,-835.18"/>
</g>
<!-- 0746c3a5&#45;2aa5&#45;4f70&#45;ad65&#45;558b774e1186 -->
<g id="node25" class="node">
<title>0746c3a5&#45;2aa5&#45;4f70&#45;ad65&#45;558b774e1186</title>
<polygon fill="none" stroke="black" points="327.5,-715 253.5,-715 253.5,-641 327.5,-641 327.5,-715"/>
<text text-anchor="middle" x="290.5" y="-669.5" font-family="Arial Unicode MS" font-size="10.00">Level3Expr </text>
</g>
<!-- c776eb59&#45;4a66&#45;442d&#45;9663&#45;9ecd02c9df0d&#45;&gt;0746c3a5&#45;2aa5&#45;4f70&#45;ad65&#45;558b774e1186 -->
<g id="edge24" class="edge">
<title>c776eb59&#45;4a66&#45;442d&#45;9663&#45;9ecd02c9df0d&#45;&gt;0746c3a5&#45;2aa5&#45;4f70&#45;ad65&#45;558b774e1186</title>
<path fill="none" stroke="black" d="M290.5,-750.74C290.5,-742.63 290.5,-733.93 290.5,-725.48"/>
<polygon fill="black" stroke="black" points="294,-725.35 290.5,-715.35 287,-725.35 294,-725.35"/>
</g>
<!-- 74e2e8f4&#45;1519&#45;4881&#45;9959&#45;03e4b4c565ae -->
<g id="node26" class="node">
<title>74e2e8f4&#45;1519&#45;4881&#45;9959&#45;03e4b4c565ae</title>
<polygon fill="none" stroke="black" points="327.5,-605 253.5,-605 253.5,-531 327.5,-531 327.5,-605"/>
<text text-anchor="middle" x="290.5" y="-559.5" font-family="Arial Unicode MS" font-size="10.00">Level2Expr </text>
</g>
<!-- 0746c3a5&#45;2aa5&#45;4f70&#45;ad65&#45;558b774e1186&#45;&gt;74e2e8f4&#45;1519&#45;4881&#45;9959&#45;03e4b4c565ae -->
<g id="edge25" class="edge">
<title>0746c3a5&#45;2aa5&#45;4f70&#45;ad65&#45;558b774e1186&#45;&gt;74e2e8f4&#45;1519&#45;4881&#45;9959&#45;03e4b4c565ae</title>
<path fill="none" stroke="black" d="M290.5,-640.74C290.5,-632.63 290.5,-623.93 290.5,-615.48"/>
<polygon fill="black" stroke="black" points="294,-615.35 290.5,-605.35 287,-615.35 294,-615.35"/>
</g>
<!-- 6100a52e&#45;fc23&#45;4a0f&#45;86b2&#45;dd4d5aadbee7 -->
<g id="node27" class="node">
<title>6100a52e&#45;fc23&#45;4a0f&#45;86b2&#45;dd4d5aadbee7</title>
<polygon fill="none" stroke="black" points="330.5,-495 250.5,-495 250.5,-415 330.5,-415 330.5,-495"/>
<text text-anchor="middle" x="290.5" y="-446.5" font-family="Arial Unicode MS" font-size="10.00">AddOperand </text>
</g>
<!-- 74e2e8f4&#45;1519&#45;4881&#45;9959&#45;03e4b4c565ae&#45;&gt;6100a52e&#45;fc23&#45;4a0f&#45;86b2&#45;dd4d5aadbee7 -->
<g id="edge26" class="edge">
<title>74e2e8f4&#45;1519&#45;4881&#45;9959&#45;03e4b4c565ae&#45;&gt;6100a52e&#45;fc23&#45;4a0f&#45;86b2&#45;dd4d5aadbee7</title>
<path fill="none" stroke="black" d="M290.5,-530.96C290.5,-522.86 290.5,-514.13 290.5,-505.58"/>
<polygon fill="black" stroke="black" points="294,-505.31 290.5,-495.31 287,-505.31 294,-505.31"/>
</g>
<!-- 6c8a1c66&#45;b404&#45;4d13&#45;8aec&#45;4b11b0db03ef -->
<g id="node28" class="node">
<title>6c8a1c66&#45;b404&#45;4d13&#45;8aec&#45;4b11b0db03ef</title>
<polygon fill="none" stroke="black" points="332,-379 249,-379 249,-296 332,-296 332,-379"/>
<text text-anchor="middle" x="290.5" y="-329" font-family="Arial Unicode MS" font-size="10.00">MultOperand </text>
</g>
<!-- 6100a52e&#45;fc23&#45;4a0f&#45;86b2&#45;dd4d5aadbee7&#45;&gt;6c8a1c66&#45;b404&#45;4d13&#45;8aec&#45;4b11b0db03ef -->
<g id="edge27" class="edge">
<title>6100a52e&#45;fc23&#45;4a0f&#45;86b2&#45;dd4d5aadbee7&#45;&gt;6c8a1c66&#45;b404&#45;4d13&#45;8aec&#45;4b11b0db03ef</title>
<path fill="none" stroke="black" d="M290.5,-414.9C290.5,-406.71 290.5,-397.96 290.5,-389.41"/>
<polygon fill="black" stroke="black" points="294,-389.14 290.5,-379.14 287,-389.14 294,-389.14"/>
</g>
<!-- 00e1b2d5&#45;0689&#45;4b9d&#45;bdd4&#45;a5646a33e5f7 -->
<g id="node29" class="node">
<title>00e1b2d5&#45;0689&#45;4b9d&#45;bdd4&#45;a5646a33e5f7</title>
<polygon fill="none" stroke="black" points="327.5,-260 253.5,-260 253.5,-186 327.5,-186 327.5,-260"/>
<text text-anchor="middle" x="290.5" y="-214.5" font-family="Arial Unicode MS" font-size="10.00">Level1Expr </text>
</g>
<!-- 6c8a1c66&#45;b404&#45;4d13&#45;8aec&#45;4b11b0db03ef&#45;&gt;00e1b2d5&#45;0689&#45;4b9d&#45;bdd4&#45;a5646a33e5f7 -->
<g id="edge28" class="edge">
<title>6c8a1c66&#45;b404&#45;4d13&#45;8aec&#45;4b11b0db03ef&#45;&gt;00e1b2d5&#45;0689&#45;4b9d&#45;bdd4&#45;a5646a33e5f7</title>
<path fill="none" stroke="black" d="M290.5,-295.88C290.5,-287.56 290.5,-278.74 290.5,-270.24"/>
<polygon fill="black" stroke="black" points="294,-270.08 290.5,-260.08 287,-270.08 294,-270.08"/>
</g>
<!-- 0c0c2199&#45;e5a6&#45;4d3c&#45;8296&#45;fe86c4f3ffc4 -->
<g id="node30" class="node">
<title>0c0c2199&#45;e5a6&#45;4d3c&#45;8296&#45;fe86c4f3ffc4</title>
<polygon fill="none" stroke="black" points="319.5,-150 261.5,-150 261.5,-92 319.5,-92 319.5,-150"/>
<text text-anchor="middle" x="290.5" y="-112.5" font-family="Arial Unicode MS" font-size="10.00">Primary </text>
</g>
<!-- 00e1b2d5&#45;0689&#45;4b9d&#45;bdd4&#45;a5646a33e5f7&#45;&gt;0c0c2199&#45;e5a6&#45;4d3c&#45;8296&#45;fe86c4f3ffc4 -->
<g id="edge29" class="edge">
<title>00e1b2d5&#45;0689&#45;4b9d&#45;bdd4&#45;a5646a33e5f7&#45;&gt;0c0c2199&#45;e5a6&#45;4d3c&#45;8296&#45;fe86c4f3ffc4</title>
<path fill="none" stroke="black" d="M290.5,-185.9C290.5,-177.64 290.5,-168.83 290.5,-160.47"/>
<polygon fill="black" stroke="black" points="294,-160.2 290.5,-150.2 287,-160.21 294,-160.2"/>
</g>
<!-- a499fc99&#45;0855&#45;4f31&#45;b5cc&#45;c5725d0d0052 -->
<g id="node31" class="node">
<title>a499fc99&#45;0855&#45;4f31&#45;b5cc&#45;c5725d0d0052</title>
<polygon fill="none" stroke="black" points="318.5,-56 262.5,-56 262.5,0 318.5,0 318.5,-56"/>
<text text-anchor="middle" x="290.5" y="-19.5" font-family="Arial Unicode MS" font-size="10.00">STRING </text>
</g>
<!-- 0c0c2199&#45;e5a6&#45;4d3c&#45;8296&#45;fe86c4f3ffc4&#45;&gt;a499fc99&#45;0855&#45;4f31&#45;b5cc&#45;c5725d0d0052 -->
<g id="edge30" class="edge">
<title>0c0c2199&#45;e5a6&#45;4d3c&#45;8296&#45;fe86c4f3ffc4&#45;&gt;a499fc99&#45;0855&#45;4f31&#45;b5cc&#45;c5725d0d0052</title>
<path fill="none" stroke="black" d="M290.5,-91.71C290.5,-83.62 290.5,-74.68 290.5,-66.15"/>
<polygon fill="black" stroke="black" points="294,-66.03 290.5,-56.03 287,-66.03 294,-66.03"/>
</g>
<!-- 5f81211d&#45;3362&#45;46ca&#45;97ed&#45;0a64f3de8bda -->
<g id="node33" class="node">
<title>5f81211d&#45;3362&#45;46ca&#45;97ed&#45;0a64f3de8bda</title>
<polygon fill="none" stroke="black" points="267.5,-1992.5 229.5,-1992.5 229.5,-1954.5 267.5,-1954.5 267.5,-1992.5"/>
<text text-anchor="middle" x="248.5" y="-1965" font-family="Arial Unicode MS" font-size="10.00">end </text>
</g>
<!-- 110c51d3&#45;68f2&#45;4b07&#45;8d21&#45;d49306ddea64&#45;&gt;5f81211d&#45;3362&#45;46ca&#45;97ed&#45;0a64f3de8bda -->
<g id="edge32" class="edge">
<title>110c51d3&#45;68f2&#45;4b07&#45;8d21&#45;d49306ddea64&#45;&gt;5f81211d&#45;3362&#45;46ca&#45;97ed&#45;0a64f3de8bda</title>
<path fill="none" stroke="black" d="M281.16,-2054.92C273.88,-2036.99 265.94,-2017.45 259.72,-2002.12"/>
<polygon fill="black" stroke="black" points="262.9,-2000.66 255.9,-1992.71 256.42,-2003.3 262.9,-2000.66"/>
</g>
<!-- da098a3e&#45;337c&#45;401e&#45;8297&#45;8667758f4010 -->
<g id="node34" class="node">
<title>da098a3e&#45;337c&#45;401e&#45;8297&#45;8667758f4010</title>
<polygon fill="none" stroke="black" points="347,-2004 286,-2004 286,-1943 347,-1943 347,-2004"/>
<text text-anchor="middle" x="316.5" y="-1965" font-family="Arial Unicode MS" font-size="10.00">program </text>
</g>
<!-- 110c51d3&#45;68f2&#45;4b07&#45;8d21&#45;d49306ddea64&#45;&gt;da098a3e&#45;337c&#45;401e&#45;8297&#45;8667758f4010 -->
<g id="edge33" class="edge">
<title>110c51d3&#45;68f2&#45;4b07&#45;8d21&#45;d49306ddea64&#45;&gt;da098a3e&#45;337c&#45;401e&#45;8297&#45;8667758f4010</title>
<path fill="none" stroke="black" d="M307.26,-2054.92C308.79,-2041.55 310.43,-2027.29 311.9,-2014.54"/>
<polygon fill="black" stroke="black" points="315.42,-2014.58 313.08,-2004.25 308.46,-2013.78 315.42,-2014.58"/>
</g>
<!-- 55b22fbe&#45;8469&#45;4021&#45;9234&#45;d7a248f701f8 -->
<g id="node35" class="node">
<title>55b22fbe&#45;8469&#45;4021&#45;9234&#45;d7a248f701f8</title>
<polygon fill="none" stroke="black" points="409.5,-1995.5 365.5,-1995.5 365.5,-1951.5 409.5,-1951.5 409.5,-1995.5"/>
<text text-anchor="middle" x="387.5" y="-1965" font-family="Arial Unicode MS" font-size="10.00">hello </text>
</g>
<!-- 110c51d3&#45;68f2&#45;4b07&#45;8d21&#45;d49306ddea64&#45;&gt;55b22fbe&#45;8469&#45;4021&#45;9234&#45;d7a248f701f8 -->
<g id="edge34" class="edge">
<title>110c51d3&#45;68f2&#45;4b07&#45;8d21&#45;d49306ddea64&#45;&gt;55b22fbe&#45;8469&#45;4021&#45;9234&#45;d7a248f701f8</title>
<path fill="none" stroke="black" d="M334.5,-2054.92C345.83,-2037.73 358.13,-2019.06 368.03,-2004.04"/>
<polygon fill="black" stroke="black" points="370.98,-2005.93 373.56,-1995.66 365.13,-2002.08 370.98,-2005.93"/>
</g>
</g>
</svg>
