<?xml version="1.0" encoding="UTF-8" standalone="no"?>
<!DOCTYPE svg PUBLIC "-//W3C//DTD SVG 1.1//EN"
 "http://www.w3.org/Graphics/SVG/1.1/DTD/svg11.dtd">
<!-- Generated by graphviz version 2.43.0 (0)
 -->
<!-- Title: G Pages: 1 -->
<svg width="964pt" height="984pt"
 viewBox="0.00 0.00 964.00 984.00" xmlns="http://www.w3.org/2000/svg" xmlns:xlink="http://www.w3.org/1999/xlink">
<g id="graph0" class="graph" transform="scale(1 1) rotate(0) translate(4 980)">
<title>G</title>
<polygon fill="white" stroke="transparent" points="-4,4 -4,-980 960,-980 960,4 -4,4"/>
<!-- 2d72d2e0&#45;9ce9&#45;491e&#45;b187&#45;4daa9ab54e41 -->
<g id="node1" class="node">
<title>2d72d2e0&#45;9ce9&#45;491e&#45;b187&#45;4daa9ab54e41</title>
<polygon fill="none" stroke="black" points="454.5,-976 393.5,-976 393.5,-915 454.5,-915 454.5,-976"/>
<text text-anchor="middle" x="424" y="-937" font-family="Arial Unicode MS" font-size="10.00">Program </text>
</g>
<!-- 887f46bd&#45;33df&#45;4a7e&#45;a0e1&#45;8ba66e5983d4 -->
<g id="node2" class="node">
<title>887f46bd&#45;33df&#45;4a7e&#45;a0e1&#45;8ba66e5983d4</title>
<polygon fill="none" stroke="black" points="430,-879 316,-879 316,-765 430,-765 430,-879"/>
<text text-anchor="middle" x="373" y="-813.5" font-family="Arial Unicode MS" font-size="10.00">ExecutableProgram </text>
</g>
<!-- 2d72d2e0&#45;9ce9&#45;491e&#45;b187&#45;4daa9ab54e41&#45;&gt;887f46bd&#45;33df&#45;4a7e&#45;a0e1&#45;8ba66e5983d4 -->
<g id="edge1" class="edge">
<title>2d72d2e0&#45;9ce9&#45;491e&#45;b187&#45;4daa9ab54e41&#45;&gt;887f46bd&#45;33df&#45;4a7e&#45;a0e1&#45;8ba66e5983d4</title>
<path fill="none" stroke="black" d="M411.52,-914.78C408.2,-906.85 404.47,-897.96 400.67,-888.92"/>
<polygon fill="black" stroke="black" points="403.8,-887.34 396.71,-879.48 397.35,-890.05 403.8,-887.34"/>
</g>
<!-- 4a3aa504&#45;c14f&#45;49b7&#45;81cb&#45;e41201997082 -->
<g id="node39" class="node">
<title>4a3aa504&#45;c14f&#45;49b7&#45;81cb&#45;e41201997082</title>
<polygon fill="none" stroke="black" points="504,-850 448,-850 448,-794 504,-794 504,-850"/>
<text text-anchor="middle" x="476" y="-813.5" font-family="Arial Unicode MS" font-size="10.00">&lt;EOF&gt; </text>
</g>
<!-- 2d72d2e0&#45;9ce9&#45;491e&#45;b187&#45;4daa9ab54e41&#45;&gt;4a3aa504&#45;c14f&#45;49b7&#45;81cb&#45;e41201997082 -->
<g id="edge38" class="edge">
<title>2d72d2e0&#45;9ce9&#45;491e&#45;b187&#45;4daa9ab54e41&#45;&gt;4a3aa504&#45;c14f&#45;49b7&#45;81cb&#45;e41201997082</title>
<path fill="none" stroke="black" d="M436.72,-914.78C443.82,-898.18 452.74,-877.36 460.27,-859.75"/>
<polygon fill="black" stroke="black" points="463.58,-860.91 464.3,-850.34 457.15,-858.15 463.58,-860.91"/>
</g>
<!-- 54bac930&#45;92aa&#45;4fe5&#45;a615&#45;80a562ff69ac -->
<g id="node3" class="node">
<title>54bac930&#45;92aa&#45;4fe5&#45;a615&#45;80a562ff69ac</title>
<polygon fill="none" stroke="black" points="367,-729 283,-729 283,-645 367,-645 367,-729"/>
<text text-anchor="middle" x="325" y="-678.5" font-family="Arial Unicode MS" font-size="10.00">ProgramStmt </text>
</g>
<!-- 887f46bd&#45;33df&#45;4a7e&#45;a0e1&#45;8ba66e5983d4&#45;&gt;54bac930&#45;92aa&#45;4fe5&#45;a615&#45;80a562ff69ac -->
<g id="edge2" class="edge">
<title>887f46bd&#45;33df&#45;4a7e&#45;a0e1&#45;8ba66e5983d4&#45;&gt;54bac930&#45;92aa&#45;4fe5&#45;a615&#45;80a562ff69ac</title>
<path fill="none" stroke="black" d="M352.78,-764.98C349.62,-756.21 346.36,-747.19 343.25,-738.56"/>
<polygon fill="black" stroke="black" points="346.48,-737.22 339.8,-729 339.9,-739.6 346.48,-737.22"/>
</g>
<!-- 58ad9c62&#45;4b88&#45;49f5&#45;aa8f&#45;d8e271b9d005 -->
<g id="node5" class="node">
<title>58ad9c62&#45;4b88&#45;49f5&#45;aa8f&#45;d8e271b9d005</title>
<polygon fill="none" stroke="black" points="459,-724 385,-724 385,-650 459,-650 459,-724"/>
<text text-anchor="middle" x="422" y="-678.5" font-family="Arial Unicode MS" font-size="10.00">MainRange </text>
</g>
<!-- 887f46bd&#45;33df&#45;4a7e&#45;a0e1&#45;8ba66e5983d4&#45;&gt;58ad9c62&#45;4b88&#45;49f5&#45;aa8f&#45;d8e271b9d005 -->
<g id="edge4" class="edge">
<title>887f46bd&#45;33df&#45;4a7e&#45;a0e1&#45;8ba66e5983d4&#45;&gt;58ad9c62&#45;4b88&#45;49f5&#45;aa8f&#45;d8e271b9d005</title>
<path fill="none" stroke="black" d="M393.64,-764.98C397.48,-754.54 401.46,-743.75 405.17,-733.67"/>
<polygon fill="black" stroke="black" points="408.47,-734.86 408.64,-724.26 401.9,-732.44 408.47,-734.86"/>
</g>
<!-- 198caf9c&#45;d005&#45;4c82&#45;aa3a&#45;872e3f77f54e -->
<g id="node4" class="node">
<title>198caf9c&#45;d005&#45;4c82&#45;aa3a&#45;872e3f77f54e</title>
<polygon fill="none" stroke="black" points="345.5,-578.5 304.5,-578.5 304.5,-537.5 345.5,-537.5 345.5,-578.5"/>
<text text-anchor="middle" x="325" y="-549.5" font-family="Arial Unicode MS" font-size="10.00">loop </text>
</g>
<!-- 54bac930&#45;92aa&#45;4fe5&#45;a615&#45;80a562ff69ac&#45;&gt;198caf9c&#45;d005&#45;4c82&#45;aa3a&#45;872e3f77f54e -->
<g id="edge3" class="edge">
<title>54bac930&#45;92aa&#45;4fe5&#45;a615&#45;80a562ff69ac&#45;&gt;198caf9c&#45;d005&#45;4c82&#45;aa3a&#45;872e3f77f54e</title>
<path fill="none" stroke="black" d="M325,-644.77C325,-626.59 325,-605.62 325,-588.96"/>
<polygon fill="black" stroke="black" points="328.5,-588.72 325,-578.72 321.5,-588.72 328.5,-588.72"/>
</g>
<!-- 1cfc490c&#45;c1a5&#45;48eb&#45;ad48&#45;9d5a4a233ff0 -->
<g id="node6" class="node">
<title>1cfc490c&#45;c1a5&#45;48eb&#45;ad48&#45;9d5a4a233ff0</title>
<polygon fill="none" stroke="black" points="426,-580 382,-580 382,-536 426,-536 426,-580"/>
<text text-anchor="middle" x="404" y="-549.5" font-family="Arial Unicode MS" font-size="10.00">Body </text>
</g>
<!-- 58ad9c62&#45;4b88&#45;49f5&#45;aa8f&#45;d8e271b9d005&#45;&gt;1cfc490c&#45;c1a5&#45;48eb&#45;ad48&#45;9d5a4a233ff0 -->
<g id="edge5" class="edge">
<title>58ad9c62&#45;4b88&#45;49f5&#45;aa8f&#45;d8e271b9d005&#45;&gt;1cfc490c&#45;c1a5&#45;48eb&#45;ad48&#45;9d5a4a233ff0</title>
<path fill="none" stroke="black" d="M416.89,-649.95C414.21,-631.07 410.97,-608.18 408.41,-590.08"/>
<polygon fill="black" stroke="black" points="411.85,-589.46 406.98,-580.05 404.92,-590.44 411.85,-589.46"/>
</g>
<!-- 1a8e4021&#45;36e9&#45;4362&#45;a6b4&#45;d496bb415826 -->
<g id="node35" class="node">
<title>1a8e4021&#45;36e9&#45;4362&#45;a6b4&#45;d496bb415826</title>
<polygon fill="none" stroke="black" points="631,-609 529,-609 529,-507 631,-507 631,-609"/>
<text text-anchor="middle" x="580" y="-549.5" font-family="Arial Unicode MS" font-size="10.00">EndProgramStmt </text>
</g>
<!-- 58ad9c62&#45;4b88&#45;49f5&#45;aa8f&#45;d8e271b9d005&#45;&gt;1a8e4021&#45;36e9&#45;4362&#45;a6b4&#45;d496bb415826 -->
<g id="edge34" class="edge">
<title>58ad9c62&#45;4b88&#45;49f5&#45;aa8f&#45;d8e271b9d005&#45;&gt;1a8e4021&#45;36e9&#45;4362&#45;a6b4&#45;d496bb415826</title>
<path fill="none" stroke="black" d="M459.04,-656.22C477.48,-641.4 500.22,-623.13 520.99,-606.44"/>
<polygon fill="black" stroke="black" points="523.23,-609.12 528.83,-600.13 518.85,-603.66 523.23,-609.12"/>
</g>
<!-- 686f2fd4&#45;0169&#45;4d74&#45;aae6&#45;e5fe859ebfaa -->
<g id="node7" class="node">
<title>686f2fd4&#45;0169&#45;4d74&#45;aae6&#45;e5fe859ebfaa</title>
<polygon fill="none" stroke="black" points="141.5,-471 50.5,-471 50.5,-380 141.5,-380 141.5,-471"/>
<text text-anchor="middle" x="96" y="-417" font-family="Arial Unicode MS" font-size="10.00">BodyConstruct </text>
</g>
<!-- 1cfc490c&#45;c1a5&#45;48eb&#45;ad48&#45;9d5a4a233ff0&#45;&gt;686f2fd4&#45;0169&#45;4d74&#45;aae6&#45;e5fe859ebfaa -->
<g id="edge6" class="edge">
<title>1cfc490c&#45;c1a5&#45;48eb&#45;ad48&#45;9d5a4a233ff0&#45;&gt;686f2fd4&#45;0169&#45;4d74&#45;aae6&#45;e5fe859ebfaa</title>
<path fill="none" stroke="black" d="M387.81,-535.93C378.89,-525.73 367.01,-514.17 354,-507 290.15,-471.84 263.1,-494.19 194,-471 179.75,-466.22 164.78,-460.05 150.95,-453.83"/>
<polygon fill="black" stroke="black" points="152.13,-450.52 141.58,-449.54 149.21,-456.89 152.13,-450.52"/>
</g>
<!-- 5980eff8&#45;8a55&#45;4f1f&#45;acb5&#45;d542d2e49924 -->
<g id="node10" class="node">
<title>5980eff8&#45;8a55&#45;4f1f&#45;acb5&#45;d542d2e49924</title>
<polygon fill="none" stroke="black" points="294.5,-471 203.5,-471 203.5,-380 294.5,-380 294.5,-471"/>
<text text-anchor="middle" x="249" y="-417" font-family="Arial Unicode MS" font-size="10.00">BodyConstruct </text>
</g>
<!-- 1cfc490c&#45;c1a5&#45;48eb&#45;ad48&#45;9d5a4a233ff0&#45;&gt;5980eff8&#45;8a55&#45;4f1f&#45;acb5&#45;d542d2e49924 -->
<g id="edge9" class="edge">
<title>1cfc490c&#45;c1a5&#45;48eb&#45;ad48&#45;9d5a4a233ff0&#45;&gt;5980eff8&#45;8a55&#45;4f1f&#45;acb5&#45;d542d2e49924</title>
<path fill="none" stroke="black" d="M384.15,-535.94C375.2,-526.77 364.34,-516.06 354,-507 337.89,-492.88 319.59,-478.37 302.83,-465.62"/>
<polygon fill="black" stroke="black" points="304.83,-462.75 294.74,-459.51 300.61,-468.33 304.83,-462.75"/>
</g>
<!-- 3a2e0125&#45;479b&#45;4561&#45;b798&#45;22ceb44917a6 -->
<g id="node14" class="node">
<title>3a2e0125&#45;479b&#45;4561&#45;b798&#45;22ceb44917a6</title>
<polygon fill="none" stroke="black" points="449.5,-471 358.5,-471 358.5,-380 449.5,-380 449.5,-471"/>
<text text-anchor="middle" x="404" y="-417" font-family="Arial Unicode MS" font-size="10.00">BodyConstruct </text>
</g>
<!-- 1cfc490c&#45;c1a5&#45;48eb&#45;ad48&#45;9d5a4a233ff0&#45;&gt;3a2e0125&#45;479b&#45;4561&#45;b798&#45;22ceb44917a6 -->
<g id="edge13" class="edge">
<title>1cfc490c&#45;c1a5&#45;48eb&#45;ad48&#45;9d5a4a233ff0&#45;&gt;3a2e0125&#45;479b&#45;4561&#45;b798&#45;22ceb44917a6</title>
<path fill="none" stroke="black" d="M404,-535.74C404,-520.93 404,-500.45 404,-481.22"/>
<polygon fill="black" stroke="black" points="407.5,-481.02 404,-471.02 400.5,-481.02 407.5,-481.02"/>
</g>
<!-- 728e29d2&#45;b21f&#45;4683&#45;8961&#45;c9f5bc624e83 -->
<g id="node34" class="node">
<title>728e29d2&#45;b21f&#45;4683&#45;8961&#45;c9f5bc624e83</title>
<polygon fill="none" stroke="black" points="508.5,-446 467.5,-446 467.5,-405 508.5,-405 508.5,-446"/>
<text text-anchor="middle" x="488" y="-417" font-family="Arial Unicode MS" font-size="10.00">stop </text>
</g>
<!-- 1cfc490c&#45;c1a5&#45;48eb&#45;ad48&#45;9d5a4a233ff0&#45;&gt;728e29d2&#45;b21f&#45;4683&#45;8961&#45;c9f5bc624e83 -->
<g id="edge33" class="edge">
<title>1cfc490c&#45;c1a5&#45;48eb&#45;ad48&#45;9d5a4a233ff0&#45;&gt;728e29d2&#45;b21f&#45;4683&#45;8961&#45;c9f5bc624e83</title>
<path fill="none" stroke="black" d="M417.68,-535.74C431.93,-513.61 454.3,-478.85 469.98,-454.5"/>
<polygon fill="black" stroke="black" points="472.95,-456.34 475.42,-446.04 467.07,-452.56 472.95,-456.34"/>
</g>
<!-- 4285e04e&#45;59ba&#45;469d&#45;8ca8&#45;22349edada37 -->
<g id="node8" class="node">
<title>4285e04e&#45;59ba&#45;469d&#45;8ca8&#45;22349edada37</title>
<polygon fill="none" stroke="black" points="56,-306 0,-306 0,-250 56,-250 56,-306"/>
<text text-anchor="middle" x="28" y="-269.5" font-family="Arial Unicode MS" font-size="10.00">implicit </text>
</g>
<!-- 686f2fd4&#45;0169&#45;4d74&#45;aae6&#45;e5fe859ebfaa&#45;&gt;4285e04e&#45;59ba&#45;469d&#45;8ca8&#45;22349edada37 -->
<g id="edge7" class="edge">
<title>686f2fd4&#45;0169&#45;4d74&#45;aae6&#45;e5fe859ebfaa&#45;&gt;4285e04e&#45;59ba&#45;469d&#45;8ca8&#45;22349edada37</title>
<path fill="none" stroke="black" d="M75.04,-379.66C65.38,-358.99 54.07,-334.78 44.96,-315.29"/>
<polygon fill="black" stroke="black" points="48.09,-313.71 40.68,-306.13 41.74,-316.67 48.09,-313.71"/>
</g>
<!-- 855e9da5&#45;7df9&#45;42a7&#45;8056&#45;b3e0792ce456 -->
<g id="node9" class="node">
<title>855e9da5&#45;7df9&#45;42a7&#45;8056&#45;b3e0792ce456</title>
<polygon fill="none" stroke="black" points="118,-300 74,-300 74,-256 118,-256 118,-300"/>
<text text-anchor="middle" x="96" y="-269.5" font-family="Arial Unicode MS" font-size="10.00">none </text>
</g>
<!-- 686f2fd4&#45;0169&#45;4d74&#45;aae6&#45;e5fe859ebfaa&#45;&gt;855e9da5&#45;7df9&#45;42a7&#45;8056&#45;b3e0792ce456 -->
<g id="edge8" class="edge">
<title>686f2fd4&#45;0169&#45;4d74&#45;aae6&#45;e5fe859ebfaa&#45;&gt;855e9da5&#45;7df9&#45;42a7&#45;8056&#45;b3e0792ce456</title>
<path fill="none" stroke="black" d="M96,-379.66C96,-357.29 96,-330.78 96,-310.58"/>
<polygon fill="black" stroke="black" points="99.5,-310.36 96,-300.36 92.5,-310.36 99.5,-310.36"/>
</g>
<!-- 2fc05cef&#45;5596&#45;4b80&#45;9cdd&#45;d455050005dd -->
<g id="node11" class="node">
<title>2fc05cef&#45;5596&#45;4b80&#45;9cdd&#45;d455050005dd</title>
<polygon fill="none" stroke="black" points="190,-305 136,-305 136,-251 190,-251 190,-305"/>
<text text-anchor="middle" x="163" y="-269.5" font-family="Arial Unicode MS" font-size="10.00">integer </text>
</g>
<!-- 5980eff8&#45;8a55&#45;4f1f&#45;acb5&#45;d542d2e49924&#45;&gt;2fc05cef&#45;5596&#45;4b80&#45;9cdd&#45;d455050005dd -->
<g id="edge10" class="edge">
<title>5980eff8&#45;8a55&#45;4f1f&#45;acb5&#45;d542d2e49924&#45;&gt;2fc05cef&#45;5596&#45;4b80&#45;9cdd&#45;d455050005dd</title>
<path fill="none" stroke="black" d="M220.57,-379.61C213.41,-368.07 205.83,-355.63 199,-344 193.36,-334.39 187.42,-323.86 182.04,-314.13"/>
<polygon fill="black" stroke="black" points="184.96,-312.18 177.07,-305.1 178.83,-315.55 184.96,-312.18"/>
</g>
<!-- 6b8f8ab7&#45;7cb2&#45;46eb&#45;a349&#45;1a840ba6fec9 -->
<g id="node12" class="node">
<title>6b8f8ab7&#45;7cb2&#45;46eb&#45;a349&#45;1a840ba6fec9</title>
<polygon fill="none" stroke="black" points="244,-296 208,-296 208,-260 244,-260 244,-296"/>
<text text-anchor="middle" x="226" y="-269.5" font-family="Arial Unicode MS" font-size="10.00">:: </text>
</g>
<!-- 5980eff8&#45;8a55&#45;4f1f&#45;acb5&#45;d542d2e49924&#45;&gt;6b8f8ab7&#45;7cb2&#45;46eb&#45;a349&#45;1a840ba6fec9 -->
<g id="edge11" class="edge">
<title>5980eff8&#45;8a55&#45;4f1f&#45;acb5&#45;d542d2e49924&#45;&gt;6b8f8ab7&#45;7cb2&#45;46eb&#45;a349&#45;1a840ba6fec9</title>
<path fill="none" stroke="black" d="M241.91,-379.66C238.11,-355.62 233.56,-326.8 230.29,-306.17"/>
<polygon fill="black" stroke="black" points="233.74,-305.53 228.72,-296.2 226.82,-306.62 233.74,-305.53"/>
</g>
<!-- 898a2856&#45;5b30&#45;4322&#45;a657&#45;18b3fb549b27 -->
<g id="node13" class="node">
<title>898a2856&#45;5b30&#45;4322&#45;a657&#45;18b3fb549b27</title>
<polygon fill="none" stroke="black" points="298,-296 262,-296 262,-260 298,-260 298,-296"/>
<text text-anchor="middle" x="280" y="-269.5" font-family="Arial Unicode MS" font-size="10.00">i </text>
</g>
<!-- 5980eff8&#45;8a55&#45;4f1f&#45;acb5&#45;d542d2e49924&#45;&gt;898a2856&#45;5b30&#45;4322&#45;a657&#45;18b3fb549b27 -->
<g id="edge12" class="edge">
<title>5980eff8&#45;8a55&#45;4f1f&#45;acb5&#45;d542d2e49924&#45;&gt;898a2856&#45;5b30&#45;4322&#45;a657&#45;18b3fb549b27</title>
<path fill="none" stroke="black" d="M258.55,-379.66C263.67,-355.62 269.82,-326.8 274.21,-306.17"/>
<polygon fill="black" stroke="black" points="277.68,-306.71 276.34,-296.2 270.83,-305.25 277.68,-306.71"/>
</g>
<!-- c0862a19&#45;0ab7&#45;4fc8&#45;bef6&#45;5d60fe672f39 -->
<g id="node15" class="node">
<title>c0862a19&#45;0ab7&#45;4fc8&#45;bef6&#45;5d60fe672f39</title>
<polygon fill="none" stroke="black" points="352,-296 316,-296 316,-260 352,-260 352,-296"/>
<text text-anchor="middle" x="334" y="-269.5" font-family="Arial Unicode MS" font-size="10.00">do </text>
</g>
<!-- 3a2e0125&#45;479b&#45;4561&#45;b798&#45;22ceb44917a6&#45;&gt;c0862a19&#45;0ab7&#45;4fc8&#45;bef6&#45;5d60fe672f39 -->
<g id="edge14" class="edge">
<title>3a2e0125&#45;479b&#45;4561&#45;b798&#45;22ceb44917a6&#45;&gt;c0862a19&#45;0ab7&#45;4fc8&#45;bef6&#45;5d60fe672f39</title>
<path fill="none" stroke="black" d="M379.11,-379.76C372.97,-368.22 366.56,-355.74 361,-344 355.08,-331.49 349.11,-317.32 344.3,-305.42"/>
<polygon fill="black" stroke="black" points="347.51,-304.02 340.55,-296.03 341.01,-306.62 347.51,-304.02"/>
</g>
<!-- 41f0c2a8&#45;85ed&#45;46d4&#45;a04c&#45;4b378fe176dc -->
<g id="node16" class="node">
<title>41f0c2a8&#45;85ed&#45;46d4&#45;a04c&#45;4b378fe176dc</title>
<polygon fill="none" stroke="black" points="486,-336 370,-336 370,-220 486,-220 486,-336"/>
<text text-anchor="middle" x="428" y="-269.5" font-family="Arial Unicode MS" font-size="10.00">CommaLoopControl </text>
</g>
<!-- 3a2e0125&#45;479b&#45;4561&#45;b798&#45;22ceb44917a6&#45;&gt;41f0c2a8&#45;85ed&#45;46d4&#45;a04c&#45;4b378fe176dc -->
<g id="edge15" class="edge">
<title>3a2e0125&#45;479b&#45;4561&#45;b798&#45;22ceb44917a6&#45;&gt;41f0c2a8&#45;85ed&#45;46d4&#45;a04c&#45;4b378fe176dc</title>
<path fill="none" stroke="black" d="M411.4,-379.66C413.15,-369 415.07,-357.4 416.95,-346"/>
<polygon fill="black" stroke="black" points="420.42,-346.49 418.59,-336.05 413.51,-345.35 420.42,-346.49"/>
</g>
<!-- 27425882&#45;eef3&#45;4d0e&#45;96ea&#45;97ea9cac2f18 -->
<g id="node22" class="node">
<title>27425882&#45;eef3&#45;4d0e&#45;96ea&#45;97ea9cac2f18</title>
<polygon fill="none" stroke="black" points="708,-344 576,-344 576,-212 708,-212 708,-344"/>
<text text-anchor="middle" x="642" y="-269.5" font-family="Arial Unicode MS" font-size="10.00">ExecutionPartConstruct </text>
</g>
<!-- 3a2e0125&#45;479b&#45;4561&#45;b798&#45;22ceb44917a6&#45;&gt;27425882&#45;eef3&#45;4d0e&#45;96ea&#45;97ea9cac2f18 -->
<g id="edge21" class="edge">
<title>3a2e0125&#45;479b&#45;4561&#45;b798&#45;22ceb44917a6&#45;&gt;27425882&#45;eef3&#45;4d0e&#45;96ea&#45;97ea9cac2f18</title>
<path fill="none" stroke="black" d="M449.5,-386.02C452.34,-383.93 455.18,-381.91 458,-380 492.48,-356.63 532.84,-334 566.97,-316.1"/>
<polygon fill="black" stroke="black" points="568.7,-319.15 575.96,-311.42 565.47,-312.94 568.7,-319.15"/>
</g>
<!-- 15ec2df9&#45;f6ab&#45;44ab&#45;be64&#45;ad7b54a45473 -->
<g id="node31" class="node">
<title>15ec2df9&#45;f6ab&#45;44ab&#45;be64&#45;ad7b54a45473</title>
<polygon fill="none" stroke="black" points="920,-315 846,-315 846,-241 920,-241 920,-315"/>
<text text-anchor="middle" x="883" y="-269.5" font-family="Arial Unicode MS" font-size="10.00">EndDoStmt </text>
</g>
<!-- 3a2e0125&#45;479b&#45;4561&#45;b798&#45;22ceb44917a6&#45;&gt;15ec2df9&#45;f6ab&#45;44ab&#45;be64&#45;ad7b54a45473 -->
<g id="edge30" class="edge">
<title>3a2e0125&#45;479b&#45;4561&#45;b798&#45;22ceb44917a6&#45;&gt;15ec2df9&#45;f6ab&#45;44ab&#45;be64&#45;ad7b54a45473</title>
<path fill="none" stroke="black" d="M449.76,-384.17C452.47,-382.63 455.22,-381.22 458,-380 564.41,-333.28 604.56,-373.39 717,-344 758.56,-333.14 803.85,-314.95 836.61,-300.57"/>
<polygon fill="black" stroke="black" points="838.21,-303.69 845.93,-296.43 835.37,-297.29 838.21,-303.69"/>
</g>
<!-- 9af73d1c&#45;8ed4&#45;4684&#45;9d96&#45;1bc85a1a2727 -->
<g id="node17" class="node">
<title>9af73d1c&#45;8ed4&#45;4684&#45;9d96&#45;1bc85a1a2727</title>
<polygon fill="none" stroke="black" points="284,-142 248,-142 248,-106 284,-106 284,-142"/>
<text text-anchor="middle" x="266" y="-115.5" font-family="Arial Unicode MS" font-size="10.00">i </text>
</g>
<!-- 41f0c2a8&#45;85ed&#45;46d4&#45;a04c&#45;4b378fe176dc&#45;&gt;9af73d1c&#45;8ed4&#45;4684&#45;9d96&#45;1bc85a1a2727 -->
<g id="edge16" class="edge">
<title>41f0c2a8&#45;85ed&#45;46d4&#45;a04c&#45;4b378fe176dc&#45;&gt;9af73d1c&#45;8ed4&#45;4684&#45;9d96&#45;1bc85a1a2727</title>
<path fill="none" stroke="black" d="M371.19,-219.87C367.82,-217.12 364.41,-214.48 361,-212 333.34,-191.89 317.18,-200.18 293,-176 286.1,-169.1 280.55,-160.08 276.31,-151.54"/>
<polygon fill="black" stroke="black" points="279.41,-149.9 272.08,-142.24 273.04,-152.79 279.41,-149.9"/>
</g>
<!-- ccf67219&#45;99e8&#45;483c&#45;889c&#45;7208b7b62972 -->
<g id="node18" class="node">
<title>ccf67219&#45;99e8&#45;483c&#45;889c&#45;7208b7b62972</title>
<polygon fill="none" stroke="black" points="338,-142 302,-142 302,-106 338,-106 338,-142"/>
<text text-anchor="middle" x="320" y="-115.5" font-family="Arial Unicode MS" font-size="10.00">= </text>
</g>
<!-- 41f0c2a8&#45;85ed&#45;46d4&#45;a04c&#45;4b378fe176dc&#45;&gt;ccf67219&#45;99e8&#45;483c&#45;889c&#45;7208b7b62972 -->
<g id="edge17" class="edge">
<title>41f0c2a8&#45;85ed&#45;46d4&#45;a04c&#45;4b378fe176dc&#45;&gt;ccf67219&#45;99e8&#45;483c&#45;889c&#45;7208b7b62972</title>
<path fill="none" stroke="black" d="M379.15,-219.93C368.05,-205.94 356.69,-190.75 347,-176 341.94,-168.3 337.03,-159.54 332.81,-151.49"/>
<polygon fill="black" stroke="black" points="335.87,-149.79 328.22,-142.46 329.63,-152.96 335.87,-149.79"/>
</g>
<!-- 1710ceff&#45;eb44&#45;4c9e&#45;ad22&#45;933b21c3a8fc -->
<g id="node19" class="node">
<title>1710ceff&#45;eb44&#45;4c9e&#45;ad22&#45;933b21c3a8fc</title>
<polygon fill="none" stroke="black" points="392,-142 356,-142 356,-106 392,-106 392,-142"/>
<text text-anchor="middle" x="374" y="-115.5" font-family="Arial Unicode MS" font-size="10.00">0 </text>
</g>
<!-- 41f0c2a8&#45;85ed&#45;46d4&#45;a04c&#45;4b378fe176dc&#45;&gt;1710ceff&#45;eb44&#45;4c9e&#45;ad22&#45;933b21c3a8fc -->
<g id="edge18" class="edge">
<title>41f0c2a8&#45;85ed&#45;46d4&#45;a04c&#45;4b378fe176dc&#45;&gt;1710ceff&#45;eb44&#45;4c9e&#45;ad22&#45;933b21c3a8fc</title>
<path fill="none" stroke="black" d="M407.74,-219.97C399.46,-196.66 390.27,-170.8 383.58,-151.96"/>
<polygon fill="black" stroke="black" points="386.78,-150.53 380.14,-142.27 380.19,-152.87 386.78,-150.53"/>
</g>
<!-- b93c4d45&#45;884b&#45;4c51&#45;8fd1&#45;40c1dd493106 -->
<g id="node20" class="node">
<title>b93c4d45&#45;884b&#45;4c51&#45;8fd1&#45;40c1dd493106</title>
<polygon fill="none" stroke="black" points="446,-142 410,-142 410,-106 446,-106 446,-142"/>
<text text-anchor="middle" x="428" y="-115.5" font-family="Arial Unicode MS" font-size="10.00">, </text>
</g>
<!-- 41f0c2a8&#45;85ed&#45;46d4&#45;a04c&#45;4b378fe176dc&#45;&gt;b93c4d45&#45;884b&#45;4c51&#45;8fd1&#45;40c1dd493106 -->
<g id="edge19" class="edge">
<title>41f0c2a8&#45;85ed&#45;46d4&#45;a04c&#45;4b378fe176dc&#45;&gt;b93c4d45&#45;884b&#45;4c51&#45;8fd1&#45;40c1dd493106</title>
<path fill="none" stroke="black" d="M428,-219.97C428,-196.87 428,-171.28 428,-152.48"/>
<polygon fill="black" stroke="black" points="431.5,-152.27 428,-142.27 424.5,-152.27 431.5,-152.27"/>
</g>
<!-- 7432acbb&#45;0156&#45;47ac&#45;b61c&#45;134dba934d9c -->
<g id="node21" class="node">
<title>7432acbb&#45;0156&#45;47ac&#45;b61c&#45;134dba934d9c</title>
<polygon fill="none" stroke="black" points="500,-142 464,-142 464,-106 500,-106 500,-142"/>
<text text-anchor="middle" x="482" y="-115.5" font-family="Arial Unicode MS" font-size="10.00">9 </text>
</g>
<!-- 41f0c2a8&#45;85ed&#45;46d4&#45;a04c&#45;4b378fe176dc&#45;&gt;7432acbb&#45;0156&#45;47ac&#45;b61c&#45;134dba934d9c -->
<g id="edge20" class="edge">
<title>41f0c2a8&#45;85ed&#45;46d4&#45;a04c&#45;4b378fe176dc&#45;&gt;7432acbb&#45;0156&#45;47ac&#45;b61c&#45;134dba934d9c</title>
<path fill="none" stroke="black" d="M448.26,-219.97C456.54,-196.66 465.73,-170.8 472.42,-151.96"/>
<polygon fill="black" stroke="black" points="475.81,-152.87 475.86,-142.27 469.22,-150.53 475.81,-152.87"/>
</g>
<!-- c9c7eb83&#45;adb6&#45;4436&#45;a7c3&#45;b94a476ee080 -->
<g id="node23" class="node">
<title>c9c7eb83&#45;adb6&#45;4436&#45;a7c3&#45;b94a476ee080</title>
<polygon fill="none" stroke="black" points="562,-146 518,-146 518,-102 562,-102 562,-146"/>
<text text-anchor="middle" x="540" y="-115.5" font-family="Arial Unicode MS" font-size="10.00">write </text>
</g>
<!-- 27425882&#45;eef3&#45;4d0e&#45;96ea&#45;97ea9cac2f18&#45;&gt;c9c7eb83&#45;adb6&#45;4436&#45;a7c3&#45;b94a476ee080 -->
<g id="edge22" class="edge">
<title>27425882&#45;eef3&#45;4d0e&#45;96ea&#45;97ea9cac2f18&#45;&gt;c9c7eb83&#45;adb6&#45;4436&#45;a7c3&#45;b94a476ee080</title>
<path fill="none" stroke="black" d="M595.34,-211.97C587.09,-200.1 578.69,-187.75 571,-176 566.53,-169.17 561.88,-161.72 557.58,-154.67"/>
<polygon fill="black" stroke="black" points="560.53,-152.79 552.36,-146.04 554.54,-156.41 560.53,-152.79"/>
</g>
<!-- 9e117789&#45;ebf8&#45;4ade&#45;9b22&#45;af3928ec1fe4 -->
<g id="node24" class="node">
<title>9e117789&#45;ebf8&#45;4ade&#45;9b22&#45;af3928ec1fe4</title>
<polygon fill="none" stroke="black" points="616,-142 580,-142 580,-106 616,-106 616,-142"/>
<text text-anchor="middle" x="598" y="-115.5" font-family="Arial Unicode MS" font-size="10.00">( </text>
</g>
<!-- 27425882&#45;eef3&#45;4d0e&#45;96ea&#45;97ea9cac2f18&#45;&gt;9e117789&#45;ebf8&#45;4ade&#45;9b22&#45;af3928ec1fe4 -->
<g id="edge23" class="edge">
<title>27425882&#45;eef3&#45;4d0e&#45;96ea&#45;97ea9cac2f18&#45;&gt;9e117789&#45;ebf8&#45;4ade&#45;9b22&#45;af3928ec1fe4</title>
<path fill="none" stroke="black" d="M623.08,-211.66C617.05,-190.8 610.69,-168.85 605.89,-152.26"/>
<polygon fill="black" stroke="black" points="609.12,-150.83 602.98,-142.2 602.4,-152.77 609.12,-150.83"/>
</g>
<!-- b497ce8e&#45;55b3&#45;4d1d&#45;9992&#45;d30a250d1104 -->
<g id="node25" class="node">
<title>b497ce8e&#45;55b3&#45;4d1d&#45;9992&#45;d30a250d1104</title>
<polygon fill="none" stroke="black" points="738,-176 634,-176 634,-72 738,-72 738,-176"/>
<text text-anchor="middle" x="686" y="-115.5" font-family="Arial Unicode MS" font-size="10.00">IoControlSpecList </text>
</g>
<!-- 27425882&#45;eef3&#45;4d0e&#45;96ea&#45;97ea9cac2f18&#45;&gt;b497ce8e&#45;55b3&#45;4d1d&#45;9992&#45;d30a250d1104 -->
<g id="edge24" class="edge">
<title>27425882&#45;eef3&#45;4d0e&#45;96ea&#45;97ea9cac2f18&#45;&gt;b497ce8e&#45;55b3&#45;4d1d&#45;9992&#45;d30a250d1104</title>
<path fill="none" stroke="black" d="M660.92,-211.66C663.39,-203.1 665.92,-194.35 668.38,-185.87"/>
<polygon fill="black" stroke="black" points="671.8,-186.64 671.22,-176.06 665.08,-184.7 671.8,-186.64"/>
</g>
<!-- a7ffe9e5&#45;cbc2&#45;4381&#45;9848&#45;7cedfeeaabb7 -->
<g id="node29" class="node">
<title>a7ffe9e5&#45;cbc2&#45;4381&#45;9848&#45;7cedfeeaabb7</title>
<polygon fill="none" stroke="black" points="792,-142 756,-142 756,-106 792,-106 792,-142"/>
<text text-anchor="middle" x="774" y="-115.5" font-family="Arial Unicode MS" font-size="10.00">) </text>
</g>
<!-- 27425882&#45;eef3&#45;4d0e&#45;96ea&#45;97ea9cac2f18&#45;&gt;a7ffe9e5&#45;cbc2&#45;4381&#45;9848&#45;7cedfeeaabb7 -->
<g id="edge28" class="edge">
<title>27425882&#45;eef3&#45;4d0e&#45;96ea&#45;97ea9cac2f18&#45;&gt;a7ffe9e5&#45;cbc2&#45;4381&#45;9848&#45;7cedfeeaabb7</title>
<path fill="none" stroke="black" d="M708.12,-219.65C721.84,-206.09 735.58,-191.15 747,-176 752.63,-168.52 757.75,-159.71 761.98,-151.53"/>
<polygon fill="black" stroke="black" points="765.23,-152.86 766.51,-142.34 758.95,-149.76 765.23,-152.86"/>
</g>
<!-- 1bfa075d&#45;c080&#45;45ee&#45;b104&#45;d14553a298e0 -->
<g id="node30" class="node">
<title>1bfa075d&#45;c080&#45;45ee&#45;b104&#45;d14553a298e0</title>
<polygon fill="none" stroke="black" points="846,-142 810,-142 810,-106 846,-106 846,-142"/>
<text text-anchor="middle" x="828" y="-115.5" font-family="Arial Unicode MS" font-size="10.00">i </text>
</g>
<!-- 27425882&#45;eef3&#45;4d0e&#45;96ea&#45;97ea9cac2f18&#45;&gt;1bfa075d&#45;c080&#45;45ee&#45;b104&#45;d14553a298e0 -->
<g id="edge29" class="edge">
<title>27425882&#45;eef3&#45;4d0e&#45;96ea&#45;97ea9cac2f18&#45;&gt;1bfa075d&#45;c080&#45;45ee&#45;b104&#45;d14553a298e0</title>
<path fill="none" stroke="black" d="M708.36,-245.08C739.29,-227.82 774.92,-204.22 801,-176 807.52,-168.94 812.94,-160.02 817.18,-151.61"/>
<polygon fill="black" stroke="black" points="820.39,-153.01 821.45,-142.47 814.05,-150.05 820.39,-153.01"/>
</g>
<!-- fd8020a1&#45;95f9&#45;4388&#45;bf16&#45;5c3e374eba68 -->
<g id="node26" class="node">
<title>fd8020a1&#45;95f9&#45;4388&#45;bf16&#45;5c3e374eba68</title>
<polygon fill="none" stroke="black" points="650,-36 614,-36 614,0 650,0 650,-36"/>
<text text-anchor="middle" x="632" y="-9.5" font-family="Arial Unicode MS" font-size="10.00">* </text>
</g>
<!-- b497ce8e&#45;55b3&#45;4d1d&#45;9992&#45;d30a250d1104&#45;&gt;fd8020a1&#45;95f9&#45;4388&#45;bf16&#45;5c3e374eba68 -->
<g id="edge25" class="edge">
<title>b497ce8e&#45;55b3&#45;4d1d&#45;9992&#45;d30a250d1104&#45;&gt;fd8020a1&#45;95f9&#45;4388&#45;bf16&#45;5c3e374eba68</title>
<path fill="none" stroke="black" d="M659.47,-71.91C654.64,-62.61 649.79,-53.27 645.54,-45.08"/>
<polygon fill="black" stroke="black" points="648.57,-43.32 640.86,-36.06 642.36,-46.55 648.57,-43.32"/>
</g>
<!-- b3949439&#45;ef63&#45;4f44&#45;a73c&#45;1d473c9929e6 -->
<g id="node27" class="node">
<title>b3949439&#45;ef63&#45;4f44&#45;a73c&#45;1d473c9929e6</title>
<polygon fill="none" stroke="black" points="704,-36 668,-36 668,0 704,0 704,-36"/>
<text text-anchor="middle" x="686" y="-9.5" font-family="Arial Unicode MS" font-size="10.00">, </text>
</g>
<!-- b497ce8e&#45;55b3&#45;4d1d&#45;9992&#45;d30a250d1104&#45;&gt;b3949439&#45;ef63&#45;4f44&#45;a73c&#45;1d473c9929e6 -->
<g id="edge26" class="edge">
<title>b497ce8e&#45;55b3&#45;4d1d&#45;9992&#45;d30a250d1104&#45;&gt;b3949439&#45;ef63&#45;4f44&#45;a73c&#45;1d473c9929e6</title>
<path fill="none" stroke="black" d="M686,-71.91C686,-63.01 686,-54.08 686,-46.15"/>
<polygon fill="black" stroke="black" points="689.5,-46.06 686,-36.06 682.5,-46.06 689.5,-46.06"/>
</g>
<!-- a1b05a14&#45;e376&#45;4e6f&#45;a8a4&#45;893f3fd30727 -->
<g id="node28" class="node">
<title>a1b05a14&#45;e376&#45;4e6f&#45;a8a4&#45;893f3fd30727</title>
<polygon fill="none" stroke="black" points="758,-36 722,-36 722,0 758,0 758,-36"/>
<text text-anchor="middle" x="740" y="-9.5" font-family="Arial Unicode MS" font-size="10.00">* </text>
</g>
<!-- b497ce8e&#45;55b3&#45;4d1d&#45;9992&#45;d30a250d1104&#45;&gt;a1b05a14&#45;e376&#45;4e6f&#45;a8a4&#45;893f3fd30727 -->
<g id="edge27" class="edge">
<title>b497ce8e&#45;55b3&#45;4d1d&#45;9992&#45;d30a250d1104&#45;&gt;a1b05a14&#45;e376&#45;4e6f&#45;a8a4&#45;893f3fd30727</title>
<path fill="none" stroke="black" d="M712.53,-71.91C717.36,-62.61 722.21,-53.27 726.46,-45.08"/>
<polygon fill="black" stroke="black" points="729.64,-46.55 731.14,-36.06 723.43,-43.32 729.64,-46.55"/>
</g>
<!-- da772b06&#45;cbd0&#45;4e35&#45;b19c&#45;5178a37cf8b3 -->
<g id="node32" class="node">
<title>da772b06&#45;cbd0&#45;4e35&#45;b19c&#45;5178a37cf8b3</title>
<polygon fill="none" stroke="black" points="902,-143 864,-143 864,-105 902,-105 902,-143"/>
<text text-anchor="middle" x="883" y="-115.5" font-family="Arial Unicode MS" font-size="10.00">end </text>
</g>
<!-- 15ec2df9&#45;f6ab&#45;44ab&#45;be64&#45;ad7b54a45473&#45;&gt;da772b06&#45;cbd0&#45;4e35&#45;b19c&#45;5178a37cf8b3 -->
<g id="edge31" class="edge">
<title>15ec2df9&#45;f6ab&#45;44ab&#45;be64&#45;ad7b54a45473&#45;&gt;da772b06&#45;cbd0&#45;4e35&#45;b19c&#45;5178a37cf8b3</title>
<path fill="none" stroke="black" d="M883,-240.98C883,-214.21 883,-178.2 883,-153.44"/>
<polygon fill="black" stroke="black" points="886.5,-153.26 883,-143.26 879.5,-153.26 886.5,-153.26"/>
</g>
<!-- d4970703&#45;1d19&#45;41d3&#45;9954&#45;c0db0020bca4 -->
<g id="node33" class="node">
<title>d4970703&#45;1d19&#45;41d3&#45;9954&#45;c0db0020bca4</title>
<polygon fill="none" stroke="black" points="956,-142 920,-142 920,-106 956,-106 956,-142"/>
<text text-anchor="middle" x="938" y="-115.5" font-family="Arial Unicode MS" font-size="10.00">do </text>
</g>
<!-- 15ec2df9&#45;f6ab&#45;44ab&#45;be64&#45;ad7b54a45473&#45;&gt;d4970703&#45;1d19&#45;41d3&#45;9954&#45;c0db0020bca4 -->
<g id="edge32" class="edge">
<title>15ec2df9&#45;f6ab&#45;44ab&#45;be64&#45;ad7b54a45473&#45;&gt;d4970703&#45;1d19&#45;41d3&#45;9954&#45;c0db0020bca4</title>
<path fill="none" stroke="black" d="M896.03,-240.98C905.97,-213.51 919.44,-176.3 928.41,-151.51"/>
<polygon fill="black" stroke="black" points="931.72,-152.63 931.84,-142.04 925.14,-150.25 931.72,-152.63"/>
</g>
<!-- df790eae&#45;ecc2&#45;4640&#45;8c22&#45;9bb557f3478d -->
<g id="node36" class="node">
<title>df790eae&#45;ecc2&#45;4640&#45;8c22&#45;9bb557f3478d</title>
<polygon fill="none" stroke="black" points="565,-444.5 527,-444.5 527,-406.5 565,-406.5 565,-444.5"/>
<text text-anchor="middle" x="546" y="-417" font-family="Arial Unicode MS" font-size="10.00">end </text>
</g>
<!-- 1a8e4021&#45;36e9&#45;4362&#45;a6b4&#45;d496bb415826&#45;&gt;df790eae&#45;ecc2&#45;4640&#45;8c22&#45;9bb557f3478d -->
<g id="edge35" class="edge">
<title>1a8e4021&#45;36e9&#45;4362&#45;a6b4&#45;d496bb415826&#45;&gt;df790eae&#45;ecc2&#45;4640&#45;8c22&#45;9bb557f3478d</title>
<path fill="none" stroke="black" d="M566.95,-506.92C562.33,-489.16 557.29,-469.82 553.31,-454.56"/>
<polygon fill="black" stroke="black" points="556.65,-453.51 550.75,-444.71 549.88,-455.27 556.65,-453.51"/>
</g>
<!-- f3f84bbf&#45;2771&#45;4c13&#45;a7d0&#45;6bab66b19e1d -->
<g id="node37" class="node">
<title>f3f84bbf&#45;2771&#45;4c13&#45;a7d0&#45;6bab66b19e1d</title>
<polygon fill="none" stroke="black" points="644.5,-456 583.5,-456 583.5,-395 644.5,-395 644.5,-456"/>
<text text-anchor="middle" x="614" y="-417" font-family="Arial Unicode MS" font-size="10.00">program </text>
</g>
<!-- 1a8e4021&#45;36e9&#45;4362&#45;a6b4&#45;d496bb415826&#45;&gt;f3f84bbf&#45;2771&#45;4c13&#45;a7d0&#45;6bab66b19e1d -->
<g id="edge36" class="edge">
<title>1a8e4021&#45;36e9&#45;4362&#45;a6b4&#45;d496bb415826&#45;&gt;f3f84bbf&#45;2771&#45;4c13&#45;a7d0&#45;6bab66b19e1d</title>
<path fill="none" stroke="black" d="M593.05,-506.92C596.56,-493.42 600.32,-479 603.67,-466.16"/>
<polygon fill="black" stroke="black" points="607.12,-466.8 606.25,-456.25 600.34,-465.04 607.12,-466.8"/>
</g>
<!-- 22a981c6&#45;eb7b&#45;46e2&#45;93f8&#45;72f91d645a77 -->
<g id="node38" class="node">
<title>22a981c6&#45;eb7b&#45;46e2&#45;93f8&#45;72f91d645a77</title>
<polygon fill="none" stroke="black" points="703.5,-446 662.5,-446 662.5,-405 703.5,-405 703.5,-446"/>
<text text-anchor="middle" x="683" y="-417" font-family="Arial Unicode MS" font-size="10.00">loop </text>
</g>
<!-- 1a8e4021&#45;36e9&#45;4362&#45;a6b4&#45;d496bb415826&#45;&gt;22a981c6&#45;eb7b&#45;46e2&#45;93f8&#45;72f91d645a77 -->
<g id="edge37" class="edge">
<title>1a8e4021&#45;36e9&#45;4362&#45;a6b4&#45;d496bb415826&#45;&gt;22a981c6&#45;eb7b&#45;46e2&#45;93f8&#45;72f91d645a77</title>
<path fill="none" stroke="black" d="M624.98,-506.99C634.84,-495.41 645.01,-482.97 654,-471 657.85,-465.87 661.75,-460.24 665.39,-454.77"/>
<polygon fill="black" stroke="black" points="668.33,-456.67 670.84,-446.38 662.46,-452.85 668.33,-456.67"/>
</g>
</g>
</svg>
